<?xml version="1.0" encoding="UTF-8" standalone="no"?>
<!-- Created with Inkscape (http://www.inkscape.org/) -->

<svg
   xmlns:dc="http://purl.org/dc/elements/1.1/"
   xmlns:cc="http://creativecommons.org/ns#"
   xmlns:rdf="http://www.w3.org/1999/02/22-rdf-syntax-ns#"
   xmlns:svg="http://www.w3.org/2000/svg"
   xmlns="http://www.w3.org/2000/svg"
   xmlns:sodipodi="http://sodipodi.sourceforge.net/DTD/sodipodi-0.dtd"
   xmlns:inkscape="http://www.inkscape.org/namespaces/inkscape"
   width="160"
   height="160"
   viewBox="0 0 160 160"
   id="svg5696"
   version="1.1"
   inkscape:version="0.91 r13725"
   sodipodi:docname="dance__finish_pose.svg"
   inkscape:export-filename="C:\workdir\dir\ScenographyAssets\dance\dance__finish_pose.png"
   inkscape:export-xdpi="288"
   inkscape:export-ydpi="288">
  <defs
     id="defs5698" />
  <sodipodi:namedview
     id="base"
     pagecolor="#ffffff"
     bordercolor="#666666"
     borderopacity="1.0"
     inkscape:pageopacity="0.0"
     inkscape:pageshadow="2"
     inkscape:zoom="1.4937631"
     inkscape:cx="-108.00036"
     inkscape:cy="18.500966"
     inkscape:document-units="px"
     inkscape:current-layer="layer1"
     showgrid="false"
     units="px"
     inkscape:window-width="1600"
     inkscape:window-height="1177"
     inkscape:window-x="-8"
     inkscape:window-y="-8"
     inkscape:window-maximized="1" />
  <metadata
     id="metadata5701">
    <rdf:RDF>
      <cc:Work
         rdf:about="">
        <dc:format>image/svg+xml</dc:format>
        <dc:type
           rdf:resource="http://purl.org/dc/dcmitype/StillImage" />
        <dc:title></dc:title>
      </cc:Work>
    </rdf:RDF>
  </metadata>
  <g
     inkscape:label="レイヤー 1"
     inkscape:groupmode="layer"
     id="layer1"
     transform="translate(0,-892.36216)">
    <g
       id="g4333"
       transform="matrix(0.99412904,0,0,0.99394962,19.437697,99.37113)">
      <g
         id="g4467"
         style="display:inline"
         transform="translate(-33.214302,781.54823)">
        <path
           style="fill:none;fill-rule:evenodd;stroke:#000000;stroke-width:1.00599635px;stroke-linecap:butt;stroke-linejoin:miter;stroke-opacity:1"
           d="m 91.380837,55.192406 c -3.983195,0.112689 -10.595434,0.820167 -12.399759,2.6956 -1.804325,1.875433 -2.40149,5.617907 -2.49343,8.42375 -0.09194,2.805843 0.09058,6.353714 1.41519,7.817239 1.324608,1.463525 6.08239,2.800534 12.804099,2.83038 6.721709,0.02985 10.362623,-0.244667 11.860643,-2.29126 1.49802,-2.046593 2.37403,-4.712709 2.76299,-7.817239 0.38896,-3.10453 -0.38865,-7.51519 -3.09994,-9.70416 -2.711292,-2.18897 -6.866598,-2.066999 -10.849793,-1.95431 z"
           id="path4147"
           inkscape:connector-curvature="0"
           sodipodi:nodetypes="zzzzzzzzz" />
        <ellipse
           style="fill:none;fill-opacity:1;stroke:#000000;stroke-width:1.00599635;stroke-linecap:round;stroke-linejoin:round;stroke-miterlimit:4;stroke-dasharray:none;stroke-opacity:1"
           id="path4151"
           cx="83.367035"
           cy="66.872765"
           rx="2.4064221"
           ry="2.4779" />
        <ellipse
           style="fill:none;fill-opacity:1;stroke:#000000;stroke-width:1.00599635;stroke-linecap:round;stroke-linejoin:round;stroke-miterlimit:4;stroke-dasharray:none;stroke-opacity:1"
           id="path4151-3"
           cx="97.448181"
           cy="66.920403"
           rx="2.4064221"
           ry="2.4779" />
        <path
           style="fill:none;fill-rule:evenodd;stroke:#000000;stroke-width:1.00599635px;stroke-linecap:round;stroke-linejoin:miter;stroke-opacity:1"
           d="m 48.183848,91.650395 21.83436,-14.28668"
           id="path4168"
           inkscape:connector-curvature="0" />
        <path
           style="fill:none;fill-rule:evenodd;stroke:#000000;stroke-width:1.00599635px;stroke-linecap:round;stroke-linejoin:miter;stroke-opacity:1"
           d="m 56.472818,97.243765 10.51284,-10.37806"
           id="path4170"
           inkscape:connector-curvature="0" />
        <path
           style="fill:none;fill-rule:evenodd;stroke:#000000;stroke-width:1.00599635px;stroke-linecap:round;stroke-linejoin:miter;stroke-opacity:1"
           d="m 77.161548,73.455095 c 0,0 -3.960696,0.30377 -6.0651,2.716741 -2.104404,2.412971 -4.032165,8.867389 -4.78469,14.535099 -0.752525,5.66771 0,15.769255 0,15.769255"
           id="path4172"
           inkscape:connector-curvature="0"
           sodipodi:nodetypes="czzc" />
        <path
           style="fill:none;fill-rule:evenodd;stroke:#000000;stroke-width:1.00599635px;stroke-linecap:butt;stroke-linejoin:miter;stroke-opacity:1"
           d="m 41.647782,107.37689 c -1.27104,-2.66291 0.946521,-12.987923 3.287983,-14.676792 2.341462,-1.688869 5.043612,-0.990287 6.814225,-0.190608 1.770613,0.799679 5.451686,5.420782 6.385357,6.671269 0.933672,1.250491 1.26138,2.438711 2.477901,3.859801 1.216521,1.42109 6.845734,3.22702 7.719612,5.95649 0.873878,2.72947 0.430301,5.47239 -2.334945,6.38536 -2.765246,0.91297 -9.32287,-0.73153 -13.342538,-2.14433 -4.019668,-1.4128 -9.736555,-3.19828 -11.007595,-5.86119 z"
           id="path4174"
           inkscape:connector-curvature="0"
           sodipodi:nodetypes="zzzzzzzzz" />
        <path
           style="fill:none;fill-rule:evenodd;stroke:#000000;stroke-width:1.00599635px;stroke-linecap:round;stroke-linejoin:miter;stroke-opacity:1"
           d="m 67.524778,114.76516 c 0,0 0.46626,1.71501 3.63906,3.50428 3.1728,1.78927 9.665738,2.63057 16.443159,2.35865 6.777421,-0.27192 16.216113,0.0505 21.295243,-4.85208 5.07913,-4.90254 5.16705,-12.83873 5.3912,-19.745265 0.22415,-6.906532 -0.53431,-17.907438 -3.77384,-20.28439 -3.23953,-2.376952 -6.80639,-2.42604 -6.80639,-2.42604"
           id="path4176"
           inkscape:connector-curvature="0"
           sodipodi:nodetypes="czzzzzc" />
        <path
           style="fill:none;fill-rule:evenodd;stroke:#000000;stroke-width:1.00599635px;stroke-linecap:butt;stroke-linejoin:miter;stroke-opacity:1"
           d="m 112.60869,78.778905 15.83665,-7.210729"
           id="path4178"
           inkscape:connector-curvature="0" />
        <path
           style="fill:none;fill-rule:evenodd;stroke:#000000;stroke-width:1.00599635px;stroke-linecap:butt;stroke-linejoin:miter;stroke-opacity:1"
           d="m 114.29344,90.302595 16.64533,-13.14105"
           id="path4180"
           inkscape:connector-curvature="0" />
        <path
           style="fill:none;fill-rule:evenodd;stroke:#000000;stroke-width:1.00599635px;stroke-linecap:butt;stroke-linejoin:miter;stroke-opacity:1"
           d="m 132.15179,77.498495 c -4.67361,-0.958387 -4.52516,-10.442064 -2.76299,-17.723569 1.76217,-7.281505 11.87216,-25.114082 15.90404,-21.834359 4.03188,3.279723 -0.4057,9.685787 -0.13478,13.073659 0.27092,3.387872 1.45877,3.927934 1.28041,7.00856 -0.17836,3.080626 -1.2506,6.866536 -3.43689,11.25413 -2.18629,4.387594 -6.17618,9.179966 -10.84979,8.221579 z"
           id="path4182"
           inkscape:connector-curvature="0"
           sodipodi:nodetypes="zzzzzzz" />
        <path
           style="fill:none;fill-rule:evenodd;stroke:#000000;stroke-width:1.00599635px;stroke-linecap:round;stroke-linejoin:round;stroke-opacity:1"
           d="m 72.907444,119.43283 c 0,0 -7.06337,4.5236 -9.9116,13.91436 -2.84823,9.39076 2.001381,17.05939 2.001381,17.05939 l -0.476519,6.00414 5.051104,1.23895 9.720992,-6.67127 -0.190607,-2.19199 c 0,0 -5.407873,-5.57337 -2.859116,-14.39088 2.548757,-8.81751 8.196131,-13.53314 8.196131,-13.53314"
           id="path4184"
           inkscape:connector-curvature="0"
           sodipodi:nodetypes="czccccczc" />
        <path
           style="fill:none;fill-rule:evenodd;stroke:#000000;stroke-width:1.00599635px;stroke-linecap:round;stroke-linejoin:miter;stroke-opacity:1"
           d="m 92.930807,120.62809 c 0,0 -6.861873,5.78532 -7.876454,16.82157 -1.014582,11.03625 3.563494,19.23208 3.563494,19.23208 l 6.13249,0.6739 7.345513,-5.05425 -0.53912,-3.30211 c 0,0 -4.693425,-6.29144 -3.167333,-15.97143 1.526092,-9.67999 6.536833,-14.28668 6.536833,-14.28668"
           id="path4186"
           inkscape:connector-curvature="0"
           sodipodi:nodetypes="czcccczc" />
        <path
           style="fill:none;fill-rule:evenodd;stroke:#000000;stroke-width:1.00599635px;stroke-linecap:round;stroke-linejoin:miter;stroke-opacity:1"
           d="m 77.363718,145.69717 c 0,0 1.979712,0.003 4.110789,0.23587 2.131077,0.23329 3.807535,0.74129 3.807535,0.74129"
           id="path4188"
           inkscape:connector-curvature="0"
           sodipodi:nodetypes="czc" />
        <path
           style="fill:none;fill-rule:evenodd;stroke:#000000;stroke-width:1.00599635px;stroke-linecap:butt;stroke-linejoin:miter;stroke-opacity:1"
           d="m 64.61601,151.26431 c 0,0 -11.819318,8.55411 -11.198203,10.95995 0.621115,2.40584 12.319854,3.29888 15.820439,3.14502 3.500585,-0.15386 16.964085,-14.20027 16.964085,-14.20027"
           id="path4190"
           inkscape:connector-curvature="0"
           sodipodi:nodetypes="czzc" />
        <path
           style="fill:none;fill-rule:evenodd;stroke:#000000;stroke-width:1.00599635px;stroke-linecap:round;stroke-linejoin:miter;stroke-opacity:1"
           d="m 87.168962,153.95245 c 0,0 -9.870708,8.58299 -8.962869,10.98457 0.907839,2.40158 11.407151,2.95385 14.387764,2.45973 2.980613,-0.49412 20.258483,-17.22639 18.667033,-19.5431 -1.59145,-2.31671 -11.05196,-1.65105 -11.05196,-1.65105"
           id="path4192"
           inkscape:connector-curvature="0"
           sodipodi:nodetypes="czzzc" />
        <path
           style="fill:none;fill-rule:evenodd;stroke:#000000;stroke-width:1.00599635px;stroke-linecap:round;stroke-linejoin:round;stroke-opacity:1"
           d="m 119.01074,25.945147 c 0,0 0.22349,6.360797 -1.01085,8.28897 -1.23434,1.928173 -4.58252,2.83038 -4.58252,2.83038 0,0 3.8353,-0.289917 5.3912,1.21302 1.5559,1.502937 1.88692,7.210729 1.88692,7.210729 0,0 0.28835,-6.156452 1.61736,-8.086799 1.32901,-1.930347 5.11008,-2.480465 5.11008,-2.480465 0,0 -4.38786,-0.06002 -6.12093,-1.562935 -1.73307,-1.502918 -2.29126,-7.4129 -2.29126,-7.4129 z"
           id="path4194"
           inkscape:connector-curvature="0"
           sodipodi:nodetypes="czczczczc" />
      </g>
    </g>
  </g>
</svg>
