<?xml version="1.0" encoding="UTF-8" standalone="no"?>
<!-- Created with Inkscape (http://www.inkscape.org/) -->

<svg
   xmlns:dc="http://purl.org/dc/elements/1.1/"
   xmlns:cc="http://creativecommons.org/ns#"
   xmlns:rdf="http://www.w3.org/1999/02/22-rdf-syntax-ns#"
   xmlns:svg="http://www.w3.org/2000/svg"
   xmlns="http://www.w3.org/2000/svg"
   xmlns:sodipodi="http://sodipodi.sourceforge.net/DTD/sodipodi-0.dtd"
   xmlns:inkscape="http://www.inkscape.org/namespaces/inkscape"
   width="160"
   height="160"
   viewBox="0 0 160 160"
   id="svg5696"
   version="1.1"
   inkscape:version="0.91 r13725"
   sodipodi:docname="dance__twist.svg"
   inkscape:export-filename="C:\workdir\dir\ScenographyAssets\dance\dance__twist.png"
   inkscape:export-xdpi="288"
   inkscape:export-ydpi="288">
  <defs
     id="defs5698" />
  <sodipodi:namedview
     id="base"
     pagecolor="#ffffff"
     bordercolor="#666666"
     borderopacity="1.0"
     inkscape:pageopacity="0.0"
     inkscape:pageshadow="2"
     inkscape:zoom="2.9875261"
     inkscape:cx="53.540244"
     inkscape:cy="42.445082"
     inkscape:document-units="px"
     inkscape:current-layer="layer1"
     showgrid="false"
     units="px"
     inkscape:window-width="1600"
     inkscape:window-height="1177"
     inkscape:window-x="-8"
     inkscape:window-y="-8"
     inkscape:window-maximized="1" />
  <metadata
     id="metadata5701">
    <rdf:RDF>
      <cc:Work
         rdf:about="">
        <dc:format>image/svg+xml</dc:format>
        <dc:type
           rdf:resource="http://purl.org/dc/dcmitype/StillImage" />
        <dc:title></dc:title>
      </cc:Work>
    </rdf:RDF>
  </metadata>
  <g
     inkscape:label="レイヤー 1"
     inkscape:groupmode="layer"
     id="layer1"
     transform="translate(0,-892.36216)">
    <g
       id="g4217"
       transform="matrix(1.1224237,0,0,1.1224256,11.621981,-108.52292)">
      <g
         id="g4706"
         style="display:inline"
         transform="translate(-21.286389,676.79479)">
        <path
           style="fill:none;fill-rule:evenodd;stroke:#000000;stroke-width:0.89092839px;stroke-linecap:round;stroke-linejoin:round;stroke-opacity:1"
           d="m 54.990322,247.23528 c 0.364058,-1.65938 3.123195,-5.03268 5.527623,-4.76519 2.404428,0.26749 7.881841,2.50214 11.341158,4.95579 3.459317,2.45366 8.660091,6.98784 8.482043,9.8163 -0.178049,2.82846 -6.028092,7.69456 -7.624308,7.81492 -1.596216,0.12036 -11.332836,-5.70624 -12.580109,-6.67127 -1.247272,-0.96504 -5.510466,-9.49117 -5.146407,-11.15055 z"
           id="path4185"
           inkscape:connector-curvature="0"
           sodipodi:nodetypes="zzzzzzz" />
        <path
           style="fill:none;fill-rule:evenodd;stroke:#000000;stroke-width:0.89092839px;stroke-linecap:round;stroke-linejoin:miter;stroke-opacity:1"
           d="m 74.533338,264.30356 c 0,0 2.861426,0.75378 5.52598,2.08909 2.664554,1.33531 5.59337,2.6956 5.59337,2.6956"
           id="path4187"
           inkscape:connector-curvature="0"
           sodipodi:nodetypes="czc" />
        <path
           style="fill:none;fill-rule:evenodd;stroke:#000000;stroke-width:0.89092839px;stroke-linecap:round;stroke-linejoin:miter;stroke-opacity:1"
           d="m 80.261488,257.63195 c 0,0 3.386303,0.55185 5.59337,1.3478 2.207067,0.79595 5.59337,2.22387 5.59337,2.22387"
           id="path4189"
           inkscape:connector-curvature="0"
           sodipodi:nodetypes="czc" />
        <path
           style="fill:none;fill-rule:evenodd;stroke:#000000;stroke-width:0.89092839px;stroke-linecap:round;stroke-linejoin:miter;stroke-opacity:1"
           d="m 61.796629,254.53201 c 0,0 -1.029357,3.90551 -0.47173,8.22158 0.557627,4.31607 1.75214,7.81724 1.75214,7.81724"
           id="path4191"
           inkscape:connector-curvature="0"
           sodipodi:nodetypes="czc" />
        <path
           style="fill:none;fill-rule:evenodd;stroke:#000000;stroke-width:0.89092839px;stroke-linecap:round;stroke-linejoin:miter;stroke-opacity:1"
           d="m 64.694399,260.05799 c 0,0 -0.109967,8.03117 1.61736,14.21929 1.727327,6.18812 5.45859,13.34322 5.45859,13.34322"
           id="path4193"
           inkscape:connector-curvature="0"
           sodipodi:nodetypes="czc" />
        <path
           style="fill:none;fill-rule:evenodd;stroke:#000000;stroke-width:0.89092839px;stroke-linecap:round;stroke-linejoin:miter;stroke-opacity:1"
           d="m 77.431108,294.42689 c 0,0 0.747952,3.8016 1.3478,5.59337 0.599848,1.79177 2.22387,5.12164 2.22387,5.12164"
           id="path4195"
           inkscape:connector-curvature="0"
           sodipodi:nodetypes="czc" />
        <path
           style="fill:none;fill-rule:evenodd;stroke:#000000;stroke-width:0.89092839px;stroke-linecap:round;stroke-linejoin:miter;stroke-opacity:1"
           d="m 78.576738,279.06197 c 0,0 -0.03352,4.89396 0.94346,10.7824 0.976981,5.88844 2.83038,9.90633 2.83038,9.90633"
           id="path4197"
           inkscape:connector-curvature="0"
           sodipodi:nodetypes="czc" />
        <path
           style="fill:none;fill-rule:evenodd;stroke:#000000;stroke-width:0.89092839px;stroke-linecap:round;stroke-linejoin:miter;stroke-opacity:1"
           d="m 92.661248,260.73189 c 0,0 -3.706917,1.20709 -7.21073,8.55853 -3.503813,7.35144 -1.61736,21.96914 -1.61736,21.96914"
           id="path4199"
           inkscape:connector-curvature="0"
           sodipodi:nodetypes="czc" />
        <ellipse
           style="fill:none;fill-opacity:1;stroke:#000000;stroke-width:0.89092839;stroke-linecap:round;stroke-linejoin:round;stroke-miterlimit:4;stroke-dasharray:none;stroke-opacity:1"
           id="path4201"
           cx="93.493073"
           cy="253.54916"
           rx="1.8107731"
           ry="1.929903" />
        <ellipse
           style="fill:none;fill-opacity:1;stroke:#000000;stroke-width:0.89092839;stroke-linecap:round;stroke-linejoin:round;stroke-miterlimit:4;stroke-dasharray:none;stroke-opacity:1"
           id="path4203"
           cx="105.85876"
           cy="254.5975"
           rx="2.3111181"
           ry="2.3111184" />
        <path
           style="fill:none;fill-rule:evenodd;stroke:#000000;stroke-width:0.89092839px;stroke-linecap:butt;stroke-linejoin:miter;stroke-opacity:1"
           d="m 91.205785,252.95351 c 0.07588,-1.956 0.958148,-5.40141 3.526242,-7.62431 2.568093,-2.22291 7.347693,-3.23986 11.341153,-3.24033 3.99346,-4.7e-4 9.5963,0.91736 11.62707,3.09738 2.03077,2.18002 2.21711,5.51092 2.23965,8.52969 0.0225,3.01877 -2.10412,6.60124 -5.00346,8.5297 -2.89933,1.92846 -6.9858,1.9153 -10.76933,1.85842 -3.78353,-0.0569 -9.016384,-0.84614 -11.341161,-4.05042 -2.324776,-3.20428 -1.696047,-5.14413 -1.620164,-7.10013 z"
           id="path4205"
           inkscape:connector-curvature="0"
           sodipodi:nodetypes="zzzzzzzzz" />
        <path
           style="fill:none;fill-rule:evenodd;stroke:#000000;stroke-width:0.89092839px;stroke-linecap:round;stroke-linejoin:miter;stroke-opacity:1"
           d="m 96.733408,283.5937 c 0,0 6.054162,-4.87974 8.767952,-7.24309 2.71379,-2.36335 6.40069,-6.35624 7.57666,-6.71892 1.17598,-0.36269 4.00971,-1.12591 5.00345,-0.23831 0.99374,0.8876 1.81584,6.481 1.2866,7.91022 -0.52923,1.42922 -4.41599,5.44054 -6.90953,7.86257 -2.49354,2.42203 -8.10082,7.05249 -8.10082,7.05249"
           id="path4207"
           inkscape:connector-curvature="0"
           sodipodi:nodetypes="czzzzzc" />
        <path
           style="fill:none;fill-rule:evenodd;stroke:#000000;stroke-width:0.89092839px;stroke-linecap:butt;stroke-linejoin:miter;stroke-opacity:1"
           d="m 75.813748,310.12876 c -3.998437,-6.23496 3.924101,-10.81913 5.79554,-13.68017 1.871439,-2.86104 0.941657,-2.94165 2.22387,-4.85208 1.282213,-1.91043 3.512225,-4.12817 6.739,-5.86293 3.226775,-1.73476 8.941652,-3.27976 10.984572,-1.28041 2.04292,1.99935 3.11716,8.61033 2.6956,10.58023 -0.42156,1.9699 -7.703507,7.4617 -11.793252,11.59108 -4.089745,4.12938 -12.646893,9.73924 -16.64533,3.50428 z"
           id="path4209"
           inkscape:connector-curvature="0"
           sodipodi:nodetypes="zzzzzzzz" />
        <path
           style="fill:none;fill-rule:evenodd;stroke:#000000;stroke-width:0.89092839px;stroke-linecap:round;stroke-linejoin:miter;stroke-opacity:1"
           d="m 95.017938,304.6082 c 0,0 13.656562,4.82314 20.680932,2.95442 7.02437,-1.86872 13.05188,-6.56203 16.20165,-13.34254 3.14977,-6.78051 1.37395,-18.1912 0.0953,-24.11188 -1.27864,-5.92068 -2.99429,-9.05109 -5.43231,-11.34115 -2.43802,-2.29007 -6.76658,-2.76382 -6.76658,-2.76382"
           id="path4211"
           inkscape:connector-curvature="0"
           sodipodi:nodetypes="czzzzc" />
        <path
           style="fill:none;fill-rule:evenodd;stroke:#000000;stroke-width:0.89092839px;stroke-linecap:round;stroke-linejoin:miter;stroke-opacity:1"
           d="m 81.272338,322.73069 c 0,0 -0.20217,1.3478 0.06739,2.62821 0.26956,1.28041 0.87607,2.6956 0.87607,2.6956"
           id="path4213"
           inkscape:connector-curvature="0" />
        <path
           style="fill:none;fill-rule:evenodd;stroke:#000000;stroke-width:0.89092839px;stroke-linecap:round;stroke-linejoin:miter;stroke-opacity:1"
           d="m 83.024478,321.45028 c 0,0 -0.13478,0.94346 0.06739,2.42604 0.20217,1.48258 0.6739,2.29126 0.6739,2.29126"
           id="path4215"
           inkscape:connector-curvature="0" />
        <path
           style="fill:none;fill-rule:evenodd;stroke:#000000;stroke-width:0.89092839px;stroke-linecap:round;stroke-linejoin:miter;stroke-opacity:1"
           d="m 127.09754,313.09392 c 0,0 -0.60651,1.14563 -0.60651,2.56082 0,1.41519 0.40434,2.22387 0.40434,2.22387"
           id="path4217"
           inkscape:connector-curvature="0" />
        <path
           style="fill:none;fill-rule:evenodd;stroke:#000000;stroke-width:0.89092839px;stroke-linecap:round;stroke-linejoin:miter;stroke-opacity:1"
           d="m 128.84968,314.37433 c 0,0 -0.26956,1.41519 -0.26956,2.76299 0,1.3478 0.60651,2.6956 0.60651,2.6956"
           id="path4219"
           inkscape:connector-curvature="0" />
        <path
           style="fill:none;fill-rule:evenodd;stroke:#000000;stroke-width:0.89092839px;stroke-linecap:round;stroke-linejoin:round;stroke-opacity:1"
           d="m 92.391688,306.89404 c 0,0 -4.13941,7.44448 -3.3695,15.16275 0.76991,7.71827 6.87378,14.89319 6.87378,14.89319 l -1.68475,2.0217 5.66076,0.94346 7.749852,-5.32381"
           id="path4221"
           inkscape:connector-curvature="0"
           sodipodi:nodetypes="czcccc" />
        <path
           style="fill:none;fill-rule:evenodd;stroke:#000000;stroke-width:0.89092839px;stroke-linecap:round;stroke-linejoin:round;stroke-opacity:1"
           d="m 107.1501,307.97228 c 0,0 -4.853,5.72328 -3.77384,14.69102 1.07916,8.96774 7.10965,14.8595 7.10965,14.8595 l -0.16848,5.42489 5.99771,1.14563 7.00856,-5.05425 -0.0674,-3.90862 c 0,0 -5.2877,-6.82671 -5.72815,-15.43231 -0.44045,-8.6056 6.46944,-15.70187 6.46944,-15.70187"
           id="path4223"
           inkscape:connector-curvature="0"
           sodipodi:nodetypes="czccccczc" />
        <path
           style="fill:none;fill-rule:evenodd;stroke:#000000;stroke-width:0.89092839px;stroke-linecap:round;stroke-linejoin:round;stroke-opacity:1"
           d="m 109.8457,337.28693 c 0,0 -12.971731,7.38543 -13.073662,9.03026 -0.101931,1.64483 17.595322,4.31278 19.880052,3.77384 2.28473,-0.53894 15.22697,-9.73196 14.96058,-11.32152 -0.26639,-1.58956 -8.0868,-2.6956 -8.0868,-2.6956"
           id="path4225"
           inkscape:connector-curvature="0"
           sodipodi:nodetypes="czzzc" />
        <path
           style="fill:none;fill-rule:evenodd;stroke:#000000;stroke-width:0.89092839px;stroke-linecap:round;stroke-linejoin:miter;stroke-opacity:1"
           d="m 94.211218,335.19784 c 0,0 -12.543676,6.44133 -12.261593,8.3761 0.282083,1.93477 11.977604,3.45413 13.272443,3.0802 1.294839,-0.37393 2.739865,-1.67319 2.739865,-1.67319"
           id="path4227"
           inkscape:connector-curvature="0"
           sodipodi:nodetypes="czzc" />
        <path
           style="display:inline;fill:none;fill-rule:evenodd;stroke:#000000;stroke-width:0.89092839px;stroke-linecap:round;stroke-linejoin:round;stroke-opacity:1"
           d="m 140.85233,224.82176 c 0,0 -0.30037,4.42794 -1.3272,5.69024 -1.02684,1.26229 -3.49849,1.68278 -3.49849,1.68278 0,0 2.77736,0.0344 3.78662,1.17289 1.00927,1.13853 0.8335,5.1199 0.8335,5.1199 0,0 0.65341,-4.2547 1.74845,-5.51268 1.09502,-1.25799 3.85226,-1.40756 3.85226,-1.40756 0,0 -3.14911,-0.31108 -4.28571,-1.46052 -1.13659,-1.14941 -1.10943,-5.28505 -1.10943,-5.28505 z"
           id="path4194-8"
           inkscape:connector-curvature="0"
           sodipodi:nodetypes="czczczczc" />
        <path
           style="display:inline;fill:none;fill-rule:evenodd;stroke:#000000;stroke-width:0.89092839px;stroke-linecap:round;stroke-linejoin:round;stroke-opacity:1"
           d="m 44.39607,222.22733 c 0,0 1.172029,4.45908 0.523035,5.99812 -0.648992,1.53903 -3.089591,2.65778 -3.089591,2.65778 0,0 2.912532,-0.7565 4.348767,0.0808 1.436236,0.83735 2.588575,4.81988 2.588575,4.81988 0,0 -0.745142,-4.38843 -0.02347,-5.94262 0.72167,-1.55419 3.55148,-2.48661 3.55148,-2.48661 0,0 -3.393702,0.58893 -4.966586,-0.22292 -1.572879,-0.81184 -2.932207,-4.90446 -2.932207,-4.90446 z"
           id="path4194-6"
           inkscape:connector-curvature="0"
           sodipodi:nodetypes="czczczczc" />
        <path
           style="display:inline;fill:none;fill-rule:evenodd;stroke:#000000;stroke-width:0.89092839px;stroke-linecap:round;stroke-linejoin:round;stroke-opacity:1"
           d="m 22.090127,253.52492 c 0,0 0.156821,3.948 -0.709305,5.14477 -0.866127,1.19677 -3.215517,1.75674 -3.215517,1.75674 0,0 2.691198,-0.17994 3.782961,0.7529 1.091762,0.93284 1.324036,4.47553 1.324036,4.47553 0,0 0.202333,-3.82117 1.134889,-5.01929 0.932554,-1.19811 3.5857,-1.53956 3.5857,-1.53956 0,0 -3.078925,-0.0372 -4.295006,-0.97008 -1.216081,-0.93283 -1.607758,-4.60101 -1.607758,-4.60101 z"
           id="path4194-0"
           inkscape:connector-curvature="0"
           sodipodi:nodetypes="czczczczc" />
        <path
           style="display:inline;fill:none;fill-rule:evenodd;stroke:#000000;stroke-width:0.89092839px;stroke-linecap:round;stroke-linejoin:round;stroke-opacity:1"
           d="m 41.157247,286.84443 c 0,0 0.186929,5.52728 -0.845487,7.20279 -1.032417,1.6755 -3.832873,2.45949 -3.832873,2.45949 0,0 3.207889,-0.25193 4.509262,1.05406 1.301373,1.306 1.578242,6.26585 1.578242,6.26585 0,0 0.24118,-5.34972 1.352779,-7.02712 1.111599,-1.67739 4.274131,-2.15543 4.274131,-2.15543 0,0 -3.670058,-0.0521 -5.119618,-1.35812 -1.44956,-1.30598 -1.916436,-6.44152 -1.916436,-6.44152 z"
           id="path4194-89"
           inkscape:connector-curvature="0"
           sodipodi:nodetypes="czczczczc" />
      </g>
    </g>
  </g>
</svg>
