<?xml version="1.0" encoding="UTF-8" standalone="no"?>
<!-- Created with Inkscape (http://www.inkscape.org/) -->

<svg
   xmlns:dc="http://purl.org/dc/elements/1.1/"
   xmlns:cc="http://creativecommons.org/ns#"
   xmlns:rdf="http://www.w3.org/1999/02/22-rdf-syntax-ns#"
   xmlns:svg="http://www.w3.org/2000/svg"
   xmlns="http://www.w3.org/2000/svg"
   xmlns:sodipodi="http://sodipodi.sourceforge.net/DTD/sodipodi-0.dtd"
   xmlns:inkscape="http://www.inkscape.org/namespaces/inkscape"
   width="160"
   height="160"
   viewBox="0 0 160 160"
   id="svg5696"
   version="1.1"
   inkscape:version="0.91 r13725"
   sodipodi:docname="dance__bstep.svg"
   inkscape:export-filename="C:\workdir\dir\ScenographyAssets\dance\dance__bstep.png"
   inkscape:export-xdpi="288"
   inkscape:export-ydpi="288">
  <defs
     id="defs5698" />
  <sodipodi:namedview
     id="base"
     pagecolor="#ffffff"
     bordercolor="#666666"
     borderopacity="1.0"
     inkscape:pageopacity="0.0"
     inkscape:pageshadow="2"
     inkscape:zoom="2.7577164"
     inkscape:cx="61.346321"
     inkscape:cy="39.201336"
     inkscape:document-units="px"
     inkscape:current-layer="layer1"
     showgrid="false"
     units="px"
     inkscape:window-width="1600"
     inkscape:window-height="1177"
     inkscape:window-x="-8"
     inkscape:window-y="-8"
     inkscape:window-maximized="1" />
  <metadata
     id="metadata5701">
    <rdf:RDF>
      <cc:Work
         rdf:about="">
        <dc:format>image/svg+xml</dc:format>
        <dc:type
           rdf:resource="http://purl.org/dc/dcmitype/StillImage" />
        <dc:title></dc:title>
      </cc:Work>
    </rdf:RDF>
  </metadata>
  <g
     inkscape:label="レイヤー 1"
     inkscape:groupmode="layer"
     id="layer1"
     transform="translate(0,-892.36216)">
    <g
       id="g4205"
       transform="matrix(1.1601134,0,0,1.1598566,-51.406437,-194.96959)">
      <g
         id="g4826"
         style="display:inline"
         transform="translate(-277.71957,722.71601)">
        <circle
           style="fill:none;fill-opacity:1;stroke:#000000;stroke-width:0.8620801;stroke-linecap:round;stroke-linejoin:round;stroke-miterlimit:4;stroke-dasharray:none;stroke-opacity:1"
           id="path4319"
           cx="380.59592"
           cy="247.75945"
           r="1.8107731" />
        <ellipse
           style="fill:none;fill-opacity:1;stroke:#000000;stroke-width:0.8620801;stroke-linecap:round;stroke-linejoin:round;stroke-miterlimit:4;stroke-dasharray:none;stroke-opacity:1"
           id="path4321"
           cx="393.05688"
           cy="248.06918"
           rx="2.4064221"
           ry="2.2634664" />
        <path
           style="fill:none;fill-rule:evenodd;stroke:#000000;stroke-width:0.8620801px;stroke-linecap:butt;stroke-linejoin:miter;stroke-opacity:1"
           d="m 378.46223,255.67764 c -2.55974,-2.51489 -2.63886,-13.00011 1.3478,-15.97143 3.98666,-2.97132 21.4244,-3.04443 24.12562,0.74129 2.70122,3.78572 2.33397,12.48747 0,14.8258 -2.33397,2.33833 -9.03574,3.26718 -13.41061,3.23472 -4.37487,-0.0325 -9.50307,-0.31549 -12.06281,-2.83038 z"
           id="path4323"
           inkscape:connector-curvature="0"
           sodipodi:nodetypes="zzzzzz" />
        <path
           style="fill:none;fill-rule:evenodd;stroke:#000000;stroke-width:0.8620801px;stroke-linecap:round;stroke-linejoin:miter;stroke-opacity:1"
           d="m 379.11872,256.67036 c 0,0 -2.40634,0.17547 -4.8605,1.90608 -2.45416,1.73061 -6.31177,9.7064 -6.19475,19.06077 0.11702,9.35437 0.0929,13.22963 4.28868,17.82182 4.19581,4.59219 10.99898,5.38176 17.91712,5.33701 6.91814,-0.0448 15.61244,-0.3675 21.06215,-6.67127 5.44971,-6.30377 2.47789,-22.01518 2.47789,-22.01518"
           id="path4325"
           inkscape:connector-curvature="0"
           sodipodi:nodetypes="czzzzzc" />
        <path
           style="fill:none;fill-rule:evenodd;stroke:#000000;stroke-width:0.8620801px;stroke-linecap:round;stroke-linejoin:miter;stroke-opacity:1"
           d="m 404.27893,255.2408 c 0,0 2.49621,0.69701 4.38398,2.57321 1.88777,1.8762 2.23964,3.00207 2.23964,3.00207"
           id="path4327"
           inkscape:connector-curvature="0"
           sodipodi:nodetypes="czc" />
        <path
           style="fill:none;fill-rule:evenodd;stroke:#000000;stroke-width:0.8620801px;stroke-linecap:round;stroke-linejoin:miter;stroke-opacity:1"
           d="m 355.95397,272.7947 12.39976,-2.35865"
           id="path4329"
           inkscape:connector-curvature="0" />
        <path
           style="fill:none;fill-rule:evenodd;stroke:#000000;stroke-width:0.8620801px;stroke-linecap:round;stroke-linejoin:miter;stroke-opacity:1"
           d="m 352.44969,266.25787 c 0,0 4.64991,-2.15648 8.96287,-3.43689 4.31296,-1.28041 11.11935,-2.76299 11.11935,-2.76299"
           id="path4331"
           inkscape:connector-curvature="0"
           sodipodi:nodetypes="czc" />
        <path
           style="display:inline;fill:none;fill-rule:evenodd;stroke:#000000;stroke-width:0.8620801px;stroke-linecap:butt;stroke-linejoin:miter;stroke-opacity:1"
           d="m 349.23692,266.10006 c -5.12093,0.13544 -6.36541,7.9926 -5.69651,17.81364 0.6689,9.82104 3.65191,15.57567 7.35335,14.7811 3.70144,-0.79457 3.54825,-6.62556 3.69174,-9.42294 0.14349,-2.79738 1.27487,-3.28141 1.68896,-5.84285 0.41409,-2.56144 -0.059,-5.33689 -0.52756,-8.7516 -0.46856,-3.41471 -1.38905,-8.71279 -6.50998,-8.57735 z"
           id="path4274-3"
           inkscape:connector-curvature="0"
           sodipodi:nodetypes="zzzzzzz" />
        <path
           style="display:inline;fill:none;fill-rule:evenodd;stroke:#000000;stroke-width:0.8620801px;stroke-linecap:butt;stroke-linejoin:miter;stroke-opacity:1"
           d="m 432.22012,264.96619 c -6.28659,-0.0171 -5.90615,3.80605 -6.60422,8.0868 -0.69807,4.28075 -0.42463,5.71767 -0.33695,8.82809 0.0877,3.11042 1.13096,3.00489 1.68475,5.59337 0.55379,2.58848 -2.90022,13.84569 1.95431,15.43231 4.85453,1.58662 8.41042,-9.23069 10.1085,-14.8258 1.69808,-5.59511 1.90011,-10.6071 1.07824,-14.48885 -0.82187,-3.88175 -1.59804,-8.60878 -7.88463,-8.62592 z"
           id="path4282-9"
           inkscape:connector-curvature="0"
           sodipodi:nodetypes="zzzzzzzz" />
        <path
           style="display:inline;fill:none;fill-rule:evenodd;stroke:#000000;stroke-width:0.8620801px;stroke-linecap:round;stroke-linejoin:round;stroke-opacity:1"
           d="m 431.14067,264.72263 c 0,0 -19.21246,-5.42845 -23.37958,-2.9612 -4.16712,2.46725 -1.87197,8.34049 -1.87197,8.34049 l 19.40135,2.81485"
           id="path4280-6"
           inkscape:connector-curvature="0"
           sodipodi:nodetypes="czcc" />
        <ellipse
           style="display:inline;fill:none;fill-opacity:1;stroke:#000000;stroke-width:0.86230665;stroke-linecap:round;stroke-linejoin:round;stroke-miterlimit:4;stroke-dasharray:none;stroke-opacity:1"
           id="path4230-7"
           cx="340.27612"
           cy="340.72568"
           rx="3.2727375"
           ry="2.6561217"
           transform="matrix(0.96525833,-0.26129746,0.29244343,0.95628283,0,0)" />
        <path
           style="display:inline;fill:none;fill-rule:evenodd;stroke:#000000;stroke-width:0.8620801px;stroke-linecap:round;stroke-linejoin:round;stroke-opacity:1"
           d="m 429.66451,234.45232 c -0.0953,-2.71616 0.4472,-10.16948 0.4472,-10.16948 0,0 0.59815,4.29452 2.98093,5.04165 1.15731,0.36288 3.36691,-0.31581 4.04773,2.2519 0.68082,2.56771 -2.39767,3.07705 -2.39767,3.07705"
           id="path4232-7"
           inkscape:connector-curvature="0"
           sodipodi:nodetypes="ccszc" />
        <ellipse
           style="display:inline;fill:none;fill-opacity:1;stroke:#000000;stroke-width:0.86232215;stroke-linecap:round;stroke-linejoin:round;stroke-miterlimit:4;stroke-dasharray:none;stroke-opacity:1"
           id="path4230-7-7"
           cx="-328.0567"
           cy="-317.88989"
           rx="3.0370479"
           ry="2.4200873"
           transform="matrix(-0.99991089,0.0133495,-0.04684663,-0.99890209,0,0)" />
        <path
           style="display:inline;fill:none;fill-rule:evenodd;stroke:#000000;stroke-width:0.8620801px;stroke-linecap:round;stroke-linejoin:round;stroke-opacity:1"
           d="m 339.97831,314.61707 c -1.44808,2.29993 -5.46804,10.63269 -5.46804,10.63269 0,0 1.26117,-3.14186 3.69651,-2.58959 1.18283,0.26823 1.53854,2.57241 3.4181,0.69521 1.87957,-1.87719 0.95722,-3.12407 0.95722,-3.12407"
           id="path4232-7-4"
           inkscape:connector-curvature="0"
           sodipodi:nodetypes="ccszc" />
        <path
           style="display:inline;fill:none;fill-rule:evenodd;stroke:#000000;stroke-width:0.8620801px;stroke-linecap:butt;stroke-linejoin:round;stroke-opacity:1"
           d="m 409.6145,324.94438 3.83668,-2.33156 5.23272,2.86788 2.07438,-10.43916 -15.80491,3.42416 3.82512,1.61678 -4.68286,2.01236 z"
           id="path4309-0"
           inkscape:connector-curvature="0"
           sodipodi:nodetypes="cccccccc" />
        <path
           style="fill:none;fill-rule:evenodd;stroke:#000000;stroke-width:0.8620801px;stroke-linecap:round;stroke-linejoin:round;stroke-opacity:1"
           d="m 375.49707,298.26812 -8.62592,7.95202 12.53454,10.98457"
           id="path4429"
           inkscape:connector-curvature="0"
           sodipodi:nodetypes="ccc" />
        <path
           style="fill:none;fill-rule:evenodd;stroke:#000000;stroke-width:0.8620801px;stroke-linecap:round;stroke-linejoin:round;stroke-opacity:1"
           d="m 391.67067,301.03111 -19.88005,26.956 0.26956,6.40205 4.98686,1.54997 9.77155,-4.0434 20.55395,-34.30151"
           id="path4431"
           inkscape:connector-curvature="0" />
        <path
           style="fill:none;fill-rule:evenodd;stroke:#000000;stroke-width:0.8620801px;stroke-linecap:round;stroke-linejoin:miter;stroke-opacity:1"
           d="m 400.76832,309.32008 c 0,0 0.84936,-0.10829 1.81953,0.80868 0.97017,0.91697 -4.7173,18.39747 -4.7173,18.39747"
           id="path4433"
           inkscape:connector-curvature="0"
           sodipodi:nodetypes="czc" />
        <path
           style="fill:none;fill-rule:evenodd;stroke:#000000;stroke-width:0.8620801px;stroke-linecap:round;stroke-linejoin:miter;stroke-opacity:1"
           d="m 371.72323,331.49139 c 0,0 -13.83369,4.74366 -13.34322,6.94117 0.49047,2.19751 10.44135,5.03181 15.09536,4.7173 4.65401,-0.31451 27.01734,-10.69527 26.07993,-12.73671 -0.93741,-2.04144 -9.4346,-3.3695 -9.4346,-3.3695"
           id="path4435"
           inkscape:connector-curvature="0"
           sodipodi:nodetypes="czzzc" />
        <path
           style="fill:none;fill-rule:evenodd;stroke:#000000;stroke-width:0.8620801px;stroke-linecap:round;stroke-linejoin:miter;stroke-opacity:1"
           d="m 386.7512,307.09621 c 0,0 -2.0217,1.01085 -3.30211,1.07824 -1.28041,0.0674 -2.49343,-0.47173 -2.49343,-0.47173 l 4.24557,1.48258"
           id="path4437"
           inkscape:connector-curvature="0" />
      </g>
    </g>
  </g>
</svg>
