<?xml version="1.0" encoding="UTF-8" standalone="no"?>
<!-- Created with Inkscape (http://www.inkscape.org/) -->

<svg
   xmlns:dc="http://purl.org/dc/elements/1.1/"
   xmlns:cc="http://creativecommons.org/ns#"
   xmlns:rdf="http://www.w3.org/1999/02/22-rdf-syntax-ns#"
   xmlns:svg="http://www.w3.org/2000/svg"
   xmlns="http://www.w3.org/2000/svg"
   xmlns:sodipodi="http://sodipodi.sourceforge.net/DTD/sodipodi-0.dtd"
   xmlns:inkscape="http://www.inkscape.org/namespaces/inkscape"
   width="160"
   height="160"
   viewBox="0 0 160 160"
   id="svg5696"
   version="1.1"
   inkscape:version="0.91 r13725"
   sodipodi:docname="dance__bow.svg"
   inkscape:export-filename="C:\workdir\dir\ScenographyAssets\dance\dance__bow.png"
   inkscape:export-xdpi="288"
   inkscape:export-ydpi="288">
  <defs
     id="defs5698" />
  <sodipodi:namedview
     id="base"
     pagecolor="#ffffff"
     bordercolor="#666666"
     borderopacity="1.0"
     inkscape:pageopacity="0.0"
     inkscape:pageshadow="2"
     inkscape:zoom="1.3788582"
     inkscape:cx="58.73706"
     inkscape:cy="47.882303"
     inkscape:document-units="px"
     inkscape:current-layer="layer1"
     showgrid="false"
     units="px"
     inkscape:window-width="1600"
     inkscape:window-height="1177"
     inkscape:window-x="-8"
     inkscape:window-y="-8"
     inkscape:window-maximized="1" />
  <metadata
     id="metadata5701">
    <rdf:RDF>
      <cc:Work
         rdf:about="">
        <dc:format>image/svg+xml</dc:format>
        <dc:type
           rdf:resource="http://purl.org/dc/dcmitype/StillImage" />
        <dc:title></dc:title>
      </cc:Work>
    </rdf:RDF>
  </metadata>
  <g
     inkscape:label="レイヤー 1"
     inkscape:groupmode="layer"
     id="layer1"
     transform="translate(0,-892.36216)">
    <g
       id="g4185"
       transform="matrix(1.2650539,0,0,1.2625941,76.188915,-252.37859)">
      <g
         id="g4674"
         style="display:inline"
         transform="translate(-387.35418,858.02932)">
        <path
           style="fill:none;fill-rule:evenodd;stroke:#000000;stroke-width:0.79124975px;stroke-linecap:butt;stroke-linejoin:miter;stroke-opacity:1"
           d="m 376.44053,63.953106 c -2.72883,2.386114 -3.47437,6.063748 -3.57167,9.232429 -0.0973,3.168681 0.18649,5.833684 2.6956,8.28897 2.50911,2.455286 6.75628,3.740109 11.52369,3.77384 4.76741,0.03373 10.06302,-1.156738 12.60193,-3.77384 2.53891,-2.617102 2.68647,-5.101215 2.76299,-8.0868 0.0765,-2.985585 -0.36405,-7.21124 -2.15648,-9.636769 -1.79243,-2.425529 -8.25856,-2.62312 -12.33237,-2.56082 -4.07381,0.0623 -8.79486,0.376876 -11.52369,2.76299 z"
           id="path4240"
           inkscape:connector-curvature="0"
           sodipodi:nodetypes="zzzzzzzzz" />
        <path
           style="fill:none;fill-rule:evenodd;stroke:#000000;stroke-width:0.79124975px;stroke-linecap:round;stroke-linejoin:round;stroke-opacity:1"
           d="m 408.18122,96.704645 8.22158,-20.01483 4.0434,2.83038 -3.16733,22.845205"
           id="path4242"
           inkscape:connector-curvature="0" />
        <path
           style="fill:none;fill-rule:evenodd;stroke:#000000;stroke-width:0.79124975px;stroke-linecap:round;stroke-linejoin:miter;stroke-opacity:1"
           d="m 401.577,65.637856 c 0,0 4.48715,-0.40657 9.03026,3.09994 4.54311,3.50651 5.25642,8.558529 5.25642,8.558529"
           id="path4244"
           inkscape:connector-curvature="0"
           sodipodi:nodetypes="czc" />
        <path
           style="fill:none;fill-rule:evenodd;stroke:#000000;stroke-width:0.79124975px;stroke-linecap:round;stroke-linejoin:miter;stroke-opacity:1"
           d="m 362.62558,94.076435 c 0,0 -1.91527,-3.567415 -2.22387,-11.59108 -0.26956,-7.00856 -0.0674,-8.49114 0.6739,-9.50199 0.74129,-1.010849 6.46944,-1.954309 6.46944,-1.954309"
           id="path4246"
           inkscape:connector-curvature="0"
           sodipodi:nodetypes="cssc" />
        <path
           style="fill:none;fill-rule:evenodd;stroke:#000000;stroke-width:0.79124975px;stroke-linecap:round;stroke-linejoin:miter;stroke-opacity:1"
           d="m 374.75578,65.368296 c 0,0 -9.40979,1.20941 -11.32152,19.340929 -1.91173,18.131515 -0.39702,19.955495 4.38035,25.406025 4.77737,5.45053 17.58879,3.90862 17.58879,3.90862"
           id="path4248"
           inkscape:connector-curvature="0"
           sodipodi:nodetypes="czzc" />
        <path
           style="fill:none;fill-rule:evenodd;stroke:#000000;stroke-width:0.79124975px;stroke-linecap:butt;stroke-linejoin:miter;stroke-opacity:1"
           d="m 376.71009,105.80229 c 0.33778,-5.72137 9.15122,-5.20355 11.92803,-6.132485 2.77681,-0.928937 2.41899,-1.699362 5.18903,-2.62821 2.77004,-0.928848 7.96884,-1.205324 12.33237,-0.53912 4.36353,0.666204 9.60188,2.394597 10.37806,4.245565 0.77618,1.85097 0.7999,7.31886 -1.07824,10.31067 -1.87814,2.99181 -12.72334,3.8182 -21.69958,3.63906 -8.97624,-0.17914 -17.38745,-3.17411 -17.04967,-8.89548 z"
           id="path4250"
           inkscape:connector-curvature="0"
           sodipodi:nodetypes="zzzzzzzz" />
        <path
           style="fill:none;fill-rule:evenodd;stroke:#000000;stroke-width:0.79124975px;stroke-linecap:round;stroke-linejoin:round;stroke-opacity:1"
           d="m 370.37543,112.40651 c 0,0 -2.04924,6.76296 1.75214,19.00398 3.80138,12.24102 8.96287,16.10621 8.96287,16.10621 l 0.74129,2.62821 5.66076,0.94346 5.25642,-4.78469"
           id="path4252"
           inkscape:connector-curvature="0"
           sodipodi:nodetypes="czcccc" />
        <path
           style="fill:none;fill-rule:evenodd;stroke:#000000;stroke-width:0.79124975px;stroke-linecap:round;stroke-linejoin:round;stroke-opacity:1"
           d="m 387.96422,114.4956 c 0,0 -1.9404,10.10549 0.74129,20.217 2.68169,10.11151 6.80639,16.91489 6.80639,16.91489 l 4.7173,0.87607 7.54768,-6.0651 c 0,0 -3.41927,-9.24683 -3.57167,-17.5214 -0.1524,-8.27457 3.30211,-14.8258 3.30211,-14.8258"
           id="path4254"
           inkscape:connector-curvature="0"
           sodipodi:nodetypes="czccczc" />
        <path
           style="fill:none;fill-rule:evenodd;stroke:#000000;stroke-width:0.79124975px;stroke-linecap:round;stroke-linejoin:miter;stroke-opacity:1"
           d="m 379.87742,146.77541 c 0,0 -7.88658,5.92593 -8.28897,8.55853 -0.40239,2.6326 10.34961,6.18468 13.61278,3.70645 3.26317,-2.47823 8.7607,-9.63677 8.7607,-9.63677"
           id="path4256"
           inkscape:connector-curvature="0"
           sodipodi:nodetypes="czzc" />
        <path
           style="fill:none;fill-rule:evenodd;stroke:#000000;stroke-width:0.79124975px;stroke-linecap:round;stroke-linejoin:miter;stroke-opacity:1"
           d="m 394.02932,149.47101 c 0,0 -7.7076,8.12531 -7.34551,10.31067 0.36209,2.18536 8.27979,3.61997 12.33237,2.76299 4.05258,-0.85698 17.1766,-15.51696 16.30838,-18.06052 -0.86822,-2.54356 -8.69331,-2.6956 -8.69331,-2.6956"
           id="path4258"
           inkscape:connector-curvature="0"
           sodipodi:nodetypes="czzzc" />
      </g>
    </g>
  </g>
</svg>
