<?xml version="1.0" encoding="UTF-8" standalone="no"?>
<!-- Created with Inkscape (http://www.inkscape.org/) -->

<svg
   xmlns:dc="http://purl.org/dc/elements/1.1/"
   xmlns:cc="http://creativecommons.org/ns#"
   xmlns:rdf="http://www.w3.org/1999/02/22-rdf-syntax-ns#"
   xmlns:svg="http://www.w3.org/2000/svg"
   xmlns="http://www.w3.org/2000/svg"
   xmlns:sodipodi="http://sodipodi.sourceforge.net/DTD/sodipodi-0.dtd"
   xmlns:inkscape="http://www.inkscape.org/namespaces/inkscape"
   width="160"
   height="160"
   viewBox="0 0 160 160"
   id="svg5696"
   version="1.1"
   inkscape:version="0.91 r13725"
   sodipodi:docname="dance__fstep.svg"
   inkscape:export-filename="C:\workdir\dir\ScenographyAssets\dance\dance__fstep.png"
   inkscape:export-xdpi="288"
   inkscape:export-ydpi="288">
  <defs
     id="defs5698" />
  <sodipodi:namedview
     id="base"
     pagecolor="#ffffff"
     bordercolor="#666666"
     borderopacity="1.0"
     inkscape:pageopacity="0.0"
     inkscape:pageshadow="2"
     inkscape:zoom="2.1125"
     inkscape:cx="44.856062"
     inkscape:cy="114.35758"
     inkscape:document-units="px"
     inkscape:current-layer="layer1"
     showgrid="false"
     units="px"
     inkscape:window-width="1600"
     inkscape:window-height="1177"
     inkscape:window-x="-8"
     inkscape:window-y="-8"
     inkscape:window-maximized="1" />
  <metadata
     id="metadata5701">
    <rdf:RDF>
      <cc:Work
         rdf:about="">
        <dc:format>image/svg+xml</dc:format>
        <dc:type
           rdf:resource="http://purl.org/dc/dcmitype/StillImage" />
        <dc:title></dc:title>
      </cc:Work>
    </rdf:RDF>
  </metadata>
  <g
     inkscape:label="レイヤー 1"
     inkscape:groupmode="layer"
     id="layer1"
     transform="translate(0,-892.36216)">
    <g
       id="g4213"
       transform="matrix(1.0878611,0,0,1.087823,48.587188,-61.193289)">
      <g
         id="g4770"
         style="display:inline"
         transform="translate(-196.33489,653.96365)">
        <ellipse
           style="fill:none;fill-opacity:1;stroke:#000000;stroke-width:0.91925108;stroke-linecap:round;stroke-linejoin:round;stroke-miterlimit:4;stroke-dasharray:none;stroke-opacity:1"
           id="path4262"
           cx="208.23889"
           cy="253.00116"
           rx="2.1443365"
           ry="2.2396407" />
        <ellipse
           style="fill:none;fill-opacity:1;stroke:#000000;stroke-width:0.91925108;stroke-linecap:round;stroke-linejoin:round;stroke-miterlimit:4;stroke-dasharray:none;stroke-opacity:1"
           id="path4264"
           cx="222.51067"
           cy="252.33403"
           rx="2.1681626"
           ry="2.1919885" />
        <path
           style="fill:none;fill-rule:evenodd;stroke:#000000;stroke-width:0.91925108px;stroke-linecap:round;stroke-linejoin:round;stroke-opacity:1"
           d="m 208.05169,261.24833 c 0,0 -1.78762,-0.32995 -2.77058,-1.94076 -0.98296,-1.61081 -1.91379,-10.75097 0.67051,-14.02602 2.5843,-3.27505 7.43756,-3.4908 11.77002,-3.62154 4.33247,-0.13075 9.26485,-0.91886 13.24724,2.5732 3.98239,3.49206 2.51741,14.24064 1.76312,15.10566 -0.75429,0.86502 -1.97685,1.0599 -1.97685,1.0599"
           id="path4266"
           inkscape:connector-curvature="0"
           sodipodi:nodetypes="czzzzzc" />
        <path
           style="fill:none;fill-rule:evenodd;stroke:#000000;stroke-width:0.91925108px;stroke-linecap:round;stroke-linejoin:miter;stroke-opacity:1"
           d="m 239.43667,264.84268 c 0,0 -0.99383,-5.51144 -20.68873,-4.91947 -9.30217,0.2796 -13.41378,1.72561 -18.1953,6.0651 -4.78152,4.33949 -7.22449,25.27174 -0.40434,34.97541 4.77655,6.79604 34.29078,5.92624 40.50139,0.87607 3.16354,-2.57243 4.61486,-8.4599 5.18903,-14.21929 0.57417,-5.75939 -0.94346,-11.86064 -0.94346,-11.86064"
           id="path4268"
           inkscape:connector-curvature="0"
           sodipodi:nodetypes="cszsszc" />
        <path
           style="fill:none;fill-rule:evenodd;stroke:#000000;stroke-width:0.91925108px;stroke-linecap:round;stroke-linejoin:miter;stroke-opacity:1"
           d="m 184.44643,279.12936 12.19759,-3.77384"
           id="path4270"
           inkscape:connector-curvature="0" />
        <path
           style="fill:none;fill-rule:evenodd;stroke:#000000;stroke-width:0.91925108px;stroke-linecap:round;stroke-linejoin:miter;stroke-opacity:1"
           d="m 182.08778,270.97517 17.11706,-3.63906"
           id="path4272"
           inkscape:connector-curvature="0" />
        <path
           style="fill:none;fill-rule:evenodd;stroke:#000000;stroke-width:0.91925108px;stroke-linecap:butt;stroke-linejoin:miter;stroke-opacity:1"
           d="m 176.50273,268.01152 c -5.12093,0.13544 -6.90502,11.3621 -6.90953,17.67886 -0.005,6.31676 0.68674,18.20388 6.81423,17.67887 6.12748,-0.52501 4.38683,-8.90187 5.24171,-11.57942 0.85488,-2.67755 2.01616,-4.15748 2.43025,-6.71892 0.41409,-2.56144 0.27795,-5.06733 -0.19061,-8.48204 -0.46856,-3.41471 -2.26512,-8.71279 -7.38605,-8.57735 z"
           id="path4274"
           inkscape:connector-curvature="0"
           sodipodi:nodetypes="zzzzzzz" />
        <path
           style="fill:none;fill-rule:evenodd;stroke:#000000;stroke-width:0.91925108px;stroke-linecap:round;stroke-linejoin:miter;stroke-opacity:1"
           d="m 164.63377,298.43659 c 0,0 -0.23587,1.75214 0.10108,3.53798 0.33695,1.78583 1.04455,3.50428 1.04455,3.50428"
           id="path4276"
           inkscape:connector-curvature="0" />
        <path
           style="fill:none;fill-rule:evenodd;stroke:#000000;stroke-width:0.91925108px;stroke-linecap:round;stroke-linejoin:miter;stroke-opacity:1"
           d="m 166.85764,295.53882 c 0,0 -0.13478,2.19018 0.0337,3.60537 0.16848,1.41519 0.6739,3.60536 0.6739,3.60536"
           id="path4278"
           inkscape:connector-curvature="0" />
        <path
           style="fill:none;fill-rule:evenodd;stroke:#000000;stroke-width:0.91925108px;stroke-linecap:round;stroke-linejoin:round;stroke-opacity:1"
           d="m 263.46749,267.4397 c 0,0 -24.73844,-3.67631 -27.01864,-2.2873 -2.2802,1.38901 -0.52417,9.14917 -0.52417,9.14917 l 23.44475,2.4779"
           id="path4280"
           inkscape:connector-curvature="0"
           sodipodi:nodetypes="czcc" />
        <path
           style="fill:none;fill-rule:evenodd;stroke:#000000;stroke-width:0.91925108px;stroke-linecap:butt;stroke-linejoin:miter;stroke-opacity:1"
           d="m 266.93178,266.25787 c -5.07357,-0.0845 -7.05178,7.04077 -7.74985,11.32152 -0.69807,4.28075 -0.96375,7.80676 -0.87607,10.91718 0.0877,3.11042 0.65923,2.19621 1.21302,4.78469 0.55379,2.58848 -1.48503,9.7349 2.56082,11.11935 4.04585,1.38445 10.63429,-8.15245 12.33237,-13.74756 1.69808,-5.59511 1.76533,-12.69619 0.40434,-15.97143 -1.36099,-3.27524 -2.81106,-8.33922 -7.88463,-8.42375 z"
           id="path4282"
           inkscape:connector-curvature="0"
           sodipodi:nodetypes="zzzzzzzz" />
        <path
           style="fill:none;fill-rule:evenodd;stroke:#000000;stroke-width:0.91925108px;stroke-linecap:round;stroke-linejoin:miter;stroke-opacity:1"
           d="m 283.44233,287.21616 c 0,0 0.33695,1.54997 0.0674,3.57167 -0.26956,2.0217 -1.21302,3.30211 -1.21302,3.30211"
           id="path4284"
           inkscape:connector-curvature="0" />
        <path
           style="fill:none;fill-rule:evenodd;stroke:#000000;stroke-width:0.91925108px;stroke-linecap:round;stroke-linejoin:miter;stroke-opacity:1"
           d="m 285.86837,287.75528 c 0,0 -0.13478,3.43689 -0.60651,5.59337 -0.47173,2.15648 -2.15648,5.25642 -2.15648,5.25642"
           id="path4286"
           inkscape:connector-curvature="0" />
        <ellipse
           style="fill:none;fill-opacity:1;stroke:#000000;stroke-width:0.91925126;stroke-linecap:round;stroke-linejoin:round;stroke-miterlimit:4;stroke-dasharray:none;stroke-opacity:1"
           id="path4288"
           cx="194.48633"
           cy="299.59811"
           rx="2.7201562"
           ry="1.4220761"
           transform="matrix(0.97301384,-0.23074674,0.23169966,0.97278737,0,0)" />
        <ellipse
           style="display:inline;fill:none;fill-opacity:1;stroke:#000000;stroke-width:0.91977936;stroke-linecap:round;stroke-linejoin:round;stroke-miterlimit:4;stroke-dasharray:none;stroke-opacity:1"
           id="path4288-0"
           cx="80.046715"
           cy="360.07022"
           rx="3.2707496"
           ry="1.7397163"
           transform="matrix(0.80225246,-0.59698492,0.55786331,0.82993284,0,0)" />
        <path
           style="fill:none;fill-rule:evenodd;stroke:#000000;stroke-width:0.91925108px;stroke-linecap:round;stroke-linejoin:round;stroke-opacity:1"
           d="m 259.46473,244.94799 -0.28591,-10.86464 8.86326,-0.23826 -1.04834,14.58149"
           id="path4305"
           inkscape:connector-curvature="0" />
        <path
           style="fill:none;fill-rule:evenodd;stroke:#000000;stroke-width:0.91925108px;stroke-linecap:round;stroke-linejoin:miter;stroke-opacity:1"
           d="m 259.41708,237.27603 8.00552,0.14295"
           id="path4307"
           inkscape:connector-curvature="0" />
        <path
           style="fill:none;fill-rule:evenodd;stroke:#000000;stroke-width:0.91925108px;stroke-linecap:butt;stroke-linejoin:round;stroke-opacity:1"
           d="m 225.25065,346.7325 -4.24102,2.66851 -2.33495,-1.04835 -5.24171,10.10221 18.29834,-4.09806 -4.43163,-1.95373 5.28937,-3.7645 z"
           id="path4309"
           inkscape:connector-curvature="0" />
        <path
           style="fill:none;fill-rule:evenodd;stroke:#000000;stroke-width:0.91925108px;stroke-linecap:round;stroke-linejoin:round;stroke-opacity:1"
           d="m 204.52865,303.99627 c 0,0 -9.07703,0.50455 -12.33237,8.0868 -3.25534,7.58225 6.60422,17.25184 6.60422,17.25184 l 0.20217,4.24557 5.45859,0.40434 9.23243,-4.17818 -0.0674,-2.49343 c 0,0 -6.3875,-5.75146 -1.68475,-12.73671 4.70275,-6.98525 10.37806,-8.69331 10.37806,-8.69331"
           id="path4311"
           inkscape:connector-curvature="0"
           sodipodi:nodetypes="czccccczc" />
        <path
           style="fill:none;fill-rule:evenodd;stroke:#000000;stroke-width:0.91925108px;stroke-linecap:round;stroke-linejoin:miter;stroke-opacity:1"
           d="m 198.56557,329.62546 c 0,0 -12.69116,7.57626 -12.15124,9.43508 0.53992,1.85882 15.0823,1.73671 18.4413,1.00069 3.359,-0.73602 19.71936,-10.77394 19.10842,-12.48481 -0.61094,-1.71087 -11.1982,-1.81077 -11.1982,-1.81077"
           id="path4313"
           inkscape:connector-curvature="0"
           sodipodi:nodetypes="czzzc" />
        <path
           style="fill:none;fill-rule:evenodd;stroke:#000000;stroke-width:0.91925108px;stroke-linecap:round;stroke-linejoin:round;stroke-opacity:1"
           d="m 224.81304,305.88319 32.41458,22.50826 0,4.78469 5.12164,1.41519 10.84979,-5.18903 0.13478,-3.70645 -32.75153,-23.51911"
           id="path4315"
           inkscape:connector-curvature="0" />
        <path
           style="fill:none;fill-rule:evenodd;stroke:#000000;stroke-width:0.91925108px;stroke-linecap:round;stroke-linejoin:miter;stroke-opacity:1"
           d="m 256.95806,330.54793 c 0,0 -13.83839,6.34492 -13.68016,8.28897 0.15823,1.94405 11.25806,3.7641 15.23013,3.09994 3.97207,-0.66416 25.06098,-13.2195 23.5865,-15.16275 -1.47448,-1.94325 -8.69331,-1.14563 -8.69331,-1.14563"
           id="path4317"
           inkscape:connector-curvature="0"
           sodipodi:nodetypes="czzzc" />
      </g>
    </g>
  </g>
</svg>
