<?xml version="1.0" encoding="UTF-8" standalone="no"?>
<!-- Created with Inkscape (http://www.inkscape.org/) -->

<svg
   xmlns:dc="http://purl.org/dc/elements/1.1/"
   xmlns:cc="http://creativecommons.org/ns#"
   xmlns:rdf="http://www.w3.org/1999/02/22-rdf-syntax-ns#"
   xmlns:svg="http://www.w3.org/2000/svg"
   xmlns="http://www.w3.org/2000/svg"
   xmlns:sodipodi="http://sodipodi.sourceforge.net/DTD/sodipodi-0.dtd"
   xmlns:inkscape="http://www.inkscape.org/namespaces/inkscape"
   width="160"
   height="160"
   viewBox="0 0 160 160"
   id="svg5696"
   version="1.1"
   inkscape:version="0.91 r13725"
   sodipodi:docname="dance__wiggle.svg"
   inkscape:export-filename="C:\workdir\dir\ScenographyAssets\dance\dance__wiggle.png"
   inkscape:export-xdpi="288"
   inkscape:export-ydpi="288">
  <defs
     id="defs5698" />
  <sodipodi:namedview
     id="base"
     pagecolor="#ffffff"
     bordercolor="#666666"
     borderopacity="1.0"
     inkscape:pageopacity="0.0"
     inkscape:pageshadow="2"
     inkscape:zoom="1.4937631"
     inkscape:cx="-54.040767"
     inkscape:cy="52.716731"
     inkscape:document-units="px"
     inkscape:current-layer="layer1"
     showgrid="false"
     units="px"
     inkscape:window-width="1600"
     inkscape:window-height="1177"
     inkscape:window-x="-8"
     inkscape:window-y="-8"
     inkscape:window-maximized="1" />
  <metadata
     id="metadata5701">
    <rdf:RDF>
      <cc:Work
         rdf:about="">
        <dc:format>image/svg+xml</dc:format>
        <dc:type
           rdf:resource="http://purl.org/dc/dcmitype/StillImage" />
        <dc:title></dc:title>
      </cc:Work>
    </rdf:RDF>
  </metadata>
  <g
     inkscape:label="レイヤー 1"
     inkscape:groupmode="layer"
     id="layer1"
     transform="translate(0,-892.36216)">
    <g
       id="g4219"
       transform="matrix(1.0775073,0,0,1.0777004,32.054251,-75.042659)">
      <g
         id="g4930"
         style="display:inline"
         transform="translate(-218.63388,519.29187)">
        <path
           style="display:inline;fill:none;fill-rule:evenodd;stroke:#000000;stroke-width:0.92798477px;stroke-linecap:butt;stroke-linejoin:miter;stroke-opacity:1"
           d="m 249.26728,410.17771 c 3.01338,-3.38608 19.46888,-4.68878 22.10392,-0.53912 2.63504,4.14966 2.54254,11.41039 -0.40434,14.75841 -2.94688,3.34802 -18.01718,3.96351 -21.16046,1.48258 -3.14328,-2.48093 -3.55249,-12.31579 -0.53912,-15.70187 z"
           id="path4253-3"
           inkscape:connector-curvature="0"
           sodipodi:nodetypes="zzzzz" />
        <ellipse
           style="display:inline;fill:none;fill-opacity:1;stroke:#000000;stroke-width:0.92798477;stroke-linecap:round;stroke-linejoin:round;stroke-miterlimit:4;stroke-dasharray:none;stroke-opacity:1"
           id="path4255-3"
           cx="252.60309"
           cy="419.20798"
           rx="2.0553949"
           ry="2.0216999" />
        <ellipse
           style="display:inline;fill:none;fill-opacity:1;stroke:#000000;stroke-width:0.92798477;stroke-linecap:round;stroke-linejoin:round;stroke-miterlimit:4;stroke-dasharray:none;stroke-opacity:1"
           id="path4255-6-7"
           cx="265.50827"
           cy="418.90472"
           rx="2.1564798"
           ry="2.0553949" />
        <path
           style="fill:none;fill-rule:evenodd;stroke:#000000;stroke-width:0.92798477px;stroke-linecap:round;stroke-linejoin:round;stroke-opacity:1"
           d="m 200.28308,429.54382 c 0,0 -4.34019,-0.75071 -3.57167,-4.51513 0.76852,-3.76442 10.70805,-4.8319 15.83665,-4.11079 5.1286,0.72111 13.21035,3.23276 12.66932,7.48029 -0.54103,4.24753 -4.98686,4.7173 -4.98686,4.7173"
           id="path4370"
           inkscape:connector-curvature="0"
           sodipodi:nodetypes="czzzc" />
        <path
           style="fill:none;fill-rule:evenodd;stroke:#000000;stroke-width:0.92798477px;stroke-linecap:round;stroke-linejoin:round;stroke-opacity:1"
           d="m 212.07633,426.37649 c 0,0 -0.31357,0.76547 -0.0674,1.81953 0.24617,1.05406 1.94257,2.88008 2.22387,4.11079 0.2813,1.23071 -0.13478,2.89777 -0.13478,2.89777"
           id="path4372"
           inkscape:connector-curvature="0"
           sodipodi:nodetypes="czzc" />
        <path
           style="fill:none;fill-rule:evenodd;stroke:#000000;stroke-width:0.92798477px;stroke-linecap:round;stroke-linejoin:miter;stroke-opacity:1"
           d="m 217.73709,429.34165 c 0,0 1.9,2.63333 1.95431,4.38035 0.0543,1.74702 -1.37355,3.21706 -1.68475,4.58252 -0.3112,1.36546 -0.33695,3.50428 -0.33695,3.50428"
           id="path4374"
           inkscape:connector-curvature="0"
           sodipodi:nodetypes="czzc" />
        <path
           style="fill:none;fill-rule:evenodd;stroke:#000000;stroke-width:0.92798477px;stroke-linecap:round;stroke-linejoin:miter;stroke-opacity:1"
           d="m 225.58422,427.59779 14.15262,6.48067"
           id="path4376"
           inkscape:connector-curvature="0" />
        <path
           style="fill:none;fill-rule:evenodd;stroke:#000000;stroke-width:0.92798477px;stroke-linecap:round;stroke-linejoin:miter;stroke-opacity:1"
           d="m 272.32299,422.87221 c 0,0 3.68609,0.28852 6.46944,1.81953 2.78335,1.53101 4.78469,3.90862 4.78469,3.90862"
           id="path4378"
           inkscape:connector-curvature="0"
           sodipodi:nodetypes="czc" />
        <path
           style="fill:none;fill-rule:evenodd;stroke:#000000;stroke-width:0.92798477px;stroke-linecap:round;stroke-linejoin:miter;stroke-opacity:1"
           d="m 227.37386,446.86305 c 0,0 3.67881,-4.055 5.96402,-6.26727 2.28521,-2.21227 6.19988,-5.49229 6.19988,-5.49229"
           id="path4380"
           inkscape:connector-curvature="0"
           sodipodi:nodetypes="czc" />
        <path
           style="fill:none;fill-rule:evenodd;stroke:#000000;stroke-width:0.92798477px;stroke-linecap:round;stroke-linejoin:miter;stroke-opacity:1"
           d="m 230.87814,452.5912 6.53683,-4.61622"
           id="path4382"
           inkscape:connector-curvature="0" />
        <path
           style="fill:none;fill-rule:evenodd;stroke:#000000;stroke-width:0.92798477px;stroke-linecap:round;stroke-linejoin:miter;stroke-opacity:1"
           d="m 249.02897,425.50111 c 0,0 -2.96646,-0.18118 -5.52762,2.66851 -2.56116,2.84969 -5.17943,9.24949 -5.67058,15.86809 -0.49115,6.6186 -0.71917,13.85243 2.33494,18.06008 3.05411,4.20765 13.64125,6.0901 21.10532,5.58877 7.46407,-0.50133 18.97901,-4.33344 21.29524,-8.82809 2.31623,-4.49465 2.26872,-7.95554 2.42604,-10.84979 0.15732,-2.89425 -0.6739,-8.28897 -0.6739,-8.28897"
           id="path4384"
           inkscape:connector-curvature="0"
           sodipodi:nodetypes="czzzzzzc" />
        <path
           style="fill:none;fill-rule:evenodd;stroke:#000000;stroke-width:0.92798477px;stroke-linecap:round;stroke-linejoin:miter;stroke-opacity:1"
           d="m 211.71751,455.18826 c 0,0 -0.60224,0.66515 -0.95304,2.23964 -0.3508,1.57449 0.0953,2.81146 0.0953,2.81146"
           id="path4386"
           inkscape:connector-curvature="0"
           sodipodi:nodetypes="czc" />
        <path
           style="fill:none;fill-rule:evenodd;stroke:#000000;stroke-width:0.92798477px;stroke-linecap:round;stroke-linejoin:miter;stroke-opacity:1"
           d="m 215.14845,457.66616 c 0,0 -1.10148,1.90389 -0.52417,4.76519 0.57731,2.8613 2.4779,4.19337 2.4779,4.19337"
           id="path4388"
           inkscape:connector-curvature="0"
           sodipodi:nodetypes="czc" />
        <path
           style="display:inline;fill:none;fill-rule:evenodd;stroke:#000000;stroke-width:0.92798477px;stroke-linecap:round;stroke-linejoin:round;stroke-opacity:1"
           d="m 229.59368,456.84456 c 2.35162,-4.14686 0.7672,-7.76244 -5.64271,-11.93546 -6.40991,-4.17301 -21.16987,-8.62199 -23.31698,-2.96967 -1.26335,3.32579 2.34529,6.20862 4.47387,7.13122 2.12857,0.92261 3.32479,2.23073 5.05772,4.01795 1.73292,1.78723 6.71826,4.90195 9.52496,6.05412 2.8067,1.15217 7.5515,1.8487 9.90314,-2.29816 z"
           id="path4279-2"
           inkscape:connector-curvature="0"
           sodipodi:nodetypes="zzszzzz" />
        <path
           style="display:inline;fill:none;fill-rule:evenodd;stroke:#000000;stroke-width:0.92798477px;stroke-linecap:round;stroke-linejoin:round;stroke-opacity:1"
           d="m 301.12504,431.04001 c -3.28606,-3.21476 -4.49199,-6.94099 -1.12427,-13.80827 3.36772,-6.86727 13.71794,-20.15465 18.45721,-16.3999 2.78855,2.20928 1.3088,7.86788 0.14385,10.17941 -1.16495,2.31154 -0.47396,5.38201 -1.04686,7.80461 -0.57288,2.4226 -4.06926,7.17475 -5.88966,9.60193 -1.82039,2.42718 -7.2542,5.83697 -10.54027,2.62222 z"
           id="path4279-2-7"
           inkscape:connector-curvature="0"
           sodipodi:nodetypes="zzszzzz" />
        <path
           style="fill:none;fill-rule:evenodd;stroke:#000000;stroke-width:0.92798477px;stroke-linecap:round;stroke-linejoin:miter;stroke-opacity:1"
           d="m 304.43433,403.76714 1.85322,3.53798"
           id="path4420"
           inkscape:connector-curvature="0" />
        <path
           style="fill:none;fill-rule:evenodd;stroke:#000000;stroke-width:0.92798477px;stroke-linecap:round;stroke-linejoin:miter;stroke-opacity:1"
           d="m 306.28755,395.07383 c 0,0 1.38913,0.97401 1.71845,2.12279 0.32932,1.14878 -0.15906,2.82231 -0.13478,4.11079 0.0243,1.28848 0.97715,3.3358 0.97715,3.3358"
           id="path4422"
           inkscape:connector-curvature="0"
           sodipodi:nodetypes="czzc" />
        <path
           style="fill:none;fill-rule:evenodd;stroke:#000000;stroke-width:0.92798477px;stroke-linecap:round;stroke-linejoin:miter;stroke-opacity:1"
           d="m 297.66163,425.12977 c 0,0 -6.41051,1.34391 -9.56938,2.29126 -3.15886,0.94735 -8.10583,2.35685 -9.13134,3.87493 -1.02551,1.51808 -1.40642,7.24941 0.43803,8.76069 1.84446,1.51129 9.13937,-1.96569 12.97258,-3.36949 3.8332,-1.4038 10.24328,-4.34666 10.24328,-4.34666"
           id="path4424"
           inkscape:connector-curvature="0"
           sodipodi:nodetypes="czzzzc" />
        <path
           style="fill:none;fill-rule:evenodd;stroke:#000000;stroke-width:0.92798477px;stroke-linecap:round;stroke-linejoin:round;stroke-opacity:1"
           d="m 286.91225,443.27528 14.62914,6.09945 c 0,0 0.71646,2.67238 2.04904,3.71684 1.33258,1.04446 6.64513,2.66195 12.77071,2.66851 6.12558,0.007 12.59376,-0.52581 13.24724,-5.43232 0.65348,-4.90651 -9.76865,-6.05179 -9.76865,-6.05179"
           id="path4426"
           inkscape:connector-curvature="0"
           sodipodi:nodetypes="cczzzc" />
        <path
           style="fill:none;fill-rule:evenodd;stroke:#000000;stroke-width:0.92798477px;stroke-linecap:round;stroke-linejoin:miter;stroke-opacity:1"
           d="m 314.34066,440.83164 c 0,0 1.01448,2.75692 0.47173,5.02056 -0.54275,2.26364 -2.89777,4.54882 -2.89777,4.54882"
           id="path4428"
           inkscape:connector-curvature="0"
           sodipodi:nodetypes="czc" />
        <path
           style="fill:none;fill-rule:evenodd;stroke:#000000;stroke-width:0.92798477px;stroke-linecap:round;stroke-linejoin:miter;stroke-opacity:1"
           d="m 316.16019,430.04924 c 0,0 -0.44418,1.42915 0.30325,3.16733 0.74743,1.73818 2.52364,2.37759 2.99886,7.17704 0.47522,4.79945 -2.19018,7.3792 -2.19018,7.3792"
           id="path4430"
           inkscape:connector-curvature="0"
           sodipodi:nodetypes="czzc" />
        <path
           style="fill:none;fill-rule:evenodd;stroke:#000000;stroke-width:0.92798477px;stroke-linecap:round;stroke-linejoin:round;stroke-opacity:1"
           d="m 244.22136,465.32791 c 0,0 -3.11788,4.94185 4.44774,15.29753 7.56562,10.35568 10.58023,12.66932 10.58023,12.66932 l 0.32877,4.1387 7.48847,0.44382 7.54768,-7.95202"
           id="path4432"
           inkscape:connector-curvature="0"
           sodipodi:nodetypes="czcccc" />
        <path
           style="fill:none;fill-rule:evenodd;stroke:#000000;stroke-width:0.92798477px;stroke-linecap:round;stroke-linejoin:round;stroke-opacity:1"
           d="m 260.66452,467.88873 c 0,0 -1.62989,9.28673 8.82809,17.25184 10.45798,7.96511 12.66932,10.91718 12.66932,10.91718 l 0.13478,2.15648 7.81724,1.28041 9.16504,-7.27812 -0.20217,-4.31296 c 0,0 -6.33369,-3.90985 -16.37577,-11.18674 -10.04208,-7.27689 -6.19988,-12.87149 -6.19988,-12.87149"
           id="path4434"
           inkscape:connector-curvature="0"
           sodipodi:nodetypes="czccccczc" />
        <path
           style="fill:none;fill-rule:evenodd;stroke:#000000;stroke-width:0.92798477px;stroke-linecap:round;stroke-linejoin:round;stroke-opacity:1"
           d="m 258.91238,493.49693 c 0,0 -8.7409,6.74674 -7.58138,9.80525 1.15953,3.0585 11.25032,3.46242 15.5334,2.25756 4.28308,-1.20486 11.25413,-12.87149 11.25413,-12.87149"
           id="path4436"
           inkscape:connector-curvature="0"
           sodipodi:nodetypes="czzc" />
        <path
           style="fill:none;fill-rule:evenodd;stroke:#000000;stroke-width:0.92798477px;stroke-linecap:round;stroke-linejoin:miter;stroke-opacity:1"
           d="m 280.90811,495.07292 c 0,0 -8.57819,7.70029 -7.57666,11.15055 1.00154,3.45027 10.12628,4.32153 13.05663,3.71686 2.93036,-0.60467 20.85298,-18.26145 20.10911,-21.44337 -0.74387,-3.18192 -11.38881,-3.52625 -11.38881,-3.52625"
           id="path4438"
           inkscape:connector-curvature="0"
           sodipodi:nodetypes="czzzc" />
      </g>
    </g>
  </g>
</svg>
