<?xml version="1.0" encoding="UTF-8" standalone="no"?>
<!-- Created with Inkscape (http://www.inkscape.org/) -->

<svg
   xmlns:dc="http://purl.org/dc/elements/1.1/"
   xmlns:cc="http://creativecommons.org/ns#"
   xmlns:rdf="http://www.w3.org/1999/02/22-rdf-syntax-ns#"
   xmlns:svg="http://www.w3.org/2000/svg"
   xmlns="http://www.w3.org/2000/svg"
   xmlns:sodipodi="http://sodipodi.sourceforge.net/DTD/sodipodi-0.dtd"
   xmlns:inkscape="http://www.inkscape.org/namespaces/inkscape"
   width="160"
   height="160"
   viewBox="0 0 160 160"
   id="svg5696"
   version="1.1"
   inkscape:version="0.91 r13725"
   sodipodi:docname="dance__lstep.svg"
   inkscape:export-filename="C:\workdir\dir\ScenographyAssets\dance\dance__lstep.png"
   inkscape:export-xdpi="288"
   inkscape:export-ydpi="288">
  <defs
     id="defs5698" />
  <sodipodi:namedview
     id="base"
     pagecolor="#ffffff"
     bordercolor="#666666"
     borderopacity="1.0"
     inkscape:pageopacity="0.0"
     inkscape:pageshadow="2"
     inkscape:zoom="1.4937631"
     inkscape:cx="3.4765428"
     inkscape:cy="7.8170504"
     inkscape:document-units="px"
     inkscape:current-layer="layer1"
     showgrid="false"
     units="px"
     inkscape:window-width="1600"
     inkscape:window-height="1177"
     inkscape:window-x="-8"
     inkscape:window-y="-8"
     inkscape:window-maximized="1" />
  <metadata
     id="metadata5701">
    <rdf:RDF>
      <cc:Work
         rdf:about="">
        <dc:format>image/svg+xml</dc:format>
        <dc:type
           rdf:resource="http://purl.org/dc/dcmitype/StillImage" />
        <dc:title></dc:title>
      </cc:Work>
    </rdf:RDF>
  </metadata>
  <g
     inkscape:label="レイヤー 1"
     inkscape:groupmode="layer"
     id="layer1"
     transform="translate(0,-892.36216)">
    <g
       id="g4275"
       transform="matrix(1.1296257,0,0,1.129868,-7.9417178,-127.4687)">
      <g
         transform="matrix(0.92447185,0,0,0.92447185,0.9712326,56.855002)"
         id="g4203">
        <g
           transform="translate(-16.356151,538.82323)"
           style="display:inline"
           id="g4878">
          <path
             sodipodi:nodetypes="zzzzz"
             inkscape:connector-curvature="0"
             id="path4253"
             d="m 91.650401,405.08125 c 3.013376,-3.38608 20.007999,-3.34098 22.643039,0.80868 2.63504,4.14966 1.73386,10.46693 -1.21302,13.81495 -2.94688,3.34802 -18.017177,2.61571 -21.160459,0.13478 -3.143282,-2.48093 -3.282936,-11.37233 -0.26956,-14.75841 z"
             style="fill:none;fill-rule:evenodd;stroke:#000000;stroke-width:0.95746994px;stroke-linecap:butt;stroke-linejoin:miter;stroke-opacity:1" />
          <ellipse
             ry="1.81953"
             rx="1.88692"
             cy="413.23544"
             cx="95.289459"
             id="path4255"
             style="fill:none;fill-opacity:1;stroke:#000000;stroke-width:0.95746994;stroke-linecap:round;stroke-linejoin:round;stroke-miterlimit:4;stroke-dasharray:none;stroke-opacity:1" />
          <ellipse
             ry="1.81953"
             rx="1.88692"
             cy="413.43762"
             cx="108.43051"
             id="path4255-6"
             style="display:inline;fill:none;fill-opacity:1;stroke:#000000;stroke-width:0.95746994;stroke-linecap:round;stroke-linejoin:round;stroke-miterlimit:4;stroke-dasharray:none;stroke-opacity:1" />
          <path
             sodipodi:nodetypes="czzzzzzzc"
             inkscape:connector-curvature="0"
             id="path4273"
             d="m 91.301091,419.35401 c 0,0 -2.014938,-0.50112 -5.527623,1.14365 -3.512685,1.64477 -8.050503,11.16639 -7.719612,19.7279 0.330891,8.56151 1.597122,14.06356 5.718231,17.53591 4.121109,3.47235 12.412443,4.51473 18.488943,4.28867 6.0765,-0.22606 14.52747,-2.3103 17.63122,-6.48066 3.10375,-4.17036 2.77637,-11.34061 2.66851,-17.05939 -0.10786,-5.71878 -1.05855,-13.71287 -3.11712,-16.23436 -2.05857,-2.52149 -5.36493,-3.30293 -5.36493,-3.30293"
             style="fill:none;fill-rule:evenodd;stroke:#000000;stroke-width:0.95746994px;stroke-linecap:round;stroke-linejoin:round;stroke-opacity:1" />
          <path
             sodipodi:nodetypes="czc"
             inkscape:connector-curvature="0"
             id="path4275"
             d="m 84.010347,421.73661 c 0,0 -7.002846,1.16579 -11.102899,2.19199 -4.100053,1.0262 -9.196822,3.00207 -9.196822,3.00207"
             style="fill:none;fill-rule:evenodd;stroke:#000000;stroke-width:0.95746994px;stroke-linecap:round;stroke-linejoin:round;stroke-opacity:1" />
          <path
             sodipodi:nodetypes="czc"
             inkscape:connector-curvature="0"
             id="path4277"
             d="m 66.379151,433.722 c 0,0 2.104331,-1.10259 5.52598,-1.81953 3.421649,-0.71694 7.07595,-0.74129 7.07595,-0.74129"
             style="fill:none;fill-rule:evenodd;stroke:#000000;stroke-width:0.95746994px;stroke-linecap:round;stroke-linejoin:round;stroke-opacity:1" />
          <path
             sodipodi:nodetypes="zzszzzz"
             inkscape:connector-curvature="0"
             id="path4279"
             d="m 58.696691,425.16347 c -4.725126,0.63229 -7.692009,6.72518 -7.14334,14.35407 0.548669,7.62889 7.808503,23.83612 13.54539,20.48656 3.740068,-2.18369 1.966407,-5.63114 1.41519,-7.88463 -0.551217,-2.25349 -0.848491,-3.46958 -0.47173,-5.93032 0.376761,-2.46074 1.1759,-9.08468 0.13478,-13.07366 -1.04112,-3.98898 -2.755164,-8.58431 -7.48029,-7.95202 z"
             style="fill:none;fill-rule:evenodd;stroke:#000000;stroke-width:0.95746994px;stroke-linecap:round;stroke-linejoin:round;stroke-opacity:1" />
          <path
             sodipodi:nodetypes="czc"
             inkscape:connector-curvature="0"
             id="path4281"
             d="m 120.08898,423.07438 c 0,0 5.76489,0.0766 10.31067,0.6739 4.54578,0.59729 9.87263,2.0217 9.87263,2.0217"
             style="fill:none;fill-rule:evenodd;stroke:#000000;stroke-width:0.95746994px;stroke-linecap:round;stroke-linejoin:miter;stroke-opacity:1" />
          <path
             inkscape:connector-curvature="0"
             id="path4283"
             d="m 122.11068,430.62206 13.74756,1.61736"
             style="fill:none;fill-rule:evenodd;stroke:#000000;stroke-width:0.95746994px;stroke-linecap:round;stroke-linejoin:miter;stroke-opacity:1" />
          <path
             sodipodi:nodetypes="zzszzzz"
             inkscape:connector-curvature="0"
             id="path4279-8"
             d="m 144.4902,425.34805 c 4.57847,1.32825 6.60585,7.79473 4.92828,15.25709 -1.67757,7.46236 -12.1256,21.55138 -16.44257,18.24331 -3.43764,-2.63425 -0.43962,-6.86171 0.44074,-9.00811 0.88035,-2.14641 0.54516,-4.06716 0.30043,-7.08074 -0.24473,-3.01358 0.57,-6.87123 2.193,-10.66092 1.623,-3.78969 4.00166,-8.07887 8.58012,-6.75063 z"
             style="display:inline;fill:none;fill-rule:evenodd;stroke:#000000;stroke-width:0.95746994px;stroke-linecap:round;stroke-linejoin:round;stroke-opacity:1" />
          <path
             sodipodi:nodetypes="czccczc"
             inkscape:connector-curvature="0"
             id="path4300"
             d="m 86.461371,459.73454 c 0,0 -5.727634,7.38379 -9.16504,16.91489 -3.437406,9.5311 -3.3695,20.41917 -3.3695,20.41917 l 6.40205,1.07824 7.00856,-5.59337 c 0,0 0.361845,-10.32726 2.35865,-16.71272 1.996805,-6.38546 4.91947,-13.81495 4.91947,-13.81495"
             style="fill:none;fill-rule:evenodd;stroke:#000000;stroke-width:0.95746994px;stroke-linecap:round;stroke-linejoin:round;stroke-opacity:1" />
          <path
             sodipodi:nodetypes="czzzc"
             inkscape:connector-curvature="0"
             id="path4302"
             d="m 73.724661,493.76649 c 0,0 -11.082568,6.7639 -10.91718,8.69331 0.165388,1.92941 8.979733,5.60664 12.39976,5.59337 3.420027,-0.0133 20.512374,-13.64027 21.09307,-15.43231 0.580696,-1.79204 -8.28897,-4.38035 -8.28897,-4.38035"
             style="fill:none;fill-rule:evenodd;stroke:#000000;stroke-width:0.95746994px;stroke-linecap:round;stroke-linejoin:round;stroke-opacity:1" />
          <path
             inkscape:connector-curvature="0"
             id="path4304"
             d="m 101.01761,462.22797 22.71043,5.59337 -5.18903,9.03026 8.49114,7.21073 3.63906,-2.0217 8.22158,-22.17131 -20.35178,-2.49343"
             style="fill:none;fill-rule:evenodd;stroke:#000000;stroke-width:0.95746994px;stroke-linecap:round;stroke-linejoin:round;stroke-opacity:1" />
          <path
             sodipodi:nodetypes="czzzzc"
             inkscape:connector-curvature="0"
             id="path4306"
             d="m 121.32181,471.77113 c 0,0 -1.05681,-0.66408 -2.4779,-0.38121 -1.42109,0.28287 -6.26303,3.03598 -6.95719,6.29005 -0.69416,3.25407 16.87087,18.27919 20.29972,18.67955 3.42885,0.40036 10.97556,-4.20928 11.29351,-7.71961 0.31795,-3.51033 -11.05525,-9.95925 -11.05525,-9.95925"
             style="fill:none;fill-rule:evenodd;stroke:#000000;stroke-width:0.95746994px;stroke-linecap:round;stroke-linejoin:round;stroke-opacity:1" />
          <ellipse
             transform="matrix(0.72042782,0.69352992,-0.79348471,0.60859019,0,0)"
             ry="2.3085093"
             rx="3.3030133"
             cy="201.45633"
             cx="407.68091"
             id="path4234-5"
             style="display:inline;fill:none;fill-opacity:1;stroke:#000000;stroke-width:0.96290129;stroke-linecap:round;stroke-linejoin:round;stroke-miterlimit:4;stroke-dasharray:none;stroke-opacity:1" />
          <ellipse
             transform="matrix(0.99821301,0.05975605,-0.04889835,0.99880376,0,0)"
             ry="2.3568411"
             rx="2.8497181"
             cy="405.75363"
             cx="156.64928"
             id="path4236-4"
             style="display:inline;fill:none;fill-opacity:1;stroke:#000000;stroke-width:0.95749825;stroke-linecap:round;stroke-linejoin:round;stroke-miterlimit:4;stroke-dasharray:none;stroke-opacity:1" />
          <path
             sodipodi:nodetypes="cscscsc"
             inkscape:connector-curvature="0"
             id="path4238-6"
             d="m 136.91956,405.10366 c 0,0 1.89619,-0.642 3.44208,-2.30919 1.65147,-1.78104 1.98603,-5.6103 1.98603,-5.6103 0,0 0.41139,4.00008 2.76299,5.72815 0.97674,0.71776 3.18805,1.16496 3.18805,1.16496 0,0 -2.20892,0.893 -5.36072,4.76255 -1.56964,1.9271 -3.73419,4.77752 -3.73419,4.77752"
             style="display:inline;fill:none;fill-rule:evenodd;stroke:#000000;stroke-width:0.95746994px;stroke-linecap:round;stroke-linejoin:round;stroke-opacity:1" />
          <ellipse
             transform="matrix(0.7638439,-0.64540104,0.64437627,0.76470859,0,0)"
             ry="2.4653928"
             rx="2.6877122"
             cy="382.3638"
             cx="-281.84204"
             id="path4230-71"
             style="display:inline;fill:none;fill-opacity:1;stroke:#000000;stroke-width:0.95747048;stroke-linecap:round;stroke-linejoin:round;stroke-miterlimit:4;stroke-dasharray:none;stroke-opacity:1" />
          <path
             sodipodi:nodetypes="cscsssc"
             inkscape:connector-curvature="0"
             id="path4232-3"
             d="m 31.619452,471.37762 c 0,0 0.345112,-2.23581 -1.161327,-4.49795 -1.506438,-2.26213 -3.821963,-3.23294 -3.821963,-3.23294 0,0 4.664662,1.40292 7.114281,0.91795 2.462104,-0.48744 3.21432,-2.6787 5.162286,-2.04138 1.721028,0.56307 1.769106,3.04835 0.932032,4.46001 -0.837108,1.41169 -2.688726,2.73354 -2.688726,2.73354"
             style="display:inline;fill:none;fill-rule:evenodd;stroke:#000000;stroke-width:0.95746994px;stroke-linecap:round;stroke-linejoin:round;stroke-opacity:1" />
          <path
             inkscape:connector-curvature="0"
             id="path4347"
             d="m 149.53175,475.72624 -0.33357,3.81215 6.43301,0.0477 -0.71478,4.71754 9.14917,-5.14641 -6.86187,-8.5297 -1.14365,4.7652 z"
             style="fill:none;fill-rule:evenodd;stroke:#000000;stroke-width:0.95746994px;stroke-linecap:round;stroke-linejoin:round;stroke-opacity:1" />
        </g>
      </g>
    </g>
  </g>
</svg>
