<?xml version="1.0" encoding="UTF-8" standalone="no"?>
<!-- Created with Inkscape (http://www.inkscape.org/) -->

<svg
   xmlns:dc="http://purl.org/dc/elements/1.1/"
   xmlns:cc="http://creativecommons.org/ns#"
   xmlns:rdf="http://www.w3.org/1999/02/22-rdf-syntax-ns#"
   xmlns:svg="http://www.w3.org/2000/svg"
   xmlns="http://www.w3.org/2000/svg"
   xmlns:sodipodi="http://sodipodi.sourceforge.net/DTD/sodipodi-0.dtd"
   xmlns:inkscape="http://www.inkscape.org/namespaces/inkscape"
   width="160"
   height="160"
   viewBox="0 0 160 160"
   id="svg5696"
   version="1.1"
   inkscape:version="0.91 r13725"
   sodipodi:docname="dance__rstep.svg"
   inkscape:export-filename="C:\workdir\dir\ScenographyAssets\dance\dance__rstep.png"
   inkscape:export-xdpi="288"
   inkscape:export-ydpi="288">
  <defs
     id="defs5698" />
  <sodipodi:namedview
     id="base"
     pagecolor="#ffffff"
     bordercolor="#666666"
     borderopacity="1.0"
     inkscape:pageopacity="0.0"
     inkscape:pageshadow="2"
     inkscape:zoom="1.4937631"
     inkscape:cx="-58.70596"
     inkscape:cy="74.558581"
     inkscape:document-units="px"
     inkscape:current-layer="layer1"
     showgrid="false"
     units="px"
     inkscape:window-width="1538"
     inkscape:window-height="877"
     inkscape:window-x="-8"
     inkscape:window-y="1192"
     inkscape:window-maximized="1" />
  <metadata
     id="metadata5701">
    <rdf:RDF>
      <cc:Work
         rdf:about="">
        <dc:format>image/svg+xml</dc:format>
        <dc:type
           rdf:resource="http://purl.org/dc/dcmitype/StillImage" />
        <dc:title></dc:title>
      </cc:Work>
    </rdf:RDF>
  </metadata>
  <g
     inkscape:label="レイヤー 1"
     inkscape:groupmode="layer"
     id="layer1"
     transform="translate(0,-892.36216)">
    <g
       id="g4457"
       transform="matrix(1.1296313,0,0,1.1304475,188.68219,-132.84888)">
      <path
         sodipodi:nodetypes="zzzzz"
         inkscape:connector-curvature="0"
         id="path4253-9"
         d="m -89.040182,933.72845 c -2.785781,-3.13033 -18.496828,-3.08864 -20.932848,0.7476 -2.43602,3.83625 -1.60291,9.67639 1.1214,12.77154 2.72431,3.09515 16.656372,2.41815 19.562248,0.1246 2.905876,-2.29355 3.034982,-10.5134 0.2492,-13.64374 z"
         style="fill:none;fill-rule:evenodd;stroke:#000000;stroke-width:0.88492489px;stroke-linecap:butt;stroke-linejoin:miter;stroke-opacity:1" />
      <ellipse
         transform="scale(-1,1)"
         ry="1.6821042"
         rx="1.7444044"
         cy="941.26678"
         cx="92.404388"
         id="path4255-2"
         style="fill:none;fill-opacity:1;stroke:#000000;stroke-width:0.88492489;stroke-linecap:round;stroke-linejoin:round;stroke-miterlimit:4;stroke-dasharray:none;stroke-opacity:1" />
      <ellipse
         transform="scale(-1,1)"
         ry="1.6821042"
         rx="1.7444044"
         cy="941.45367"
         cx="104.55293"
         id="path4255-6-1"
         style="display:inline;fill:none;fill-opacity:1;stroke:#000000;stroke-width:0.88492489;stroke-linecap:round;stroke-linejoin:round;stroke-miterlimit:4;stroke-dasharray:none;stroke-opacity:1" />
      <path
         sodipodi:nodetypes="czzzzzzzc"
         inkscape:connector-curvature="0"
         id="path4273-8"
         d="m -88.717254,946.92322 c 0,0 1.862753,-0.46327 5.110132,1.05727 3.247378,1.52054 7.442463,10.32301 7.136564,18.23789 -0.3059,7.91487 -1.476495,13.00136 -5.286344,16.21145 -3.809849,3.21009 -11.474954,4.17374 -17.092507,3.96476 -5.617551,-0.20899 -13.430241,-2.13581 -16.299571,-5.99119 -2.86933,-3.85538 -2.56667,-10.48407 -2.46696,-15.77093 0.0997,-5.28685 0.9786,-12.67716 2.88169,-15.0082 1.90309,-2.33105 4.95973,-3.05347 4.95973,-3.05347"
         style="fill:none;fill-rule:evenodd;stroke:#000000;stroke-width:0.88492489px;stroke-linecap:round;stroke-linejoin:round;stroke-opacity:1" />
      <path
         sodipodi:nodetypes="czc"
         inkscape:connector-curvature="0"
         id="path4275-4"
         d="m -81.977167,949.12586 c 0,0 6.473934,1.07774 10.264318,2.02644 3.790383,0.94869 8.502203,2.77533 8.502203,2.77533"
         style="fill:none;fill-rule:evenodd;stroke:#000000;stroke-width:0.88492489px;stroke-linecap:round;stroke-linejoin:round;stroke-opacity:1" />
      <path
         sodipodi:nodetypes="czc"
         inkscape:connector-curvature="0"
         id="path4277-7"
         d="m -65.677622,960.20602 c 0,0 -1.945395,-1.01931 -5.108613,-1.6821 -3.163218,-0.6628 -6.541517,-0.68531 -6.541517,-0.68531"
         style="fill:none;fill-rule:evenodd;stroke:#000000;stroke-width:0.88492489px;stroke-linecap:round;stroke-linejoin:round;stroke-opacity:1" />
      <path
         sodipodi:nodetypes="zzszzzz"
         inkscape:connector-curvature="0"
         id="path4279-0"
         d="m -58.575404,952.2939 c 4.368246,0.58453 7.111045,6.21724 6.603816,13.26993 -0.507229,7.0527 -7.218741,22.03583 -12.522331,18.93925 -3.457588,-2.01876 -1.817888,-5.20583 -1.308304,-7.28912 0.509585,-2.08329 0.784406,-3.20753 0.436101,-5.48241 -0.348304,-2.27489 -1.087086,-8.39853 -0.1246,-12.08623 0.962486,-3.6877 2.547072,-7.93595 6.915318,-7.35142 z"
         style="fill:none;fill-rule:evenodd;stroke:#000000;stroke-width:0.88492489px;stroke-linecap:round;stroke-linejoin:round;stroke-opacity:1" />
      <path
         sodipodi:nodetypes="czc"
         inkscape:connector-curvature="0"
         id="path4281-8"
         d="m -115.33085,950.36259 c 0,0 -5.32948,0.0708 -9.53192,0.62301 -4.20245,0.55217 -9.12697,1.869 -9.12697,1.869"
         style="fill:none;fill-rule:evenodd;stroke:#000000;stroke-width:0.88492489px;stroke-linecap:round;stroke-linejoin:miter;stroke-opacity:1" />
      <path
         inkscape:connector-curvature="0"
         id="path4283-5"
         d="m -117.19985,957.34021 -12.70923,1.49521"
         style="fill:none;fill-rule:evenodd;stroke:#000000;stroke-width:0.88492489px;stroke-linecap:round;stroke-linejoin:miter;stroke-opacity:1" />
      <path
         sodipodi:nodetypes="zzszzzz"
         inkscape:connector-curvature="0"
         id="path4279-8-4"
         d="m -137.88909,952.46454 c -4.23266,1.22793 -6.10692,7.20601 -4.55605,14.10475 1.55086,6.89874 11.20977,19.92364 15.20069,16.86543 3.178,-2.43529 0.40641,-6.34346 -0.40745,-8.32775 -0.81386,-1.98429 -0.50399,-3.75997 -0.27774,-6.54594 0.22624,-2.78597 -0.52695,-6.35226 -2.02737,-9.85572 -1.50042,-3.50347 -3.69942,-7.46869 -7.93208,-6.24077 z"
         style="display:inline;fill:none;fill-rule:evenodd;stroke:#000000;stroke-width:0.88492489px;stroke-linecap:round;stroke-linejoin:round;stroke-opacity:1" />
      <path
         sodipodi:nodetypes="czccczc"
         inkscape:connector-curvature="0"
         id="path4300-0"
         d="m -84.243069,984.25388 c 0,0 5.295036,6.82611 8.472821,15.63734 3.177785,8.81128 3.115008,18.87698 3.115008,18.87698 l -5.918515,0.9968 -6.479216,-5.1709 c 0,0 -0.334516,-9.5473 -2.180506,-15.45048 -1.84599,-5.90318 -4.547912,-12.77153 -4.547912,-12.77153"
         style="fill:none;fill-rule:evenodd;stroke:#000000;stroke-width:0.88492489px;stroke-linecap:round;stroke-linejoin:round;stroke-opacity:1" />
      <path
         sodipodi:nodetypes="czzzc"
         inkscape:connector-curvature="0"
         id="path4302-9"
         d="m -72.46834,1015.7155 c 0,0 10.245523,6.253 10.092626,8.0367 -0.152897,1.7837 -8.30151,5.1832 -11.463229,5.1709 -3.161719,-0.012 -18.963112,-12.6101 -19.499949,-14.2667 -0.536838,-1.6567 7.662919,-4.0496 7.662919,-4.0496"
         style="fill:none;fill-rule:evenodd;stroke:#000000;stroke-width:0.88492489px;stroke-linecap:round;stroke-linejoin:round;stroke-opacity:1" />
      <path
         inkscape:connector-curvature="0"
         id="path4304-9"
         d="m -97.699903,986.55899 -20.995157,5.17091 4.79712,8.3482 -7.84982,6.6661 -3.36421,-1.869 -7.60062,-20.49672 18.81465,-2.3051"
         style="fill:none;fill-rule:evenodd;stroke:#000000;stroke-width:0.88492489px;stroke-linecap:round;stroke-linejoin:round;stroke-opacity:1" />
      <path
         sodipodi:nodetypes="czzzzc"
         inkscape:connector-curvature="0"
         id="path4306-3"
         d="m -116.47056,995.38137 c 0,0 0.97699,-0.61392 2.29074,-0.35242 1.31376,0.26151 5.79,2.80668 6.43173,5.81495 0.64173,3.0083 -15.59664,16.8986 -18.76652,17.2687 -3.16987,0.3702 -10.14659,-3.8913 -10.44053,-7.1365 -0.29394,-3.2452 10.22027,-9.2071 10.22027,-9.2071"
         style="fill:none;fill-rule:evenodd;stroke:#000000;stroke-width:0.88492489px;stroke-linecap:round;stroke-linejoin:round;stroke-opacity:1" />
      <g
         transform="matrix(-1,0,0,1,-266.64988,0)"
         id="g4448">
        <ellipse
           style="display:inline;fill:none;fill-opacity:1;stroke:#000000;stroke-width:0.88994479;stroke-linecap:round;stroke-linejoin:round;stroke-miterlimit:4;stroke-dasharray:none;stroke-opacity:1"
           id="path4234-5-2"
           cx="828.34247"
           cy="590.69373"
           rx="3.0535429"
           ry="2.1341519"
           transform="matrix(-0.72042782,0.69352992,0.79348471,0.60859019,0,0)" />
        <ellipse
           style="display:inline;fill:none;fill-opacity:1;stroke:#000000;stroke-width:0.88495106;stroke-linecap:round;stroke-linejoin:round;stroke-miterlimit:4;stroke-dasharray:none;stroke-opacity:1"
           id="path4236-4-6"
           cx="176.47255"
           cy="933.12604"
           rx="2.6344841"
           ry="2.1788332"
           transform="matrix(-0.99821301,0.05975605,0.04889835,0.99880376,0,0)" />
        <path
           style="display:inline;fill:none;fill-rule:evenodd;stroke:#000000;stroke-width:0.88492489px;stroke-linecap:round;stroke-linejoin:round;stroke-opacity:1"
           d="m -130.89024,933.74917 c 0,0 -1.75298,-0.59351 -3.18211,-2.13478 -1.52674,-1.64652 -1.83603,-5.18657 -1.83603,-5.18657 0,0 -0.38032,3.69797 -2.55431,5.29552 -0.90296,0.66355 -2.94726,1.07697 -2.94726,1.07697 0,0 2.04209,0.82555 4.95584,4.40284 1.45108,1.78155 3.45215,4.41669 3.45215,4.41669"
           id="path4238-6-7"
           inkscape:connector-curvature="0"
           sodipodi:nodetypes="cscscsc" />
      </g>
      <g
         transform="matrix(-1,0,0,1,-70.575351,0)"
         id="g4453">
        <ellipse
           style="display:inline;fill:none;fill-opacity:1;stroke:#000000;stroke-width:0.88492543;stroke-linecap:round;stroke-linejoin:round;stroke-miterlimit:4;stroke-dasharray:none;stroke-opacity:1"
           id="path4230-71-3"
           cx="-617.62036"
           cy="783.44165"
           rx="2.4847143"
           ry="2.2791862"
           transform="matrix(-0.7638439,-0.64540104,-0.64437627,0.76470859,0,0)" />
        <path
           style="display:inline;fill:none;fill-rule:evenodd;stroke:#000000;stroke-width:0.88492489px;stroke-linecap:round;stroke-linejoin:round;stroke-opacity:1"
           d="m -33.543259,995.01758 c 0,0 -0.319046,-2.06694 1.073614,-4.15823 1.39266,-2.09127 3.533297,-2.98876 3.533297,-2.98876 0,0 -4.312348,1.29696 -6.576952,0.84862 -2.276146,-0.45063 -2.971549,-2.47638 -4.772388,-1.8872 -1.591042,0.52054 -1.635489,2.81811 -0.861638,4.12315 0.773883,1.30507 2.485652,2.52709 2.485652,2.52709"
           id="path4232-3-3"
           inkscape:connector-curvature="0"
           sodipodi:nodetypes="cscsssc" />
      </g>
      <path
         inkscape:connector-curvature="0"
         id="path4347-8"
         d="m -142.54986,999.03776 0.30838,3.52424 -5.94714,0.044 0.66079,4.3612 -8.45815,-4.7577 6.34361,-7.88547 1.05727,4.4053 z"
         style="fill:none;fill-rule:evenodd;stroke:#000000;stroke-width:0.88492489px;stroke-linecap:round;stroke-linejoin:round;stroke-opacity:1" />
    </g>
  </g>
</svg>
