<?xml version="1.0" encoding="UTF-8" standalone="no"?>
<!-- Created with Inkscape (http://www.inkscape.org/) -->

<svg
   xmlns:dc="http://purl.org/dc/elements/1.1/"
   xmlns:cc="http://creativecommons.org/ns#"
   xmlns:rdf="http://www.w3.org/1999/02/22-rdf-syntax-ns#"
   xmlns:svg="http://www.w3.org/2000/svg"
   xmlns="http://www.w3.org/2000/svg"
   xmlns:sodipodi="http://sodipodi.sourceforge.net/DTD/sodipodi-0.dtd"
   xmlns:inkscape="http://www.inkscape.org/namespaces/inkscape"
   width="160"
   height="160"
   viewBox="0 0 160 160"
   id="svg5696"
   version="1.1"
   inkscape:version="0.91 r13725"
   sodipodi:docname="dance__up_&amp;_down.svg"
   inkscape:export-filename="C:\workdir\dir\ScenographyAssets\dance\dance__up_&amp;_down.png"
   inkscape:export-xdpi="288"
   inkscape:export-ydpi="288">
  <defs
     id="defs5698" />
  <sodipodi:namedview
     id="base"
     pagecolor="#ffffff"
     bordercolor="#666666"
     borderopacity="1.0"
     inkscape:pageopacity="0.0"
     inkscape:pageshadow="2"
     inkscape:zoom="1.4937631"
     inkscape:cx="-71.591591"
     inkscape:cy="65.461764"
     inkscape:document-units="px"
     inkscape:current-layer="layer1"
     showgrid="false"
     units="px"
     inkscape:window-width="1600"
     inkscape:window-height="1177"
     inkscape:window-x="-8"
     inkscape:window-y="-8"
     inkscape:window-maximized="1" />
  <metadata
     id="metadata5701">
    <rdf:RDF>
      <cc:Work
         rdf:about="">
        <dc:format>image/svg+xml</dc:format>
        <dc:type
           rdf:resource="http://purl.org/dc/dcmitype/StillImage" />
        <dc:title></dc:title>
      </cc:Work>
    </rdf:RDF>
  </metadata>
  <g
     inkscape:label="レイヤー 1"
     inkscape:groupmode="layer"
     id="layer1"
     transform="translate(0,-892.36216)">
    <g
       id="g4204"
       transform="matrix(1.1358571,0,0,1.1355877,65.156592,68.476985)">
      <g
         id="g4586"
         style="display:inline"
         transform="translate(-229.59751,695.17464)">
        <path
           style="fill:none;fill-rule:evenodd;stroke:#000000;stroke-width:0.88049686px;stroke-linecap:butt;stroke-linejoin:miter;stroke-opacity:1"
           d="m 228.92382,64.963956 c 2.06372,-2.858472 8.64425,-3.783672 12.87149,-3.84123 4.22724,-0.05756 9.52328,0.795039 11.52369,3.09994 2.00041,2.304901 1.93703,5.93518 1.88692,8.558529 -0.0501,2.623349 -0.14013,4.731049 -2.0217,6.80639 -1.88157,2.075341 -9.58075,2.984839 -13.81495,3.23472 -4.2342,0.249881 -7.93788,1.039389 -10.44545,-1.14563 -2.50757,-2.185019 -2.73395,-5.93841 -2.62821,-8.82809 0.10574,-2.88968 0.56449,-5.026157 2.62821,-7.884629 z"
           id="path4196"
           inkscape:connector-curvature="0"
           sodipodi:nodetypes="zzzzzzzzz" />
        <circle
           style="fill:none;fill-opacity:1;stroke:#000000;stroke-width:0.88049686;stroke-linecap:round;stroke-linejoin:round;stroke-miterlimit:4;stroke-dasharray:none;stroke-opacity:1"
           id="path4198"
           cx="230.06349"
           cy="73.78228"
           r="2.0013809" />
        <ellipse
           style="fill:none;fill-opacity:1;stroke:#000000;stroke-width:0.88049686;stroke-linecap:round;stroke-linejoin:round;stroke-miterlimit:4;stroke-dasharray:none;stroke-opacity:1"
           id="path4200"
           cx="242.47681"
           cy="73.496376"
           rx="2.1681623"
           ry="2.1443367" />
        <path
           style="fill:none;fill-rule:evenodd;stroke:#000000;stroke-width:0.88049686px;stroke-linecap:round;stroke-linejoin:miter;stroke-opacity:1"
           d="m 255.20592,75.881135 c 0,0 3.37738,-0.340058 7.88463,2.35865 4.50725,2.698708 5.12164,7.14334 5.12164,7.14334"
           id="path4202"
           inkscape:connector-curvature="0"
           sodipodi:nodetypes="czc" />
        <path
           style="fill:none;fill-rule:evenodd;stroke:#000000;stroke-width:0.88049686px;stroke-linecap:round;stroke-linejoin:round;stroke-opacity:1"
           d="m 269.70989,100.37206 -12.58011,-7.052488 0.0477,-8.529694 2.95442,-1.858425 c 0,0 5.45468,1.373956 11.43646,4.145717 5.98178,2.771761 11.33637,7.710033 11.33637,7.710033"
           id="path4204"
           inkscape:connector-curvature="0"
           sodipodi:nodetypes="cccczc" />
        <path
           style="fill:none;fill-rule:evenodd;stroke:#000000;stroke-width:0.88049686px;stroke-linecap:round;stroke-linejoin:miter;stroke-opacity:1"
           d="m 208.23891,91.365843 14.7721,-6.671269"
           id="path4206"
           inkscape:connector-curvature="0" />
        <path
           style="fill:none;fill-rule:evenodd;stroke:#000000;stroke-width:0.88049686px;stroke-linecap:round;stroke-linejoin:miter;stroke-opacity:1"
           d="m 228.10358,80.946947 c 0,0 -2.13225,0.372712 -3.26743,1.217809 -1.13518,0.845097 -5.26827,9.580944 -4.76833,18.500944 0.49994,8.92 2.98326,14.79944 6.09301,16.45811 3.10975,1.65867 12.01916,3.32242 21.5648,3.77384 9.54564,0.45142 15.29753,-3.84123 15.29753,-3.84123"
           id="path4208"
           inkscape:connector-curvature="0"
           sodipodi:nodetypes="czzzzc" />
        <path
           style="fill:none;fill-rule:evenodd;stroke:#000000;stroke-width:0.88049686px;stroke-linecap:round;stroke-linejoin:miter;stroke-opacity:1"
           d="m 219.82617,99.467635 c 0,0 -5.13247,-5.988806 -8.22158,-7.14334 -3.08911,-1.154534 -6.37148,-1.852461 -8.89548,0 -2.524,1.852461 -4.08325,6.553071 -2.83038,9.232425 1.25287,2.67935 8.17488,6.1843 11.92803,8.01941 3.75315,1.83511 10.31067,2.89777 10.31067,2.89777"
           id="path4210"
           inkscape:connector-curvature="0"
           sodipodi:nodetypes="czzzzc" />
        <path
           style="fill:none;fill-rule:evenodd;stroke:#000000;stroke-width:0.88049686px;stroke-linecap:butt;stroke-linejoin:miter;stroke-opacity:1"
           d="m 254.59941,112.87824 c 1.08737,4.80693 11.82935,4.32065 17.38662,3.43689 5.55727,-0.88376 12.56909,-2.67084 14.89319,-4.91947 2.3241,-2.24863 3.42497,-7.47818 2.08909,-10.71501 -1.33588,-3.23683 -2.78236,-5.359317 -7.00856,-5.795535 -4.2262,-0.436218 -9.15047,3.81238 -12.46715,5.795535 -3.31668,1.98315 -2.93292,3.05137 -5.3912,5.12164 -2.45828,2.07027 -10.58936,2.26902 -9.50199,7.07595 z"
           id="path4212"
           inkscape:connector-curvature="0"
           sodipodi:nodetypes="zzzzzzzz" />
        <path
           style="fill:none;fill-rule:evenodd;stroke:#000000;stroke-width:0.88049686px;stroke-linecap:round;stroke-linejoin:miter;stroke-opacity:1"
           d="m 211.95576,126.2947 c 0,0 -1.23895,1.096 -1.14365,3.81216 0.0953,2.71616 1.23895,3.90746 1.23895,3.90746"
           id="path4214"
           inkscape:connector-curvature="0" />
        <path
           style="fill:none;fill-rule:evenodd;stroke:#000000;stroke-width:0.88049686px;stroke-linecap:round;stroke-linejoin:miter;stroke-opacity:1"
           d="m 208.47717,130.48807 c 0,0 -0.42887,2.71616 0.71478,5.28937 1.14364,2.5732 2.90677,3.6692 2.90677,3.6692"
           id="path4216"
           inkscape:connector-curvature="0" />
        <path
           style="fill:none;fill-rule:evenodd;stroke:#000000;stroke-width:0.88049686px;stroke-linecap:round;stroke-linejoin:miter;stroke-opacity:1"
           d="m 262.55143,128.44533 c 0,0 -1.38149,-1.41519 0.30326,-3.50428 1.68475,-2.08909 3.87492,-2.93146 3.87492,-2.93146"
           id="path4218"
           inkscape:connector-curvature="0" />
        <path
           style="fill:none;fill-rule:evenodd;stroke:#000000;stroke-width:0.88049686px;stroke-linecap:round;stroke-linejoin:miter;stroke-opacity:1"
           d="m 267.67307,133.26372 c 0,0 -2.34226,-0.51445 -2.86407,-3.26842 -0.60651,-3.20102 0.84237,-4.21187 0.84237,-4.21187"
           id="path4220"
           inkscape:connector-curvature="0"
           sodipodi:nodetypes="csc" />
        <path
           style="fill:none;fill-rule:evenodd;stroke:#000000;stroke-width:0.88049686px;stroke-linecap:round;stroke-linejoin:round;stroke-opacity:1"
           d="m 226.01308,117.28849 c 0,0 -8.55104,3.13276 -10.29282,13.77141 -1.74178,10.63865 9.14917,15.96339 9.14917,15.96339 l -0.38121,4.24102 7.19544,1.57252 9.19682,-5.95649"
           id="path4222"
           inkscape:connector-curvature="0"
           sodipodi:nodetypes="czcccc" />
        <path
           style="fill:none;fill-rule:evenodd;stroke:#000000;stroke-width:0.88049686px;stroke-linecap:round;stroke-linejoin:round;stroke-opacity:1"
           d="m 242.02412,120.71943 c 0,0 -10.44952,3.74828 -8.86325,14.10497 1.58626,10.3567 11.53176,14.10497 11.53176,14.10497 l 0.14296,2.71616 5.47997,1.23895 9.43508,-6.90953 0.23826,-3.7645 c 0,0 -6.7252,-2.17117 -7.57666,-10.43577 -0.85145,-8.2646 10.29282,-14.05732 10.29282,-14.05732"
           id="path4224"
           inkscape:connector-curvature="0"
           sodipodi:nodetypes="czccccczc" />
        <path
           style="fill:none;fill-rule:evenodd;stroke:#000000;stroke-width:0.88049686px;stroke-linecap:round;stroke-linejoin:miter;stroke-opacity:1"
           d="m 224.00435,146.97758 c 0,0 -13.6491,6.02508 -13.00627,9.03026 0.64283,3.00518 14.91065,4.8264 17.99313,4.11079 3.08248,-0.71561 14.35407,-11.65847 14.35407,-11.65847"
           id="path4226"
           inkscape:connector-curvature="0"
           sodipodi:nodetypes="czzc" />
        <path
           style="fill:none;fill-rule:evenodd;stroke:#000000;stroke-width:0.88049686px;stroke-linecap:round;stroke-linejoin:miter;stroke-opacity:1"
           d="m 243.41267,148.72972 c 0,0 -11.44252,8.28846 -10.58023,11.05196 0.86229,2.7635 11.71695,3.10418 14.48885,2.6956 2.7719,-0.40858 21.04852,-15.56473 19.74527,-17.85835 -1.30325,-2.29362 -6.87378,-2.15648 -6.87378,-2.15648"
           id="path4228"
           inkscape:connector-curvature="0"
           sodipodi:nodetypes="czzzc" />
        <ellipse
           style="fill:none;fill-opacity:1;stroke:#000000;stroke-width:0.88049686;stroke-linecap:round;stroke-linejoin:round;stroke-miterlimit:4;stroke-dasharray:none;stroke-opacity:1"
           id="path4230"
           cx="184.13896"
           cy="149.40588"
           rx="2.4421611"
           ry="2.2396405" />
        <path
           style="fill:none;fill-rule:evenodd;stroke:#000000;stroke-width:0.88049686px;stroke-linecap:round;stroke-linejoin:round;stroke-opacity:1"
           d="m 186.53346,149.64415 c 0,0 1.9299,-3.69303 1.8346,-6.40919 -0.0953,-2.71616 -0.42887,-7.74344 -0.42887,-7.74344 0,0 0.0715,5.21789 2.23964,6.45684 2.16816,1.23895 4.16954,0.50035 4.78902,2.45407 0.61947,1.95373 -0.0477,4.02659 -1.50104,4.78902 -1.45338,0.76243 -2.71616,0.30974 -2.71616,0.30974"
           id="path4232"
           inkscape:connector-curvature="0" />
        <ellipse
           style="fill:none;fill-opacity:1;stroke:#000000;stroke-width:0.88049823;stroke-linecap:round;stroke-linejoin:round;stroke-miterlimit:4;stroke-dasharray:none;stroke-opacity:1"
           id="path4234"
           cx="258.17285"
           cy="101.41462"
           rx="3.5250578"
           ry="1.8464251"
           transform="matrix(0.98299758,-0.18361853,0.18131598,0.98342489,0,0)" />
        <ellipse
           style="fill:none;fill-opacity:1;stroke:#000000;stroke-width:0.88117015;stroke-linecap:round;stroke-linejoin:round;stroke-miterlimit:4;stroke-dasharray:none;stroke-opacity:1"
           id="path4236"
           cx="211.80786"
           cy="202.47197"
           rx="3.5369267"
           ry="1.6229788"
           transform="matrix(0.83810549,-0.54550819,0.49836259,0.8669687,0,0)" />
        <path
           style="fill:none;fill-rule:evenodd;stroke:#000000;stroke-width:0.88049686px;stroke-linecap:round;stroke-linejoin:round;stroke-opacity:1"
           d="m 275.11967,50.778361 c 0,0 1.3141,-2.29126 1.58366,-4.548825 0.26956,-2.257565 0.84238,-7.27812 0.84238,-7.27812 0,0 0.40434,4.009705 2.76299,5.72815 2.35865,1.718445 3.80753,2.594515 3.80753,2.594515 0,0 -1.68475,2.56082 -2.35865,4.953165 -0.6739,2.392345 -0.30325,5.492284 -0.30325,5.492284"
           id="path4238"
           inkscape:connector-curvature="0" />
      </g>
    </g>
  </g>
</svg>
