<?xml version="1.0" encoding="UTF-8" standalone="no"?>
<!-- Created with Inkscape (http://www.inkscape.org/) -->

<svg
   xmlns:dc="http://purl.org/dc/elements/1.1/"
   xmlns:cc="http://creativecommons.org/ns#"
   xmlns:rdf="http://www.w3.org/1999/02/22-rdf-syntax-ns#"
   xmlns:svg="http://www.w3.org/2000/svg"
   xmlns="http://www.w3.org/2000/svg"
   xmlns:sodipodi="http://sodipodi.sourceforge.net/DTD/sodipodi-0.dtd"
   xmlns:inkscape="http://www.inkscape.org/namespaces/inkscape"
   width="160"
   height="160"
   viewBox="0 0 160 160"
   id="svg4977"
   version="1.1"
   inkscape:version="0.91 r13725"
   sodipodi:docname="soccer__defense_rstep.svg"
   inkscape:export-filename="C:\workdir\dir\ScenographyAssets\soccer\soccer__defense_rstep.png"
   inkscape:export-xdpi="288"
   inkscape:export-ydpi="288">
  <defs
     id="defs4979">
    <pattern
       y="0"
       x="0"
       height="6"
       width="6"
       patternUnits="userSpaceOnUse"
       id="EMFhbasepattern" />
  </defs>
  <sodipodi:namedview
     id="base"
     pagecolor="#ffffff"
     bordercolor="#666666"
     borderopacity="1.0"
     inkscape:pageopacity="0.0"
     inkscape:pageshadow="2"
     inkscape:zoom="2.1125"
     inkscape:cx="1.5842488"
     inkscape:cy="106.26086"
     inkscape:document-units="px"
     inkscape:current-layer="layer1"
     showgrid="false"
     units="px"
     inkscape:window-width="1538"
     inkscape:window-height="877"
     inkscape:window-x="-8"
     inkscape:window-y="1192"
     inkscape:window-maximized="1" />
  <metadata
     id="metadata4982">
    <rdf:RDF>
      <cc:Work
         rdf:about="">
        <dc:format>image/svg+xml</dc:format>
        <dc:type
           rdf:resource="http://purl.org/dc/dcmitype/StillImage" />
        <dc:title></dc:title>
      </cc:Work>
    </rdf:RDF>
  </metadata>
  <g
     inkscape:label="レイヤー 1"
     inkscape:groupmode="layer"
     id="layer1"
     transform="translate(0,-892.36216)">
    <g
       id="g4191"
       transform="matrix(-0.97462189,0,0,0.97589591,248.66117,-40.587497)">
      <g
         id="g4722"
         style="display:inline"
         transform="translate(-117.31785,580.8471)">
        <ellipse
           style="fill:none;fill-opacity:1;stroke:#000000;stroke-width:1.02536893;stroke-linecap:round;stroke-linejoin:round;stroke-miterlimit:4;stroke-dasharray:none;stroke-opacity:1"
           id="path4401"
           cx="282.43149"
           cy="424.11893"
           rx="2.35865"
           ry="1.9880049" />
        <ellipse
           style="fill:none;fill-opacity:1;stroke:#000000;stroke-width:1.02536893;stroke-linecap:round;stroke-linejoin:round;stroke-miterlimit:4;stroke-dasharray:none;stroke-opacity:1"
           id="path4403"
           cx="296.38123"
           cy="423.24289"
           rx="2.1564798"
           ry="2.0553949" />
        <path
           style="fill:none;fill-rule:evenodd;stroke:#000000;stroke-width:1.02536893px;stroke-linecap:butt;stroke-linejoin:miter;stroke-opacity:1"
           d="m 277.17506,408.98989 c -3.50658,3.9881 -3.5698,14.37915 0.40434,17.58879 3.97414,3.20964 20.859,2.47067 24.59735,-1.54997 3.73835,-4.02064 3.42763,-12.5406 -1.07824,-17.18445 -4.50587,-4.64385 -20.41687,-2.84247 -23.92345,1.14563 z"
           id="path4405"
           inkscape:connector-curvature="0"
           sodipodi:nodetypes="zzzzz" />
        <path
           style="fill:none;fill-rule:evenodd;stroke:#000000;stroke-width:1.02536893px;stroke-linecap:round;stroke-linejoin:round;stroke-opacity:1"
           d="m 268.6139,426.52565 c 0,0 0.76635,-0.90686 2.3826,-1.42956 1.54953,-0.50113 4.5031,-0.88156 4.5031,-0.88156"
           id="path4407"
           inkscape:connector-curvature="0"
           sodipodi:nodetypes="csc" />
        <path
           style="fill:none;fill-rule:evenodd;stroke:#000000;stroke-width:1.02536893px;stroke-linecap:round;stroke-linejoin:miter;stroke-opacity:1"
           d="m 303.8525,422.97558 c 0,0 1.78695,-0.0715 3.43094,0.57182 1.64399,0.64331 2.35708,1.39826 2.35708,1.39826"
           id="path4409"
           inkscape:connector-curvature="0"
           sodipodi:nodetypes="csc" />
        <path
           style="fill:none;fill-rule:evenodd;stroke:#000000;stroke-width:1.02536893px;stroke-linecap:round;stroke-linejoin:round;stroke-opacity:1"
           d="m 247.23755,435.91798 c 0,0 4.26192,-0.10687 10.05746,0.49964 5.79554,0.60651 10.00742,1.04454 10.00742,1.04454 0,0 3.95762,-8.39211 2.99885,-9.67046 -1.61736,-2.15647 -14.48885,-3.94231 -21.16046,-3.43689"
           id="path4411"
           inkscape:connector-curvature="0"
           sodipodi:nodetypes="cscsc" />
        <path
           style="fill:none;fill-rule:evenodd;stroke:#000000;stroke-width:1.02536893px;stroke-linecap:round;stroke-linejoin:miter;stroke-opacity:1"
           d="m 330.07621,420.78314 c 0,0 -18.1953,2.86408 -19.17245,3.3695 -0.97716,0.50543 -2.6956,2.52713 -2.79669,3.30211 -0.10108,0.77499 1.58367,5.86293 3.23472,6.57052 1.65106,0.7076 15.33123,-0.60651 19.84636,-1.65105"
           id="path4413"
           inkscape:connector-curvature="0" />
        <path
           style="fill:none;fill-rule:evenodd;stroke:#000000;stroke-width:1.02536893px;stroke-linecap:round;stroke-linejoin:miter;stroke-opacity:1"
           d="m 264.51583,437.46177 c 0,0 -1.33425,8.625 -0.42886,15.20096 0.90538,6.57597 2.54637,10.36589 4.45475,11.86533 1.33426,1.04834 6.17162,4.05041 23.08806,3.6692 19.72657,-0.44454 22.49171,-7.67196 23.44475,-10.14986 0.95304,-2.4779 1.52486,-7.57666 1.66781,-10.05456 0.14296,-2.4779 -0.33356,-10.48342 -1.33425,-13.43784"
           id="path4415"
           inkscape:connector-curvature="0"
           sodipodi:nodetypes="csssssc" />
        <path
           style="fill:none;fill-rule:evenodd;stroke:#000000;stroke-width:1.02536893px;stroke-linecap:butt;stroke-linejoin:miter;stroke-opacity:1"
           d="m 218.14142,426.84824 c -1.96982,8.52367 8.42615,6.08549 11.489,7.84177 3.06285,1.75628 3.6861,2.51687 6.63891,3.00802 2.95281,0.49115 7.13262,1.23292 9.90633,-1.14563 2.77371,-2.37855 4.79074,-5.97394 3.16733,-11.52369 -1.62341,-5.54975 -29.23175,-6.70414 -31.20157,1.81953 z"
           id="path4417"
           inkscape:connector-curvature="0"
           sodipodi:nodetypes="zzzzzz" />
        <path
           style="fill:none;fill-rule:evenodd;stroke:#000000;stroke-width:1.02536893px;stroke-linecap:butt;stroke-linejoin:miter;stroke-opacity:1"
           d="m 329.96307,421.0695 c -1.90617,2.37939 -1.78218,8.68986 0.95304,10.9123 2.73522,2.22244 11.44987,2.12797 13.81905,1.71547 2.36918,-0.4125 4.04635,-1.87172 7.14779,-2.43025 3.10144,-0.55853 10.99091,-0.1339 10.95994,-7.62431 -0.031,-7.49041 -13.5703,-7.06401 -19.34668,-6.76657 -5.77638,0.29744 -11.62697,1.81397 -13.53314,4.19336 z"
           id="path4419"
           inkscape:connector-curvature="0"
           sodipodi:nodetypes="zzzzzzz" />
        <path
           style="fill:none;fill-rule:evenodd;stroke:#000000;stroke-width:1.02536893px;stroke-linecap:round;stroke-linejoin:round;stroke-opacity:1"
           d="m 270.43606,466.06922 c 0,0 -9.16504,10.64762 -12.46715,15.23014 -3.30211,4.58252 -9.50199,15.02797 -9.50199,15.02797 l -1.88692,1.75214 -0.26956,2.96516 5.99771,0.80868 11.52369,-4.85208 c 0,0 5.32381,-10.71501 8.0868,-15.29753 2.76299,-4.58252 9.36721,-13.34322 9.36721,-13.34322"
           id="path4421"
           inkscape:connector-curvature="0" />
        <path
           style="fill:none;fill-rule:evenodd;stroke:#000000;stroke-width:1.02536893px;stroke-linecap:round;stroke-linejoin:round;stroke-opacity:1"
           d="m 301.50285,467.5518 c 0,0 3.63906,2.49343 6.53683,5.52598 2.89777,3.03255 4.78469,6.60422 4.78469,6.60422 l -7.54768,9.77155 0.0674,3.97601 8.89548,3.90862 4.24557,-3.43689 0,-1.41519 9.56938,-12.93888 -0.80868,-5.52598 c 0,0 -4.98686,-4.31296 -7.81724,-6.13249 -2.83038,-1.81953 -7.88463,-4.38035 -7.88463,-4.38035"
           id="path4423"
           inkscape:connector-curvature="0" />
        <path
           style="fill:none;fill-rule:evenodd;stroke:#000000;stroke-width:1.02536893px;stroke-linecap:butt;stroke-linejoin:round;stroke-opacity:1"
           d="m 333.98483,455.01726 -0.26956,7.07595 5.12164,-0.84238 0.0674,4.24557 10.1422,-7.48029 -9.80525,-6.0314 -0.13478,4.0434 z"
           id="path4425"
           inkscape:connector-curvature="0" />
        <path
           style="fill:none;fill-rule:evenodd;stroke:#000000;stroke-width:1.02536893px;stroke-linecap:round;stroke-linejoin:miter;stroke-opacity:1"
           d="m 246.3128,498.45623 c 0,0 -13.24724,4.71754 -12.72306,7.38605 0.52417,2.66851 12.15124,3.7645 15.77278,3.14503 3.62155,-0.61948 19.68024,-9.86395 19.48964,-12.38951 -0.16105,-2.13402 -3.38328,-1.90607 -3.38328,-1.90607"
           id="path4427"
           inkscape:connector-curvature="0"
           sodipodi:nodetypes="csssc" />
        <path
           style="fill:none;fill-rule:evenodd;stroke:#000000;stroke-width:1.02536893px;stroke-linecap:butt;stroke-linejoin:miter;stroke-opacity:1"
           d="m 306.21127,487.8775 c 0,0 -0.95304,-0.66712 -2.62086,-0.47652 -1.66781,0.19061 -7.15526,3.93356 -6.43301,7.4337 0.61947,3.00207 17.39295,12.53246 22.25345,13.05663 5.87497,0.63358 11.08138,-4.96389 10.67403,-8.33909 -0.33356,-2.7638 -10.62638,-7.76726 -10.62638,-7.76726"
           id="path4429"
           inkscape:connector-curvature="0"
           sodipodi:nodetypes="cssssc" />
      </g>
    </g>
  </g>
</svg>
