<?xml version="1.0" encoding="UTF-8" standalone="no"?>
<!-- Created with Inkscape (http://www.inkscape.org/) -->

<svg
   xmlns:dc="http://purl.org/dc/elements/1.1/"
   xmlns:cc="http://creativecommons.org/ns#"
   xmlns:rdf="http://www.w3.org/1999/02/22-rdf-syntax-ns#"
   xmlns:svg="http://www.w3.org/2000/svg"
   xmlns="http://www.w3.org/2000/svg"
   xmlns:sodipodi="http://sodipodi.sourceforge.net/DTD/sodipodi-0.dtd"
   xmlns:inkscape="http://www.inkscape.org/namespaces/inkscape"
   width="160"
   height="160"
   viewBox="0 0 160 160"
   id="svg4977"
   version="1.1"
   inkscape:version="0.91 r13725"
   sodipodi:docname="soccer__pass_to_left.svg"
   inkscape:export-filename="C:\workdir\dir\ScenographyAssets\soccer\soccer__pass_to_left.png"
   inkscape:export-xdpi="288"
   inkscape:export-ydpi="288">
  <defs
     id="defs4979">
    <pattern
       y="0"
       x="0"
       height="6"
       width="6"
       patternUnits="userSpaceOnUse"
       id="EMFhbasepattern" />
  </defs>
  <sodipodi:namedview
     id="base"
     pagecolor="#ffffff"
     bordercolor="#666666"
     borderopacity="1.0"
     inkscape:pageopacity="0.0"
     inkscape:pageshadow="2"
     inkscape:zoom="2.1125"
     inkscape:cx="-39.137221"
     inkscape:cy="17.792678"
     inkscape:document-units="px"
     inkscape:current-layer="layer1"
     showgrid="false"
     units="px"
     inkscape:window-width="1600"
     inkscape:window-height="1177"
     inkscape:window-x="-8"
     inkscape:window-y="-8"
     inkscape:window-maximized="1" />
  <metadata
     id="metadata4982">
    <rdf:RDF>
      <cc:Work
         rdf:about="">
        <dc:format>image/svg+xml</dc:format>
        <dc:type
           rdf:resource="http://purl.org/dc/dcmitype/StillImage" />
        <dc:title></dc:title>
      </cc:Work>
    </rdf:RDF>
  </metadata>
  <g
     inkscape:label="レイヤー 1"
     inkscape:groupmode="layer"
     id="layer1"
     transform="translate(0,-892.36216)">
    <g
       id="g4156"
       transform="matrix(1.2200752,0,0,1.2193823,-19.823661,-211.31894)">
      <path
         sodipodi:nodetypes="zzzzz"
         inkscape:connector-curvature="0"
         id="path4157"
         d="m 91.381865,916.60404 c 2.912697,1.65573 3.656296,13.51394 1.944444,15.33333 -1.711851,1.81939 -19.553108,2.51072 -23.166667,-0.11111 -3.61356,-2.62183 -2.040189,-11.01778 0.944444,-14.27778 2.984634,-3.25999 17.365081,-2.60017 20.277779,-0.94444 z"
         style="fill:none;fill-rule:evenodd;stroke:#000000;stroke-width:0.8198545px;stroke-linecap:butt;stroke-linejoin:miter;stroke-opacity:1" />
      <ellipse
         transform="scale(-1,1)"
         ry="1.7222222"
         rx="1.4444444"
         cy="924.93738"
         cx="-91.15966"
         id="path4159"
         style="fill:none;fill-opacity:1;stroke:#000000;stroke-width:0.8198545;stroke-linecap:round;stroke-linejoin:round;stroke-miterlimit:4;stroke-dasharray:none;stroke-opacity:1" />
      <ellipse
         transform="scale(-1,1)"
         ry="1.8611112"
         rx="1.7222222"
         cy="925.13184"
         cx="-80.548523"
         id="path4161"
         style="fill:none;fill-opacity:1;stroke:#000000;stroke-width:0.8198545;stroke-linecap:round;stroke-linejoin:round;stroke-miterlimit:4;stroke-dasharray:none;stroke-opacity:1" />
      <path
         sodipodi:nodetypes="csc"
         inkscape:connector-curvature="0"
         id="path4163"
         d="m 69.104086,931.21515 c 0,0 -3.055564,0.77778 -5.000008,2.52778 -1.944445,1.75 -2.999992,5 -2.999992,5"
         style="fill:none;fill-rule:evenodd;stroke:#000000;stroke-width:0.8198545px;stroke-linecap:round;stroke-linejoin:miter;stroke-opacity:1" />
      <path
         sodipodi:nodetypes="csssc"
         inkscape:connector-curvature="0"
         id="path4165"
         d="m 93.226616,932.35323 c 0,0 3.849805,0.86425 5.813993,2.78915 1.964181,1.9249 5.581001,21.37073 0.174589,30.4061 -4.055555,6.77778 -31.666668,7.61112 -37.111112,-0.61111 -4.10525,-6.19976 -2.944445,-12.11111 -2.944445,-12.11111"
         style="fill:none;fill-rule:evenodd;stroke:#000000;stroke-width:0.8198545px;stroke-linecap:round;stroke-linejoin:miter;stroke-opacity:1" />
      <path
         inkscape:connector-curvature="0"
         id="path4167"
         d="m 109.02075,947.63182 -7.80555,-6.91667"
         style="fill:none;fill-rule:evenodd;stroke:#000000;stroke-width:0.8198545px;stroke-linecap:round;stroke-linejoin:miter;stroke-opacity:1" />
      <path
         inkscape:connector-curvature="0"
         id="path4169"
         d="m 105.99298,955.79848 -3.69445,-3"
         style="fill:none;fill-rule:evenodd;stroke:#000000;stroke-width:0.8198545px;stroke-linecap:round;stroke-linejoin:miter;stroke-opacity:1" />
      <path
         sodipodi:nodetypes="zzssz"
         inkscape:connector-curvature="0"
         id="path4171"
         d="m 109.92219,947.79173 c -0.94368,-0.26897 -3.1184,0.26123 -3.81052,1.09995 -0.69211,0.83871 -0.76605,7.35539 0.39284,9.19238 1.15889,1.837 13.35158,11.41244 16.26346,7.89603 4.86283,-5.87239 -11.90209,-17.91939 -12.84578,-18.18836 z"
         style="fill:none;fill-rule:evenodd;stroke:#000000;stroke-width:0.8198545px;stroke-linecap:butt;stroke-linejoin:miter;stroke-opacity:1" />
      <path
         sodipodi:nodetypes="cssc"
         inkscape:connector-curvature="0"
         id="path4173"
         d="m 55.23926,956.552 c 0,0 14.389393,-12.83052 9.93879,-17.00985 -4.167343,-3.91333 -12.230524,7.29579 -13.592167,8.95669 -3.574814,4.36049 -5.106874,8.56385 -5.106874,8.56385"
         style="fill:none;fill-rule:evenodd;stroke:#000000;stroke-width:0.8198545px;stroke-linecap:round;stroke-linejoin:miter;stroke-opacity:1" />
      <path
         sodipodi:nodetypes="szzzzzs"
         inkscape:connector-curvature="0"
         id="path4175"
         d="m 53.510789,954.03784 c 2.640649,1.36577 2.444816,9.219 2.278454,11.86368 -0.166361,2.64469 -1.325254,2.6121 -1.571351,4.98903 -0.246096,2.37693 1.932285,10.44336 -3.29983,12.13867 -5.232115,1.69531 -7.095811,-8.79069 -7.071071,-14.73139 0.02473,-5.94071 0.731678,-9.09348 3.024847,-11.51013 2.29317,-2.41665 4.98151,-3.6071 6.638951,-2.74986 z"
         style="fill:none;fill-rule:evenodd;stroke:#000000;stroke-width:0.8198545px;stroke-linecap:butt;stroke-linejoin:miter;stroke-opacity:1" />
      <path
         inkscape:connector-curvature="0"
         id="path4177"
         d="m 97.659643,967.54848 10.555557,6.66667 1.16667,8.11111 -13.722227,11.05556"
         style="fill:none;fill-rule:evenodd;stroke:#000000;stroke-width:0.8198545px;stroke-linecap:round;stroke-linejoin:round;stroke-opacity:1" />
      <path
         sodipodi:nodetypes="cscc"
         inkscape:connector-curvature="0"
         id="path4179"
         d="m 85.715198,970.88182 c 0,0 8,6.44444 8.944445,6.61111 0.944444,0.16667 3.388889,-0.33333 3.388889,-0.33333 l -16.666668,7.88889"
         style="fill:none;fill-rule:evenodd;stroke:#000000;stroke-width:0.8198545px;stroke-linecap:round;stroke-linejoin:round;stroke-opacity:1" />
      <path
         inkscape:connector-curvature="0"
         id="path4181"
         d="m 80.715198,971.04848 -0.222223,13.55556"
         style="fill:none;fill-rule:evenodd;stroke:#000000;stroke-width:0.8198545px;stroke-linecap:round;stroke-linejoin:miter;stroke-opacity:1" />
      <path
         inkscape:connector-curvature="0"
         id="path4183"
         d="m 68.104086,969.1596 c 0,0 2.055556,16.11111 2.166667,19.77777 0.111111,3.66667 -0.166667,18.38893 -0.166667,18.38893 l 6.277778,4.7777 4.111111,0.1112 -0.111111,-8.4445"
         style="fill:none;fill-rule:evenodd;stroke:#000000;stroke-width:0.8198545px;stroke-linecap:round;stroke-linejoin:round;stroke-opacity:1" />
      <path
         inkscape:connector-curvature="0"
         id="path4185"
         d="m 79.215198,998.99293 -13.444445,7.55557"
         style="fill:none;fill-rule:evenodd;stroke:#000000;stroke-width:0.8198545px;stroke-linecap:round;stroke-linejoin:miter;stroke-opacity:1" />
      <path
         inkscape:connector-curvature="0"
         id="path4187"
         d="m 68.54853,1000.7707 -6.722222,4.2222"
         style="fill:none;fill-rule:evenodd;stroke:#000000;stroke-width:0.8198545px;stroke-linecap:round;stroke-linejoin:miter;stroke-opacity:1" />
      <path
         inkscape:connector-curvature="0"
         id="path4189"
         d="m 72.715197,1006.9374 -4.444444,2.8333"
         style="fill:none;fill-rule:evenodd;stroke:#000000;stroke-width:0.8198545px;stroke-linecap:round;stroke-linejoin:miter;stroke-opacity:1" />
      <path
         sodipodi:nodetypes="zzzzz"
         inkscape:connector-curvature="0"
         id="path4191"
         d="m 97.881865,996.21515 c 1.928649,3.34891 2.820865,10.50415 0.444444,13.66665 -2.376424,3.1625 -23.263467,-7.2092 -25.888889,-12.99998 -2.625423,-5.79083 -2.314727,-11.60554 0.5,-13.72222 2.814727,-2.11669 23.015796,9.70665 24.944445,13.05555 z"
         style="fill:none;fill-rule:evenodd;stroke:#000000;stroke-width:0.8198545px;stroke-linecap:butt;stroke-linejoin:miter;stroke-opacity:1" />
      <path
         sodipodi:nodetypes="cssc"
         inkscape:connector-curvature="0"
         id="path4193"
         d="m 80.770753,1006.604 c 0,0 10.363754,5.9661 9.333334,9.6667 -0.907941,3.2607 -12.833845,3.9495 -14.500001,3.7778 -1.813985,-0.187 -5.111111,-4 -5.111111,-4"
         style="fill:none;fill-rule:evenodd;stroke:#000000;stroke-width:0.8198545px;stroke-linecap:round;stroke-linejoin:miter;stroke-opacity:1" />
      <circle
         transform="scale(-1,1)"
         r="15.166668"
         cy="1014.3262"
         cx="-55.159645"
         id="path4195"
         style="fill:none;fill-opacity:1;stroke:#000000;stroke-width:0.8198545;stroke-linecap:round;stroke-linejoin:round;stroke-miterlimit:4;stroke-dasharray:none;stroke-opacity:1" />
      <g
         id="text4197-9"
         style="font-style:normal;font-weight:normal;font-size:10px;line-height:125%;font-family:sans-serif;letter-spacing:0px;word-spacing:0px;display:inline;fill:#000000;fill-opacity:1;stroke:none;stroke-width:1px;stroke-linecap:butt;stroke-linejoin:miter;stroke-opacity:1"
         transform="matrix(-0.82438875,0,0,0.82438875,102.77076,967.27062)">
        <path
           inkscape:connector-curvature="0"
           id="path4231-3"
           style="font-style:normal;font-variant:normal;font-weight:bold;font-stretch:normal;font-size:15px;font-family:'Comic Sans MS';-inkscape-font-specification:'Comic Sans MS Bold'"
           d="m 54.479301,62.107403 q 0.864258,0.380859 2.67334,0.681152 1.655273,0.27832 2.717285,0.27832 1.794434,0 1.794434,-1.574707 0,0.124512 -0.146485,-2.321777 -0.190429,-3.178711 -0.190429,-7.075195 0,-0.417481 -0.285645,-0.710449 -0.292969,-0.292969 -0.732422,-0.292969 -0.439453,0 -0.732422,0.292969 -0.292969,0.292968 -0.292969,0.710449 0,3.903808 0.197754,7.192383 0.06592,0.585937 0.139161,1.794433 -1.73584,-0.0293 -4.453125,-0.849609 -0.168457,-0.05127 -0.322266,-0.05127 -0.461426,0 -0.74707,0.336914 -0.256348,0.300293 -0.256348,0.673828 0,0.629883 0.637207,0.915528 z" />
      </g>
    </g>
  </g>
</svg>
