<?xml version="1.0" encoding="UTF-8" standalone="no"?>
<!-- Created with Inkscape (http://www.inkscape.org/) -->

<svg
   xmlns:dc="http://purl.org/dc/elements/1.1/"
   xmlns:cc="http://creativecommons.org/ns#"
   xmlns:rdf="http://www.w3.org/1999/02/22-rdf-syntax-ns#"
   xmlns:svg="http://www.w3.org/2000/svg"
   xmlns="http://www.w3.org/2000/svg"
   xmlns:sodipodi="http://sodipodi.sourceforge.net/DTD/sodipodi-0.dtd"
   xmlns:inkscape="http://www.inkscape.org/namespaces/inkscape"
   width="160"
   height="160"
   viewBox="0 0 160 160"
   id="svg4977"
   version="1.1"
   inkscape:version="0.91 r13725"
   sodipodi:docname="soccer__rkick.svg"
   inkscape:export-filename="C:\workdir\dir\ScenographyAssets\soccer\soccer__rkick.png"
   inkscape:export-xdpi="288"
   inkscape:export-ydpi="288">
  <defs
     id="defs4979">
    <pattern
       y="0"
       x="0"
       height="6"
       width="6"
       patternUnits="userSpaceOnUse"
       id="EMFhbasepattern" />
  </defs>
  <sodipodi:namedview
     id="base"
     pagecolor="#ffffff"
     bordercolor="#666666"
     borderopacity="1.0"
     inkscape:pageopacity="0.0"
     inkscape:pageshadow="2"
     inkscape:zoom="2.1125"
     inkscape:cx="-19.478097"
     inkscape:cy="43.730758"
     inkscape:document-units="px"
     inkscape:current-layer="layer1"
     showgrid="false"
     units="px"
     inkscape:window-width="1600"
     inkscape:window-height="1177"
     inkscape:window-x="-8"
     inkscape:window-y="-8"
     inkscape:window-maximized="1" />
  <metadata
     id="metadata4982">
    <rdf:RDF>
      <cc:Work
         rdf:about="">
        <dc:format>image/svg+xml</dc:format>
        <dc:type
           rdf:resource="http://purl.org/dc/dcmitype/StillImage" />
        <dc:title></dc:title>
      </cc:Work>
    </rdf:RDF>
  </metadata>
  <g
     inkscape:label="レイヤー 1"
     inkscape:groupmode="layer"
     id="layer1"
     transform="translate(0,-892.36216)">
    <g
       id="g4153"
       transform="matrix(1.0994509,0,0,1.0997661,-7.9838151,-97.009193)">
      <path
         style="fill:none;stroke:#000000;stroke-width:0.90941459;stroke-linecap:round;stroke-linejoin:round;stroke-miterlimit:4;stroke-dasharray:none;stroke-opacity:1"
         d="m 115.73426,941.01742 c 0,8.28436 6.73875,14.96128 14.96135,14.96128 8.28435,0 14.96128,-6.67692 14.96128,-14.96128 0,-8.22259 -6.67693,-14.89951 -14.96128,-14.89951 -8.2226,0 -14.96135,6.67692 -14.96135,14.89951 z"
         id="path4166"
         inkscape:connector-curvature="0" />
      <path
         style="fill:none;stroke:#000000;stroke-width:0.90941459;stroke-linecap:round;stroke-linejoin:round;stroke-miterlimit:4;stroke-dasharray:none;stroke-opacity:1"
         d="m 129.21184,952.64028 -3.21486,4.69855"
         id="path4168"
         inkscape:connector-curvature="0" />
      <path
         style="fill:none;stroke:#000000;stroke-width:0.90941459;stroke-linecap:round;stroke-linejoin:round;stroke-miterlimit:4;stroke-dasharray:none;stroke-opacity:1"
         d="m 126.12063,950.66192 -8.03705,13.10662"
         id="path4170"
         inkscape:connector-curvature="0" />
      <path
         style="fill:none;stroke:#000000;stroke-width:0.90941459;stroke-linecap:round;stroke-linejoin:round;stroke-miterlimit:4;stroke-dasharray:none;stroke-opacity:1"
         d="m 121.73112,951.09466 -3.21477,5.00767"
         id="path4172"
         inkscape:connector-curvature="0" />
      <path
         style="fill:none;stroke:#000000;stroke-width:0.90941459;stroke-linecap:round;stroke-linejoin:round;stroke-miterlimit:4;stroke-dasharray:none;stroke-opacity:1"
         d="m 73.879826,943.61396 c 0,1.05101 0.741889,1.85474 1.669251,1.85474 0.927362,0 1.669251,-0.80373 1.669251,-1.85474 0,-0.98919 -0.741889,-1.85465 -1.669251,-1.85465 -0.927362,0 -1.669251,0.86546 -1.669251,1.85465 z"
         id="path4174"
         inkscape:connector-curvature="0" />
      <path
         style="fill:none;stroke:#000000;stroke-width:0.90941459;stroke-linecap:round;stroke-linejoin:round;stroke-miterlimit:4;stroke-dasharray:none;stroke-opacity:1"
         d="m 62.813306,944.85044 c 0,1.17466 0.927362,2.10203 2.040196,2.10203 1.112834,0 1.978374,-0.92737 1.978374,-2.10203 0,-1.17467 -0.86554,-2.10203 -1.978374,-2.10203 -1.112834,0 -2.040196,0.92736 -2.040196,2.10203 z"
         id="path4176"
         inkscape:connector-curvature="0" />
      <path
         style="fill:none;stroke:#000000;stroke-width:0.90941459;stroke-linecap:butt;stroke-linejoin:miter;stroke-miterlimit:4;stroke-dasharray:none;stroke-opacity:1"
         d="m 75.734549,935.14413 c 3.338255,3.83308 3.894672,10.44821 1.174657,14.34312 -2.782086,3.83308 -17.001636,5.0695 -20.463786,2.28751 -3.46215,-2.84393 -3.77127,-8.4081 -1.7929,-13.53944 2.0402,-5.13139 17.681702,-6.86247 21.082029,-3.09119 z"
         id="path4178"
         inkscape:connector-curvature="0" />
      <path
         style="fill:none;stroke:#000000;stroke-width:0.90941459;stroke-linecap:butt;stroke-linejoin:miter;stroke-miterlimit:4;stroke-dasharray:none;stroke-opacity:1"
         d="m 122.10206,962.40839 c -2.782,-4.3895 -14.46668,-5.87328 -18.23795,-0.86553 -3.70945,5.00767 -3.956743,25.53303 -1.29831,30.97357 2.59662,5.4405 14.71406,4.94592 17.74344,1.48377 3.0293,-3.46217 4.57491,-27.14053 1.79282,-31.59181 z"
         id="path4180"
         inkscape:connector-curvature="0" />
      <path
         style="fill:none;stroke:#000000;stroke-width:0.90941459;stroke-linecap:round;stroke-linejoin:miter;stroke-miterlimit:4;stroke-dasharray:none;stroke-opacity:1"
         d="M 102.25668,965.00495 85.997106,957.33884"
         id="path4182"
         inkscape:connector-curvature="0" />
      <path
         style="fill:none;stroke:#000000;stroke-width:0.90941459;stroke-linecap:round;stroke-linejoin:miter;stroke-miterlimit:4;stroke-dasharray:none;stroke-opacity:1"
         d="M 100.83473,974.21673 88.593635,964.81947"
         id="path4184"
         inkscape:connector-curvature="0" />
      <path
         style="fill:none;stroke:#000000;stroke-width:0.90941459;stroke-linecap:round;stroke-linejoin:miter;stroke-miterlimit:4;stroke-dasharray:none;stroke-opacity:1"
         d="m 55.02347,950.47644 c 0,0 -1.42196,0.61822 -2.53479,1.60743 -1.29831,1.17467 -1.7929,2.53469 -1.7929,2.53469"
         id="path4186"
         inkscape:connector-curvature="0" />
      <path
         style="fill:none;stroke:#000000;stroke-width:0.90941459;stroke-linecap:round;stroke-linejoin:miter;stroke-miterlimit:4;stroke-dasharray:none;stroke-opacity:1"
         d="m 76.661911,949.98183 c 0,0 0.74189,-0.61822 2.781837,0.0619 1.298307,0.43278 6.182413,2.84392 8.778942,13.41576 2.534791,10.51003 0.618242,16.44488 0.618242,16.44488"
         id="path4188"
         inkscape:connector-curvature="0" />
      <path
         style="fill:none;stroke:#000000;stroke-width:0.90941459;stroke-linecap:round;stroke-linejoin:miter;stroke-miterlimit:4;stroke-dasharray:none;stroke-opacity:1"
         d="m 47.35728,965.06675 c 0,0 -2.53479,6.92431 -0.4946,14.46661 1.7929,6.4297 9.39727,7.60437 9.39727,7.60437"
         id="path4190"
         inkscape:connector-curvature="0" />
      <path
         style="fill:none;stroke:#000000;stroke-width:0.90941459;stroke-linecap:round;stroke-linejoin:round;stroke-miterlimit:4;stroke-dasharray:none;stroke-opacity:1"
         d="m 100.71108,976.81308 -44.38931,10.38645 4.142221,6.3679 41.792689,-1.11284"
         id="path4192"
         inkscape:connector-curvature="0" />
      <path
         style="fill:none;stroke:#000000;stroke-width:0.90941459;stroke-linecap:round;stroke-linejoin:round;stroke-miterlimit:4;stroke-dasharray:none;stroke-opacity:1"
         d="m 80.80388,993.25833 -14.033829,13.97227 0.556417,3.7713 -5.255051,1.1128 -5.564167,-3.0294 0.12363,-3.5858 8.531733,-11.93206"
         id="path4194"
         inkscape:connector-curvature="0" />
      <path
         style="fill:none;stroke:#000000;stroke-width:0.90941459;stroke-linecap:round;stroke-linejoin:round;stroke-miterlimit:4;stroke-dasharray:none;stroke-opacity:1"
         d="m 67.017348,1007.787 c 0,0 10.448275,3.0912 10.571677,5.5024 0.185472,2.3493 -7.975064,5.3787 -12.4264,5.3168 -4.389515,-0.062 -16.939815,-8.4698 -16.939815,-10.51 0,-1.6075 4.76046,-3.3385 6.49154,-3.2149 1.97837,0.062 1.97837,0.3709 1.97837,0.3709"
         id="path4196"
         inkscape:connector-curvature="0" />
      <path
         style="fill:none;stroke:#000000;stroke-width:0.90941459;stroke-linecap:round;stroke-linejoin:miter;stroke-miterlimit:4;stroke-dasharray:none;stroke-opacity:1"
         d="m 33.8178,958.01889 c 0,0 17.4344,-3.58581 18.23811,-3.40034 0.74189,0.12355 3.21485,1.11283 3.64762,1.60745 0.43277,0.49458 1.42196,5.06956 0.43277,6.18239 -0.92736,1.17467 -18.85635,4.88403 -18.85635,4.88403"
         id="path4198"
         inkscape:connector-curvature="0" />
      <path
         style="fill:none;stroke:#000000;stroke-width:0.90941459;stroke-linecap:butt;stroke-linejoin:miter;stroke-miterlimit:4;stroke-dasharray:none;stroke-opacity:1"
         d="m 33.63232,958.45168 c 2.65844,1.54557 4.01857,7.91339 3.21486,10.44818 -0.80372,2.47295 -21.2675,8.5933 -22.38034,1.7929 -1.36013,-7.85158 16.50705,-13.84853 19.16548,-12.24108 z"
         id="path4200"
         inkscape:connector-curvature="0" />
      <path
         style="fill:#000000;fill-opacity:1;fill-rule:nonzero;stroke:none"
         d="m 133.38497,945.66195 c -0.18547,0 -0.43277,-0.0619 -0.55641,-0.2474 -1.23649,-1.17467 -2.59662,-1.91656 -4.01857,-2.41114 0,1.17467 0.0618,1.85472 0.0618,1.97836 0,0.2474 -0.12364,0.43278 -0.24731,0.55642 -0.18547,0.18547 -0.37095,0.24739 -0.61824,0.24739 -0.24731,0 -0.43277,-0.0619 -0.61824,-0.24739 -0.12364,-0.12355 -0.24731,-0.30911 -0.24731,-0.55642 0,-0.30911 0,-0.74189 0,-1.36011 0.0618,-0.61825 0.0618,-1.05103 0.0618,-1.36014 l 0,-4.88403 c 0,-0.24739 0.0618,-0.49458 0.24731,-0.68005 0.18547,-0.30911 0.49459,-0.43278 0.80371,-0.37095 0.98919,0.0619 1.48378,0.12355 1.5456,0.12355 0.55642,0.0619 1.05101,0.18548 1.42196,0.37095 1.73107,0.86553 2.59653,1.97836 2.59653,3.21477 0,0.55642 -0.18547,0.98917 -0.55634,1.42195 -0.37094,0.37094 -0.92736,0.74189 -1.60742,0.9892 1.05101,0.61822 1.85472,1.23647 2.41106,1.85472 0.12363,0.18547 0.18547,0.30911 0.18547,0.55642 0,0.18547 -0.0618,0.37094 -0.24731,0.55641 -0.18547,0.18548 -0.37094,0.2474 -0.61816,0.2474 z m -3.83309,-7.60428 c -0.0618,0 -0.30912,0 -0.74189,-0.0619 l 0,3.21478 c 0.12363,0 0.18547,0 0.2473,0 0.98919,0 1.73108,-0.12355 2.22567,-0.37094 0.18547,-0.0619 0.37095,-0.2474 0.55642,-0.37095 0.18547,-0.18547 0.2473,-0.30914 0.2473,-0.43278 0,-0.43269 -0.2473,-0.86544 -0.86554,-1.29822 -0.49459,-0.37094 -1.11283,-0.61825 -1.66925,-0.68005 z"
         id="path4204"
         inkscape:connector-curvature="0" />
    </g>
  </g>
</svg>
