<?xml version="1.0" encoding="UTF-8" standalone="no"?>
<!-- Created with Inkscape (http://www.inkscape.org/) -->

<svg
   xmlns:dc="http://purl.org/dc/elements/1.1/"
   xmlns:cc="http://creativecommons.org/ns#"
   xmlns:rdf="http://www.w3.org/1999/02/22-rdf-syntax-ns#"
   xmlns:svg="http://www.w3.org/2000/svg"
   xmlns="http://www.w3.org/2000/svg"
   xmlns:sodipodi="http://sodipodi.sourceforge.net/DTD/sodipodi-0.dtd"
   xmlns:inkscape="http://www.inkscape.org/namespaces/inkscape"
   width="160"
   height="160"
   viewBox="0 0 160 160"
   id="svg4977"
   version="1.1"
   inkscape:version="0.91 r13725"
   sodipodi:docname="soccer__lkick.svg"
   inkscape:export-filename="C:\workdir\dir\ScenographyAssets\soccer\soccer__lkick.png"
   inkscape:export-xdpi="288"
   inkscape:export-ydpi="288">
  <defs
     id="defs4979">
    <pattern
       y="0"
       x="0"
       height="6"
       width="6"
       patternUnits="userSpaceOnUse"
       id="EMFhbasepattern" />
  </defs>
  <sodipodi:namedview
     id="base"
     pagecolor="#ffffff"
     bordercolor="#666666"
     borderopacity="1.0"
     inkscape:pageopacity="0.0"
     inkscape:pageshadow="2"
     inkscape:zoom="2.1125"
     inkscape:cx="-7.2351543"
     inkscape:cy="49.831255"
     inkscape:document-units="px"
     inkscape:current-layer="layer1"
     showgrid="false"
     units="px"
     inkscape:window-width="1538"
     inkscape:window-height="877"
     inkscape:window-x="-8"
     inkscape:window-y="1192"
     inkscape:window-maximized="1" />
  <metadata
     id="metadata4982">
    <rdf:RDF>
      <cc:Work
         rdf:about="">
        <dc:format>image/svg+xml</dc:format>
        <dc:type
           rdf:resource="http://purl.org/dc/dcmitype/StillImage" />
        <dc:title></dc:title>
      </cc:Work>
    </rdf:RDF>
  </metadata>
  <g
     inkscape:label="レイヤー 1"
     inkscape:groupmode="layer"
     id="layer1"
     transform="translate(0,-892.36216)">
    <g
       id="g4153"
       transform="matrix(1.0994503,0,0,1.1002721,-7.9282821,-97.501121)">
      <path
         style="fill:none;stroke:#000000;stroke-width:0.90920568;stroke-linecap:round;stroke-linejoin:round;stroke-miterlimit:4;stroke-dasharray:none;stroke-opacity:1"
         d="m 44.265739,941.01736 c 0,8.28436 -6.738745,14.96128 -14.961354,14.96128 -8.28435,0 -14.961273,-6.67692 -14.961273,-14.96128 0,-8.22259 6.676923,-14.89951 14.961273,-14.89951 8.222609,0 14.961354,6.67692 14.961354,14.89951 z"
         id="path4166"
         inkscape:connector-curvature="0" />
      <path
         style="fill:none;stroke:#000000;stroke-width:0.90920568;stroke-linecap:round;stroke-linejoin:round;stroke-miterlimit:4;stroke-dasharray:none;stroke-opacity:1"
         d="m 30.788164,952.64023 3.214855,4.69855"
         id="path4168"
         inkscape:connector-curvature="0" />
      <path
         style="fill:none;stroke:#000000;stroke-width:0.90920568;stroke-linecap:round;stroke-linejoin:round;stroke-miterlimit:4;stroke-dasharray:none;stroke-opacity:1"
         d="m 33.879371,950.66186 8.037052,13.10662"
         id="path4170"
         inkscape:connector-curvature="0" />
      <path
         style="fill:none;stroke:#000000;stroke-width:0.90920568;stroke-linecap:round;stroke-linejoin:round;stroke-miterlimit:4;stroke-dasharray:none;stroke-opacity:1"
         d="m 38.268883,951.09461 3.214771,5.00767"
         id="path4172"
         inkscape:connector-curvature="0" />
      <path
         style="fill:none;stroke:#000000;stroke-width:0.90920568;stroke-linecap:round;stroke-linejoin:round;stroke-miterlimit:4;stroke-dasharray:none;stroke-opacity:1"
         d="m 86.120174,943.61391 c 0,1.051 -0.741889,1.85473 -1.669251,1.85473 -0.927362,0 -1.669251,-0.80373 -1.669251,-1.85473 0,-0.98919 0.741889,-1.85466 1.669251,-1.85466 0.927362,0 1.669251,0.86547 1.669251,1.85466 z"
         id="path4174"
         inkscape:connector-curvature="0" />
      <path
         style="fill:none;stroke:#000000;stroke-width:0.90920568;stroke-linecap:round;stroke-linejoin:round;stroke-miterlimit:4;stroke-dasharray:none;stroke-opacity:1"
         d="m 97.186694,944.85039 c 0,1.17466 -0.927362,2.10203 -2.040196,2.10203 -1.112834,0 -1.978374,-0.92737 -1.978374,-2.10203 0,-1.17467 0.86554,-2.10203 1.978374,-2.10203 1.112834,0 2.040196,0.92736 2.040196,2.10203 z"
         id="path4176"
         inkscape:connector-curvature="0" />
      <path
         style="fill:none;stroke:#000000;stroke-width:0.90920568;stroke-linecap:butt;stroke-linejoin:miter;stroke-miterlimit:4;stroke-dasharray:none;stroke-opacity:1"
         d="m 84.265451,935.14408 c -3.338255,3.83308 -3.894672,10.4482 -1.174657,14.34312 2.782086,3.83308 17.001636,5.0695 20.463786,2.2875 3.46215,-2.84392 3.77127,-8.40809 1.7929,-13.53943 -2.0402,-5.13139 -17.681702,-6.86247 -21.082029,-3.09119 z"
         id="path4178"
         inkscape:connector-curvature="0" />
      <path
         style="fill:none;stroke:#000000;stroke-width:0.90920568;stroke-linecap:butt;stroke-linejoin:miter;stroke-miterlimit:4;stroke-dasharray:none;stroke-opacity:1"
         d="m 37.897938,962.40834 c 2.782004,-4.3895 14.466681,-5.87328 18.23795,-0.86553 3.709448,5.00767 3.956745,25.53303 1.298307,30.97357 -2.596613,5.4405 -14.714057,4.94592 -17.74344,1.48377 -3.029298,-3.46217 -4.574902,-27.14053 -1.792817,-31.59181 z"
         id="path4180"
         inkscape:connector-curvature="0" />
      <path
         style="fill:none;stroke:#000000;stroke-width:0.90920568;stroke-linecap:round;stroke-linejoin:miter;stroke-miterlimit:4;stroke-dasharray:none;stroke-opacity:1"
         d="m 57.743318,965.00489 16.259576,-7.66611"
         id="path4182"
         inkscape:connector-curvature="0" />
      <path
         style="fill:none;stroke:#000000;stroke-width:0.90920568;stroke-linecap:round;stroke-linejoin:miter;stroke-miterlimit:4;stroke-dasharray:none;stroke-opacity:1"
         d="m 59.165271,974.21668 12.241094,-9.39726"
         id="path4184"
         inkscape:connector-curvature="0" />
      <path
         style="fill:none;stroke:#000000;stroke-width:0.90920568;stroke-linecap:round;stroke-linejoin:miter;stroke-miterlimit:4;stroke-dasharray:none;stroke-opacity:1"
         d="m 104.97653,950.47639 c 0,0 1.42196,0.61822 2.53479,1.60742 1.29831,1.17467 1.7929,2.53469 1.7929,2.53469"
         id="path4186"
         inkscape:connector-curvature="0" />
      <path
         style="fill:none;stroke:#000000;stroke-width:0.90920568;stroke-linecap:round;stroke-linejoin:miter;stroke-miterlimit:4;stroke-dasharray:none;stroke-opacity:1"
         d="m 83.338089,949.98178 c 0,0 -0.74189,-0.61822 -2.781837,0.0619 -1.298307,0.43278 -6.182413,2.84392 -8.778942,13.41576 -2.534791,10.51003 -0.618242,16.44488 -0.618242,16.44488"
         id="path4188"
         inkscape:connector-curvature="0" />
      <path
         style="fill:none;stroke:#000000;stroke-width:0.90920568;stroke-linecap:round;stroke-linejoin:miter;stroke-miterlimit:4;stroke-dasharray:none;stroke-opacity:1"
         d="m 112.64272,965.0667 c 0,0 2.53479,6.92431 0.4946,14.46661 -1.7929,6.4297 -9.39727,7.60437 -9.39727,7.60437"
         id="path4190"
         inkscape:connector-curvature="0" />
      <path
         style="fill:none;stroke:#000000;stroke-width:0.90920568;stroke-linecap:round;stroke-linejoin:round;stroke-miterlimit:4;stroke-dasharray:none;stroke-opacity:1"
         d="m 59.288919,976.81303 44.389311,10.38645 -4.142221,6.3679 -41.792691,-1.11284"
         id="path4192"
         inkscape:connector-curvature="0" />
      <path
         style="fill:none;stroke:#000000;stroke-width:0.90920568;stroke-linecap:round;stroke-linejoin:round;stroke-miterlimit:4;stroke-dasharray:none;stroke-opacity:1"
         d="m 79.19612,993.25827 14.033829,13.97223 -0.556417,3.7713 5.255051,1.1128 5.564167,-3.0294 -0.12363,-3.5858 -8.531733,-11.93202"
         id="path4194"
         inkscape:connector-curvature="0" />
      <path
         style="fill:none;stroke:#000000;stroke-width:0.90920568;stroke-linecap:round;stroke-linejoin:round;stroke-miterlimit:4;stroke-dasharray:none;stroke-opacity:1"
         d="m 92.982652,1007.7869 c 0,0 -10.448275,3.0912 -10.571677,5.5024 -0.185472,2.3493 7.975064,5.3787 12.4264,5.3168 4.389515,-0.062 16.939815,-8.4698 16.939815,-10.51 0,-1.6075 -4.76046,-3.3385 -6.49154,-3.2149 -1.97837,0.062 -1.97837,0.3709 -1.97837,0.3709"
         id="path4196"
         inkscape:connector-curvature="0" />
      <path
         style="fill:none;stroke:#000000;stroke-width:0.90920568;stroke-linecap:round;stroke-linejoin:miter;stroke-miterlimit:4;stroke-dasharray:none;stroke-opacity:1"
         d="m 126.1822,958.01884 c 0,0 -17.4344,-3.58581 -18.23811,-3.40034 -0.74189,0.12355 -3.21485,1.11283 -3.64762,1.60745 -0.43277,0.49458 -1.42196,5.06956 -0.43277,6.18239 0.92736,1.17467 18.85635,4.88403 18.85635,4.88403"
         id="path4198"
         inkscape:connector-curvature="0" />
      <path
         style="fill:none;stroke:#000000;stroke-width:0.90920568;stroke-linecap:butt;stroke-linejoin:miter;stroke-miterlimit:4;stroke-dasharray:none;stroke-opacity:1"
         d="m 126.36768,958.45162 c -2.65844,1.54558 -4.01857,7.91339 -3.21486,10.44819 0.80372,2.47295 21.2675,8.5933 22.38034,1.79289 1.36013,-7.85158 -16.50705,-13.84853 -19.16548,-12.24108 z"
         id="path4200"
         inkscape:connector-curvature="0" />
      <path
         style="fill:#000000;fill-opacity:1;fill-rule:nonzero;stroke:none"
         d="m 31.962823,945.22133 c -0.43277,0.18547 -1.174659,0.37095 -2.163843,0.55642 -0.927362,0.12355 -1.669252,0.18547 -2.225587,0.18547 -0.989187,0 -1.483779,-0.43278 -1.483779,-1.29831 0,0.0619 0,-0.55641 0.123639,-1.91655 0.06183,-1.731 0.123638,-3.64753 0.123638,-5.81139 0,-0.2474 0.06183,-0.43275 0.247306,-0.55642 0.185473,-0.18547 0.370945,-0.24739 0.618242,-0.24739 0.247307,0 0.432767,0.0619 0.61824,0.24739 0.123551,0.12355 0.185384,0.30914 0.185384,0.55642 0,2.16386 0,4.14222 -0.123638,5.93505 -0.06175,0.30911 -0.06175,0.8037 -0.12358,1.48378 0.92728,0 2.163761,-0.24739 3.64754,-0.68008 0.123639,-0.0619 0.185473,-0.0619 0.30912,-0.0619 0.247306,0 0.43277,0.0619 0.618242,0.24739 0.123639,0.18547 0.185472,0.37094 0.185472,0.55642 0,0.37094 -0.185472,0.61825 -0.556417,0.80372 z"
         id="path4202"
         inkscape:connector-curvature="0" />
    </g>
  </g>
</svg>
