<?xml version="1.0" encoding="UTF-8" standalone="no"?>
<!-- Created with Inkscape (http://www.inkscape.org/) -->

<svg
   xmlns:dc="http://purl.org/dc/elements/1.1/"
   xmlns:cc="http://creativecommons.org/ns#"
   xmlns:rdf="http://www.w3.org/1999/02/22-rdf-syntax-ns#"
   xmlns:svg="http://www.w3.org/2000/svg"
   xmlns="http://www.w3.org/2000/svg"
   xmlns:sodipodi="http://sodipodi.sourceforge.net/DTD/sodipodi-0.dtd"
   xmlns:inkscape="http://www.inkscape.org/namespaces/inkscape"
   width="160"
   height="160"
   viewBox="0 0 160 160"
   id="svg4977"
   version="1.1"
   inkscape:version="0.91 r13725"
   sodipodi:docname="soccer__long_dribble.svg"
   inkscape:export-filename="C:\workdir\dir\ScenographyAssets\soccer\soccer__long_dribble.png"
   inkscape:export-xdpi="288"
   inkscape:export-ydpi="288">
  <defs
     id="defs4979">
    <pattern
       y="0"
       x="0"
       height="6"
       width="6"
       patternUnits="userSpaceOnUse"
       id="EMFhbasepattern" />
    <pattern
       y="0"
       x="0"
       height="6"
       width="6"
       patternUnits="userSpaceOnUse"
       id="EMFhbasepattern-7" />
  </defs>
  <sodipodi:namedview
     id="base"
     pagecolor="#ffffff"
     bordercolor="#666666"
     borderopacity="1.0"
     inkscape:pageopacity="0.0"
     inkscape:pageshadow="2"
     inkscape:zoom="2.9875262"
     inkscape:cx="28.528828"
     inkscape:cy="6.8515342"
     inkscape:document-units="px"
     inkscape:current-layer="layer1"
     showgrid="false"
     units="px"
     inkscape:window-width="1600"
     inkscape:window-height="1177"
     inkscape:window-x="-8"
     inkscape:window-y="-8"
     inkscape:window-maximized="1" />
  <metadata
     id="metadata4982">
    <rdf:RDF>
      <cc:Work
         rdf:about="">
        <dc:format>image/svg+xml</dc:format>
        <dc:type
           rdf:resource="http://purl.org/dc/dcmitype/StillImage" />
        <dc:title></dc:title>
      </cc:Work>
    </rdf:RDF>
  </metadata>
  <g
     inkscape:label="レイヤー 1"
     inkscape:groupmode="layer"
     id="layer1"
     transform="translate(0,-892.36216)">
    <g
       id="g4214"
       transform="matrix(1.1595621,0,0,1.1579938,46.800696,-157.89191)">
      <g
         id="g4532"
         style="display:inline"
         transform="translate(-99.568997,708.14748)">
        <ellipse
           style="fill:none;fill-opacity:1;stroke:#000000;stroke-width:0.86297834;stroke-linecap:round;stroke-linejoin:round;stroke-miterlimit:4;stroke-dasharray:none;stroke-opacity:1"
           id="path4233"
           cx="100.9506"
           cy="230.0806"
           rx="1.6916434"
           ry="1.9060769" />
        <ellipse
           style="fill:none;fill-opacity:1;stroke:#000000;stroke-width:0.86297834;stroke-linecap:round;stroke-linejoin:round;stroke-miterlimit:4;stroke-dasharray:none;stroke-opacity:1"
           id="path4235"
           cx="113.38776"
           cy="227.45973"
           rx="2.0252068"
           ry="2.0490327" />
        <path
           style="fill:none;fill-rule:evenodd;stroke:#000000;stroke-width:0.86297834px;stroke-linecap:butt;stroke-linejoin:miter;stroke-opacity:1"
           d="m 99.602417,217.6023 c -3.493385,3.57451 -3.201578,18.07705 2.089093,19.27354 5.29067,1.19649 19.76119,-1.41847 23.85606,-5.79554 4.09487,-4.37707 2.32731,-15.57106 -3.30211,-18.1953 -5.62942,-2.62424 -19.14966,1.14279 -22.643043,4.7173 z"
           id="path4237"
           inkscape:connector-curvature="0"
           sodipodi:nodetypes="zzzzz" />
        <path
           style="fill:none;fill-rule:evenodd;stroke:#000000;stroke-width:0.86297834px;stroke-linecap:round;stroke-linejoin:miter;stroke-opacity:1"
           d="m 123.72804,214.77192 9.03026,-4.78469"
           id="path4239"
           inkscape:connector-curvature="0" />
        <path
           style="fill:none;fill-rule:evenodd;stroke:#000000;stroke-width:0.86297834px;stroke-linecap:round;stroke-linejoin:miter;stroke-opacity:1"
           d="m 124.13238,221.84787 24.32779,-13.14105"
           id="path4241"
           inkscape:connector-curvature="0" />
        <path
           style="fill:none;fill-rule:evenodd;stroke:#000000;stroke-width:0.86297834px;stroke-linecap:round;stroke-linejoin:miter;stroke-opacity:1"
           d="m 144.14721,235.66282 10.58023,-3.23472"
           id="path4243"
           inkscape:connector-curvature="0" />
        <path
           style="fill:none;fill-rule:evenodd;stroke:#000000;stroke-width:0.86297834px;stroke-linecap:round;stroke-linejoin:miter;stroke-opacity:1"
           d="m 147.53036,240.1828 15.05801,-5.81354"
           id="path4245"
           inkscape:connector-curvature="0" />
        <path
           style="fill:none;fill-rule:evenodd;stroke:#000000;stroke-width:0.86297834px;stroke-linecap:round;stroke-linejoin:miter;stroke-opacity:1"
           d="m 154.58284,249.80849 10.29282,-5.52763"
           id="path4247"
           inkscape:connector-curvature="0" />
        <path
           style="fill:none;fill-rule:evenodd;stroke:#000000;stroke-width:0.86297834px;stroke-linecap:round;stroke-linejoin:miter;stroke-opacity:1"
           d="m 149.05522,257.5281 24.6837,-13.43784"
           id="path4249"
           inkscape:connector-curvature="0" />
        <path
           style="fill:none;fill-rule:evenodd;stroke:#000000;stroke-width:0.86297834px;stroke-linecap:round;stroke-linejoin:miter;stroke-opacity:1"
           d="m 98.83082,240.01525 c 0,0 -2.47646,0.20966 -4.922857,3.76806 -2.653107,3.9706 1.039639,6.4091 3.201025,9.09765"
           id="path4251"
           inkscape:connector-curvature="0"
           sodipodi:nodetypes="ccc" />
        <path
           style="fill:none;fill-rule:evenodd;stroke:#000000;stroke-width:0.86297834px;stroke-linecap:round;stroke-linejoin:miter;stroke-opacity:1"
           d="m 102.26103,237.27603 c 0,0 -4.492588,3.39733 -5.432319,6.05179 -1.305906,3.68881 2.239641,25.35083 7.719609,29.4489 5.47997,4.09806 23.33029,1.36794 28.82323,-2.70659"
           id="path4253"
           inkscape:connector-curvature="0"
           sodipodi:nodetypes="cssc" />
        <path
           style="fill:none;fill-rule:evenodd;stroke:#000000;stroke-width:0.86297834px;stroke-linecap:round;stroke-linejoin:miter;stroke-opacity:1"
           d="m 127.92159,226.38757 c 0,0 3.74068,-1.21513 8.24379,-0.28592 4.5031,0.92922 5.07493,5.45615 5.07493,5.45615"
           id="path4255"
           inkscape:connector-curvature="0"
           sodipodi:nodetypes="csc" />
        <path
           style="fill:none;fill-rule:evenodd;stroke:#000000;stroke-width:0.86297834px;stroke-linecap:round;stroke-linejoin:round;stroke-opacity:1"
           d="m 146.14845,236.22769 -8.00552,-6.95718 -6.48066,4.76519 0.95304,4.28867 c 0,0 4.28867,3.62155 5.71823,4.43163 1.42956,0.81009 6.00414,3.43094 6.00414,3.43094"
           id="path4257"
           inkscape:connector-curvature="0"
           sodipodi:nodetypes="ccccsc" />
        <path
           style="fill:none;fill-rule:evenodd;stroke:#000000;stroke-width:0.86297834px;stroke-linecap:round;stroke-linejoin:miter;stroke-opacity:1"
           d="m 148.95992,238.84854 5.76588,4.81285"
           id="path4259"
           inkscape:connector-curvature="0" />
        <path
           style="fill:none;fill-rule:evenodd;stroke:#000000;stroke-width:0.86297834px;stroke-linecap:round;stroke-linejoin:miter;stroke-opacity:1"
           d="m 157.15348,253.38638 c 0,0 -1.3791,4.98686 -3.63906,7.48029 -2.15577,2.37847 -22.2387,12.73671 -26.88861,8.0868 -4.64991,-4.64991 2.60696,-9.69376 4.28026,-11.03561 2.26475,-1.81614 2.12179,-4.66626 4.14349,-6.62057 2.0217,-1.95431 6.50812,-4.56991 13.05731,-6.33804 6.27065,-1.69292 7.36186,-1.61397 8.70966,-0.46834 1.3478,1.14562 1.14563,4.11078 1.14563,4.11078"
           id="path4261"
           inkscape:connector-curvature="0"
           sodipodi:nodetypes="cssssssc" />
        <path
           style="fill:none;fill-rule:evenodd;stroke:#000000;stroke-width:0.86297834px;stroke-linecap:round;stroke-linejoin:round;stroke-opacity:1"
           d="m 106.64501,274.20627 -11.198205,9.24448 0.285912,6.48066 17.011733,10.67403 0.71478,3.71685 4.71754,-0.38122 5.71823,-9.53038 -1.3819,-3.62155 -4.33633,-0.57182 -6.09944,-3.33564 9.62569,-12.34184"
           id="path4263"
           inkscape:connector-curvature="0" />
        <path
           style="fill:none;fill-rule:evenodd;stroke:#000000;stroke-width:0.86297834px;stroke-linecap:round;stroke-linejoin:round;stroke-opacity:1"
           d="m 122.98675,274.27728 17.38662,37.87318 0.0674,3.70645 3.77384,0.26956 5.59337,-8.62592 -2.56082,-9.36721"
           id="path4265"
           inkscape:connector-curvature="0" />
        <path
           style="fill:none;fill-rule:evenodd;stroke:#000000;stroke-width:0.86297834px;stroke-linecap:round;stroke-linejoin:miter;stroke-opacity:1"
           d="m 139.63208,268.34696 2.83038,10.7824"
           id="path4267"
           inkscape:connector-curvature="0" />
        <path
           style="fill:none;fill-rule:evenodd;stroke:#000000;stroke-width:0.86297834px;stroke-linecap:round;stroke-linejoin:miter;stroke-opacity:1"
           d="m 143.06897,281.48801 3.57167,14.75841"
           id="path4269"
           inkscape:connector-curvature="0" />
        <path
           style="fill:none;fill-rule:evenodd;stroke:#000000;stroke-width:0.86297834px;stroke-linecap:round;stroke-linejoin:miter;stroke-opacity:1"
           d="m 140.8451,278.8598 7.48029,-3.77384"
           id="path4271"
           inkscape:connector-curvature="0" />
        <path
           style="fill:none;fill-rule:evenodd;stroke:#000000;stroke-width:0.86297834px;stroke-linecap:round;stroke-linejoin:miter;stroke-opacity:1"
           d="m 143.06897,282.16191 22.64304,-11.59108"
           id="path4273"
           inkscape:connector-curvature="0" />
        <path
           style="fill:none;fill-rule:evenodd;stroke:#000000;stroke-width:0.86297834px;stroke-linecap:round;stroke-linejoin:miter;stroke-opacity:1"
           d="m 143.81026,296.78554 9.70416,-4.64991"
           id="path4275"
           inkscape:connector-curvature="0" />
        <path
           style="fill:none;fill-rule:evenodd;stroke:#000000;stroke-width:0.86297834px;stroke-linecap:round;stroke-linejoin:miter;stroke-opacity:1"
           d="m 144.55155,300.15504 17.79096,-8.7607"
           id="path4277"
           inkscape:connector-curvature="0" />
        <path
           style="fill:none;fill-rule:evenodd;stroke:#000000;stroke-width:0.86297834px;stroke-linecap:round;stroke-linejoin:miter;stroke-opacity:1"
           d="m 120.08898,286.74443 7.00856,-3.03255"
           id="path4279"
           inkscape:connector-curvature="0" />
        <path
           style="fill:none;fill-rule:evenodd;stroke:#000000;stroke-width:0.86297834px;stroke-linecap:round;stroke-linejoin:miter;stroke-opacity:1"
           d="m 125.68235,302.37891 8.15419,-3.84123"
           id="path4281"
           inkscape:connector-curvature="0" />
        <path
           style="fill:none;fill-rule:evenodd;stroke:#000000;stroke-width:0.86297834px;stroke-linecap:round;stroke-linejoin:miter;stroke-opacity:1"
           d="m 121.16722,308.17445 10.84979,-4.7173"
           id="path4283"
           inkscape:connector-curvature="0" />
        <path
           style="fill:none;fill-rule:evenodd;stroke:#000000;stroke-width:0.86297834px;stroke-linecap:butt;stroke-linejoin:miter;stroke-opacity:1"
           d="m 139.63208,310.93744 c 0,0 -7.00856,8.7607 -7.07595,10.04111 -0.0674,1.28041 1.07824,4.38035 6.0651,5.72815 4.98686,1.3478 9.97372,-1.21302 10.98457,-2.15648 1.01085,-0.94346 7.88463,-18.66703 7.21073,-20.28439 -0.6739,-1.61736 -5.18903,-2.96516 -8.22158,-1.54997"
           id="path4285"
           inkscape:connector-curvature="0" />
        <path
           style="fill:none;fill-rule:evenodd;stroke:#000000;stroke-width:0.86297834px;stroke-linecap:round;stroke-linejoin:miter;stroke-opacity:1"
           d="m 115.97819,288.69874 c 0,0 0.46834,-0.94346 1.88353,-1.54997 1.41519,-0.60651 9.25212,-1.15531 11.45969,2.62821 1.70351,2.91963 -0.94346,8.62592 -2.08909,11.59108"
           id="path4287"
           inkscape:connector-curvature="0"
           sodipodi:nodetypes="cssc" />
        <path
           style="fill:none;fill-rule:evenodd;stroke:#000000;stroke-width:0.86297834px;stroke-linecap:round;stroke-linejoin:miter;stroke-opacity:1"
           d="m 110.41851,299.61592 c 0,0 -5.76184,10.51284 -3.47058,13.94973 2.29126,3.43689 11.31347,5.0656 14.28668,2.76299 2.31777,-1.795 2.62821,-3.93992 4.31296,-9.77155"
           id="path4289"
           inkscape:connector-curvature="0"
           sodipodi:nodetypes="cssc" />
      </g>
    </g>
  </g>
</svg>
