<?xml version="1.0" encoding="UTF-8" standalone="no"?>
<!-- Created with Inkscape (http://www.inkscape.org/) -->

<svg
   xmlns:dc="http://purl.org/dc/elements/1.1/"
   xmlns:cc="http://creativecommons.org/ns#"
   xmlns:rdf="http://www.w3.org/1999/02/22-rdf-syntax-ns#"
   xmlns:svg="http://www.w3.org/2000/svg"
   xmlns="http://www.w3.org/2000/svg"
   xmlns:sodipodi="http://sodipodi.sourceforge.net/DTD/sodipodi-0.dtd"
   xmlns:inkscape="http://www.inkscape.org/namespaces/inkscape"
   width="160"
   height="160"
   viewBox="0 0 160 160"
   id="svg4977"
   version="1.1"
   inkscape:version="0.91 r13725"
   sodipodi:docname="soccer__dribble.svg"
   inkscape:export-filename="C:\workdir\dir\ScenographyAssets\soccer\soccer__dribble.png"
   inkscape:export-xdpi="288"
   inkscape:export-ydpi="288">
  <defs
     id="defs4979">
    <pattern
       y="0"
       x="0"
       height="6"
       width="6"
       patternUnits="userSpaceOnUse"
       id="EMFhbasepattern" />
    <pattern
       y="0"
       x="0"
       height="6"
       width="6"
       patternUnits="userSpaceOnUse"
       id="EMFhbasepattern-7" />
  </defs>
  <sodipodi:namedview
     id="base"
     pagecolor="#ffffff"
     bordercolor="#666666"
     borderopacity="1.0"
     inkscape:pageopacity="0.0"
     inkscape:pageshadow="2"
     inkscape:zoom="2.9875262"
     inkscape:cx="50.112429"
     inkscape:cy="91.052527"
     inkscape:document-units="px"
     inkscape:current-layer="layer1"
     showgrid="false"
     units="px"
     inkscape:window-width="1600"
     inkscape:window-height="1177"
     inkscape:window-x="-8"
     inkscape:window-y="-8"
     inkscape:window-maximized="1" />
  <metadata
     id="metadata4982">
    <rdf:RDF>
      <cc:Work
         rdf:about="">
        <dc:format>image/svg+xml</dc:format>
        <dc:type
           rdf:resource="http://purl.org/dc/dcmitype/StillImage" />
        <dc:title></dc:title>
      </cc:Work>
    </rdf:RDF>
  </metadata>
  <g
     inkscape:label="レイヤー 1"
     inkscape:groupmode="layer"
     id="layer1"
     transform="translate(0,-892.36216)">
    <g
       id="g4148"
       transform="matrix(1.3399184,0,0,1.3355695,-27.19702,-326.27949)">
      <path
         style="fill:none;stroke:#000000;stroke-width:0.7475282;stroke-linecap:round;stroke-linejoin:round;stroke-miterlimit:4;stroke-dasharray:none;stroke-opacity:1"
         d="m 72.519115,931.18747 c 0,0.86547 -0.679983,1.60736 -1.607344,1.60736 -0.927362,0 -1.669252,-0.74189 -1.669252,-1.60736 0,-0.86552 0.74189,-1.60741 1.669252,-1.60741 0.927361,0 1.607344,0.74189 1.607344,1.60741 z"
         id="path4160"
         inkscape:connector-curvature="0" />
      <path
         style="fill:none;stroke:#000000;stroke-width:0.7475282;stroke-linecap:round;stroke-linejoin:round;stroke-miterlimit:4;stroke-dasharray:none;stroke-opacity:1"
         d="m 83.709034,930.87836 c 0,1.11275 -0.865537,1.97828 -1.978123,1.97828 -1.112834,0 -2.040196,-0.86553 -2.040196,-1.97828 0,-1.051 0.927362,-1.97836 2.040196,-1.97836 1.112586,0 1.978123,0.92736 1.978123,1.97836 z"
         id="path4162"
         inkscape:connector-curvature="0" />
      <path
         style="fill:none;stroke:#000000;stroke-width:0.7475282;stroke-linecap:butt;stroke-linejoin:miter;stroke-miterlimit:4;stroke-dasharray:none;stroke-opacity:1"
         d="m 68.747927,923.5213 c -2.658438,3.40031 -2.040196,10.01542 0.618243,13.29209 2.658435,3.27667 16.939477,2.0402 19.53609,-1.23647 2.596613,-3.21487 2.658438,-9.76814 -0.803712,-13.04481 -3.523975,-3.27661 -16.692182,-2.41106 -19.350621,0.98919 z"
         id="path4164"
         inkscape:connector-curvature="0" />
      <path
         style="fill:none;stroke:#000000;stroke-width:0.7475282;stroke-linecap:round;stroke-linejoin:miter;stroke-miterlimit:4;stroke-dasharray:none;stroke-opacity:1"
         d="m 90.386039,933.28942 c 0,0 1.792901,0.43278 3.400327,1.48378 1.607426,1.051 2.411141,2.59661 2.411141,2.59661"
         id="path4166"
         inkscape:connector-curvature="0" />
      <path
         style="fill:none;stroke:#000000;stroke-width:0.7475282;stroke-linecap:round;stroke-linejoin:miter;stroke-miterlimit:4;stroke-dasharray:none;stroke-opacity:1"
         d="m 69.36617,937.0607 c 0,0 -2.102022,-0.37095 -5.193227,2.47294 -3.091123,2.78209 -4.760374,9.76815 -4.018485,18.73257 0.803712,8.96442 3.462068,12.85934 5.13132,14.59039 1.731073,1.79292 4.389511,2.65819 10.139073,2.78185"
         id="path4168"
         inkscape:connector-curvature="0" />
      <path
         style="fill:none;stroke:#000000;stroke-width:0.7475282;stroke-linecap:round;stroke-linejoin:miter;stroke-miterlimit:4;stroke-dasharray:none;stroke-opacity:1"
         d="m 62.627339,940.95562 c 0,0 -2.720178,-0.74189 -4.142132,2.04011 -1.483779,2.78208 -0.123638,9.7682 1.236482,12.73567"
         id="path4170"
         inkscape:connector-curvature="0" />
      <path
         style="fill:none;stroke:#000000;stroke-width:0.7475282;stroke-linecap:round;stroke-linejoin:round;stroke-miterlimit:4;stroke-dasharray:none;stroke-opacity:1"
         d="m 87.665778,953.32034 7.48072,-15.57959 2.534788,-0.30911 c 0,0 1.174659,0.74189 2.472964,2.102 1.36013,1.29831 1.5456,2.65845 1.5456,2.65845 l -4.080389,16.93964"
         id="path4172"
         inkscape:connector-curvature="0" />
      <path
         style="fill:none;stroke:#000000;stroke-width:0.7475282;stroke-linecap:round;stroke-linejoin:miter;stroke-miterlimit:4;stroke-dasharray:none;stroke-opacity:1"
         d="m 100.83432,947.32342 c 0,0 3.02938,11.06642 -0.0618,18.91801 -3.029378,7.78984 -9.95368,7.85167 -9.95368,7.85167"
         id="path4174"
         inkscape:connector-curvature="0" />
      <path
         style="fill:none;stroke:#000000;stroke-width:0.7475282;stroke-linecap:round;stroke-linejoin:round;stroke-miterlimit:4;stroke-dasharray:none;stroke-opacity:1"
         d="m 65.904017,973.78396 -7.356988,9.5825 1.051012,6.55337 7.54246,8.779 0.247306,1.54557 4.698635,-0.24735 3.029298,-6.18239 -5.625911,-7.4189 6.80057,-6.98614"
         id="path4176"
         inkscape:connector-curvature="0" />
      <path
         style="fill:none;stroke:#000000;stroke-width:0.7475282;stroke-linecap:round;stroke-linejoin:round;stroke-miterlimit:4;stroke-dasharray:none;stroke-opacity:1"
         d="m 82.781672,980.83168 c 0,0 1.051012,10.07731 2.349318,16.75432 1.298307,6.677 2.967558,15.8888 2.967558,15.8888 l -0.370945,1.7311 4.451337,0.3091 4.574984,-5.626 c 0,0 -1.360132,-4.3277 -1.483779,-17.99081 -0.06183,-13.66312 0.865537,-19.41253 0.865537,-19.41253"
         id="path4178"
         inkscape:connector-curvature="0" />
      <path
         style="fill:none;stroke:#000000;stroke-width:0.7475282;stroke-linecap:round;stroke-linejoin:miter;stroke-miterlimit:4;stroke-dasharray:none;stroke-opacity:1"
         d="m 87.480306,1011.8056 c 0,0 -10.324382,5.8114 -8.716953,9.2736 1.669251,3.5858 9.829787,4.1422 14.157477,1.4838 4.389511,-2.5966 8.84085,-11.7466 8.16078,-13.2922 -0.74189,-1.5456 -4.513158,-1.9166 -4.513158,-1.9166"
         id="path4180"
         inkscape:connector-curvature="0" />
      <path
         style="fill:none;stroke:#000000;stroke-width:0.7475282;stroke-linecap:round;stroke-linejoin:miter;stroke-miterlimit:4;stroke-dasharray:none;stroke-opacity:1"
         d="m 65.656722,997.46236 c 0,0 -5.502264,7.91344 -4.636727,11.19014 1.050927,3.7095 8.717119,5.5024 12.550132,1.6075 2.905733,-2.9058 6.429708,-16.25978 5.687818,-18.11451 -0.741889,-1.91655 -3.894919,-2.34933 -6.244235,-1.60744"
         id="path4182"
         inkscape:connector-curvature="0" />
      <path
         style="fill:none;stroke:#000000;stroke-width:0.7475282;stroke-linecap:butt;stroke-linejoin:miter;stroke-miterlimit:4;stroke-dasharray:none;stroke-opacity:1"
         d="m 87.727603,953.6294 c -3.400327,0.86553 -6.800407,6.86247 -7.975066,9.39725 -1.174656,2.47289 0.309123,3.27661 -0.741889,5.74956 -0.989184,2.41114 -5.811466,6.42947 -1.916546,11.62269 4.636809,6.12059 22.751027,-15.023 20.463537,-20.95805 -1.298307,-3.46215 -6.491533,-6.61509 -9.830036,-5.81145 z"
         id="path4184"
         inkscape:connector-curvature="0" />
    </g>
  </g>
</svg>
