<?xml version="1.0" encoding="UTF-8" standalone="no"?>
<!-- Created with Inkscape (http://www.inkscape.org/) -->

<svg
   xmlns:dc="http://purl.org/dc/elements/1.1/"
   xmlns:cc="http://creativecommons.org/ns#"
   xmlns:rdf="http://www.w3.org/1999/02/22-rdf-syntax-ns#"
   xmlns:svg="http://www.w3.org/2000/svg"
   xmlns="http://www.w3.org/2000/svg"
   xmlns:sodipodi="http://sodipodi.sourceforge.net/DTD/sodipodi-0.dtd"
   xmlns:inkscape="http://www.inkscape.org/namespaces/inkscape"
   width="160"
   height="160"
   viewBox="0 0 160 160"
   id="svg4977"
   version="1.1"
   inkscape:version="0.91 r13725"
   sodipodi:docname="soccer__pass_it_to_me!.svg"
   inkscape:export-filename="C:\workdir\dir\ScenographyAssets\soccer\soccer__pass_it_to_me!.png"
   inkscape:export-xdpi="288"
   inkscape:export-ydpi="288">
  <defs
     id="defs4979">
    <pattern
       y="0"
       x="0"
       height="6"
       width="6"
       patternUnits="userSpaceOnUse"
       id="EMFhbasepattern" />
  </defs>
  <sodipodi:namedview
     id="base"
     pagecolor="#ffffff"
     bordercolor="#666666"
     borderopacity="1.0"
     inkscape:pageopacity="0.0"
     inkscape:pageshadow="2"
     inkscape:zoom="2.9875262"
     inkscape:cx="27.32836"
     inkscape:cy="46.345795"
     inkscape:document-units="px"
     inkscape:current-layer="layer1"
     showgrid="false"
     units="px"
     inkscape:window-width="1600"
     inkscape:window-height="1177"
     inkscape:window-x="-8"
     inkscape:window-y="-8"
     inkscape:window-maximized="1" />
  <metadata
     id="metadata4982">
    <rdf:RDF>
      <cc:Work
         rdf:about="">
        <dc:format>image/svg+xml</dc:format>
        <dc:type
           rdf:resource="http://purl.org/dc/dcmitype/StillImage" />
        <dc:title></dc:title>
      </cc:Work>
    </rdf:RDF>
  </metadata>
  <g
     inkscape:label="レイヤー 1"
     inkscape:groupmode="layer"
     id="layer1"
     transform="translate(0,-892.36216)">
    <g
       id="g4209"
       transform="matrix(1.1312269,0,0,1.131538,238.27649,-62.378865)">
      <g
         id="g4602"
         style="display:inline"
         transform="translate(-416.27703,647.80833)">
        <ellipse
           style="fill:none;fill-opacity:1;stroke:#000000;stroke-width:0.88387442;stroke-linecap:round;stroke-linejoin:round;stroke-miterlimit:4;stroke-dasharray:none;stroke-opacity:1"
           id="path4291"
           cx="267.89209"
           cy="220.33159"
           rx="2.4091923"
           ry="2.392345" />
        <ellipse
           style="fill:none;fill-opacity:1;stroke:#000000;stroke-width:0.88387442;stroke-linecap:round;stroke-linejoin:round;stroke-miterlimit:4;stroke-dasharray:none;stroke-opacity:1"
           id="path4293"
           cx="281.38693"
           cy="220.07887"
           rx="2.4260399"
           ry="2.4428875" />
        <path
           style="fill:none;fill-rule:evenodd;stroke:#000000;stroke-width:0.88387442px;stroke-linecap:butt;stroke-linejoin:miter;stroke-opacity:1"
           d="m 261.89498,212.11581 c 2.54274,-2.52256 22.39406,-4.89708 25.44613,-0.14295 3.05207,4.75413 1.80965,15.25608 -1.42956,17.53591 -3.23921,2.27982 -21.69256,2.65362 -24.25483,-0.95304 -2.56227,-3.60667 -2.30448,-13.91736 0.23826,-16.43992 z"
           id="path4295"
           inkscape:connector-curvature="0"
           sodipodi:nodetypes="zzzzz" />
        <path
           style="fill:none;fill-rule:evenodd;stroke:#000000;stroke-width:0.88387442px;stroke-linecap:round;stroke-linejoin:round;stroke-opacity:1"
           d="m 273.42674,246.3299 -2.33494,-4.43163 3.04972,-1.33426 z"
           id="path4297"
           inkscape:connector-curvature="0" />
        <path
           style="fill:none;fill-rule:evenodd;stroke:#000000;stroke-width:0.88387442px;stroke-linecap:butt;stroke-linejoin:round;stroke-opacity:1"
           d="m 282.38531,238.61028 -2.52556,8.24379 6.62362,-6.52832 z"
           id="path4299"
           inkscape:connector-curvature="0" />
        <path
           style="fill:none;fill-rule:evenodd;stroke:#000000;stroke-width:0.88387442px;stroke-linecap:butt;stroke-linejoin:round;stroke-opacity:1"
           d="m 282.57591,249.37962 4.71754,-3.62155 1.23895,2.57321 z"
           id="path4301"
           inkscape:connector-curvature="0" />
        <path
           style="fill:none;fill-rule:evenodd;stroke:#000000;stroke-width:0.88387442px;stroke-linecap:round;stroke-linejoin:miter;stroke-opacity:1"
           d="m 234.06625,260.1013 c 0,0 3.16675,2.80878 5.28937,4.00276 3.81215,2.14434 6.48066,2.09669 6.48066,2.09669"
           id="path4303"
           inkscape:connector-curvature="0"
           sodipodi:nodetypes="csc" />
        <path
           style="fill:none;fill-rule:evenodd;stroke:#000000;stroke-width:0.88387442px;stroke-linecap:round;stroke-linejoin:miter;stroke-opacity:1"
           d="m 236.97302,267.01083 4.90815,2.00138"
           id="path4305"
           inkscape:connector-curvature="0" />
        <path
           style="fill:none;fill-rule:evenodd;stroke:#000000;stroke-width:0.88387442px;stroke-linecap:round;stroke-linejoin:miter;stroke-opacity:1"
           d="m 307.56795,264.7079 c 0,0 1.28041,0.50543 3.97601,-1.11193 2.6956,-1.61736 2.89777,-2.99886 2.89777,-2.99886"
           id="path4307"
           inkscape:connector-curvature="0" />
        <path
           style="fill:none;fill-rule:evenodd;stroke:#000000;stroke-width:0.88387442px;stroke-linecap:round;stroke-linejoin:miter;stroke-opacity:1"
           d="m 303.35608,268.17849 c 0,0 3.40319,1.85322 8.18788,-0.30326 4.78469,-2.15648 6.53683,-5.79554 6.53683,-5.79554"
           id="path4309"
           inkscape:connector-curvature="0" />
        <path
           style="fill:none;fill-rule:evenodd;stroke:#000000;stroke-width:0.88387442px;stroke-linecap:round;stroke-linejoin:miter;stroke-opacity:1"
           d="m 240.68987,261.2926 c 0,0 -0.19061,1.52487 -1.71547,1.81078 -0.98799,0.18525 -9.47116,0.30381 -14.48618,-1.47722 -5.09876,-1.81077 -13.86671,-5.33701 -11.1982,-11.34115 2.64915,-5.96056 10.84881,-4.10734 12.43715,-3.85981 3.66919,0.57182 11.05524,3.19268 11.05524,3.19268"
           id="path4311"
           inkscape:connector-curvature="0"
           sodipodi:nodetypes="cssssc" />
        <path
           style="fill:none;fill-rule:evenodd;stroke:#000000;stroke-width:0.88387442px;stroke-linecap:round;stroke-linejoin:round;stroke-opacity:1"
           d="m 254.60423,235.17935 c 0,0 -1.23895,-0.19061 -1.85842,0.42886 -0.61948,0.61948 -13.34254,18.91782 -13.34254,18.91782 l 6.86188,4.66989"
           id="path4313"
           inkscape:connector-curvature="0" />
        <path
           style="fill:none;fill-rule:evenodd;stroke:#000000;stroke-width:0.88387442px;stroke-linecap:round;stroke-linejoin:round;stroke-opacity:1"
           d="m 293.82177,232.46319 c 0,0 1.33425,-0.19061 2.66851,0.57182 1.33425,0.76243 15.58218,19.9185 15.58218,19.9185 l -4.05042,4.8605"
           id="path4315"
           inkscape:connector-curvature="0" />
        <path
           style="fill:none;fill-rule:evenodd;stroke:#000000;stroke-width:0.88387442px;stroke-linecap:round;stroke-linejoin:miter;stroke-opacity:1"
           d="m 286.67398,229.36581 c 0,0 3.37325,0.0347 5.43232,1.52487 1.58415,1.14644 3.28798,6.29005 3.95511,9.05386 0.66713,2.76381 1.2866,8.19613 1.2866,8.19613"
           id="path4317"
           inkscape:connector-curvature="0"
           sodipodi:nodetypes="cssc" />
        <path
           style="fill:none;fill-rule:evenodd;stroke:#000000;stroke-width:0.88387442px;stroke-linecap:round;stroke-linejoin:miter;stroke-opacity:1"
           d="m 263.27688,230.08059 c 0,0 -4.33632,0.42887 -6.90952,2.95442 -2.57321,2.52555 -4.43163,15.58218 -4.43163,15.58218"
           id="path4319"
           inkscape:connector-curvature="0" />
        <path
           style="fill:none;fill-rule:evenodd;stroke:#000000;stroke-width:0.88387442px;stroke-linecap:round;stroke-linejoin:miter;stroke-opacity:1"
           d="m 316.22757,250.28644 c 0,0 10.71501,-4.17818 15.66817,-4.38035 4.95317,-0.20217 7.07595,0.80868 7.64877,2.25757 0.57281,1.44888 1.28041,7.31181 -4.58252,11.62477 -5.86293,4.31296 -16.98228,6.84009 -19.5768,4.91947 -2.59451,-1.92061 -1.88692,-3.50428 -1.88692,-3.50428"
           id="path4321"
           inkscape:connector-curvature="0" />
        <path
           style="fill:none;fill-rule:evenodd;stroke:#000000;stroke-width:0.88387442px;stroke-linecap:round;stroke-linejoin:miter;stroke-opacity:1"
           d="m 251.3639,264.77119 c 0,0 -0.38121,2.14434 1.096,4.24102 1.47721,2.09669 4.43163,4.62224 21.91988,5.28937 17.48826,0.66712 21.20511,-3.00207 22.58702,-5.00346 1.3819,-2.00138 1.3819,-4.05041 1.3819,-4.05041"
           id="path4323"
           inkscape:connector-curvature="0" />
        <path
           style="fill:none;fill-rule:evenodd;stroke:#000000;stroke-width:0.88387442px;stroke-linecap:round;stroke-linejoin:round;stroke-opacity:1"
           d="m 258.0363,272.72731 c 0,0 2.62821,16.64533 3.30211,20.217 0.6739,3.57167 3.97601,19.74527 3.97601,19.74527 l 6.33466,0.6739 2.6956,-3.03255 c 0,0 0.10447,-13.80526 0.26956,-18.26269 0.33695,-9.09765 1.61736,-17.45401 1.61736,-17.45401"
           id="path4325"
           inkscape:connector-curvature="0"
           sodipodi:nodetypes="cscccsc" />
        <path
           style="fill:none;fill-rule:evenodd;stroke:#000000;stroke-width:0.88387442px;stroke-linecap:round;stroke-linejoin:round;stroke-opacity:1"
           d="m 279.95506,274.68279 c 0,0 1.1913,10.24517 1.47721,17.91713 0.28591,7.67196 0.85773,17.63121 0.85773,17.63121 l 3.95511,4.76519 4.76519,-0.19061 4.52694,-43.79212"
           id="path4327"
           inkscape:connector-curvature="0" />
        <path
           style="fill:none;fill-rule:evenodd;stroke:#000000;stroke-width:0.88387442px;stroke-linecap:round;stroke-linejoin:miter;stroke-opacity:1"
           d="m 264.32523,309.27809 c 0,0 -13.43784,6.43301 -12.00828,9.9116 1.42955,3.47859 17.96476,4.8605 20.44266,2.3826 2.4779,-2.4779 5.24172,-10.19752 5.24172,-10.19752"
           id="path4329"
           inkscape:connector-curvature="0"
           sodipodi:nodetypes="cssc" />
        <path
           style="fill:none;fill-rule:evenodd;stroke:#000000;stroke-width:0.88387442px;stroke-linecap:round;stroke-linejoin:miter;stroke-opacity:1"
           d="m 274.66569,306.60958 c 0,0 1.47722,-0.14295 2.2873,0 0.81008,0.14296 2.04903,0.76243 2.04903,0.76243"
           id="path4331"
           inkscape:connector-curvature="0"
           sodipodi:nodetypes="ccc" />
        <path
           style="fill:none;fill-rule:evenodd;stroke:#000000;stroke-width:0.88387442px;stroke-linecap:round;stroke-linejoin:miter;stroke-opacity:1"
           d="m 292.06825,308.37662 c 0,0 11.47429,10.64335 8.96287,13.5117 -2.58338,2.95053 -13.30953,2.52713 -16.37577,0.87607 -3.04984,-1.64222 -7.25737,-10.27704 -6.40205,-13.61278 0.67391,-2.62821 3.53798,-2.52713 3.53798,-2.52713"
           id="path4333"
           inkscape:connector-curvature="0"
           sodipodi:nodetypes="csssc" />
        <path
           style="fill:none;fill-rule:evenodd;stroke:#000000;stroke-width:0.88387442px;stroke-linecap:butt;stroke-linejoin:miter;stroke-opacity:1"
           d="m 250.12495,249.61788 c -3.64898,2.70044 -4.63331,9.013 -2.76381,12.53246 1.8695,3.51946 27.19782,7.12262 30.25897,1.4772 3.70578,-6.83424 -1.63103,-8.39798 -3.43093,-9.19682 -1.7999,-0.79884 -2.48126,-2.56756 -3.81216,-3.52624 -1.3309,-0.95868 -16.60309,-3.98704 -20.25207,-1.2866 z"
           id="path4335"
           inkscape:connector-curvature="0"
           sodipodi:nodetypes="zzszzz" />
        <path
           style="fill:none;fill-rule:evenodd;stroke:#000000;stroke-width:0.88387442px;stroke-linecap:round;stroke-linejoin:miter;stroke-opacity:1"
           d="m 278.08483,256.6548 c 0,0 0.10108,-1.75214 1.65105,-2.76299 1.54997,-1.01085 16.2073,-6.13249 20.78982,-5.82924 4.58252,0.30326 7.58137,2.39235 7.48029,6.84009 -0.10109,4.44774 -2.39235,7.71615 -4.85208,8.79439 -2.45974,1.07824 -20.30708,3.82843 -23.45172,2.86408 -2.52713,-0.77499 -2.49343,-2.12279 -2.49343,-2.12279"
           id="path4337"
           inkscape:connector-curvature="0"
           sodipodi:nodetypes="csssssc" />
      </g>
    </g>
  </g>
</svg>
