<?xml version="1.0" encoding="UTF-8" standalone="no"?>
<!-- Created with Inkscape (http://www.inkscape.org/) -->

<svg
   xmlns:dc="http://purl.org/dc/elements/1.1/"
   xmlns:cc="http://creativecommons.org/ns#"
   xmlns:rdf="http://www.w3.org/1999/02/22-rdf-syntax-ns#"
   xmlns:svg="http://www.w3.org/2000/svg"
   xmlns="http://www.w3.org/2000/svg"
   xmlns:sodipodi="http://sodipodi.sourceforge.net/DTD/sodipodi-0.dtd"
   xmlns:inkscape="http://www.inkscape.org/namespaces/inkscape"
   width="160"
   height="160"
   viewBox="0 0 160 160"
   id="svg4977"
   version="1.1"
   inkscape:version="0.91 r13725"
   sodipodi:docname="soccer__pass_to_right.svg"
   inkscape:export-filename="C:\workdir\dir\ScenographyAssets\soccer\soccer__pass_to_right.png"
   inkscape:export-xdpi="288"
   inkscape:export-ydpi="288">
  <defs
     id="defs4979">
    <pattern
       y="0"
       x="0"
       height="6"
       width="6"
       patternUnits="userSpaceOnUse"
       id="EMFhbasepattern" />
  </defs>
  <sodipodi:namedview
     id="base"
     pagecolor="#ffffff"
     bordercolor="#666666"
     borderopacity="1.0"
     inkscape:pageopacity="0.0"
     inkscape:pageshadow="2"
     inkscape:zoom="2.1125"
     inkscape:cx="-11.171339"
     inkscape:cy="83.383993"
     inkscape:document-units="px"
     inkscape:current-layer="layer1"
     showgrid="false"
     units="px"
     inkscape:window-width="1538"
     inkscape:window-height="877"
     inkscape:window-x="-8"
     inkscape:window-y="1192"
     inkscape:window-maximized="1" />
  <metadata
     id="metadata4982">
    <rdf:RDF>
      <cc:Work
         rdf:about="">
        <dc:format>image/svg+xml</dc:format>
        <dc:type
           rdf:resource="http://purl.org/dc/dcmitype/StillImage" />
        <dc:title></dc:title>
      </cc:Work>
    </rdf:RDF>
  </metadata>
  <g
     inkscape:label="レイヤー 1"
     inkscape:groupmode="layer"
     id="layer1"
     transform="translate(0,-892.36216)">
    <g
       id="g4209"
       transform="matrix(1.0058217,0,0,1.0059238,-49.085112,68.294737)">
      <g
         id="g4662"
         style="display:inline"
         transform="translate(-147.6346,799.67058)">
        <path
           style="fill:none;fill-rule:evenodd;stroke:#000000;stroke-width:0.99416161px;stroke-linecap:butt;stroke-linejoin:miter;stroke-opacity:1"
           d="m 264.37096,33.42543 c -3.53316,2.008436 -4.43516,16.392685 -2.35865,18.59964 2.07651,2.206955 23.71831,3.045551 28.10163,-0.13478 4.38332,-3.180331 2.47479,-13.36479 -1.14563,-17.31923 -3.62042,-3.95444 -21.06419,-3.154066 -24.59735,-1.14563 z"
           id="path4157"
           inkscape:connector-curvature="0"
           sodipodi:nodetypes="zzzzz" />
        <ellipse
           style="fill:none;fill-opacity:1;stroke:#000000;stroke-width:0.99416161;stroke-linecap:round;stroke-linejoin:round;stroke-miterlimit:4;stroke-dasharray:none;stroke-opacity:1"
           id="path4159"
           cx="264.6405"
           cy="43.533932"
           rx="1.7521399"
           ry="2.0890899" />
        <ellipse
           style="fill:none;fill-opacity:1;stroke:#000000;stroke-width:0.99416161;stroke-linecap:round;stroke-linejoin:round;stroke-miterlimit:4;stroke-dasharray:none;stroke-opacity:1"
           id="path4161"
           cx="277.51202"
           cy="43.769794"
           rx="2.0890899"
           ry="2.257565" />
        <path
           style="fill:none;fill-rule:evenodd;stroke:#000000;stroke-width:0.99416161px;stroke-linecap:round;stroke-linejoin:miter;stroke-opacity:1"
           d="m 291.39435,51.148999 c 0,0 3.70646,0.94346 6.06511,3.066245 2.35865,2.122785 3.63905,6.0651 3.63905,6.0651"
           id="path4163"
           inkscape:connector-curvature="0"
           sodipodi:nodetypes="csc" />
        <path
           style="fill:none;fill-rule:evenodd;stroke:#000000;stroke-width:0.99416161px;stroke-linecap:round;stroke-linejoin:miter;stroke-opacity:1"
           d="m 262.13324,52.529519 c 0,0 -4.66989,1.048342 -7.05249,3.383286 -2.38259,2.334945 -6.76987,25.923124 -0.21178,36.883214 4.91947,8.221581 38.4123,9.232431 45.01652,-0.74129 4.97975,-7.520436 3.57167,-14.69102 3.57167,-14.69102"
           id="path4165"
           inkscape:connector-curvature="0"
           sodipodi:nodetypes="csssc" />
        <path
           style="fill:none;fill-rule:evenodd;stroke:#000000;stroke-width:0.99416161px;stroke-linecap:round;stroke-linejoin:miter;stroke-opacity:1"
           d="m 242.97464,71.062744 9.46829,-8.390055"
           id="path4167"
           inkscape:connector-curvature="0" />
        <path
           style="fill:none;fill-rule:evenodd;stroke:#000000;stroke-width:0.99416161px;stroke-linecap:round;stroke-linejoin:miter;stroke-opacity:1"
           d="m 246.64739,80.969074 4.48144,-3.63906"
           id="path4169"
           inkscape:connector-curvature="0" />
        <path
           style="fill:none;fill-rule:evenodd;stroke:#000000;stroke-width:0.99416161px;stroke-linecap:butt;stroke-linejoin:miter;stroke-opacity:1"
           d="m 241.88117,71.256725 c 1.14471,-0.326263 3.78269,0.316877 4.62224,1.334254 0.83955,1.017377 0.92924,8.922238 -0.47652,11.15055 -1.40576,2.228312 -16.19573,13.843513 -19.7279,9.578037 -5.89871,-7.123326 14.43747,-21.736578 15.58218,-22.062841 z"
           id="path4171"
           inkscape:connector-curvature="0"
           sodipodi:nodetypes="zzssz" />
        <path
           style="fill:none;fill-rule:evenodd;stroke:#000000;stroke-width:0.99416161px;stroke-linecap:round;stroke-linejoin:miter;stroke-opacity:1"
           d="m 308.21266,81.883104 c 0,0 -17.45462,-15.563675 -12.05595,-20.633283 5.05507,-4.746947 14.83587,8.849937 16.48757,10.864639 4.33632,5.289364 6.19474,10.388119 6.19474,10.388119"
           id="path4173"
           inkscape:connector-curvature="0"
           sodipodi:nodetypes="cssc" />
        <path
           style="fill:none;fill-rule:evenodd;stroke:#000000;stroke-width:0.99416161px;stroke-linecap:butt;stroke-linejoin:miter;stroke-opacity:1"
           d="m 310.30933,78.833381 c -3.20316,1.656706 -2.96561,11.182824 -2.76381,14.390881 0.2018,3.208057 1.60756,3.168529 1.90608,6.051795 0.29852,2.883263 -2.3439,12.668003 4.00276,14.724443 6.34666,2.05644 8.60736,-10.66328 8.57735,-17.86947 -0.03,-7.206195 -0.88754,-11.030567 -3.6692,-13.962014 -2.78166,-2.931446 -6.04267,-4.375489 -8.05318,-3.335635 z"
           id="path4175"
           inkscape:connector-curvature="0"
           sodipodi:nodetypes="szzzzzs" />
        <path
           style="fill:none;fill-rule:evenodd;stroke:#000000;stroke-width:0.99416161px;stroke-linecap:round;stroke-linejoin:round;stroke-opacity:1"
           d="m 256.75589,95.222059 -12.8041,8.086801 -1.41519,9.83894 16.64533,13.41061"
           id="path4177"
           inkscape:connector-curvature="0" />
        <path
           style="fill:none;fill-rule:evenodd;stroke:#000000;stroke-width:0.99416161px;stroke-linecap:round;stroke-linejoin:round;stroke-opacity:1"
           d="m 271.24474,99.265459 c 0,0 -9.70416,7.817241 -10.84979,8.019411 -1.14563,0.20217 -4.11079,-0.40434 -4.11079,-0.40434 l 20.217,9.56938"
           id="path4179"
           inkscape:connector-curvature="0"
           sodipodi:nodetypes="cscc" />
        <path
           style="fill:none;fill-rule:evenodd;stroke:#000000;stroke-width:0.99416161px;stroke-linecap:round;stroke-linejoin:miter;stroke-opacity:1"
           d="m 277.30984,99.467629 0.26956,16.443161"
           id="path4181"
           inkscape:connector-curvature="0" />
        <path
           style="fill:none;fill-rule:evenodd;stroke:#000000;stroke-width:0.99416161px;stroke-linecap:round;stroke-linejoin:round;stroke-opacity:1"
           d="m 292.60737,97.176369 c 0,0 -2.49343,19.543101 -2.62821,23.990841 -0.13478,4.44774 0.20217,22.30609 0.20217,22.30609 l -7.61507,5.79554 -4.98686,0.13478 0.13478,-10.24328"
           id="path4183"
           inkscape:connector-curvature="0" />
        <path
           style="fill:none;fill-rule:evenodd;stroke:#000000;stroke-width:0.99416161px;stroke-linecap:round;stroke-linejoin:miter;stroke-opacity:1"
           d="m 279.12937,133.3648 16.30838,9.16504"
           id="path4185"
           inkscape:connector-curvature="0" />
        <path
           style="fill:none;fill-rule:evenodd;stroke:#000000;stroke-width:0.99416161px;stroke-linecap:round;stroke-linejoin:miter;stroke-opacity:1"
           d="m 292.06825,135.52128 8.15419,5.12164"
           id="path4187"
           inkscape:connector-curvature="0" />
        <path
           style="fill:none;fill-rule:evenodd;stroke:#000000;stroke-width:0.99416161px;stroke-linecap:round;stroke-linejoin:miter;stroke-opacity:1"
           d="m 287.014,143.00157 5.3912,3.43689"
           id="path4189"
           inkscape:connector-curvature="0" />
        <path
           style="fill:none;fill-rule:evenodd;stroke:#000000;stroke-width:0.99416161px;stroke-linecap:butt;stroke-linejoin:miter;stroke-opacity:1"
           d="m 256.48633,129.9953 c -2.33949,4.06229 -3.42177,12.7418 -0.53912,16.57794 2.88265,3.83614 28.21905,-8.74487 31.40374,-15.76926 3.18469,-7.02439 2.80781,-14.07775 -0.60651,-16.64533 -3.41432,-2.56758 -27.91862,11.77436 -30.25811,15.83665 z"
           id="path4191"
           inkscape:connector-curvature="0"
           sodipodi:nodetypes="zzzzz" />
        <path
           style="fill:none;fill-rule:evenodd;stroke:#000000;stroke-width:0.99416161px;stroke-linecap:round;stroke-linejoin:miter;stroke-opacity:1"
           d="m 277.24245,142.59723 c 0,0 -12.57144,7.23694 -11.32152,11.72586 1.10135,3.95534 15.56771,4.79082 17.58879,4.58252 2.2004,-0.22678 6.19988,-4.85208 6.19988,-4.85208"
           id="path4193"
           inkscape:connector-curvature="0"
           sodipodi:nodetypes="cssc" />
        <circle
           style="fill:none;fill-opacity:1;stroke:#000000;stroke-width:0.99416161;stroke-linecap:round;stroke-linejoin:round;stroke-miterlimit:4;stroke-dasharray:none;stroke-opacity:1"
           id="path4195"
           cx="308.30923"
           cy="151.96443"
           r="18.39747" />
        <g
           transform="translate(215.24403,105.38135)"
           style="font-style:normal;font-weight:normal;font-size:10px;line-height:125%;font-family:sans-serif;letter-spacing:0px;word-spacing:0px;display:inline;fill:#000000;fill-opacity:1;stroke:none;stroke-width:1px;stroke-linecap:butt;stroke-linejoin:miter;stroke-opacity:1"
           id="text4197-2-6">
          <path
             d="m 96.331802,52.170193 q -0.395507,0 -0.725097,-0.307617 -2.219239,-2.080079 -4.87793,-2.885743 0.08057,2.131348 0.08057,2.365723 0,0.41748 -0.292968,0.710449 -0.292969,0.285645 -0.732422,0.285645 -0.439453,0 -0.732422,-0.285645 -0.292969,-0.292969 -0.292969,-0.710449 0,-0.549316 0.01465,-1.640625 0.01465,-1.098633 0.01465,-1.647949 l 0.01465,-5.910645 q 0,-0.476074 0.285645,-0.864258 0.373535,-0.498046 1.032715,-0.446777 1.779785,0.131836 1.82373,0.13916 1.025391,0.124512 1.743164,0.490723 3.127442,1.574707 3.127442,3.903808 0,0.959473 -0.65918,1.699219 -0.651855,0.732422 -1.962891,1.237793 1.940918,1.083985 2.922364,2.211914 0.256347,0.292969 0.256347,0.651856 0,0.410156 -0.307617,0.710449 -0.307617,0.292969 -0.732422,0.292969 z m -4.694824,-9.213867 q -0.05859,-0.0073 -0.856933,-0.05859 l 0,3.88916 q 0.183105,0.0073 0.322265,0.0073 1.794434,0 2.658692,-0.446777 0.373535,-0.19043 0.681152,-0.505371 0.314941,-0.314942 0.314941,-0.476075 0,-0.820312 -1.040039,-1.582031 -0.988769,-0.717773 -2.080078,-0.827636 z"
             style="font-style:normal;font-variant:normal;font-weight:bold;font-stretch:normal;font-size:15px;font-family:'Comic Sans MS';-inkscape-font-specification:'Comic Sans MS Bold'"
             id="path4228-5"
             inkscape:connector-curvature="0" />
        </g>
        <g
           transform="translate(269.95191,68.309065)"
           style="font-style:normal;font-weight:normal;font-size:10px;line-height:125%;font-family:sans-serif;letter-spacing:0px;word-spacing:0px;display:inline;fill:#000000;fill-opacity:1;stroke:none;stroke-width:1px;stroke-linecap:butt;stroke-linejoin:miter;stroke-opacity:1"
           id="text4197-9" />
      </g>
    </g>
  </g>
</svg>
