<?xml version="1.0" encoding="UTF-8" standalone="no"?>
<!-- Generator: Adobe Illustrator 18.0.0, SVG Export Plug-In . SVG Version: 6.00 Build 0)  -->

<svg
   xmlns:dc="http://purl.org/dc/elements/1.1/"
   xmlns:cc="http://creativecommons.org/ns#"
   xmlns:rdf="http://www.w3.org/1999/02/22-rdf-syntax-ns#"
   xmlns:svg="http://www.w3.org/2000/svg"
   xmlns="http://www.w3.org/2000/svg"
   xmlns:sodipodi="http://sodipodi.sourceforge.net/DTD/sodipodi-0.dtd"
   xmlns:inkscape="http://www.inkscape.org/namespaces/inkscape"
   version="1.1"
   id="レイヤー_1"
   x="0px"
   y="0px"
   viewBox="0 0 160 160"
   enable-background="new 0 0 160 160"
   xml:space="preserve"
   inkscape:version="0.91 r13725"
   sodipodi:docname="roller_skating__ina_bauer_rfoot.svg"
   inkscape:export-filename="C:\workdir\dir\ScenographyAssets\roller_skating\roller_skating__ina_bauer_rfoot.png"
   inkscape:export-xdpi="288"
   inkscape:export-ydpi="288"><metadata
     id="metadata55"><rdf:RDF><cc:Work
         rdf:about=""><dc:format>image/svg+xml</dc:format><dc:type
           rdf:resource="http://purl.org/dc/dcmitype/StillImage" /><dc:title></dc:title></cc:Work></rdf:RDF></metadata><defs
     id="defs53" /><sodipodi:namedview
     pagecolor="#ffffff"
     bordercolor="#666666"
     borderopacity="1"
     objecttolerance="10"
     gridtolerance="10"
     guidetolerance="10"
     inkscape:pageopacity="0"
     inkscape:pageshadow="2"
     inkscape:window-width="1600"
     inkscape:window-height="1177"
     id="namedview51"
     showgrid="false"
     inkscape:zoom="2.085965"
     inkscape:cx="36.064191"
     inkscape:cy="6.8831662"
     inkscape:window-x="-8"
     inkscape:window-y="-8"
     inkscape:window-maximized="1"
     inkscape:current-layer="レイヤー_1" /><path
     inkscape:connector-curvature="0"
     id="path4204"
     d="m 137.98427,68.247844 c -0.18547,0 -0.43277,-0.0619 -0.55641,-0.2474 -1.23649,-1.17467 -2.59662,-1.91656 -4.01857,-2.41114 0,1.17467 0.0618,1.85472 0.0618,1.97836 0,0.2474 -0.12364,0.43278 -0.24731,0.55642 -0.18547,0.18547 -0.37095,0.24739 -0.61824,0.24739 -0.24731,0 -0.43277,-0.0619 -0.61824,-0.24739 -0.12364,-0.12355 -0.24731,-0.30911 -0.24731,-0.55642 0,-0.30911 0,-0.74189 0,-1.36011 0.0618,-0.61825 0.0618,-1.05103 0.0618,-1.36014 l 0,-4.88403 c 0,-0.24739 0.0618,-0.49458 0.24731,-0.68005 0.18547,-0.30911 0.49459,-0.43278 0.80371,-0.37095 0.98919,0.0619 1.48378,0.12355 1.5456,0.12355 0.55642,0.0619 1.05101,0.18548 1.42196,0.37095 1.73107,0.86553 2.59653,1.97836 2.59653,3.21477 0,0.55642 -0.18547,0.98917 -0.55634,1.42195 -0.37094,0.37094 -0.92736,0.74189 -1.60742,0.9892 1.05101,0.61822 1.85472,1.23647 2.41106,1.85472 0.12363,0.18547 0.18547,0.30911 0.18547,0.55642 0,0.18547 -0.0618,0.37094 -0.24731,0.55641 -0.18547,0.18548 -0.37094,0.2474 -0.61816,0.2474 z m -3.83309,-7.60428 c -0.0618,0 -0.30912,0 -0.74189,-0.0619 l 0,3.21478 c 0.12363,0 0.18547,0 0.2473,0 0.98919,0 1.73108,-0.12355 2.22567,-0.37094 0.18547,-0.0619 0.37095,-0.2474 0.55642,-0.37095 0.18547,-0.18547 0.2473,-0.30914 0.2473,-0.43278 0,-0.43269 -0.2473,-0.86544 -0.86554,-1.29822 -0.49459,-0.37094 -1.11283,-0.61825 -1.66925,-0.68005 z"
     style="fill:#000000;fill-opacity:1;fill-rule:nonzero;stroke:none" /><circle
     fill="none"
     stroke="#000000"
     stroke-miterlimit="10"
     cx="143.7"
     cy="47.7"
     r="2.9"
     id="circle3"
     style="stroke-linejoin:round;stroke-linecap:round" /><circle
     fill="none"
     stroke="#000000"
     stroke-miterlimit="10"
     cx="124.6"
     cy="51.5"
     r="2.9"
     id="circle5"
     style="stroke-linejoin:round;stroke-linecap:round" /><circle
     fill="none"
     stroke="#000000"
     stroke-miterlimit="10"
     cx="150.3"
     cy="77.1"
     r="2.9"
     id="circle7"
     style="stroke-linejoin:round;stroke-linecap:round" /><circle
     fill="none"
     stroke="#000000"
     stroke-miterlimit="10"
     cx="132.9"
     cy="81.7"
     r="2.9"
     id="circle9"
     style="stroke-linejoin:round;stroke-linecap:round" /><path
     fill="none"
     stroke="#000000"
     stroke-miterlimit="10"
     d="M42.5,79.9c2.3-1.7,0.3-6.4-1.2-7.9s-7.5-5.8-10.8-6.8  s-8.9-0.8-12.4-2.7c-3.5-1.9-8.1-3.3-9.9-1.7s-1,5.4,1.9,8.9s12.2,8.5,19.7,9.7S41.1,80.9,42.5,79.9z"
     id="path11"
     style="stroke-linejoin:round;stroke-linecap:round" /><circle
     fill="none"
     stroke="#000000"
     stroke-miterlimit="10"
     cx="65.9"
     cy="115.6"
     r="2.5"
     id="circle13"
     style="stroke-linejoin:round;stroke-linecap:round" /><path
     fill="none"
     stroke="#000000"
     stroke-miterlimit="10"
     d="M78.3,54.7c0.2-1.4,0.1-5.3-4.7-8.1c-6-3.5-9.9-3.5-16.6-2.9  c-6.6,0.6-9.5,4.6-10.1,6.2c-0.6,1.7-1,8.3-0.2,10.4s4.1,3.9,4.1,3.9"
     id="path15"
     style="stroke-linejoin:round;stroke-linecap:round" /><ellipse
     fill="none"
     stroke="#000000"
     stroke-miterlimit="10"
     cx="59.8"
     cy="49"
     rx="2.5"
     ry="2.1"
     id="ellipse17"
     style="stroke-linejoin:round;stroke-linecap:round" /><path
     fill="none"
     stroke="#000000"
     stroke-miterlimit="10"
     d="M71.2,45.3c-0.9,0.3-1.5,1.1-1.5,1.9c0,1.1,1.1,2.1,2.5,2.1  s2.5-0.9,2.5-2.1"
     id="path19"
     style="stroke-linejoin:round;stroke-linecap:round" /><path
     fill="none"
     stroke="#000000"
     stroke-miterlimit="10"
     d="M51.6,75.3c0.3,4.3,1.4,8.9,4.5,11.9c6,5.8,14.1,11,26.5,11"
     id="path21"
     style="stroke-linejoin:round;stroke-linecap:round" /><path
     fill="none"
     stroke="#000000"
     stroke-miterlimit="10"
     d="M108,68.5c0,0-6.2-9.3-20.9-12.6s-23.4,1-28.6,2.5  c-4.2,1.2-5.7,3.6-6.3,6"
     id="path23"
     style="stroke-linejoin:round;stroke-linecap:round" /><path
     fill="none"
     stroke="#000000"
     stroke-miterlimit="10"
     d="M43.4,76.4c0,0,13.7-1.4,14.9-2.9c1.2-1.4,1.4-4.6,0.4-5.8  c-1-1.2-3.1-3.1-7.9-3.5c-4.6-0.4-13.7,1.7-16.6,2.8"
     id="path25"
     style="stroke-linejoin:round;stroke-linecap:round" /><path
     fill="none"
     stroke="#000000"
     stroke-miterlimit="10"
     d="M99.2,60.8c1.7-0.5,5.1-1.6,5.3-2.2c0.2-0.8-3.3-7.5-4.8-7.5  s-13.9,2.1-14.3,3.3c-0.1,0.3-0.1,0.6-0.1,1"
     id="path27"
     style="stroke-linejoin:round;stroke-linecap:round" /><path
     fill="none"
     stroke="#000000"
     stroke-miterlimit="10"
     d="M150.1,74.3c-0.5-3.2-1.3-7.1-2-10.8c-0.8-3.8-1.9-9-3.3-13.1"
     id="path29"
     style="stroke-linejoin:round;stroke-linecap:round" /><path
     fill="none"
     stroke="#000000"
     stroke-miterlimit="10"
     d="M142.6,45.1c-0.4-0.6-0.8-1.1-1.2-1.4c-3.6-2.6-6.6-2.8-10.9-1.9  c-4.3,0.8-7.5,1.9-9.1,4.6c-1.7,2.7,0.2,13.9,2.9,23.6s4.3,15.7,8.7,17.2s7.9,0.6,11.2-0.4s6.2-2.5,6.6-5.2c0.1-0.4,0.1-0.9,0.1-1.5  "
     id="path31"
     style="stroke-linejoin:round;stroke-linecap:round" /><path
     fill="none"
     stroke="#000000"
     stroke-miterlimit="10"
     d="M124,43.8c1.4-6.2-0.3-10-4.3-11.9c-4.5-2.1-8.2,3.2-9.4,6.3  c-1.2,3.1-5.7,6.5-7.5,8.6c-1.4,1.6-2.2,3.3-2.3,4.3"
     id="path33"
     style="stroke-linejoin:round;stroke-linecap:round" /><path
     fill="none"
     stroke="#000000"
     stroke-miterlimit="10"
     d="M104,57c1,1.1,2,1.8,2.8,1.7c1.7-0.4,9.6-1.8,13.9-7.3"
     id="path35"
     style="stroke-linejoin:round;stroke-linecap:round" /><path
     fill="none"
     stroke="#000000"
     stroke-miterlimit="10"
     d="M121.9,59.8l-46.4,29c0,0,0,4.8,3.1,7.7l49.3-14.8"
     id="path37"
     style="stroke-linejoin:round;stroke-linecap:round" /><polyline
     fill="none"
     stroke="#000000"
     stroke-miterlimit="10"
     points="111.2,86.7 112.6,97.3 86.1,108.5 86.5,110.5 81.5,113.2   71.4,108.3 70.8,104.1 95.7,91.3 "
     id="polyline39"
     style="stroke-linejoin:round;stroke-linecap:round" /><path
     fill="none"
     stroke="#000000"
     stroke-miterlimit="10"
     d="M73.5,102.8c-0.3-0.2-1.1-0.4-2.3-0.1c-1.7,0.4-9.7,3.9-9.9,5.6  s22,15.9,25.5,15.9s15.1-5,16.6-7.7c1.2-2.3-11-7.5-14.8-9.1"
     id="path41"
     style="stroke-linejoin:round;stroke-linecap:round" /><path
     fill="none"
     stroke="#000000"
     stroke-miterlimit="10"
     d="M82.5,122.6c-1,0.4-1.8,1.5-1.8,2.7c0,1.6,1.3,2.9,2.9,2.9  s2.9-1.3,2.9-2.9c0-0.4-0.1-0.8-0.2-1.1"
     id="path43"
     style="stroke-linejoin:round;stroke-linecap:round" /><path
     fill="none"
     stroke="#000000"
     stroke-miterlimit="10"
     d="M98.1,120.2c0,0.2-0.1,0.3-0.1,0.5c0,1.4,1.1,2.5,2.5,2.5  s2.5-1.1,2.5-2.5c0-1.1-0.7-2-1.6-2.3"
     id="path45"
     style="stroke-linejoin:round;stroke-linecap:round" /></svg>