<?xml version="1.0" encoding="UTF-8" standalone="no"?>
<!-- Generator: Adobe Illustrator 18.0.0, SVG Export Plug-In . SVG Version: 6.00 Build 0)  -->

<svg
   xmlns:dc="http://purl.org/dc/elements/1.1/"
   xmlns:cc="http://creativecommons.org/ns#"
   xmlns:rdf="http://www.w3.org/1999/02/22-rdf-syntax-ns#"
   xmlns:svg="http://www.w3.org/2000/svg"
   xmlns="http://www.w3.org/2000/svg"
   xmlns:sodipodi="http://sodipodi.sourceforge.net/DTD/sodipodi-0.dtd"
   xmlns:inkscape="http://www.inkscape.org/namespaces/inkscape"
   version="1.1"
   id="レイヤー_1"
   x="0px"
   y="0px"
   viewBox="0 0 160 160"
   enable-background="new 0 0 160 160"
   xml:space="preserve"
   inkscape:version="0.91 r13725"
   sodipodi:docname="roller_skating__heel_&amp;_toe_lfoot.svg"
   inkscape:export-filename="C:\workdir\dir\ScenographyAssets\roller_skating\roller_skating__heel_&amp;_toe_lfoot.png"
   inkscape:export-xdpi="288"
   inkscape:export-ydpi="288"><metadata
     id="metadata47"><rdf:RDF><cc:Work
         rdf:about=""><dc:format>image/svg+xml</dc:format><dc:type
           rdf:resource="http://purl.org/dc/dcmitype/StillImage" /><dc:title></dc:title></cc:Work></rdf:RDF></metadata><defs
     id="defs45" /><sodipodi:namedview
     pagecolor="#ffffff"
     bordercolor="#666666"
     borderopacity="1"
     objecttolerance="10"
     gridtolerance="10"
     guidetolerance="10"
     inkscape:pageopacity="0"
     inkscape:pageshadow="2"
     inkscape:window-width="1600"
     inkscape:window-height="1177"
     id="namedview43"
     showgrid="false"
     inkscape:zoom="1.475"
     inkscape:cx="-30.847458"
     inkscape:cy="80"
     inkscape:window-x="-8"
     inkscape:window-y="-8"
     inkscape:window-maximized="1"
     inkscape:current-layer="レイヤー_1" /><path
     fill="none"
     stroke="#000000"
     stroke-miterlimit="10"
     d="M60.3,48.4c-2.1-2.8-4.3-10.8-2.8-14.8c1.5-3.9,2.9-7.1,7.5-8.6  c4.7-1.5,13.5-2.7,16.5-1.5s5.7,5.7,6.1,9.6c0.5,3.9,0.2,9.3-2.2,12c-2.5,2.7-8.6,4.2-13.8,4.7C66.4,50.4,62.2,51.1,60.3,48.4z"
     id="path3"
     style="stroke-linejoin:round;stroke-linecap:round" /><path
     fill="none"
     stroke="#000000"
     stroke-miterlimit="10"
     d="M117.1,45c2.1-2.6,14.5-10.3,18.7-12.8s7.4-2,9.3-0.2s2.7,4.2,1.7,6.9  s-4.8,8-10.8,13c-3.2,2.7-9.8,5.7-12.5,5.7s-5.9-1.7-6.6-3S115.4,47.2,117.1,45z"
     id="path5"
     style="stroke-linejoin:round;stroke-linecap:round" /><path
     fill="none"
     stroke="#000000"
     stroke-miterlimit="10"
     d="M116.6,46c0,0-17.9-2-18.9-2s-4.7,3-4.4,3.9c0.2,1,0.5,3.4,1.2,4.4  s21.6,3.7,23.4,3.4"
     id="path7"
     style="stroke-linejoin:round;stroke-linecap:round" /><path
     fill="none"
     stroke="#000000"
     stroke-miterlimit="10"
     d="M44.1,72.3c1.8-2.2-3.4-7.4-5.2-9.1c-1.7-1.7-19.2-7.1-22.4-6.9  c-3.2,0.2-6.9,2-3.2,6.9S19,69.3,25.1,72S39.6,77.7,44.1,72.3z"
     id="path9"
     style="stroke-linejoin:round;stroke-linecap:round" /><circle
     fill="none"
     stroke="#000000"
     stroke-miterlimit="10"
     cx="76"
     cy="39.4"
     r="2.7"
     id="circle11"
     style="stroke-linejoin:round;stroke-linecap:round" /><circle
     fill="none"
     stroke="#000000"
     stroke-miterlimit="10"
     cx="63.1"
     cy="42.5"
     r="2.4"
     id="circle13"
     style="stroke-linejoin:round;stroke-linecap:round" /><path
     fill="none"
     stroke="#000000"
     stroke-miterlimit="10"
     d="M40.3,64.6c2.2-1.8,9.6-7.9,13.8-11.1"
     id="path15"
     style="stroke-linejoin:round;stroke-linecap:round" /><path
     fill="none"
     stroke="#000000"
     stroke-miterlimit="10"
     d="M54.7,62.6c-1.1,1-7,6.6-10.3,8.5"
     id="path17"
     style="stroke-linejoin:round;stroke-linecap:round" /><polyline
     fill="none"
     stroke="#000000"
     stroke-miterlimit="10"
     points="83.4,86.8 75.1,103.5 75.5,126.9 80.5,127.6 90.3,120.7   86.6,105.2 100.2,80.3 "
     id="polyline19"
     style="stroke-linejoin:round;stroke-linecap:round" /><path
     fill="none"
     stroke="#000000"
     stroke-miterlimit="10"
     d="M102,90.5c0-1.2,0.2-2.7,0.8-3.7c1.2-1.7,8.9-3.9,11.1-2.2  c2.2,1.7,4.2,10.3,5.4,18.2s2.2,11.1,1,12.8c-1.2,1.7-6.3,6.4-13.5,3.4c-1.9-0.8-3.6-10.1-4.3-17.7"
     id="path21"
     style="stroke-linejoin:round;stroke-linecap:round" /><path
     fill="none"
     stroke="#000000"
     stroke-miterlimit="10"
     d="M116,88.2c0.4-0.5,0.9-0.8,1.6-0.8c1.1,0,2,0.9,2,2s-0.9,2-2,2  c-0.2,0-0.4,0-0.7-0.1"
     id="path23"
     style="stroke-linejoin:round;stroke-linecap:round" /><path
     fill="none"
     stroke="#000000"
     stroke-miterlimit="10"
     d="M120.1,107.3c0.4-0.6,1.1-1,1.8-1c1.2,0,2.2,1,2.2,2.2s-1,2.2-2.2,2.2  c-0.5,0-1-0.2-1.4-0.5"
     id="path25"
     style="stroke-linejoin:round;stroke-linecap:round" /><polyline
     fill="none"
     stroke="#000000"
     stroke-miterlimit="10"
     points="90.4,98.3 90.5,98.3 106.3,102.3 113.2,100.8 111.2,90.5   94.7,90.5 "
     id="polyline27"
     style="stroke-linejoin:round;stroke-linecap:round" /><line
     fill="none"
     stroke="#000000"
     stroke-miterlimit="10"
     x1="68.8"
     y1="88.2"
     x2="80"
     y2="93.4"
     id="line29"
     style="stroke-linejoin:round;stroke-linecap:round" /><path
     fill="none"
     stroke="#000000"
     stroke-miterlimit="10"
     d="M89.5,117.5c1.7,0.1,7.6,0.6,8.1,1.8c0.6,1.5-10.7,16-13.2,17.3  s-10.2,2.5-15.6,0.7c-5.4-1.7-7.3-2.1-5.9-5.2c1.2-2.8,10.8-8.4,12.4-9.3"
     id="path31"
     style="stroke-linejoin:round;stroke-linecap:round" /><path
     fill="none"
     stroke="#000000"
     stroke-miterlimit="10"
     d="M95.5,123.7c0.3-0.2,0.7-0.3,1.1-0.3c1.3,0,2.3,1,2.3,2.3  s-1,2.3-2.3,2.3s-2.3-1-2.3-2.3c0-0.1,0-0.2,0-0.3"
     id="path33"
     style="stroke-linejoin:round;stroke-linecap:round" /><path
     fill="none"
     stroke="#000000"
     stroke-miterlimit="10"
     d="M85.9,135.6c0.8,0.5,1.4,1.3,1.4,2.4c0,1.5-1.2,2.7-2.7,2.7  s-2.7-1.2-2.7-2.7c0-0.1,0-0.2,0-0.3"
     id="path35"
     style="stroke-linejoin:round;stroke-linecap:round" /><path
     fill="none"
     stroke="#000000"
     stroke-miterlimit="10"
     d="M67.3,136.9c0.3,0.4,0.5,0.8,0.5,1.3c0,1.2-0.9,2.1-2.1,2.1  s-2.1-0.9-2.1-2.1c0-1,0.7-1.8,1.6-2"
     id="path37"
     style="stroke-linejoin:round;stroke-linecap:round" /><path
     fill="none"
     stroke="#000000"
     stroke-miterlimit="10"
     d="M104.4,54.3c1.7,5.1,2.7,10.6,1.7,14.8c-2.5,9.8-5.4,11.8-10.8,13.8  s-13.5,5.2-20.9,5.4S62,88,59.1,82.4c-3-5.7-5.9-28-4.7-30.5c1-2.1,4.2-4,5.2-4.5"
     id="path39"
     style="stroke-linejoin:round;stroke-linecap:round" /><path
     fill="none"
     stroke="#000000"
     stroke-miterlimit="10"
     d="M87.3,38.6c0,0,4.7-0.5,8.6,1.5c1,0.5,2.3,2,3.6,4"
     id="path41"
     style="stroke-linejoin:round;stroke-linecap:round" /></svg>