<?xml version="1.0" encoding="UTF-8" standalone="no"?>
<!-- Generator: Adobe Illustrator 18.0.0, SVG Export Plug-In . SVG Version: 6.00 Build 0)  -->

<svg
   xmlns:dc="http://purl.org/dc/elements/1.1/"
   xmlns:cc="http://creativecommons.org/ns#"
   xmlns:rdf="http://www.w3.org/1999/02/22-rdf-syntax-ns#"
   xmlns:svg="http://www.w3.org/2000/svg"
   xmlns="http://www.w3.org/2000/svg"
   xmlns:sodipodi="http://sodipodi.sourceforge.net/DTD/sodipodi-0.dtd"
   xmlns:inkscape="http://www.inkscape.org/namespaces/inkscape"
   version="1.1"
   id="レイヤー_1"
   x="0px"
   y="0px"
   viewBox="0 0 160 160"
   enable-background="new 0 0 160 160"
   xml:space="preserve"
   inkscape:version="0.91 r13725"
   sodipodi:docname="roller_skating__upright.svg"
   inkscape:export-filename="C:\workdir\dir\ScenographyAssets\roller_skating\roller_skating__upright.png"
   inkscape:export-xdpi="288"
   inkscape:export-ydpi="288"><metadata
     id="metadata41"><rdf:RDF><cc:Work
         rdf:about=""><dc:format>image/svg+xml</dc:format><dc:type
           rdf:resource="http://purl.org/dc/dcmitype/StillImage" /><dc:title></dc:title></cc:Work></rdf:RDF></metadata><defs
     id="defs39" /><sodipodi:namedview
     pagecolor="#ffffff"
     bordercolor="#666666"
     borderopacity="1"
     objecttolerance="10"
     gridtolerance="10"
     guidetolerance="10"
     inkscape:pageopacity="0"
     inkscape:pageshadow="2"
     inkscape:window-width="1600"
     inkscape:window-height="1177"
     id="namedview37"
     showgrid="false"
     inkscape:zoom="1.475"
     inkscape:cx="-30.847458"
     inkscape:cy="80"
     inkscape:window-x="-8"
     inkscape:window-y="-8"
     inkscape:window-maximized="1"
     inkscape:current-layer="レイヤー_1" /><path
     fill="none"
     stroke="#231815"
     stroke-miterlimit="10"
     d="M66.4,19.1c1.8-2.2,6.2-2.4,12.4-2.6c6.2-0.2,11.9,1.9,13.1,4.1  c1.2,2.2,1.1,15.7-2.5,17.3c-3.6,1.6-6.1,1.3-11.6,1.2s-10.5,0-11.9-2.8C64.6,33.6,64,22,66.4,19.1z"
     id="path3"
     style="stroke:#000000;stroke-opacity:1;stroke-linejoin:round;stroke-linecap:round" /><circle
     fill="none"
     stroke="#231815"
     stroke-miterlimit="10"
     cx="85.1"
     cy="29.9"
     r="2.4"
     id="circle5"
     style="stroke:#000000;stroke-opacity:1;stroke-linejoin:round;stroke-linecap:round" /><circle
     fill="none"
     stroke="#231815"
     stroke-miterlimit="10"
     cx="71.1"
     cy="29.9"
     r="2.4"
     id="circle7"
     style="stroke:#000000;stroke-opacity:1;stroke-linejoin:round;stroke-linecap:round" /><path
     fill="none"
     stroke="#231815"
     stroke-miterlimit="10"
     d="M90.7,36.5c0,0,5.1-0.1,7.5,1.8c2.4,1.9,4.5,9.1,5.3,17.7  c0.7,8.6-0.5,21.2-2.9,23.8c-2.4,2.5-12.5,5.1-21.8,5.3s-19.5-1.3-21.9-5.3s-3.8-15.2-2.4-24.5c1.4-9.3,4.1-14.3,6.2-16  c2.2-1.7,6.8-1.5,6.8-1.5"
     id="path9"
     style="stroke:#000000;stroke-opacity:1;stroke-linejoin:round;stroke-linecap:round" /><path
     fill="none"
     stroke="#231815"
     stroke-miterlimit="10"
     d="M100.7,42.4c0,0,2-1.9,3,0c1,1.9,7.3,24.4,6.5,29.4"
     id="path11"
     style="stroke:#000000;stroke-opacity:1;stroke-linejoin:round;stroke-linecap:round" /><path
     fill="none"
     stroke="#231815"
     stroke-miterlimit="10"
     d="M102.9,72.5c0,0,3.5-3.6,5.4-2.4c1.9,1.2,3.6,3.1,4.8,8.6  c1.2,5.5,2.4,20.8,0,22.8c-2.4,2-4.1,0.6-5.7-1.1s-4.5-6.2-6.7-20.7"
     id="path13"
     style="stroke:#000000;stroke-opacity:1;stroke-linejoin:round;stroke-linecap:round" /><path
     fill="none"
     stroke="#231815"
     stroke-miterlimit="10"
     d="M57.4,44.1c-1.3-1.3-2.2-0.6-3.5,1.1c-1.3,1.7-6.1,19.4-5.6,26"
     id="path15"
     style="stroke:#000000;stroke-opacity:1;stroke-linejoin:round;stroke-linecap:round" /><path
     fill="none"
     stroke="#231815"
     stroke-miterlimit="10"
     d="M54.7,72.7c0,0-0.4-1.5-3.4-1.5c-3,0-3.5-0.9-4.4,4.9  c-1,5.8-1.7,17.8-1,21.3c0.7,3.6,2.9,4.3,5.4,3.9c2.5-0.4,7.1-8.3,7-20.2"
     id="path17"
     style="stroke:#000000;stroke-opacity:1;stroke-linejoin:round;stroke-linecap:round" /><polyline
     fill="none"
     stroke="#231815"
     stroke-miterlimit="10"
     points="98.6,81.1 90.8,130.5 85.1,132.3 81,124 82.7,85 "
     id="polyline19"
     style="stroke:#000000;stroke-opacity:1;stroke-linejoin:round;stroke-linecap:round" /><path
     fill="none"
     stroke="#231815"
     stroke-miterlimit="10"
     d="M78.8,85l0,41.9l-5.3,3.6h-5.8c0,0-5.6-37.9-6.6-47.9"
     id="path21"
     style="stroke:#000000;stroke-opacity:1;stroke-linejoin:round;stroke-linecap:round" /><path
     fill="none"
     stroke="#231815"
     stroke-miterlimit="10"
     d="M81,124c0,0,0.2,1.7,0,5c-0.2,3.4,1.7,10.5,4.1,11.5  c2.4,1,13.1,1.9,15.5,0c2.4-1.9-0.7-6.1-3.3-10c-2.6-3.9-4.2-6-5.4-6.5"
     id="path23"
     style="stroke:#000000;stroke-opacity:1;stroke-linejoin:round;stroke-linecap:round" /><circle
     fill="none"
     stroke="#231815"
     stroke-miterlimit="10"
     cx="99.4"
     cy="143.9"
     r="2.6"
     id="circle25"
     style="stroke:#000000;stroke-opacity:1;stroke-linejoin:round;stroke-linecap:round" /><circle
     fill="none"
     stroke="#231815"
     stroke-miterlimit="10"
     cx="86.9"
     cy="143.9"
     r="2.6"
     id="circle27"
     style="stroke:#000000;stroke-opacity:1;stroke-linejoin:round;stroke-linecap:round" /><circle
     fill="none"
     stroke="#231815"
     stroke-miterlimit="10"
     cx="73.4"
     cy="143.9"
     r="2.6"
     id="circle29"
     style="stroke:#000000;stroke-opacity:1;stroke-linejoin:round;stroke-linecap:round" /><circle
     fill="none"
     stroke="#231815"
     stroke-miterlimit="10"
     cx="59.7"
     cy="143.9"
     r="2.6"
     id="circle31"
     style="stroke:#000000;stroke-opacity:1;stroke-linejoin:round;stroke-linecap:round" /><path
     fill="none"
     stroke="#231815"
     stroke-miterlimit="10"
     d="M81,124.3c-0.5-0.3-1.2-0.4-2.2-0.3"
     id="path33"
     style="stroke:#000000;stroke-opacity:1;stroke-linejoin:round;stroke-linecap:round" /><path
     fill="none"
     stroke="#231815"
     stroke-miterlimit="10"
     d="M66.9,125.3c0,0-11.8,12.9-9.4,14.8c2.3,1.9,15.9,2.2,18.1,0  c1.3-1.3,4.1-5.3,5.8-8.5"
     id="path35"
     style="stroke:#000000;stroke-opacity:1;stroke-linejoin:round;stroke-linecap:round" /></svg>