<?xml version="1.0" encoding="UTF-8" standalone="no"?>
<!-- Generator: Adobe Illustrator 18.0.0, SVG Export Plug-In . SVG Version: 6.00 Build 0)  -->

<svg
   xmlns:dc="http://purl.org/dc/elements/1.1/"
   xmlns:cc="http://creativecommons.org/ns#"
   xmlns:rdf="http://www.w3.org/1999/02/22-rdf-syntax-ns#"
   xmlns:svg="http://www.w3.org/2000/svg"
   xmlns="http://www.w3.org/2000/svg"
   xmlns:sodipodi="http://sodipodi.sourceforge.net/DTD/sodipodi-0.dtd"
   xmlns:inkscape="http://www.inkscape.org/namespaces/inkscape"
   version="1.1"
   id="レイヤー_1"
   x="0px"
   y="0px"
   viewBox="0 0 160 160"
   enable-background="new 0 0 160 160"
   xml:space="preserve"
   inkscape:version="0.91 r13725"
   sodipodi:docname="roller_skating__ina_bauer_lfoot.svg"
   inkscape:export-filename="C:\workdir\dir\ScenographyAssets\roller_skating\roller_skating__ina_bauer_lfoot.png"
   inkscape:export-xdpi="288"
   inkscape:export-ydpi="288"><metadata
     id="metadata53"><rdf:RDF><cc:Work
         rdf:about=""><dc:format>image/svg+xml</dc:format><dc:type
           rdf:resource="http://purl.org/dc/dcmitype/StillImage" /><dc:title></dc:title></cc:Work></rdf:RDF></metadata><defs
     id="defs51" /><sodipodi:namedview
     pagecolor="#ffffff"
     bordercolor="#666666"
     borderopacity="1"
     objecttolerance="10"
     gridtolerance="10"
     guidetolerance="10"
     inkscape:pageopacity="0"
     inkscape:pageshadow="2"
     inkscape:window-width="1600"
     inkscape:window-height="1177"
     id="namedview49"
     showgrid="false"
     inkscape:zoom="2.085965"
     inkscape:cx="58.093784"
     inkscape:cy="65.411916"
     inkscape:window-x="-8"
     inkscape:window-y="-8"
     inkscape:window-maximized="1"
     inkscape:current-layer="レイヤー_1" /><path
     inkscape:connector-curvature="0"
     id="path4202"
     d="m 28.611327,68.03568 c -0.43277,0.18547 -1.174659,0.37095 -2.163843,0.55642 -0.927362,0.12355 -1.669252,0.18547 -2.225587,0.18547 -0.989187,0 -1.483779,-0.43278 -1.483779,-1.29831 0,0.0619 0,-0.55641 0.123639,-1.91655 0.06183,-1.731 0.123638,-3.64753 0.123638,-5.81139 0,-0.2474 0.06183,-0.43275 0.247306,-0.55642 0.185473,-0.18547 0.370945,-0.24739 0.618242,-0.24739 0.247307,0 0.432767,0.0619 0.61824,0.24739 0.123551,0.12355 0.185384,0.30914 0.185384,0.55642 0,2.16386 0,4.14222 -0.123638,5.93505 -0.06175,0.30911 -0.06175,0.8037 -0.12358,1.48378 0.92728,0 2.163761,-0.24739 3.64754,-0.68008 0.123639,-0.0619 0.185473,-0.0619 0.30912,-0.0619 0.247306,0 0.43277,0.0619 0.618242,0.24739 0.123639,0.18547 0.185472,0.37094 0.185472,0.55642 0,0.37094 -0.185472,0.61825 -0.556417,0.80372 z"
     style="fill:#000000;fill-opacity:1;fill-rule:nonzero;stroke:none;stroke-linejoin:round;stroke-linecap:round" /><circle
     fill="none"
     stroke="#000000"
     stroke-miterlimit="10"
     cx="18.2"
     cy="47.7"
     r="2.9"
     id="circle3"
     style="stroke-linejoin:round;stroke-linecap:round" /><circle
     fill="none"
     stroke="#000000"
     stroke-miterlimit="10"
     cx="37.2"
     cy="51.5"
     r="2.9"
     id="circle5"
     style="stroke-linejoin:round;stroke-linecap:round" /><circle
     fill="none"
     stroke="#000000"
     stroke-miterlimit="10"
     cx="11.5"
     cy="77.1"
     r="2.9"
     id="circle7"
     style="stroke-linejoin:round;stroke-linecap:round" /><circle
     fill="none"
     stroke="#000000"
     stroke-miterlimit="10"
     cx="28.9"
     cy="81.7"
     r="2.9"
     id="circle9"
     style="stroke-linejoin:round;stroke-linecap:round" /><path
     fill="none"
     stroke="#000000"
     stroke-miterlimit="10"
     d="M119.3,79.9c-2.3-1.7-0.3-6.4,1.2-7.9s7.5-5.8,10.8-6.8  s8.9-0.8,12.4-2.7c3.5-1.9,8.1-3.3,9.9-1.7s1,5.4-1.9,8.9s-12.2,8.5-19.7,9.7C124.6,80.7,120.8,80.9,119.3,79.9z"
     id="path13"
     style="stroke-linejoin:round;stroke-linecap:round" /><circle
     fill="none"
     stroke="#000000"
     stroke-miterlimit="10"
     cx="95.9"
     cy="115.6"
     r="2.5"
     id="circle15"
     style="stroke-linejoin:round;stroke-linecap:round" /><path
     fill="none"
     stroke="#000000"
     stroke-miterlimit="10"
     d="M83.5,54.7c-0.2-1.4-0.1-5.3,4.7-8.1c6-3.5,9.9-3.5,16.6-2.9  c6.6,0.6,9.5,4.6,10.1,6.2s1,8.3,0.2,10.4s-4.1,3.9-4.1,3.9"
     id="path17"
     style="stroke-linejoin:round;stroke-linecap:round" /><ellipse
     fill="none"
     stroke="#000000"
     stroke-miterlimit="10"
     cx="102.1"
     cy="49"
     rx="2.5"
     ry="2.1"
     id="ellipse19"
     style="stroke-linejoin:round;stroke-linecap:round" /><path
     fill="none"
     stroke="#000000"
     stroke-miterlimit="10"
     d="M90.6,45.3c0.9,0.3,1.5,1.1,1.5,1.9c0,1.1-1.1,2.1-2.5,2.1  s-2.5-0.9-2.5-2.1"
     id="path21"
     style="stroke-linejoin:round;stroke-linecap:round" /><path
     fill="none"
     stroke="#000000"
     stroke-miterlimit="10"
     d="M110.3,75.3c-0.3,4.3-1.4,8.9-4.5,11.9c-6,5.8-14.1,11-26.5,11"
     id="path23"
     style="stroke-linejoin:round;stroke-linecap:round" /><path
     fill="none"
     stroke="#000000"
     stroke-miterlimit="10"
     d="M53.8,68.5c0,0,6.2-9.3,20.9-12.6s23.4,1,28.6,2.5  c4.2,1.2,5.7,3.6,6.3,6"
     id="path25"
     style="stroke-linejoin:round;stroke-linecap:round" /><path
     fill="none"
     stroke="#000000"
     stroke-miterlimit="10"
     d="M118.4,76.4c0,0-13.7-1.4-14.9-2.9c-1.2-1.4-1.4-4.6-0.4-5.8  c1-1.2,3.1-3.1,7.9-3.5c4.6-0.4,13.7,1.7,16.6,2.8"
     id="path27"
     style="stroke-linejoin:round;stroke-linecap:round" /><path
     fill="none"
     stroke="#000000"
     stroke-miterlimit="10"
     d="M62.6,60.8c-1.7-0.5-5.1-1.6-5.3-2.2c-0.2-0.8,3.3-7.5,4.8-7.5  s13.9,2.1,14.3,3.3c0.1,0.3,0.1,0.6,0.1,1"
     id="path29"
     style="stroke-linejoin:round;stroke-linecap:round" /><path
     fill="none"
     stroke="#000000"
     stroke-miterlimit="10"
     d="M11.7,74.3c0.5-3.2,1.3-7.1,2-10.8c0.8-3.8,1.9-9,3.3-13.1"
     id="path31"
     style="stroke-linejoin:round;stroke-linecap:round" /><path
     fill="none"
     stroke="#000000"
     stroke-miterlimit="10"
     d="M19.3,45.1c0.4-0.6,0.8-1.1,1.2-1.4c3.6-2.6,6.6-2.8,10.9-1.9  s7.5,1.9,9.1,4.6c1.7,2.7-0.2,13.9-2.9,23.6C35,79.7,33.3,85.7,29,87.1s-7.9,0.6-11.2-0.4s-6.2-2.5-6.6-5.2  c-0.1-0.4-0.1-0.9-0.1-1.5"
     id="path33"
     style="stroke-linejoin:round;stroke-linecap:round" /><path
     fill="none"
     stroke="#000000"
     stroke-miterlimit="10"
     d="M37.9,43.8c-1.4-6.2,0.3-10,4.3-11.9c4.5-2.1,8.2,3.2,9.4,6.3  s5.7,6.5,7.5,8.6c1.4,1.6,2.2,3.3,2.3,4.3"
     id="path35"
     style="stroke-linejoin:round;stroke-linecap:round" /><path
     fill="none"
     stroke="#000000"
     stroke-miterlimit="10"
     d="M57.9,57c-1,1.1-2,1.8-2.8,1.7c-1.7-0.4-9.6-1.8-13.9-7.3"
     id="path37"
     style="stroke-linejoin:round;stroke-linecap:round" /><path
     fill="none"
     stroke="#000000"
     stroke-miterlimit="10"
     d="M39.9,59.8l46.4,29c0,0,0,4.8-3.1,7.7L34,81.6"
     id="path39"
     style="stroke-linejoin:round;stroke-linecap:round" /><polyline
     fill="none"
     stroke="#000000"
     stroke-miterlimit="10"
     points="50.7,86.7 49.3,97.3 75.8,108.5 75.4,110.5 80.3,113.2   90.5,108.3 91.1,104.1 66.2,91.3 "
     id="polyline41"
     style="stroke-linejoin:round;stroke-linecap:round" /><path
     fill="none"
     stroke="#000000"
     stroke-miterlimit="10"
     d="M88.3,102.8c0.3-0.2,1.1-0.4,2.3-0.1c1.7,0.4,9.7,3.9,9.9,5.6  c0.2,1.7-22,15.9-25.5,15.9s-15.1-5-16.6-7.7c-1.2-2.3,11-7.5,14.8-9.1"
     id="path43"
     style="stroke-linejoin:round;stroke-linecap:round" /><path
     fill="none"
     stroke="#000000"
     stroke-miterlimit="10"
     d="M79.4,122.6c1,0.4,1.8,1.5,1.8,2.7c0,1.6-1.3,2.9-2.9,2.9  s-2.9-1.3-2.9-2.9c0-0.4,0.1-0.8,0.2-1.1"
     id="path45"
     style="stroke-linejoin:round;stroke-linecap:round" /><path
     fill="none"
     stroke="#000000"
     stroke-miterlimit="10"
     d="M63.7,120.2c0,0.2,0.1,0.3,0.1,0.5c0,1.4-1.1,2.5-2.5,2.5  s-2.5-1.1-2.5-2.5c0-1.1,0.7-2,1.6-2.3"
     id="path47"
     style="stroke-linejoin:round;stroke-linecap:round" /></svg>