<?xml version="1.0" encoding="UTF-8" standalone="no"?>
<!-- Generator: Adobe Illustrator 18.0.0, SVG Export Plug-In . SVG Version: 6.00 Build 0)  -->

<svg
   xmlns:dc="http://purl.org/dc/elements/1.1/"
   xmlns:cc="http://creativecommons.org/ns#"
   xmlns:rdf="http://www.w3.org/1999/02/22-rdf-syntax-ns#"
   xmlns:svg="http://www.w3.org/2000/svg"
   xmlns="http://www.w3.org/2000/svg"
   xmlns:sodipodi="http://sodipodi.sourceforge.net/DTD/sodipodi-0.dtd"
   xmlns:inkscape="http://www.inkscape.org/namespaces/inkscape"
   version="1.1"
   id="レイヤー_1"
   x="0px"
   y="0px"
   viewBox="0 0 160 160"
   enable-background="new 0 0 160 160"
   xml:space="preserve"
   inkscape:version="0.91 r13725"
   sodipodi:docname="roller_skating__balance_on_lfoot.svg"
   inkscape:export-filename="C:\workdir\dir\ScenographyAssets\roller_skating\roller_skating__balance_on_lfoot.png"
   inkscape:export-xdpi="288"
   inkscape:export-ydpi="288"><metadata
     id="metadata45"><rdf:RDF><cc:Work
         rdf:about=""><dc:format>image/svg+xml</dc:format><dc:type
           rdf:resource="http://purl.org/dc/dcmitype/StillImage" /><dc:title></dc:title></cc:Work></rdf:RDF></metadata><defs
     id="defs43" /><sodipodi:namedview
     pagecolor="#ffffff"
     bordercolor="#666666"
     borderopacity="1"
     objecttolerance="10"
     gridtolerance="10"
     guidetolerance="10"
     inkscape:pageopacity="0"
     inkscape:pageshadow="2"
     inkscape:window-width="1538"
     inkscape:window-height="877"
     id="namedview41"
     showgrid="false"
     inkscape:zoom="1.475"
     inkscape:cx="-154.8533"
     inkscape:cy="72.814169"
     inkscape:window-x="-8"
     inkscape:window-y="1192"
     inkscape:window-maximized="1"
     inkscape:current-layer="レイヤー_1" /><path
     fill="none"
     stroke="#000000"
     stroke-miterlimit="10"
     d="M107.9,81.4c0.6-3.2,1.2-10.3-2.8-13.9c-4.1-3.6-12.6-7.5-16.5-6.9  c-3.9,0.5-8.7,6.5-9.6,9.2c-0.9,2.8-1.2,7.6,0.5,11c1.3,2.5,12.3,11,16.4,10.8S106.5,88.5,107.9,81.4z"
     id="path3"
     style="stroke-linejoin:round;stroke-linecap:round" /><circle
     fill="none"
     stroke="#000000"
     stroke-miterlimit="10"
     cx="86"
     cy="82.3"
     r="1.8"
     id="circle5"
     style="stroke-linejoin:round;stroke-linecap:round" /><circle
     fill="none"
     stroke="#000000"
     stroke-miterlimit="10"
     cx="96"
     cy="88.3"
     r="1.8"
     id="circle7"
     style="stroke-linejoin:round;stroke-linecap:round" /><path
     fill="none"
     stroke="#000000"
     stroke-miterlimit="10"
     d="M58.4,48.1c0-1.8-4.4-5.3-6.6-8.9c-2.1-3.6-7.1-14.1-11.4-16.2  s-6.6-0.4-8.5,1.8S29.4,36.2,33.7,43s11.6,12.4,15.7,13.2s5.2,0,6.6-2C57.4,52.2,58.4,50.1,58.4,48.1z"
     id="path9"
     style="stroke-linejoin:round;stroke-linecap:round" /><path
     fill="none"
     stroke="#000000"
     stroke-miterlimit="10"
     d="M61.8,52c0,0,8-4.3,11.2-4.3s12.1,3.9,16.2,5.7s8.2,3.2,10.3,6  c2.1,2.8,2.1,5.9,2.1,5.9"
     id="path11"
     style="stroke-linejoin:round;stroke-linecap:round" /><path
     fill="none"
     stroke="#000000"
     stroke-miterlimit="10"
     d="M94.5,91.7c0,0-8.5,6.8-15.3,8s-19-6-22.2-9.4s-6.8-9.8-6.9-13.2  c-0.2-3.4,0.7-10,4.4-18.1"
     id="path13"
     style="stroke-linejoin:round;stroke-linecap:round" /><polyline
     fill="none"
     stroke="#000000"
     stroke-miterlimit="10"
     points="51,68.9 34.6,61.6 20.2,41.7 31,36 "
     id="polyline15"
     style="stroke-linejoin:round;stroke-linecap:round" /><path
     fill="none"
     stroke="#000000"
     stroke-miterlimit="10"
     d="M124.1,89.9c-2,0-7.8,4.4-8.4,6.4c-0.5,2,7.6,9.1,11.2,10.5  c3.6,1.4,14.9,6.8,21,2.5c6-4.3,3.4-8.7,0-11.9c-3.4-3.2-8.4-2-15.7-4.4C125,90.4,124.1,89.9,124.1,89.9z"
     id="path17"
     style="stroke-linejoin:round;stroke-linecap:round" /><path
     fill="none"
     stroke="#000000"
     stroke-miterlimit="10"
     d="M107.7,82.1c0,0,7,3.1,15.9,8"
     id="path19"
     style="stroke-linejoin:round;stroke-linecap:round" /><line
     fill="none"
     stroke="#000000"
     stroke-miterlimit="10"
     x1="103.3"
     y1="88.7"
     x2="115.7"
     y2="96.5"
     id="line21"
     style="stroke-linejoin:round;stroke-linecap:round" /><path
     fill="none"
     stroke="#000000"
     stroke-miterlimit="10"
     d="M76.8,99.7L68.6,113l0.9,8.4l-5.2,1.2c0,0-8-7.8-8.2-8.9  s1.6-4.6,3.2-8.2c1.6-3.6,6.3-9.4,6.3-9.4"
     id="path23"
     style="stroke-linejoin:round;stroke-linecap:round" /><path
     fill="none"
     stroke="#000000"
     stroke-miterlimit="10"
     d="M58.2,108c0,0-7.6,0.2-9,1.4c-1.4,1.2-1.8,2.3,4.3,10.5  c6,8.2,8.2,12.1,10.5,12.8c2.3,0.7,7.6-0.5,10.8-1.4s8.2-2.1,6.6-5.2c-1.6-3-12.8-13.2-12.8-13.2"
     id="path25"
     style="stroke-linejoin:round;stroke-linecap:round" /><path
     fill="none"
     stroke="#000000"
     stroke-miterlimit="10"
     d="M31.3,25.8c-1.9,1-13.7,6.9-18.1,10c-4.8,3.4-4.6,5-4.3,7.8  s3.4,10.1,7.1,10.1s8.9-5.5,8.9-5.5"
     id="path27"
     style="stroke-linejoin:round;stroke-linecap:round" /><path
     fill="none"
     stroke="#000000"
     stroke-miterlimit="10"
     d="M15.9,34.1c-0.2-1.3-1.3-2.2-2.6-2.2c-1.5,0-2.7,1.2-2.7,2.7  c0,1,0.5,1.8,1.3,2.3"
     id="path29"
     style="stroke-linejoin:round;stroke-linecap:round" /><path
     fill="none"
     stroke="#000000"
     stroke-miterlimit="10"
     d="M30.8,26.1c-0.1-1-1-1.8-2.1-1.8c-1.2,0-2.1,1-2.1,2.1  c0,0.6,0.2,1.1,0.6,1.5"
     id="path31"
     style="stroke-linejoin:round;stroke-linecap:round" /><path
     fill="none"
     stroke="#000000"
     stroke-miterlimit="10"
     d="M50.7,56.2C53,58,64.4,66.7,68,67.1c4.1,0.5,4.8-0.7,5.3-3  c0.5-2.3-0.4-4.3-3.9-6.8c-3.6-2.5-7.8-5.5-11.2-8.2"
     id="path33"
     style="stroke-linejoin:round;stroke-linecap:round" /><path
     fill="none"
     stroke="#000000"
     stroke-miterlimit="10"
     d="M74.6,131.4c0.3,1.1,1.3,1.9,2.6,1.9c1.5,0,2.7-1.2,2.7-2.7  c0-0.3,0-0.6-0.1-0.9"
     id="path35"
     style="stroke-linejoin:round;stroke-linecap:round" /><path
     fill="none"
     stroke="#000000"
     stroke-miterlimit="10"
     d="M59.8,128.8c-1,0.3-1.8,1.3-1.8,2.4c0,1.4,1.1,2.5,2.5,2.5  c1,0,1.9-0.6,2.3-1.5"
     id="path37"
     style="stroke-linejoin:round;stroke-linecap:round" /><path
     fill="none"
     stroke="#000000"
     stroke-miterlimit="10"
     d="M49.6,114.3c-1.3,0.1-2.2,1.2-2.2,2.5c0,1.4,1.1,2.5,2.5,2.5  c0.9,0,1.7-0.5,2.1-1.2"
     id="path39"
     style="stroke-linejoin:round;stroke-linecap:round" /></svg>