<?xml version="1.0" encoding="UTF-8" standalone="no"?>
<!-- Generator: Adobe Illustrator 18.0.0, SVG Export Plug-In . SVG Version: 6.00 Build 0)  -->

<svg
   xmlns:dc="http://purl.org/dc/elements/1.1/"
   xmlns:cc="http://creativecommons.org/ns#"
   xmlns:rdf="http://www.w3.org/1999/02/22-rdf-syntax-ns#"
   xmlns:svg="http://www.w3.org/2000/svg"
   xmlns="http://www.w3.org/2000/svg"
   xmlns:sodipodi="http://sodipodi.sourceforge.net/DTD/sodipodi-0.dtd"
   xmlns:inkscape="http://www.inkscape.org/namespaces/inkscape"
   version="1.1"
   id="レイヤー_1"
   x="0px"
   y="0px"
   viewBox="0 0 160 160"
   enable-background="new 0 0 160 160"
   xml:space="preserve"
   inkscape:version="0.91 r13725"
   sodipodi:docname="roller_skating__heel_&amp;_toe_rfoot.svg"
   inkscape:export-filename="C:\workdir\dir\ScenographyAssets\roller_skating\roller_skating__heel_&amp;_toe_rfoot.png"
   inkscape:export-xdpi="288"
   inkscape:export-ydpi="288"><metadata
     id="metadata47"><rdf:RDF><cc:Work
         rdf:about=""><dc:format>image/svg+xml</dc:format><dc:type
           rdf:resource="http://purl.org/dc/dcmitype/StillImage" /><dc:title></dc:title></cc:Work></rdf:RDF></metadata><defs
     id="defs45" /><sodipodi:namedview
     pagecolor="#ffffff"
     bordercolor="#666666"
     borderopacity="1"
     objecttolerance="10"
     gridtolerance="10"
     guidetolerance="10"
     inkscape:pageopacity="0"
     inkscape:pageshadow="2"
     inkscape:window-width="1600"
     inkscape:window-height="1177"
     id="namedview43"
     showgrid="false"
     inkscape:zoom="1.475"
     inkscape:cx="-30.847458"
     inkscape:cy="80"
     inkscape:window-x="-8"
     inkscape:window-y="-8"
     inkscape:window-maximized="1"
     inkscape:current-layer="レイヤー_1" /><path
     fill="none"
     stroke="#000000"
     stroke-miterlimit="10"
     d="M98.8,48.4c2.1-2.8,4.3-10.8,2.8-14.8c-1.5-3.9-2.9-7.1-7.5-8.6  c-4.7-1.5-13.5-2.7-16.5-1.5c-3,1.2-5.7,5.7-6.1,9.6c-0.5,3.9-0.2,9.3,2.2,12c2.5,2.7,8.6,4.2,13.8,4.7  C92.6,50.4,96.9,51.1,98.8,48.4z"
     id="path3"
     style="stroke-linejoin:round;stroke-linecap:round" /><path
     fill="none"
     stroke="#000000"
     stroke-miterlimit="10"
     d="M42,45c-2.1-2.6-14.5-10.3-18.7-12.8s-7.4-2-9.3-0.2s-2.7,4.2-1.7,6.9  c1,2.7,4.8,8,10.8,13c3.2,2.7,9.8,5.7,12.5,5.7c2.7,0,5.9-1.7,6.6-3S43.7,47.2,42,45z"
     id="path5"
     style="stroke-linejoin:round;stroke-linecap:round" /><path
     fill="none"
     stroke="#000000"
     stroke-miterlimit="10"
     d="M42.5,46c0,0,17.9-2,18.9-2c1,0,4.7,3,4.4,3.9s-0.5,3.4-1.2,4.4  c-0.7,1-21.6,3.7-23.4,3.4"
     id="path7"
     style="stroke-linejoin:round;stroke-linecap:round" /><path
     fill="none"
     stroke="#000000"
     stroke-miterlimit="10"
     d="M115,72.3c-1.8-2.2,3.4-7.4,5.2-9.1c1.7-1.7,19.2-7.1,22.4-6.9  c3.2,0.2,6.9,2,3.2,6.9s-5.7,6.1-11.8,8.9C127.8,74.7,119.4,77.7,115,72.3z"
     id="path9"
     style="stroke-linejoin:round;stroke-linecap:round" /><circle
     fill="none"
     stroke="#000000"
     stroke-miterlimit="10"
     cx="83"
     cy="39.4"
     r="2.7"
     id="circle11"
     style="stroke-linejoin:round;stroke-linecap:round" /><circle
     fill="none"
     stroke="#000000"
     stroke-miterlimit="10"
     cx="96"
     cy="42.5"
     r="2.4"
     id="circle13"
     style="stroke-linejoin:round;stroke-linecap:round" /><path
     fill="none"
     stroke="#000000"
     stroke-miterlimit="10"
     d="M118.8,64.6c-2.2-1.8-9.6-7.9-13.8-11.1"
     id="path15"
     style="stroke-linejoin:round;stroke-linecap:round" /><path
     fill="none"
     stroke="#000000"
     stroke-miterlimit="10"
     d="M104.4,62.6c1.1,1,7,6.6,10.3,8.5"
     id="path17"
     style="stroke-linejoin:round;stroke-linecap:round" /><polyline
     fill="none"
     stroke="#000000"
     stroke-miterlimit="10"
     points="75.7,86.8 84,103.5 83.5,126.9 78.6,127.6 68.8,120.7   72.5,105.2 58.9,80.3 "
     id="polyline19"
     style="stroke-linejoin:round;stroke-linecap:round" /><path
     fill="none"
     stroke="#000000"
     stroke-miterlimit="10"
     d="M57.1,90.5c0-1.2-0.2-2.7-0.8-3.7c-1.2-1.7-8.9-3.9-11.1-2.2  c-2.2,1.7-4.2,10.3-5.4,18.2s-2.2,11.1-1,12.8c1.2,1.7,6.3,6.4,13.5,3.4c1.9-0.8,3.6-10.1,4.3-17.7"
     id="path21"
     style="stroke-linejoin:round;stroke-linecap:round" /><path
     fill="none"
     stroke="#000000"
     stroke-miterlimit="10"
     d="M43.1,88.2c-0.4-0.5-0.9-0.8-1.6-0.8c-1.1,0-2,0.9-2,2  c0,1.1,0.9,2,2,2c0.2,0,0.4,0,0.7-0.1"
     id="path23"
     style="stroke-linejoin:round;stroke-linecap:round" /><path
     fill="none"
     stroke="#000000"
     stroke-miterlimit="10"
     d="M39,107.3c-0.4-0.6-1.1-1-1.8-1c-1.2,0-2.2,1-2.2,2.2  c0,1.2,1,2.2,2.2,2.2c0.5,0,1-0.2,1.4-0.5"
     id="path25"
     style="stroke-linejoin:round;stroke-linecap:round" /><polyline
     fill="none"
     stroke="#000000"
     stroke-miterlimit="10"
     points="68.7,98.3 68.5,98.3 52.8,102.3 45.9,100.8 47.9,90.5   64.4,90.5 "
     id="polyline27"
     style="stroke-linejoin:round;stroke-linecap:round" /><line
     fill="none"
     stroke="#000000"
     stroke-miterlimit="10"
     x1="90.3"
     y1="88.2"
     x2="79.1"
     y2="93.4"
     id="line29"
     style="stroke-linejoin:round;stroke-linecap:round" /><path
     fill="none"
     stroke="#000000"
     stroke-miterlimit="10"
     d="M69.5,117.5c-1.7,0.1-7.6,0.6-8.1,1.8c-0.6,1.5,10.7,16,13.2,17.3  s10.2,2.5,15.6,0.7c5.4-1.7,7.3-2.1,5.9-5.2c-1.2-2.8-10.8-8.4-12.4-9.3"
     id="path31"
     style="stroke-linejoin:round;stroke-linecap:round" /><path
     fill="none"
     stroke="#000000"
     stroke-miterlimit="10"
     d="M63.6,123.7c-0.3-0.2-0.7-0.3-1.1-0.3c-1.3,0-2.3,1-2.3,2.3  s1,2.3,2.3,2.3s2.3-1,2.3-2.3c0-0.1,0-0.2,0-0.3"
     id="path33"
     style="stroke-linejoin:round;stroke-linecap:round" /><path
     fill="none"
     stroke="#000000"
     stroke-miterlimit="10"
     d="M73.2,135.6c-0.8,0.5-1.4,1.3-1.4,2.4c0,1.5,1.2,2.7,2.7,2.7  c1.5,0,2.7-1.2,2.7-2.7c0-0.1,0-0.2,0-0.3"
     id="path35"
     style="stroke-linejoin:round;stroke-linecap:round" /><path
     fill="none"
     stroke="#000000"
     stroke-miterlimit="10"
     d="M91.8,136.9c-0.3,0.4-0.5,0.8-0.5,1.3c0,1.2,0.9,2.1,2.1,2.1  s2.1-0.9,2.1-2.1c0-1-0.7-1.8-1.6-2"
     id="path37"
     style="stroke-linejoin:round;stroke-linecap:round" /><path
     fill="none"
     stroke="#000000"
     stroke-miterlimit="10"
     d="M54.7,54.3C53,59.4,52,64.9,53,69.1c2.5,9.8,5.4,11.8,10.8,13.8  c5.4,2,13.5,5.2,20.9,5.4c7.4,0.2,12.3-0.2,15.2-5.9c3-5.7,5.9-28,4.7-30.5c-1-2.1-4.2-4-5.2-4.5"
     id="path39"
     style="stroke-linejoin:round;stroke-linecap:round" /><path
     fill="none"
     stroke="#000000"
     stroke-miterlimit="10"
     d="M71.7,38.6c0,0-4.7-0.5-8.6,1.5c-1,0.5-2.3,2-3.6,4"
     id="path41"
     style="stroke-linejoin:round;stroke-linecap:round" /></svg>