<?xml version="1.0" encoding="UTF-8" standalone="no"?>
<!-- Generator: Adobe Illustrator 18.0.0, SVG Export Plug-In . SVG Version: 6.00 Build 0)  -->

<svg
   xmlns:dc="http://purl.org/dc/elements/1.1/"
   xmlns:cc="http://creativecommons.org/ns#"
   xmlns:rdf="http://www.w3.org/1999/02/22-rdf-syntax-ns#"
   xmlns:svg="http://www.w3.org/2000/svg"
   xmlns="http://www.w3.org/2000/svg"
   xmlns:sodipodi="http://sodipodi.sourceforge.net/DTD/sodipodi-0.dtd"
   xmlns:inkscape="http://www.inkscape.org/namespaces/inkscape"
   version="1.1"
   id="レイヤー_1"
   x="0px"
   y="0px"
   viewBox="0 0 160 160"
   enable-background="new 0 0 160 160"
   xml:space="preserve"
   inkscape:version="0.91 r13725"
   sodipodi:docname="roller_skating__breake_for_forward.svg"
   inkscape:export-filename="C:\workdir\dir\ScenographyAssets\roller_skating\roller_skating__breake_for_forward.png"
   inkscape:export-xdpi="288"
   inkscape:export-ydpi="288"><metadata
     id="metadata43"><rdf:RDF><cc:Work
         rdf:about=""><dc:format>image/svg+xml</dc:format><dc:type
           rdf:resource="http://purl.org/dc/dcmitype/StillImage" /><dc:title></dc:title></cc:Work></rdf:RDF></metadata><defs
     id="defs41" /><sodipodi:namedview
     pagecolor="#ffffff"
     bordercolor="#666666"
     borderopacity="1"
     objecttolerance="10"
     gridtolerance="10"
     guidetolerance="10"
     inkscape:pageopacity="0"
     inkscape:pageshadow="2"
     inkscape:window-width="1600"
     inkscape:window-height="1177"
     id="namedview39"
     showgrid="false"
     inkscape:zoom="1.475"
     inkscape:cx="-30.847458"
     inkscape:cy="80"
     inkscape:window-x="-8"
     inkscape:window-y="-8"
     inkscape:window-maximized="1"
     inkscape:current-layer="レイヤー_1" /><path
     fill="none"
     stroke="#231815"
     stroke-miterlimit="10"
     d="M63.8,26.7c5.3-3.7,8.7-3.8,15.1-4c6.4-0.1,11,1.3,13.3,3.4  s4.1,13.5,0.4,17.3c-3.8,3.7-10.1,3.8-18,3.4c-7.9-0.4-11.3-2.8-11.9-4.6S60.4,29.1,63.8,26.7z"
     id="path3"
     style="stroke-linejoin:round;stroke-linecap:round" /><path
     fill="none"
     stroke="#231815"
     stroke-miterlimit="10"
     d="M117.1,66.2c3.2-2.5,6.8-3.8,9.3-0.2c2.5,3.6,4.5,12,1.9,19.3  c-2.6,7.3-3.3,11.3-7.3,10.8s-4.8-10.5-5.5-14.4C114.8,77.8,113.9,68.7,117.1,66.2z"
     id="path5"
     style="stroke-linejoin:round;stroke-linecap:round" /><path
     fill="none"
     stroke="#231815"
     stroke-miterlimit="10"
     d="M36,67.3c2.8-2.4,6.8-0.7,8.1,4.1s0.5,7.9,1.5,12.7  c1,4.8-0.6,15.5-5.1,16.5c-4.5,1-7.5-11-7.6-16.6C32.7,78.3,33,69.8,36,67.3z"
     id="path7"
     style="stroke-linejoin:round;stroke-linecap:round" /><path
     fill="none"
     stroke="#231815"
     stroke-miterlimit="10"
     d="M63.9,43.9c0,0-5.5,1.1-8.5,5.7s-5.6,36.2,2.3,39.6s31.8,5.1,40.7,1.3  c8.9-3.8,9.2-33.2,4.7-41s-9.6-7.6-9.6-7.6"
     id="path9"
     style="stroke-linejoin:round;stroke-linecap:round" /><line
     fill="none"
     stroke="#231815"
     stroke-miterlimit="10"
     x1="103.2"
     y1="49.6"
     x2="124.4"
     y2="64.3"
     id="line11"
     style="stroke-linejoin:round;stroke-linecap:round" /><line
     fill="none"
     stroke="#231815"
     stroke-miterlimit="10"
     x1="115.8"
     y1="68.1"
     x2="106"
     y2="62.8"
     id="line13"
     style="stroke-linejoin:round;stroke-linecap:round" /><line
     fill="none"
     stroke="#231815"
     stroke-miterlimit="10"
     x1="44.1"
     y1="71.4"
     x2="52.7"
     y2="65.3"
     id="line15"
     style="stroke-linejoin:round;stroke-linecap:round" /><line
     fill="none"
     stroke="#231815"
     stroke-miterlimit="10"
     x1="38.9"
     y1="66"
     x2="54.5"
     y2="52"
     id="line17"
     style="stroke-linejoin:round;stroke-linecap:round" /><polyline
     fill="none"
     stroke="#231815"
     stroke-miterlimit="10"
     points="86.7,92.6 81.5,107 96.5,126 94.3,129.7 99.4,135.4   111.8,129.1 111.6,120.9 93.7,104.6 98.5,90.5 "
     id="polyline19"
     style="stroke-linejoin:round;stroke-linecap:round" /><polyline
     fill="none"
     stroke="#231815"
     stroke-miterlimit="10"
     points="77.5,92.6 81.5,107 71.8,124.1 71.9,127.8 67.8,134.8   56.1,128.1 56,121.7 70,107.5 60.4,90.2 "
     id="polyline21"
     style="stroke-linejoin:round;stroke-linecap:round" /><path
     fill="none"
     stroke="#231815"
     stroke-miterlimit="10"
     d="M71.8,124.1c0,0,7.9,2.9,10.1,7.4c2.2,4.5-5.5,11.6-9.8,11.4  c-4.2-0.2-23.3-7.7-25.4-10.7s-0.1-11.3,6.7-13.2c2.4-0.7,5.2-0.1,5.2-0.1"
     id="path23"
     style="stroke-linejoin:round;stroke-linecap:round" /><circle
     fill="none"
     stroke="#231815"
     stroke-miterlimit="10"
     cx="85.6"
     cy="36.9"
     r="2.7"
     id="circle25"
     style="stroke-linejoin:round;stroke-linecap:round" /><circle
     fill="none"
     stroke="#231815"
     stroke-miterlimit="10"
     cx="70.5"
     cy="37.2"
     r="2.7"
     id="circle27"
     style="stroke-linejoin:round;stroke-linecap:round" /><circle
     fill="none"
     stroke="#231815"
     stroke-miterlimit="10"
     cx="97.2"
     cy="146.6"
     r="2.5"
     id="circle29"
     style="stroke-linejoin:round;stroke-linecap:round" /><circle
     fill="none"
     stroke="#231815"
     stroke-miterlimit="10"
     cx="69"
     cy="145.4"
     r="2.5"
     id="circle31"
     style="stroke-linejoin:round;stroke-linecap:round" /><circle
     fill="none"
     stroke="#231815"
     stroke-miterlimit="10"
     cx="47.7"
     cy="135.8"
     r="2.5"
     id="circle33"
     style="stroke-linejoin:round;stroke-linecap:round" /><circle
     fill="none"
     stroke="#231815"
     stroke-miterlimit="10"
     cx="119.6"
     cy="135"
     r="2.5"
     id="circle35"
     style="stroke-linejoin:round;stroke-linecap:round" /><path
     fill="none"
     stroke="#231815"
     stroke-miterlimit="10"
     d="M109.4,119c2.2-0.7,3.9-1.1,4.9-1.2c2.2-0.2,12.4,7.6,11.4,10.4  c-1,2.7-24.2,15.9-28.9,16c-4.6,0.1-13.6-7.6-13.6-10.3c-0.1-2.5,5.6-6.1,12.2-9.3"
     id="path37"
     style="stroke-linejoin:round;stroke-linecap:round" /></svg>