<?xml version="1.0" encoding="UTF-8" standalone="no"?>
<!-- Generator: Adobe Illustrator 18.0.0, SVG Export Plug-In . SVG Version: 6.00 Build 0)  -->

<svg
   xmlns:dc="http://purl.org/dc/elements/1.1/"
   xmlns:cc="http://creativecommons.org/ns#"
   xmlns:rdf="http://www.w3.org/1999/02/22-rdf-syntax-ns#"
   xmlns:svg="http://www.w3.org/2000/svg"
   xmlns="http://www.w3.org/2000/svg"
   xmlns:sodipodi="http://sodipodi.sourceforge.net/DTD/sodipodi-0.dtd"
   xmlns:inkscape="http://www.inkscape.org/namespaces/inkscape"
   version="1.1"
   id="レイヤー_1"
   x="0px"
   y="0px"
   viewBox="0 0 160 160"
   enable-background="new 0 0 160 160"
   xml:space="preserve"
   inkscape:version="0.91 r13725"
   sodipodi:docname="roller_skating__break_for_back.svg"
   inkscape:export-filename="C:\workdir\dir\ScenographyAssets\roller_skating\roller_skating__break_for_back.png"
   inkscape:export-xdpi="288"
   inkscape:export-ydpi="288"><metadata
     id="metadata47"><rdf:RDF><cc:Work
         rdf:about=""><dc:format>image/svg+xml</dc:format><dc:type
           rdf:resource="http://purl.org/dc/dcmitype/StillImage" /><dc:title></dc:title></cc:Work></rdf:RDF></metadata><defs
     id="defs45" /><sodipodi:namedview
     pagecolor="#ffffff"
     bordercolor="#666666"
     borderopacity="1"
     objecttolerance="10"
     gridtolerance="10"
     guidetolerance="10"
     inkscape:pageopacity="0"
     inkscape:pageshadow="2"
     inkscape:window-width="1538"
     inkscape:window-height="877"
     id="namedview43"
     showgrid="false"
     inkscape:zoom="1.475"
     inkscape:cx="-156.27119"
     inkscape:cy="80"
     inkscape:window-x="-8"
     inkscape:window-y="1192"
     inkscape:window-maximized="1"
     inkscape:current-layer="レイヤー_1" /><path
     fill="none"
     stroke="#231815"
     stroke-miterlimit="10"
     d="M66.4,26c3.8-3.3,22.7-2.4,25.2,0.4c3.1,3.5,1.7,17.3-0.3,18.8  c-3.1,2.3-22.5,3-25.3-1.1C63.1,40,64.7,27.5,66.4,26z"
     id="path3"
     style="stroke-linejoin:round;stroke-linecap:round;stroke:#000000;stroke-opacity:1" /><circle
     fill="none"
     stroke="#231815"
     stroke-miterlimit="10"
     cx="85.7"
     cy="37.4"
     r="2.5"
     id="circle5"
     style="stroke-linejoin:round;stroke-linecap:round;stroke:#000000;stroke-opacity:1" /><circle
     fill="none"
     stroke="#231815"
     stroke-miterlimit="10"
     cx="72.3"
     cy="37.2"
     r="2.5"
     id="circle7"
     style="stroke-linejoin:round;stroke-linecap:round;stroke:#000000;stroke-opacity:1" /><path
     fill="none"
     stroke="#231815"
     stroke-miterlimit="10"
     d="M89.4,46c0,0,10.1-1.2,11.9,3.4c1.8,4.6,2,13.8,1.8,21.8  c-0.3,7.9-2.6,17.4-7.9,19.2c-5.4,1.8-27.4,2.6-35.1-1c-7.1-3.3-6.5-17.1-6-23.5c0.5-6.7,1.6-15.1,5-18.2c2.2-2,8.1-2.5,8.1-2.5"
     id="path9"
     style="stroke-linejoin:round;stroke-linecap:round;stroke:#000000;stroke-opacity:1" /><path
     fill="none"
     stroke="#231815"
     stroke-miterlimit="10"
     d="M117.9,66.3c2.9-1,4.3,2.1,5.1,5.9s0.5,19.2-2.5,23.5  c-3.1,4.4-7.2,3.8-7.9-2C111.4,85.3,109.5,69.1,117.9,66.3z"
     id="path11"
     style="stroke-linejoin:round;stroke-linecap:round;stroke:#000000;stroke-opacity:1" /><line
     fill="none"
     stroke="#231815"
     stroke-miterlimit="10"
     x1="103"
     y1="60.4"
     x2="112.1"
     y2="74.6"
     id="line13"
     style="stroke-linejoin:round;stroke-linecap:round;stroke:#000000;stroke-opacity:1" /><line
     fill="none"
     stroke="#231815"
     stroke-miterlimit="10"
     x1="119.7"
     y1="66.3"
     x2="100.2"
     y2="47.9"
     id="line15"
     style="stroke-linejoin:round;stroke-linecap:round;stroke:#000000;stroke-opacity:1" /><path
     fill="none"
     stroke="#231815"
     stroke-miterlimit="10"
     d="M35.7,68.5c2.5-2,8.5-0.9,9.7,1.6c1.3,2.6,0.8,15.3-2.6,21.7  s-4.6,8.2-7.2,8.2s-4.9-4.6-4.9-10C30.8,84.8,31.3,72,35.7,68.5z"
     id="path17"
     style="stroke-linejoin:round;stroke-linecap:round;stroke:#000000;stroke-opacity:1" /><line
     fill="none"
     stroke="#231815"
     stroke-miterlimit="10"
     x1="38.4"
     y1="67.5"
     x2="57.2"
     y2="50.3"
     id="line19"
     style="stroke-linejoin:round;stroke-linecap:round;stroke:#000000;stroke-opacity:1" /><line
     fill="none"
     stroke="#231815"
     stroke-miterlimit="10"
     x1="54.3"
     y1="63.2"
     x2="45.9"
     y2="72.3"
     id="line21"
     style="stroke-linejoin:round;stroke-linecap:round;stroke:#000000;stroke-opacity:1" /><polyline
     fill="none"
     stroke="#231815"
     stroke-miterlimit="10"
     points="66.4,91.1 50.1,101.4 58.3,128.3 64.4,129.4 71,124.2   63.1,105.2 78.5,91.9 "
     id="polyline23"
     style="stroke-linejoin:round;stroke-linecap:round;stroke:#000000;stroke-opacity:1" /><polyline
     fill="none"
     stroke="#231815"
     stroke-miterlimit="10"
     points="81.3,91.9 95.9,108.1 91.3,125 100.2,129.4 104.6,126.5   110,104 93.4,90.9 "
     id="polyline25"
     style="stroke-linejoin:round;stroke-linecap:round;stroke:#000000;stroke-opacity:1" /><path
     fill="none"
     stroke="#231815"
     stroke-miterlimit="10"
     d="M92.7,119.9c0,0-7.9,2.8-9.5,5.4c-1.6,2.6,4.3,7,8.4,10  c4.1,3,11.5,8.4,16,7.6c4.5-0.8,15.2-4,15.5-7.6c0.3-3.6-17.6-12-17.6-12"
     id="path27"
     style="stroke-linejoin:round;stroke-linecap:round;stroke:#000000;stroke-opacity:1" /><path
     fill="none"
     stroke="#231815"
     stroke-miterlimit="10"
     d="M69.8,121.2c0,0,2.1-0.3,5,1s7.5,2.8,4.1,6.1  c-3.5,3.4-18.6,15.9-21.7,16.2c-3.1,0.3-15.6-2.7-15.9-7.2c-0.3-4.5,15.9-12.4,15.9-12.4"
     id="path29"
     style="stroke-linejoin:round;stroke-linecap:round;stroke:#000000;stroke-opacity:1" /><circle
     fill="none"
     stroke="#231815"
     stroke-miterlimit="10"
     cx="60.7"
     cy="145.5"
     r="2.4"
     id="circle31"
     style="stroke-linejoin:round;stroke-linecap:round;stroke:#000000;stroke-opacity:1" /><circle
     fill="none"
     stroke="#231815"
     stroke-miterlimit="10"
     cx="118.7"
     cy="142.1"
     r="2.4"
     id="circle33"
     style="stroke-linejoin:round;stroke-linecap:round;stroke:#000000;stroke-opacity:1" /><path
     fill="none"
     stroke="#231815"
     stroke-miterlimit="10"
     d="M46.5,141.9c0.2,0.3,0.3,0.7,0.3,1.2c0,1.3-1.1,2.4-2.4,2.4  c-1.3,0-2.4-1.1-2.4-2.4s1.1-2.4,2.4-2.4"
     id="path35"
     style="stroke-linejoin:round;stroke-linecap:round;stroke:#000000;stroke-opacity:1" /><path
     fill="none"
     stroke="#231815"
     stroke-miterlimit="10"
     d="M76.1,130.4c1.3,0,2.4,1.1,2.4,2.4s-1.1,2.4-2.4,2.4  c-1.3,0-2.4-1.1-2.4-2.4"
     id="path37"
     style="stroke-linejoin:round;stroke-linecap:round;stroke:#000000;stroke-opacity:1" /><path
     fill="none"
     stroke="#231815"
     stroke-miterlimit="10"
     d="M103.6,142.5c0.2,0.4,0.3,0.9,0.3,1.4c0,1.7-1.4,3.1-3.1,3.1  s-3.1-1.4-3.1-3.1c0-1.4,0.9-2.6,2.2-2.9"
     id="path39"
     style="stroke-linejoin:round;stroke-linecap:round;stroke:#000000;stroke-opacity:1" /><path
     fill="none"
     stroke="#231815"
     stroke-miterlimit="10"
     d="M88,132.8c0,1.3-1.1,2.4-2.4,2.4c-1.3,0-2.4-1.1-2.4-2.4  s1.1-2.4,2.4-2.4"
     id="path41"
     style="stroke-linejoin:round;stroke-linecap:round;stroke:#000000;stroke-opacity:1" /></svg>