<?xml version="1.0" encoding="UTF-8" standalone="no"?>
<!-- Generator: Adobe Illustrator 18.0.0, SVG Export Plug-In . SVG Version: 6.00 Build 0)  -->

<svg
   xmlns:dc="http://purl.org/dc/elements/1.1/"
   xmlns:cc="http://creativecommons.org/ns#"
   xmlns:rdf="http://www.w3.org/1999/02/22-rdf-syntax-ns#"
   xmlns:svg="http://www.w3.org/2000/svg"
   xmlns="http://www.w3.org/2000/svg"
   xmlns:sodipodi="http://sodipodi.sourceforge.net/DTD/sodipodi-0.dtd"
   xmlns:inkscape="http://www.inkscape.org/namespaces/inkscape"
   version="1.1"
   id="レイヤー_1"
   x="0px"
   y="0px"
   viewBox="0 0 160 160"
   enable-background="new 0 0 160 160"
   xml:space="preserve"
   inkscape:version="0.91 r13725"
   sodipodi:docname="roller_skating__balance_on_rfoot.svg"
   inkscape:export-filename="C:\workdir\dir\ScenographyAssets\roller_skating\roller_skating__balance_on_rfoot.png"
   inkscape:export-xdpi="288"
   inkscape:export-ydpi="288"><metadata
     id="metadata45"><rdf:RDF><cc:Work
         rdf:about=""><dc:format>image/svg+xml</dc:format><dc:type
           rdf:resource="http://purl.org/dc/dcmitype/StillImage" /><dc:title></dc:title></cc:Work></rdf:RDF></metadata><defs
     id="defs43" /><sodipodi:namedview
     pagecolor="#ffffff"
     bordercolor="#666666"
     borderopacity="1"
     objecttolerance="10"
     gridtolerance="10"
     guidetolerance="10"
     inkscape:pageopacity="0"
     inkscape:pageshadow="2"
     inkscape:window-width="1600"
     inkscape:window-height="1177"
     id="namedview41"
     showgrid="false"
     inkscape:zoom="1.475"
     inkscape:cx="-47.796611"
     inkscape:cy="80"
     inkscape:window-x="-8"
     inkscape:window-y="-8"
     inkscape:window-maximized="1"
     inkscape:current-layer="レイヤー_1" /><path
     fill="none"
     stroke="#000000"
     stroke-miterlimit="10"
     d="M52.3,81.4c-0.6-3.2-1.2-10.3,2.8-13.9c4.1-3.6,12.6-7.5,16.5-6.9  c3.9,0.5,8.7,6.5,9.6,9.2c0.9,2.8,1.2,7.6-0.5,11c-1.3,2.5-12.3,11-16.4,10.8C60.3,91.5,53.7,88.5,52.3,81.4z"
     id="path3"
     style="stroke-linecap:round;stroke-linejoin:round" /><circle
     fill="none"
     stroke="#000000"
     stroke-miterlimit="10"
     cx="74.1"
     cy="82.3"
     r="1.8"
     id="circle5"
     style="stroke-linecap:round;stroke-linejoin:round" /><circle
     fill="none"
     stroke="#000000"
     stroke-miterlimit="10"
     cx="64.2"
     cy="88.3"
     r="1.8"
     id="circle7"
     style="stroke-linecap:round;stroke-linejoin:round" /><path
     fill="none"
     stroke="#000000"
     stroke-miterlimit="10"
     d="M101.7,48.1c0-1.8,4.4-5.3,6.6-8.9c2.1-3.6,7.1-14.1,11.4-16.2  s6.6-0.4,8.5,1.8c2,2.1,2.5,11.4-1.8,18.1c-4.3,6.8-11.6,12.4-15.7,13.2c-4.1,0.7-5.2,0-6.6-2C102.8,52.2,101.7,50.1,101.7,48.1z"
     id="path9"
     style="stroke-linecap:round;stroke-linejoin:round" /><path
     fill="none"
     stroke="#000000"
     stroke-miterlimit="10"
     d="M98.3,52c0,0-8-4.3-11.2-4.3s-12.1,4-16.2,5.7  c-4.1,1.8-8.2,3.2-10.3,6s-2.1,5.9-2.1,5.9"
     id="path11"
     style="stroke-linecap:round;stroke-linejoin:round" /><path
     fill="none"
     stroke="#000000"
     stroke-miterlimit="10"
     d="M65.6,91.7c0,0,8.5,6.8,15.3,8s19-6,22.2-9.4  c3.2-3.4,6.8-9.8,6.9-13.2c0.2-3.4-0.7-10-4.4-18.1"
     id="path13"
     style="stroke-linecap:round;stroke-linejoin:round" /><polyline
     fill="none"
     stroke="#000000"
     stroke-miterlimit="10"
     points="109.2,68.9 125.5,61.6 139.9,41.7 129.1,36 "
     id="polyline15"
     style="stroke-linecap:round;stroke-linejoin:round" /><path
     fill="none"
     stroke="#000000"
     stroke-miterlimit="10"
     d="M36.1,89.9c2,0,7.8,4.4,8.4,6.4c0.5,2-7.6,9.1-11.2,10.5  s-14.9,6.8-21,2.5c-6-4.3-3.4-8.7,0-11.9s8.4-2,15.7-4.4S36.1,89.9,36.1,89.9z"
     id="path17"
     style="stroke-linecap:round;stroke-linejoin:round" /><path
     fill="none"
     stroke="#000000"
     stroke-miterlimit="10"
     d="M52.4,82.1c0,0-7,3.1-15.9,8"
     id="path19"
     style="stroke-linecap:round;stroke-linejoin:round" /><line
     fill="none"
     stroke="#000000"
     stroke-miterlimit="10"
     x1="56.8"
     y1="88.7"
     x2="44.4"
     y2="96.5"
     id="line21"
     style="stroke-linecap:round;stroke-linejoin:round" /><path
     fill="none"
     stroke="#000000"
     stroke-miterlimit="10"
     d="M83.4,99.7l8.2,13.3l-0.9,8.4l5.2,1.2c0,0,8-7.8,8.2-8.9  s-1.6-4.6-3.2-8.2s-6.3-9.4-6.3-9.4"
     id="path23"
     style="stroke-linecap:round;stroke-linejoin:round" /><path
     fill="none"
     stroke="#000000"
     stroke-miterlimit="10"
     d="M101.9,108c0,0,7.6,0.2,9,1.4c1.4,1.2,1.8,2.3-4.3,10.5  c-6,8.2-8.2,12.1-10.5,12.8s-7.6-0.5-10.8-1.4s-8.2-2.1-6.6-5.2c1.6-3,12.8-13.2,12.8-13.2"
     id="path25"
     style="stroke-linecap:round;stroke-linejoin:round" /><path
     fill="none"
     stroke="#000000"
     stroke-miterlimit="10"
     d="M128.8,25.8c1.9,1,13.7,6.9,18.1,10c4.8,3.4,4.6,5,4.3,7.8  s-3.4,10.1-7.1,10.1s-8.9-5.5-8.9-5.5"
     id="path27"
     style="stroke-linecap:round;stroke-linejoin:round" /><path
     fill="none"
     stroke="#000000"
     stroke-miterlimit="10"
     d="M144.2,34.1c0.2-1.3,1.3-2.2,2.6-2.2c1.5,0,2.7,1.2,2.7,2.7  c0,1-0.5,1.8-1.3,2.3"
     id="path29"
     style="stroke-linecap:round;stroke-linejoin:round" /><path
     fill="none"
     stroke="#000000"
     stroke-miterlimit="10"
     d="M129.3,26.1c0.1-1,1-1.8,2.1-1.8c1.2,0,2.1,1,2.1,2.1  c0,0.6-0.2,1.1-0.6,1.5"
     id="path31"
     style="stroke-linecap:round;stroke-linejoin:round" /><path
     fill="none"
     stroke="#000000"
     stroke-miterlimit="10"
     d="M109.5,56.2c-2.3,1.8-13.7,10.4-17.4,10.9c-4.1,0.5-4.8-0.7-5.3-3  c-0.5-2.3,0.4-4.3,3.9-6.8c3.6-2.5,7.8-5.5,11.2-8.2"
     id="path33"
     style="stroke-linecap:round;stroke-linejoin:round" /><path
     fill="none"
     stroke="#000000"
     stroke-miterlimit="10"
     d="M85.6,131.4c-0.3,1.1-1.3,1.9-2.6,1.9c-1.5,0-2.7-1.2-2.7-2.7  c0-0.3,0-0.6,0.1-0.9"
     id="path35"
     style="stroke-linecap:round;stroke-linejoin:round" /><path
     fill="none"
     stroke="#000000"
     stroke-miterlimit="10"
     d="M100.3,128.8c1,0.3,1.8,1.3,1.8,2.4c0,1.4-1.1,2.5-2.5,2.5  c-1,0-1.9-0.6-2.3-1.5"
     id="path37"
     style="stroke-linecap:round;stroke-linejoin:round" /><path
     fill="none"
     stroke="#000000"
     stroke-miterlimit="10"
     d="M110.5,114.3c1.3,0.1,2.2,1.2,2.2,2.5c0,1.4-1.1,2.5-2.5,2.5  c-0.9,0-1.7-0.5-2.1-1.2"
     id="path39"
     style="stroke-linecap:round;stroke-linejoin:round" /></svg>