<?xml version="1.0" encoding="UTF-8" standalone="no"?>
<!-- Created with Inkscape (http://www.inkscape.org/) -->

<svg
   xmlns:dc="http://purl.org/dc/elements/1.1/"
   xmlns:cc="http://creativecommons.org/ns#"
   xmlns:rdf="http://www.w3.org/1999/02/22-rdf-syntax-ns#"
   xmlns:svg="http://www.w3.org/2000/svg"
   xmlns="http://www.w3.org/2000/svg"
   xmlns:sodipodi="http://sodipodi.sourceforge.net/DTD/sodipodi-0.dtd"
   xmlns:inkscape="http://www.inkscape.org/namespaces/inkscape"
   width="160"
   height="160"
   viewBox="0 0 160 160"
   id="svg4183"
   version="1.1"
   inkscape:version="0.91 r13725"
   sodipodi:docname="box__pick_up_high.svg"
   inkscape:export-filename="C:\workdir\dir\ScenographyAssets\box\box__pick_up_high.png"
   inkscape:export-xdpi="288"
   inkscape:export-ydpi="288">
  <defs
     id="defs4185" />
  <sodipodi:namedview
     id="base"
     pagecolor="#ffffff"
     bordercolor="#666666"
     borderopacity="1.0"
     inkscape:pageopacity="0.0"
     inkscape:pageshadow="2"
     inkscape:zoom="1.979899"
     inkscape:cx="26.9298"
     inkscape:cy="23.775664"
     inkscape:document-units="px"
     inkscape:current-layer="layer1"
     showgrid="false"
     units="px"
     inkscape:window-width="1538"
     inkscape:window-height="877"
     inkscape:window-x="-8"
     inkscape:window-y="1192"
     inkscape:window-maximized="1"
     guidetolerance="1"
     objecttolerance="1" />
  <metadata
     id="metadata4188">
    <rdf:RDF>
      <cc:Work
         rdf:about="">
        <dc:format>image/svg+xml</dc:format>
        <dc:type
           rdf:resource="http://purl.org/dc/dcmitype/StillImage" />
        <dc:title></dc:title>
      </cc:Work>
    </rdf:RDF>
  </metadata>
  <g
     inkscape:label="レイヤー 1"
     inkscape:groupmode="layer"
     id="layer1"
     transform="translate(0,-892.36216)">
    <g
       id="g4809"
       transform="translate(9.24426,9.2816475)">
      <path
         sodipodi:nodetypes="czczcczc"
         inkscape:connector-curvature="0"
         id="path4929"
         d="m 16.975556,965.58882 c 0,0 12.1864,12.84075 14.82143,18.21429 2.63503,5.37354 2.5,10.17854 2.5,10.17854 0,0 8.06933,1.0188 16.25,3.9286 8.18066,2.90975 12.49999,7.58925 12.49999,7.58925 l 3.92858,-37.67854 c 0,0 -6.04426,-4.47328 -23.83929,-5 -17.79503,-0.52671 -26.16071,2.76786 -26.16071,2.76786 z"
         style="display:inline;fill:none;fill-rule:evenodd;stroke:#000000;stroke-width:1px;stroke-linecap:round;stroke-linejoin:round;stroke-opacity:1" />
      <path
         sodipodi:nodetypes="czczczc"
         inkscape:connector-curvature="0"
         id="path4931"
         d="m 17.243406,965.41025 c 0,0 12.61825,-7.20073 19.28572,-12.32143 6.66747,-5.1207 14.375,-12.23214 14.375,-12.23214 0,0 10.8513,0.72883 21.25,0.625 10.398702,-0.10383 22.678572,-1.60714 22.678572,-1.60714 0,0 -8.96009,7.64395 -14.55357,12.67857 -5.59348,5.03462 -13.392862,15.08928 -13.392862,15.08928"
         style="display:inline;fill:none;fill-rule:evenodd;stroke:#000000;stroke-width:1px;stroke-linecap:round;stroke-linejoin:round;stroke-opacity:1" />
      <path
         inkscape:connector-curvature="0"
         id="path4933"
         d="m 94.770908,939.99304 -2.77792,12.50063"
         style="display:inline;fill:none;fill-rule:evenodd;stroke:#000000;stroke-width:1px;stroke-linecap:round;stroke-linejoin:round;stroke-opacity:1" />
      <path
         sodipodi:nodetypes="czcc"
         inkscape:connector-curvature="0"
         id="path4935"
         d="m 63.014236,1005.5266 c 0,0 7.37789,-8.39295 11.111672,-10.73275 3.73378,-2.3398 10.35407,-4.0406 10.35407,-4.0406 l 2.46224,-11.6168"
         style="display:inline;fill:none;fill-rule:evenodd;stroke:#000000;stroke-width:1px;stroke-linecap:round;stroke-linejoin:round;stroke-opacity:1" />
      <path
         sodipodi:nodetypes="czc"
         inkscape:connector-curvature="0"
         id="path4158"
         d="m 55.438086,940.62438 c 0,0 1.14794,-1.53817 2.90419,-3.03045 1.75625,-1.49228 3.03046,-2.14658 3.03046,-2.14658"
         style="display:inline;fill:none;fill-rule:evenodd;stroke:#000000;stroke-width:1px;stroke-linecap:round;stroke-linejoin:round;stroke-opacity:1" />
      <path
         sodipodi:nodetypes="csc"
         inkscape:connector-curvature="0"
         id="path4160"
         d="m 60.741386,941.12946 c 0,0 0.3788,-5.55583 2.14657,-8.33376 1.76777,-2.77792 3.91435,-3.03045 3.91435,-3.03045"
         style="display:inline;fill:none;fill-rule:evenodd;stroke:#000000;stroke-width:1px;stroke-linecap:round;stroke-linejoin:round;stroke-opacity:1" />
      <path
         sodipodi:nodetypes="zzzzzzzzz"
         inkscape:connector-curvature="0"
         id="path4162"
         d="m 67.686186,930.14405 c -3.71899,-1.43552 -3.56158,-5.47659 -3.91434,-8.83883 -0.35276,-3.36224 -0.11336,-6.9398 2.39911,-10.10153 2.51247,-3.16172 7.862362,-4.75912 12.374372,-5.55584 4.51201,-0.79671 10.78657,-1.25492 13.38452,0.88389 2.59795,2.1388 3.35373,6.12205 3.6618,8.83883 0.30807,2.71678 -0.36887,4.65377 -1.38896,6.81853 -1.02009,2.16476 -5.16187,4.89003 -9.84898,6.18719 -4.68711,1.29715 -12.948532,3.20328 -16.667522,1.76776 z"
         style="display:inline;fill:none;fill-rule:evenodd;stroke:#000000;stroke-width:1px;stroke-linecap:butt;stroke-linejoin:miter;stroke-opacity:1" />
      <ellipse
         ry="2.2097089"
         rx="2.2097087"
         cy="921.24213"
         cx="78.987267"
         id="path4164"
         style="display:inline;fill:none;fill-opacity:1;stroke:#000000;stroke-width:0.99999994;stroke-linecap:round;stroke-linejoin:round;stroke-miterlimit:4;stroke-dasharray:none;stroke-opacity:1" />
      <ellipse
         ry="1.8309015"
         rx="1.7046324"
         cy="923.64124"
         cx="66.234093"
         id="path4166"
         style="display:inline;fill:none;fill-opacity:1;stroke:#000000;stroke-width:1;stroke-linecap:round;stroke-linejoin:round;stroke-miterlimit:4;stroke-dasharray:none;stroke-opacity:1" />
      <path
         sodipodi:nodetypes="csssc"
         inkscape:connector-curvature="0"
         id="path4168"
         d="m 95.844188,918.40103 c 0,0 8.483432,-0.74196 11.364212,1.26269 6.1034,4.24716 7.61352,12.49018 8.83884,19.82424 1.15968,6.94121 0.29641,15.2075 -3.15673,21.33948 -5.43057,9.64346 -18.687822,13.13198 -18.687822,13.13198"
         style="display:inline;fill:none;fill-rule:evenodd;stroke:#000000;stroke-width:1px;stroke-linecap:round;stroke-linejoin:round;stroke-opacity:1" />
      <path
         sodipodi:nodetypes="czzzc"
         inkscape:connector-curvature="0"
         id="path4170"
         d="m 95.465378,951.10472 c 0,0 5.783822,-15.38404 6.313462,-16.79379 0.52964,-1.40975 4.17741,-4.83019 5.17703,-4.41942 0.99962,0.41078 3.62164,7.2739 3.78807,10.22779 0.16643,2.9539 -7.3236,19.19291 -7.3236,19.19291"
         style="display:inline;fill:none;fill-rule:evenodd;stroke:#000000;stroke-width:1px;stroke-linecap:round;stroke-linejoin:round;stroke-opacity:1" />
      <path
         sodipodi:nodetypes="sssssss"
         inkscape:connector-curvature="0"
         id="path4172"
         d="m 74.125908,979.13645 c -3.288062,-5.41236 2.83789,-8.09591 5.42957,-11.61675 1.66462,-2.26141 2.2218,-4.43582 2.90419,-5.55584 2.846,-4.67117 8.81789,-10.56141 12.62691,-10.48034 4.3269,0.0921 7.876812,5.14301 7.954952,9.47018 0.10112,5.59955 -5.651112,9.95174 -9.975262,13.51079 -6.31627,5.19869 -16.14689,9.2702 -18.94036,4.67196 z"
         style="display:inline;fill:none;fill-rule:evenodd;stroke:#000000;stroke-width:1px;stroke-linecap:round;stroke-linejoin:round;stroke-opacity:1" />
      <path
         sodipodi:nodetypes="czccccczc"
         inkscape:connector-curvature="0"
         id="path4174"
         d="m 105.56691,968.52985 c 0,0 -7.888032,10.61712 -7.197342,20.5819 0.69069,9.9647 6.439732,12.24805 6.439732,12.24805 l 0.88388,3.788 -9.975262,6.8186 -4.92449,-0.8839 0.25254,-4.2932 c 0,0 -4.02557,-2.5906 -6.56599,-6.1872 -2.54042,-3.59645 -3.91435,-8.33365 -3.91435,-8.33365"
         style="display:inline;fill:none;fill-rule:evenodd;stroke:#000000;stroke-width:1px;stroke-linecap:round;stroke-linejoin:round;stroke-opacity:1" />
      <path
         sodipodi:nodetypes="czcccc"
         inkscape:connector-curvature="0"
         id="path4176"
         d="m 71.095446,997.19295 c 0,0 0.19315,3.23025 1.76777,5.42955 1.574622,2.1992 3.661802,3.788 3.661802,3.788 l -0.3788,3.6618 4.67195,0.7576 7.32361,-5.5558"
         style="display:inline;fill:none;fill-rule:evenodd;stroke:#000000;stroke-width:1px;stroke-linecap:round;stroke-linejoin:round;stroke-opacity:1" />
      <path
         sodipodi:nodetypes="czzc"
         inkscape:connector-curvature="0"
         id="path4178"
         d="m 76.019948,1006.5368 c 0,0 -14.818422,8.2666 -14.268412,9.9753 0.55001,1.7086 13.229482,2.4402 15.278562,1.5152 2.04908,-0.925 13.63706,-9.9753 13.63706,-9.9753"
         style="display:inline;fill:none;fill-rule:evenodd;stroke:#000000;stroke-width:1px;stroke-linecap:round;stroke-linejoin:round;stroke-opacity:1" />
      <path
         sodipodi:nodetypes="czzzc"
         inkscape:connector-curvature="0"
         id="path4181"
         d="m 104.05168,1000.6021 c 0,0 10.79503,1.0512 11.74302,2.778 0.94799,1.7268 -19.762942,16.3572 -21.970812,17.4251 -2.20787,1.0679 -14.25068,-0.4128 -15.02602,-1.2627 -0.77534,-0.8499 -0.75762,-2.0203 -0.75762,-2.0203"
         style="display:inline;fill:none;fill-rule:evenodd;stroke:#000000;stroke-width:1px;stroke-linecap:round;stroke-linejoin:round;stroke-opacity:1" />
    </g>
  </g>
</svg>
