<?xml version="1.0" encoding="UTF-8" standalone="no"?>
<!-- Created with Inkscape (http://www.inkscape.org/) -->

<svg
   xmlns:dc="http://purl.org/dc/elements/1.1/"
   xmlns:cc="http://creativecommons.org/ns#"
   xmlns:rdf="http://www.w3.org/1999/02/22-rdf-syntax-ns#"
   xmlns:svg="http://www.w3.org/2000/svg"
   xmlns="http://www.w3.org/2000/svg"
   xmlns:sodipodi="http://sodipodi.sourceforge.net/DTD/sodipodi-0.dtd"
   xmlns:inkscape="http://www.inkscape.org/namespaces/inkscape"
   width="160"
   height="160"
   viewBox="0 0 160 160"
   id="svg4977"
   version="1.1"
   inkscape:version="0.91 r13725"
   sodipodi:docname="box__pass_a_box.svg"
   inkscape:export-filename="C:\workdir\dir\ScenographyAssets\box\box__pass_a_box.png"
   inkscape:export-xdpi="288"
   inkscape:export-ydpi="288">
  <defs
     id="defs4979" />
  <sodipodi:namedview
     id="base"
     pagecolor="#ffffff"
     bordercolor="#666666"
     borderopacity="1.0"
     inkscape:pageopacity="0.0"
     inkscape:pageshadow="2"
     inkscape:zoom="2.9875262"
     inkscape:cx="27.024259"
     inkscape:cy="84.313703"
     inkscape:document-units="px"
     inkscape:current-layer="layer1"
     showgrid="false"
     units="px"
     inkscape:window-width="1600"
     inkscape:window-height="1177"
     inkscape:window-x="-8"
     inkscape:window-y="-8"
     inkscape:window-maximized="1" />
  <metadata
     id="metadata4982">
    <rdf:RDF>
      <cc:Work
         rdf:about="">
        <dc:format>image/svg+xml</dc:format>
        <dc:type
           rdf:resource="http://purl.org/dc/dcmitype/StillImage" />
        <dc:title></dc:title>
      </cc:Work>
    </rdf:RDF>
  </metadata>
  <g
     inkscape:label="レイヤー 1"
     inkscape:groupmode="layer"
     id="layer1"
     transform="translate(0,-892.36216)">
    <g
       id="g5579"
       transform="translate(79.31361,68.639057)">
      <path
         sodipodi:nodetypes="czczczczc"
         inkscape:connector-curvature="0"
         id="path4894"
         d="m -38.924086,842.18898 c 0,0 1.63816,15.49008 1.51523,23.99112 -0.12293,8.50104 -5.55584,14.2684 -5.55584,14.2684 0,0 6.42524,-2.83234 16.28871,-5.05076 9.86347,-2.21842 19.0666303,-1.51523 19.0666303,-1.51523 0,0 14.80474,-17.17583 21.0869397,-24.87501 6.28219,-7.69917 8.71256,-13.13198 8.71256,-13.13198 0,0 -23.8024297,5.03379 -35.60788,6.31346 -11.80545,1.27966 -25.50635,0 -25.50635,0 z"
         style="display:inline;fill:none;fill-rule:evenodd;stroke:#000000;stroke-width:1px;stroke-linecap:round;stroke-linejoin:round;stroke-opacity:1" />
      <path
         sodipodi:nodetypes="czczc"
         inkscape:connector-curvature="0"
         id="path4896"
         d="m -42.712156,880.57477 c 0,0 6.3478,10.89919 8.83884,16.66752 2.49104,5.76833 2.52538,11.74302 2.52538,11.74302 0,0 4.15639,-2.88379 8.71256,-3.03045 4.55617,-0.14666 7.07107,1.26269 7.07107,1.26269"
         style="display:inline;fill:none;fill-rule:evenodd;stroke:#000000;stroke-width:1px;stroke-linecap:round;stroke-linejoin:round;stroke-opacity:1" />
      <path
         sodipodi:nodetypes="czc"
         inkscape:connector-curvature="0"
         id="path4898"
         d="m -7.8618957,874.00878 c 0,0 -0.66475,8.32709 0.63135,13.51079 1.2961,5.1837 4.41942,10.48033 4.41942,10.48033"
         style="display:inline;fill:none;fill-rule:evenodd;stroke:#000000;stroke-width:1px;stroke-linecap:round;stroke-linejoin:round;stroke-opacity:1" />
      <path
         sodipodi:nodetypes="czcc"
         inkscape:connector-curvature="0"
         id="path4900"
         d="m 22.190144,836.25433 c 0,0 2.99794,16.65368 7.19734,28.28427 4.1994,11.63058 13.005705,25.25381 13.005705,25.25381 l -6.060905,0.63135"
         style="display:inline;fill:none;fill-rule:evenodd;stroke:#000000;stroke-width:1px;stroke-linecap:round;stroke-linejoin:round;stroke-opacity:1" />
      <path
         sodipodi:nodetypes="cczczczcc"
         inkscape:connector-curvature="0"
         id="path4902"
         d="m -40.691846,887.01449 -20.8344,11.23795 c 0,0 11.41109,10.6049 16.66751,19.57171 5.25643,8.9668 9.97526,21.84455 9.97526,21.84455 0,0 7.09481,0.12103 13.76333,1.64152 6.66852,1.5204 14.3946803,6.9448 14.3946803,6.9448 0,0 2.11038,-3.4153 4.29314,-5.3033 2.18275998,-1.8881 4.16688,-3.7881 4.16688,-3.7881 l -3.15672,-6.81853"
         style="display:inline;fill:none;fill-rule:evenodd;stroke:#000000;stroke-width:1px;stroke-linecap:round;stroke-linejoin:round;stroke-opacity:1" />
      <path
         inkscape:connector-curvature="0"
         id="path4904"
         d="m -60.961346,898.21021 33.21429,1.96428"
         style="display:inline;fill:none;fill-rule:evenodd;stroke:#000000;stroke-width:1px;stroke-linecap:round;stroke-linejoin:miter;stroke-opacity:1" />
      <path
         inkscape:connector-curvature="0"
         id="path4906"
         d="M -6.8541957,947.58522 -13.550626,929.19235"
         style="display:inline;fill:none;fill-rule:evenodd;stroke:#000000;stroke-width:1px;stroke-linecap:round;stroke-linejoin:miter;stroke-opacity:1" />
      <path
         sodipodi:nodetypes="czc"
         inkscape:connector-curvature="0"
         id="path4908"
         d="m -50.336336,882.40663 c 0,0 -0.34166,-5.29711 1.07142,-9.73214 1.41308,-4.43503 3.39286,-7.05357 3.39286,-7.05357"
         style="display:inline;fill:none;fill-rule:evenodd;stroke:#000000;stroke-width:1px;stroke-linecap:round;stroke-linejoin:miter;stroke-opacity:1" />
      <path
         sodipodi:nodetypes="czc"
         inkscape:connector-curvature="0"
         id="path4910"
         d="m -48.104196,890.44235 c 0,0 -0.10723,-4.51606 0.44643,-7.76786 0.55366,-3.2518 1.60714,-5.80357 1.60714,-5.80357"
         style="display:inline;fill:none;fill-rule:evenodd;stroke:#000000;stroke-width:1px;stroke-linecap:round;stroke-linejoin:miter;stroke-opacity:1" />
      <path
         sodipodi:nodetypes="czc"
         inkscape:connector-curvature="0"
         id="path4912"
         d="m -31.158536,842.25211 c 0,0 2.36975,-2.84043 4.60882,-4.67196 2.23907,-1.83153 4.98763,-3.6618 4.98763,-3.6618"
         style="display:inline;fill:none;fill-rule:evenodd;stroke:#000000;stroke-width:1px;stroke-linecap:round;stroke-linejoin:round;stroke-opacity:1" />
      <path
         sodipodi:nodetypes="czc"
         inkscape:connector-curvature="0"
         id="path4914"
         d="m 3.6917243,929.37777 c 0,0 0.28896,4.15339 2.20971,7.3236 1.92075,3.17021 4.1668797,5.49275 4.1668797,5.49275"
         style="display:inline;fill:none;fill-rule:evenodd;stroke:#000000;stroke-width:1px;stroke-linecap:round;stroke-linejoin:miter;stroke-opacity:1" />
      <path
         sodipodi:nodetypes="czc"
         inkscape:connector-curvature="0"
         id="path4916"
         d="m 0.28865428,882.94235 c 0,0 -0.75356,3.94435 0.0893,10.625 0.84286002,6.68065 2.76786002,10 2.76786002,10"
         style="display:inline;fill:none;fill-rule:evenodd;stroke:#000000;stroke-width:1px;stroke-linecap:round;stroke-linejoin:miter;stroke-opacity:1" />
      <path
         sodipodi:nodetypes="czc"
         inkscape:connector-curvature="0"
         id="path4918"
         d="m 4.2172343,893.29949 c 0,0 0.54904,3.44997 1.69642,7.5 1.14738,4.05003 2.41072,6.07143 2.41072,6.07143"
         style="display:inline;fill:none;fill-rule:evenodd;stroke:#000000;stroke-width:1px;stroke-linecap:round;stroke-linejoin:miter;stroke-opacity:1" />
      <path
         sodipodi:nodetypes="czzzc"
         inkscape:connector-curvature="0"
         id="path4920"
         d="m 29.663654,859.81735 c 0,0 6.37547,-1.57029 11.071425,-0.71429 4.69596,0.856 10.12955,2.99435 12.76786,8.39286 2.63831,5.39851 1.30964,10.87292 -1.96429,14.91072 -3.27393,4.0378 -10.53571,3.83928 -10.53571,3.83928"
         style="display:inline;fill:none;fill-rule:evenodd;stroke:#000000;stroke-width:1px;stroke-linecap:round;stroke-linejoin:miter;stroke-opacity:1" />
      <ellipse
         ry="1.7857143"
         rx="1.9642857"
         cy="868.83527"
         cx="41.002926"
         id="path4922"
         style="display:inline;fill:none;fill-opacity:1;stroke:#000000;stroke-width:1;stroke-linecap:round;stroke-linejoin:round;stroke-miterlimit:4;stroke-dasharray:none;stroke-opacity:1" />
      <path
         sodipodi:nodetypes="czc"
         inkscape:connector-curvature="0"
         id="path4924"
         d="m 29.931514,862.58521 c 0,0 0.86739,0.0881 0.89286,0.89285 0.0255,0.80478 -0.53572,0.71429 -0.53572,0.71429"
         style="display:inline;fill:none;fill-rule:evenodd;stroke:#000000;stroke-width:1px;stroke-linecap:round;stroke-linejoin:round;stroke-opacity:1" />
      <path
         sodipodi:nodetypes="czzzzzzc"
         inkscape:connector-curvature="0"
         id="path4926"
         d="m 0.91365428,899.01378 c 0,0 -1.61951,0.72563 -2.49999998,1.60714 -0.88048,0.88151 -0.95761,2.38328 -2.41071,3.66072 -1.4531,1.27744 -5.33787,1.77057 -6.8750003,2.76785 -1.53713,0.99728 -3.69717,2.46435 -2.67857,6.60715 1.0186,4.1428 11.3031103,3.79932 19.1071403,1.96428 7.8040297,-1.83504 12.9098597,-5.27192 14.1964297,-8.39286 1.28657,-3.12094 -0.17857,-5.44642 -0.17857,-5.44642"
         style="display:inline;fill:none;fill-rule:evenodd;stroke:#000000;stroke-width:1px;stroke-linecap:round;stroke-linejoin:round;stroke-opacity:1" />
      <path
         inkscape:connector-curvature="0"
         id="path4928"
         d="m 19.663654,907.94235 18.571425,-6.07143"
         style="display:inline;fill:none;fill-rule:evenodd;stroke:#000000;stroke-width:1px;stroke-linecap:round;stroke-linejoin:miter;stroke-opacity:1" />
      <path
         sodipodi:nodetypes="zzzzzzzzz"
         inkscape:connector-curvature="0"
         id="path4930"
         d="m 11.002944,864.10306 c -3.0872397,1.61866 -3.1312197,5.57862 -1.6071397,9.19643 1.5240797,3.61781 2.2450597,4.43791 2.5892797,6.60715 0.34422,2.16924 -1.04658,3.48808 0.35715,6.87499 1.40372,3.38691 4.38259,10.22732 7.76785,10.98215 3.38526,0.75483 6.61396,-1.21229 8.30357,-3.21429 1.68961,-2.002 4.57602,-5.15704 3.48215,-9.55357 -1.09387,-4.39653 -10.16559,-16.69887 -12.41072,-18.57143 -2.24513,-1.87256 -5.3949,-3.94009 -8.48214,-2.32143 z"
         style="display:inline;fill:none;fill-rule:evenodd;stroke:#000000;stroke-width:1px;stroke-linecap:round;stroke-linejoin:round;stroke-opacity:1" />
      <path
         sodipodi:nodetypes="czzc"
         inkscape:connector-curvature="0"
         id="path4932"
         d="m 32.228534,889.09793 c 0,0 14.579115,4.58309 15.278555,5.80838 0.69944,1.22529 0.27855,5.66978 -1.57836,7.07107 -1.85691,1.4013 -21.781415,-4.23001 -21.781415,-4.23001"
         style="display:inline;fill:none;fill-rule:evenodd;stroke:#000000;stroke-width:1px;stroke-linecap:round;stroke-linejoin:round;stroke-opacity:1" />
      <path
         sodipodi:nodetypes="czzsc"
         inkscape:connector-curvature="0"
         id="path4934"
         d="m 47.788649,885.44235 c 0,0 2.14523,1.06716 4.01786,6.33929 1.87263,5.27213 0.40379,13.31577 -2.14286,19.73214 -2.54665,6.41637 -9.66952,13.16053 -15.769205,14.08547 -22.62805,3.43128 -31.3736397,-8.99619 -31.3736397,-8.99619"
         style="display:inline;fill:none;fill-rule:evenodd;stroke:#000000;stroke-width:1px;stroke-linecap:round;stroke-linejoin:round;stroke-opacity:1" />
      <path
         sodipodi:nodetypes="czcczcc"
         inkscape:connector-curvature="0"
         id="path4936"
         d="m -3.1041957,944.19232 c 0,0 1.35942,5.6562 2.76785998,8.4822 1.40843002,2.8259 4.28571002,6.25 4.28571002,6.25 l 0.26786,2.1428 c 0,0 1.03399,-0.1382 2.67857,0.2679 1.64457,0.4061 2.23214,1.0714 2.23214,1.0714 l 8.6607097,-4.375"
         style="display:inline;fill:none;fill-rule:evenodd;stroke:#000000;stroke-width:1px;stroke-linecap:round;stroke-linejoin:round;stroke-opacity:1" />
      <path
         sodipodi:nodetypes="czccccczc"
         inkscape:connector-curvature="0"
         id="path4938"
         d="m 22.568954,926.41044 c 0,0 -8.14629,8.84849 -7.95495,17.17258 0.19134,8.3241 4.79822,18.4353 4.79822,18.4353 l -0.50507,3.6618 5.68211,1.0102 10.85914,-5.1771 -0.12627,-2.3991 c 0,0 -6.79548,-9.14 -5.80838,-18.43527 0.9871,-9.29526 10.101515,-17.17259 10.101515,-17.17259"
         style="display:inline;fill:none;fill-rule:evenodd;stroke:#000000;stroke-width:1px;stroke-linecap:round;stroke-linejoin:round;stroke-opacity:1" />
      <path
         sodipodi:nodetypes="czzzc"
         inkscape:connector-curvature="0"
         id="path4940"
         d="m 19.096554,962.20772 c 0,0 -12.2208597,5.316 -11.7430197,7.0079 0.47784,1.6919 10.2259797,4.5932 13.8264597,4.2932 3.60048,-0.3 25.338605,-12.8679 23.864845,-15.026 -1.47376,-2.1581 -11.490475,-2.7148 -11.490475,-2.7148"
         style="display:inline;fill:none;fill-rule:evenodd;stroke:#000000;stroke-width:1px;stroke-linecap:round;stroke-linejoin:round;stroke-opacity:1" />
      <path
         sodipodi:nodetypes="czzc"
         inkscape:connector-curvature="0"
         id="path4942"
         d="m 2.9225843,958.12092 c 0,0 -11.13591,4.3475 -10.40179,6.4286 0.73412,2.0811 10.86019,4.7665 12.18751,4.8214 1.32732,0.055 3.57143,-1.5179 3.57143,-1.5179"
         style="display:inline;fill:none;fill-rule:evenodd;stroke:#000000;stroke-width:1px;stroke-linecap:round;stroke-linejoin:round;stroke-opacity:1" />
    </g>
  </g>
</svg>
