<?xml version="1.0" encoding="UTF-8" standalone="no"?>
<!-- Created with Inkscape (http://www.inkscape.org/) -->

<svg
   xmlns:dc="http://purl.org/dc/elements/1.1/"
   xmlns:cc="http://creativecommons.org/ns#"
   xmlns:rdf="http://www.w3.org/1999/02/22-rdf-syntax-ns#"
   xmlns:svg="http://www.w3.org/2000/svg"
   xmlns="http://www.w3.org/2000/svg"
   xmlns:sodipodi="http://sodipodi.sourceforge.net/DTD/sodipodi-0.dtd"
   xmlns:inkscape="http://www.inkscape.org/namespaces/inkscape"
   width="160"
   height="160"
   viewBox="0 0 160 160"
   id="svg5593"
   version="1.1"
   inkscape:version="0.91 r13725"
   sodipodi:docname="box__shake_a_box.svg"
   inkscape:export-filename="C:\workdir\dir\ScenographyAssets\box\box__shake_a_box.png"
   inkscape:export-xdpi="288"
   inkscape:export-ydpi="288">
  <defs
     id="defs5595" />
  <sodipodi:namedview
     id="base"
     pagecolor="#ffffff"
     bordercolor="#666666"
     borderopacity="1.0"
     inkscape:pageopacity="0.0"
     inkscape:pageshadow="2"
     inkscape:zoom="2.9875262"
     inkscape:cx="-2.3087831"
     inkscape:cy="100.32967"
     inkscape:document-units="px"
     inkscape:current-layer="layer1"
     showgrid="false"
     units="px"
     inkscape:window-width="1538"
     inkscape:window-height="877"
     inkscape:window-x="-8"
     inkscape:window-y="1192"
     inkscape:window-maximized="1" />
  <metadata
     id="metadata5598">
    <rdf:RDF>
      <cc:Work
         rdf:about="">
        <dc:format>image/svg+xml</dc:format>
        <dc:type
           rdf:resource="http://purl.org/dc/dcmitype/StillImage" />
        <dc:title></dc:title>
      </cc:Work>
    </rdf:RDF>
  </metadata>
  <g
     inkscape:label="レイヤー 1"
     inkscape:groupmode="layer"
     id="layer1"
     transform="translate(0,-892.36216)">
    <g
       id="g6207"
       transform="translate(-27.997506,-0.3668718)">
      <path
         sodipodi:nodetypes="czczczcc"
         inkscape:connector-curvature="0"
         id="path5492"
         d="m 49.240238,963.70105 c 0,0 10.36461,13.97978 14.196429,23.30357 3.831819,9.32379 6.607143,20.26788 6.607143,20.26788 0,0 8.006692,1.9584 13.303571,4.8214 5.296879,2.863 13.928571,8.75 13.928571,8.75 0,0 -1.056061,-14.5491 -1.964285,-21.78571 -0.908224,-7.23657 -3.482143,-21.60714 -3.482143,-21.60714 z"
         style="display:inline;fill:none;fill-rule:evenodd;stroke:#000000;stroke-width:1px;stroke-linecap:round;stroke-linejoin:round;stroke-opacity:1" />
      <path
         inkscape:connector-curvature="0"
         id="path5494"
         d="m 49.73131,963.74569 15.714285,-5.22321"
         style="display:inline;fill:none;fill-rule:evenodd;stroke:#000000;stroke-width:1px;stroke-linecap:round;stroke-linejoin:round;stroke-opacity:1" />
      <path
         inkscape:connector-curvature="0"
         id="path5496"
         d="m 92.008095,977.49569 14.062495,-6.33928"
         style="display:inline;fill:none;fill-rule:evenodd;stroke:#000000;stroke-width:1px;stroke-linecap:round;stroke-linejoin:round;stroke-opacity:1" />
      <path
         sodipodi:nodetypes="czcc"
         inkscape:connector-curvature="0"
         id="path5498"
         d="m 97.215743,1020.4599 c 0,0 6.445307,-6.1985 15.341687,-11.1748 8.89638,-4.9763 14.96289,-5.9347 14.96289,-5.9347 l 2.96732,-18.18271"
         style="display:inline;fill:none;fill-rule:evenodd;stroke:#000000;stroke-width:1px;stroke-linecap:round;stroke-linejoin:round;stroke-opacity:1" />
      <path
         sodipodi:nodetypes="czc"
         inkscape:connector-curvature="0"
         id="path5500"
         d="m 44.498407,958.39864 c 0,0 0.809437,6.67777 1.641497,10.98541 0.83206,4.30764 3.282996,9.97526 3.282996,9.97526"
         style="display:inline;fill:none;fill-rule:evenodd;stroke:#000000;stroke-width:1px;stroke-linecap:round;stroke-linejoin:round;stroke-opacity:1" />
      <path
         sodipodi:nodetypes="czc"
         inkscape:connector-curvature="0"
         id="path5502"
         d="m 50.054246,943.8777 c 0,0 -1.295028,5.10364 -0.883884,10.48033 0.411144,5.37669 1.546698,8.96432 1.515229,8.71257"
         style="display:inline;fill:none;fill-rule:evenodd;stroke:#000000;stroke-width:1px;stroke-linecap:round;stroke-linejoin:round;stroke-opacity:1" />
      <path
         inkscape:connector-curvature="0"
         id="path5504"
         d="m 82.186667,1018.8796 -3.571429,-8.6607"
         style="display:inline;fill:none;fill-rule:evenodd;stroke:#000000;stroke-width:1px;stroke-linecap:round;stroke-linejoin:miter;stroke-opacity:1" />
      <path
         sodipodi:nodetypes="czc"
         inkscape:connector-curvature="0"
         id="path5506"
         d="m 111.38309,1010.3082 c 0,0 2.14869,4.6521 3.83929,7.5 1.69061,2.8479 4.10714,6.3393 4.10714,6.3393"
         style="display:inline;fill:none;fill-rule:evenodd;stroke:#000000;stroke-width:1px;stroke-linecap:round;stroke-linejoin:miter;stroke-opacity:1" />
      <path
         inkscape:connector-curvature="0"
         id="path5508"
         d="m 115.66881,1008.076 3.92857,7.3215"
         style="display:inline;fill:none;fill-rule:evenodd;stroke:#000000;stroke-width:1px;stroke-linecap:round;stroke-linejoin:miter;stroke-opacity:1" />
      <path
         sodipodi:nodetypes="czc"
         inkscape:connector-curvature="0"
         id="path5510"
         d="m 69.41881,964.95105 c 0,0 0.66492,5.94128 1.607142,10.08928 0.942222,4.14801 2.857143,8.83929 2.857143,8.83929"
         style="display:inline;fill:none;fill-rule:evenodd;stroke:#000000;stroke-width:1px;stroke-linecap:round;stroke-linejoin:miter;stroke-opacity:1" />
      <path
         sodipodi:nodetypes="czc"
         inkscape:connector-curvature="0"
         id="path5512"
         d="m 77.454523,979.05819 c 0,0 -1.935101,-5.53839 -2.499999,-9.01786 -0.564897,-3.47947 -0.535714,-8.21428 -0.535714,-8.21428"
         style="display:inline;fill:none;fill-rule:evenodd;stroke:#000000;stroke-width:1px;stroke-linecap:round;stroke-linejoin:miter;stroke-opacity:1" />
      <path
         sodipodi:nodetypes="czczcczc"
         inkscape:connector-curvature="0"
         id="path5514"
         d="m 53.16881,922.89748 c 0,0 10.224758,0.94153 25,-2.94643 14.775242,-3.88796 16.785714,-7.94643 16.785714,-7.94643 0,0 8.200816,6.83521 12.767856,10.17857 4.56704,3.34336 14.64286,9.82143 14.64286,9.82143 l -33.928573,10.625 c 0,0 -7.243889,-5.01108 -17.142857,-10.44643 -9.898968,-5.43535 -18.125,-9.28571 -18.125,-9.28571 z"
         style="display:inline;fill:none;fill-rule:evenodd;stroke:#000000;stroke-width:1px;stroke-linecap:round;stroke-linejoin:round;stroke-opacity:1" />
      <path
         sodipodi:nodetypes="czc"
         inkscape:connector-curvature="0"
         id="path5516"
         d="m 53.258095,923.16533 c 0,0 4.560477,10.16707 8.303572,20.98215 3.743095,10.81508 4.642857,19.64285 4.642857,19.64285"
         style="display:inline;fill:none;fill-rule:evenodd;stroke:#000000;stroke-width:1px;stroke-linecap:round;stroke-linejoin:round;stroke-opacity:1" />
      <path
         sodipodi:nodetypes="czcc"
         inkscape:connector-curvature="0"
         id="path5518"
         d="m 88.615238,942.98676 c 0,0 0.471817,12.3684 0,22.05358 -0.471816,9.68517 -2.857143,19.37499 -2.857143,19.37499 l -6.696428,-4.64285"
         style="display:inline;fill:none;fill-rule:evenodd;stroke:#000000;stroke-width:1px;stroke-linecap:round;stroke-linejoin:round;stroke-opacity:1" />
      <path
         sodipodi:nodetypes="cssssc"
         inkscape:connector-curvature="0"
         id="path5520"
         d="m 113.44132,965.97479 c 0,0 -18.287987,4.15338 -19.761111,-1.38896 -1.931518,-7.26696 11.743021,-7.07107 14.015861,-8.7757 2.64672,-1.98504 1.61574,-2.49176 2.84106,-3.53554 1.70464,-1.45209 11.55812,-5.05507 14.77348,-2.14657 2.84802,2.57621 2.0203,6.18718 2.0203,6.18718"
         style="display:inline;fill:none;fill-rule:evenodd;stroke:#000000;stroke-width:1px;stroke-linecap:round;stroke-linejoin:round;stroke-opacity:1" />
      <path
         inkscape:connector-curvature="0"
         id="path5522"
         d="m 101.47238,952.00462 1.07143,4.91071"
         style="display:inline;fill:none;fill-rule:evenodd;stroke:#000000;stroke-width:1px;stroke-linecap:round;stroke-linejoin:miter;stroke-opacity:1" />
      <path
         inkscape:connector-curvature="0"
         id="path5524"
         d="m 105.22238,967.71891 2.5,7.41071"
         style="display:inline;fill:none;fill-rule:evenodd;stroke:#000000;stroke-width:1px;stroke-linecap:round;stroke-linejoin:miter;stroke-opacity:1" />
      <path
         sodipodi:nodetypes="czc"
         inkscape:connector-curvature="0"
         id="path5526"
         d="m 114.41881,962.62962 c 0,0 0.8563,3.37783 1.42857,5.44643 0.57227,2.0686 1.69643,4.55357 1.69643,4.55357"
         style="display:inline;fill:none;fill-rule:evenodd;stroke:#000000;stroke-width:1px;stroke-linecap:round;stroke-linejoin:miter;stroke-opacity:1" />
      <path
         sodipodi:nodetypes="czc"
         inkscape:connector-curvature="0"
         id="path5528"
         d="m 118.70452,959.05819 c 0,0 0.45196,2.64797 0.98215,4.55357 0.53019,1.9056 1.33928,3.66072 1.33928,3.66072"
         style="display:inline;fill:none;fill-rule:evenodd;stroke:#000000;stroke-width:1px;stroke-linecap:round;stroke-linejoin:miter;stroke-opacity:1" />
      <path
         sodipodi:nodetypes="czc"
         inkscape:connector-curvature="0"
         id="path5530"
         d="m 122.09075,943.18322 c 0,0 -0.50866,1.01729 -0.75762,2.33598 -0.24896,1.31869 -0.25253,3.28299 -0.25253,3.28299"
         style="display:inline;fill:none;fill-rule:evenodd;stroke:#000000;stroke-width:1px;stroke-linecap:round;stroke-linejoin:miter;stroke-opacity:1" />
      <path
         sodipodi:nodetypes="czzzzzzzc"
         inkscape:connector-curvature="0"
         id="path5532"
         d="m 145.40095,936.37962 c -3.19354,1.34915 -18.66966,-0.4235 -20.30167,-2.99107 -1.63201,-2.56757 -1.52695,-11.24634 -0.234,-13.48215 1.29291,-2.2358 3.3988,-3.56451 5.71428,-4.77678 2.31548,-1.21227 18.61395,-1.83702 20.80357,1.25 2.18963,3.08703 2.19602,5.97163 2.09822,8.79464 -0.0978,2.82302 -1.10519,6.26192 -2.09822,7.32143 -0.99303,1.05951 -2.7886,2.53478 -5.98214,3.88393 z"
         style="display:inline;fill:none;fill-rule:evenodd;stroke:#000000;stroke-width:1px;stroke-linecap:round;stroke-linejoin:round;stroke-opacity:1" />
      <ellipse
         ry="1.875"
         rx="1.4732143"
         cy="927.76355"
         cx="126.20452"
         id="path5534"
         style="display:inline;fill:none;fill-opacity:1;stroke:#000000;stroke-width:1;stroke-linecap:round;stroke-linejoin:round;stroke-miterlimit:4;stroke-dasharray:none;stroke-opacity:1" />
      <ellipse
         ry="2.1651785"
         rx="2.2098215"
         cy="928.63409"
         cx="138.63756"
         id="path5536"
         style="display:inline;fill:none;fill-opacity:1;stroke:#000000;stroke-width:1;stroke-linecap:round;stroke-linejoin:round;stroke-miterlimit:4;stroke-dasharray:none;stroke-opacity:1" />
      <path
         sodipodi:nodetypes="czzzzc"
         inkscape:connector-curvature="0"
         id="path5538"
         d="m 151.82952,932.62962 c 0,0 5.2305,2.58027 8.03572,8.21429 2.80522,5.63402 4.92628,28.04535 2.14285,34.55357 -2.78343,6.50822 -8.60751,7.48909 -13.66969,9.03317 -5.06218,1.54409 -11.02185,2.85384 -13.86543,2.9681 -2.84359,0.11426 -3.71488,-1.1977 -3.71488,-1.1977"
         style="display:inline;fill:none;fill-rule:evenodd;stroke:#000000;stroke-width:1px;stroke-linecap:round;stroke-linejoin:round;stroke-opacity:1" />
      <path
         sodipodi:nodetypes="czc"
         inkscape:connector-curvature="0"
         id="path5540"
         d="m 126.25763,950.88563 c 0,0 4.59489,-0.68519 8.14435,-1.70463 3.54946,-1.01944 8.20749,-2.52538 8.20749,-2.52538"
         style="display:inline;fill:none;fill-rule:evenodd;stroke:#000000;stroke-width:1px;stroke-linecap:round;stroke-linejoin:round;stroke-opacity:1" />
      <path
         sodipodi:nodetypes="czzzc"
         inkscape:connector-curvature="0"
         id="path5542"
         d="m 129.59738,963.70105 c 0,0 12.14902,-14.61316 13.70536,-16.5625 1.55634,-1.94934 5.60785,-3.49934 6.83035,-2.8125 1.22251,0.68684 1.34898,4.48024 1.5625,7.94643 0.21352,3.46619 -15.17857,22.41071 -15.17857,22.41071"
         style="display:inline;fill:none;fill-rule:evenodd;stroke:#000000;stroke-width:1px;stroke-linecap:round;stroke-linejoin:round;stroke-opacity:1" />
      <path
         sodipodi:nodetypes="sssssssss"
         inkscape:connector-curvature="0"
         id="path5544"
         d="m 107.69608,990.15532 c -1.72535,-2.59872 -0.0924,-5.90917 2.08343,-8.14436 1.8314,-1.88138 4.23971,-2.80099 5.80838,-4.67196 1.42716,-1.70218 1.45816,-3.94378 3.34613,-5.99778 2.24864,-2.44637 4.7143,-4.7591 7.70241,-6.43972 1.43129,-0.80501 5.13407,-2.06207 6.94481,-0.56821 1.92924,1.59163 3.62116,11.52584 1.76776,15.46796 -1.53574,3.26648 -7.63274,7.66587 -12.18496,10.2278 -4.7742,2.68686 -11.74819,5.72897 -15.46796,0.12627 z"
         style="display:inline;fill:none;fill-rule:evenodd;stroke:#000000;stroke-width:1px;stroke-linecap:round;stroke-linejoin:round;stroke-opacity:1" />
      <path
         sodipodi:nodetypes="cccczccczc"
         inkscape:connector-curvature="0"
         id="path5546"
         d="m 120.07044,1019.8917 4.98763,1.5152 8.14435,-6.8185 8.46003,-27.84235 c 0,0 -2.29677,11.7768 -2.96732,20.13995 -0.67054,8.3631 -1.13642,17.6777 -1.13642,17.6777 l 6.81853,1.6414 7.63928,-6.5028 c 0,0 -1.25417,-4.991 -0.63135,-11.4905 0.62282,-6.4995 6.37659,-26.89532 6.37659,-26.89532"
         style="display:inline;fill:none;fill-rule:evenodd;stroke:#000000;stroke-width:1px;stroke-linecap:round;stroke-linejoin:round;stroke-opacity:1" />
      <path
         inkscape:connector-curvature="0"
         id="path5548"
         d="m 134.14944,1011.8736 3.85121,0.8207"
         style="display:inline;fill:none;fill-rule:evenodd;stroke:#000000;stroke-width:1px;stroke-linecap:round;stroke-linejoin:miter;stroke-opacity:1" />
      <path
         sodipodi:nodetypes="czzzc"
         inkscape:connector-curvature="0"
         id="path5550"
         d="m 151.63771,1014.9672 c 0,0 7.67196,1.4982 8.33375,4.4194 0.6618,2.9212 -16.31354,17.1218 -18.94035,17.9302 -2.62681,0.8085 -16.73229,-2.5265 -16.79379,-5.1139 -0.0615,-2.5874 13.32139,-12.7531 13.32139,-12.7531"
         style="display:inline;fill:none;fill-rule:evenodd;stroke:#000000;stroke-width:1px;stroke-linecap:round;stroke-linejoin:round;stroke-opacity:1" />
      <path
         sodipodi:nodetypes="czzc"
         inkscape:connector-curvature="0"
         id="path5552"
         d="m 112.74684,1019.9548 c 0,0 -7.37194,3.9544 -7.07107,6.1872 0.30087,2.2328 12.20496,5.015 14.71034,4.8614 2.50539,-0.1536 8.3969,-4.7351 8.3969,-4.7351"
         style="display:inline;fill:none;fill-rule:evenodd;stroke:#000000;stroke-width:1px;stroke-linecap:round;stroke-linejoin:round;stroke-opacity:1" />
    </g>
  </g>
</svg>
