<?xml version="1.0" encoding="UTF-8" standalone="no"?>
<!-- Created with Inkscape (http://www.inkscape.org/) -->

<svg
   xmlns:dc="http://purl.org/dc/elements/1.1/"
   xmlns:cc="http://creativecommons.org/ns#"
   xmlns:rdf="http://www.w3.org/1999/02/22-rdf-syntax-ns#"
   xmlns:svg="http://www.w3.org/2000/svg"
   xmlns="http://www.w3.org/2000/svg"
   xmlns:sodipodi="http://sodipodi.sourceforge.net/DTD/sodipodi-0.dtd"
   xmlns:inkscape="http://www.inkscape.org/namespaces/inkscape"
   width="160"
   height="160"
   viewBox="0 0 160 160"
   id="svg4275"
   version="1.1"
   inkscape:version="0.91 r13725"
   sodipodi:docname="box__receive_a_box.svg"
   inkscape:export-filename="C:\workdir\dir\ScenographyAssets\box\box__receive_a_box.png"
   inkscape:export-xdpi="288"
   inkscape:export-ydpi="288">
  <defs
     id="defs4277" />
  <sodipodi:namedview
     id="base"
     pagecolor="#ffffff"
     bordercolor="#666666"
     borderopacity="1.0"
     inkscape:pageopacity="0.0"
     inkscape:pageshadow="2"
     inkscape:zoom="4.225"
     inkscape:cx="33.491124"
     inkscape:cy="80"
     inkscape:document-units="px"
     inkscape:current-layer="layer1"
     showgrid="false"
     units="px"
     inkscape:window-width="1538"
     inkscape:window-height="877"
     inkscape:window-x="-8"
     inkscape:window-y="1192"
     inkscape:window-maximized="1" />
  <metadata
     id="metadata4280">
    <rdf:RDF>
      <cc:Work
         rdf:about="">
        <dc:format>image/svg+xml</dc:format>
        <dc:type
           rdf:resource="http://purl.org/dc/dcmitype/StillImage" />
        <dc:title></dc:title>
      </cc:Work>
    </rdf:RDF>
  </metadata>
  <g
     inkscape:label="レイヤー 1"
     inkscape:groupmode="layer"
     id="layer1"
     transform="translate(0,-892.36216)">
    <g
       transform="translate(-32.94288,850.19521)"
       style="display:inline"
       id="g4257">
      <path
         sodipodi:nodetypes="czczczczc"
         inkscape:connector-curvature="0"
         id="path4180"
         d="m 56.607143,95.040774 c 0,0 4.563155,9.767426 6.696429,20.267856 2.133273,10.50043 2.410714,19.01786 2.410714,19.01786 0,0 6.667767,1.06496 14.375,6.07143 7.707233,5.00647 14.642857,10.53571 14.642857,10.53571 0,0 2.862986,-11.6475 3.660714,-20.17857 0.797729,-8.53107 1.339286,-19.10714 1.339286,-19.10714 0,0 -8.276288,-6.63478 -19.732142,-10.98215 C 68.544147,96.318402 56.607143,95.040774 56.607143,95.040774 Z"
         style="display:inline;fill:none;fill-rule:evenodd;stroke:#000000;stroke-width:1px;stroke-linecap:round;stroke-linejoin:round;stroke-opacity:1" />
      <path
         sodipodi:nodetypes="czczczc"
         inkscape:connector-curvature="0"
         id="path4190"
         d="m 56.694812,95.116397 c 0,0 12.791744,-4.256603 23.30113,-10.280096 10.509386,-6.023494 16.221088,-11.438183 16.221088,-11.438183 0,0 10.81324,7.265086 17.42513,10.480332 6.61189,3.215246 22.22336,8.460028 22.22336,8.460028 0,0 -13.87992,5.2215 -19.95052,8.460032 -6.0706,3.23853 -16.414974,10.73287 -16.414974,10.73287"
         style="fill:none;fill-rule:evenodd;stroke:#000000;stroke-width:1px;stroke-linecap:round;stroke-linejoin:round;stroke-opacity:1" />
      <path
         sodipodi:nodetypes="czcc"
         inkscape:connector-curvature="0"
         id="path4192"
         d="m 94.82807,150.80106 c 0,0 8.27342,-6.18203 16.84609,-9.7597 8.57267,-3.57767 15.22625,-3.67713 15.22625,-3.67713 l 1.82007,-12.49429"
         style="display:inline;fill:none;fill-rule:evenodd;stroke:#000000;stroke-width:1px;stroke-linecap:round;stroke-linejoin:round;stroke-opacity:1" />
      <path
         sodipodi:nodetypes="cc"
         inkscape:connector-curvature="0"
         id="path4194"
         d="m 135.99179,92.591016 -3.283,13.578414"
         style="display:inline;fill:none;fill-rule:evenodd;stroke:#000000;stroke-width:1px;stroke-linecap:round;stroke-linejoin:round;stroke-opacity:1" />
      <path
         sodipodi:nodetypes="zzzzzzzzzz"
         inkscape:connector-curvature="0"
         id="path4196"
         d="m 107.70752,116.83468 c 0.12253,-4.2046 4.20914,-6.00294 7.20368,-6.69226 2.99454,-0.68932 6.64862,0.0477 9.09137,-0.63135 2.44275,-0.679 3.83218,-2.39241 6.32243,-2.95649 2.49025,-0.56408 6.51158,-0.73102 8.94978,0.43111 2.4382,1.16213 3.87717,2.43466 4.54569,5.3033 0.66852,2.86864 0.10411,6.69959 -3.09808,9.55049 -3.20219,2.8509 -9.39161,2.71222 -14.45332,2.82388 -5.06171,0.11166 -12.87765,0.27304 -14.56427,-1.21039 -1.68663,-1.48343 -4.11981,-2.41369 -3.99728,-6.61829 z"
         style="display:inline;fill:none;fill-rule:evenodd;stroke:#000000;stroke-width:1px;stroke-linecap:round;stroke-linejoin:round;stroke-opacity:1" />
      <path
         sodipodi:nodetypes="czzzc"
         inkscape:connector-curvature="0"
         id="path4201"
         d="m 139.27478,106.60688 c 0,0 7.95049,-10.405401 9.59645,-11.616752 1.64597,-1.21135 4.20538,-1.890027 5.80838,0.189404 1.60299,2.079431 2.23776,5.313158 1.07329,10.038398 -1.16447,4.72523 -13.32139,15.02601 -13.32139,15.02601"
         style="fill:none;fill-rule:evenodd;stroke:#000000;stroke-width:1px;stroke-linecap:round;stroke-linejoin:round;stroke-opacity:1" />
      <path
         sodipodi:nodetypes="czc"
         inkscape:connector-curvature="0"
         id="path4203"
         d="m 113.07395,83.499643 c 0,0 0.72233,-0.759638 1.89403,-1.262691 1.17171,-0.503054 5.24017,-0.883884 5.24017,-0.883884"
         style="fill:none;fill-rule:evenodd;stroke:#000000;stroke-width:1px;stroke-linecap:round;stroke-linejoin:miter;stroke-opacity:1" />
      <path
         sodipodi:nodetypes="zzzzzzzzz"
         inkscape:connector-curvature="0"
         id="path4205"
         d="m 132.32998,85.456813 c -4.26961,-0.608917 -9.41092,-0.985146 -11.67988,-3.851207 -2.26896,-2.866061 -1.63453,-6.59233 -1.2627,-9.596449 0.37183,-3.004119 0.14659,-5.605749 2.96733,-7.765547 2.82074,-2.159799 8.23566,-1.928755 11.93243,-1.767768 3.69677,0.160988 11.89685,2.070791 13.44765,4.356283 1.5508,2.285492 1.4629,6.510929 0.94702,9.470181 -0.51589,2.959252 0.0216,5.708041 -2.96733,7.891817 -2.98887,2.183776 -9.11491,1.871607 -13.38452,1.26269 z"
         style="fill:none;fill-rule:evenodd;stroke:#000000;stroke-width:1px;stroke-linecap:round;stroke-linejoin:round;stroke-opacity:1" />
      <ellipse
         ry="1.9642857"
         rx="1.8303572"
         cy="77.451492"
         cx="132.09821"
         id="path4207"
         style="fill:none;fill-opacity:1;stroke:#000000;stroke-width:1;stroke-linecap:round;stroke-linejoin:round;stroke-miterlimit:4;stroke-dasharray:none;stroke-opacity:1" />
      <ellipse
         ry="1.6964285"
         rx="1.3839285"
         cy="76.558632"
         cx="120.75893"
         id="path4209"
         style="fill:none;fill-opacity:1;stroke:#000000;stroke-width:1;stroke-linecap:round;stroke-linejoin:round;stroke-miterlimit:4;stroke-dasharray:none;stroke-opacity:1" />
      <path
         sodipodi:nodetypes="czzzzzc"
         inkscape:connector-curvature="0"
         id="path4211"
         d="m 147.98735,81.542472 c 0,0 6.53441,1.756019 9.34391,3.788072 2.8095,2.032053 2.90911,13.855218 3.15673,20.266186 0.24762,6.41097 0.70633,12.79697 -1.56753,17.57307 -2.27386,4.7761 -6.27881,7.06516 -9.97526,9.73803 -3.69645,2.67288 -7.92413,5.57006 -11.90628,6.17187 -3.98214,0.60181 -10.26478,-1.66316 -10.26478,-1.66316"
         style="fill:none;fill-rule:evenodd;stroke:#000000;stroke-width:1px;stroke-linecap:round;stroke-linejoin:round;stroke-opacity:1" />
      <path
         inkscape:connector-curvature="0"
         id="path4213"
         d="m 118.69292,138.8055 -1.76776,25.88515 6.81853,2.27285 6.81853,-4.29315 4.16688,-22.8547 1.38896,30.80965 4.16687,1.89404 8.83884,-6.81853 3.6618,-35.1028"
         style="fill:none;fill-rule:evenodd;stroke:#000000;stroke-width:1px;stroke-linecap:round;stroke-linejoin:round;stroke-opacity:1" />
      <path
         sodipodi:nodetypes="czzc"
         inkscape:connector-curvature="0"
         id="path4215"
         d="m 116.98829,160.14497 c 0,0 -14.73021,9.33721 -14.14214,11.17481 0.58807,1.8376 12.82027,7.0717 15.90991,6.62912 3.08964,-0.44257 16.92005,-12.4375 16.92005,-12.4375"
         style="fill:none;fill-rule:evenodd;stroke:#000000;stroke-width:1px;stroke-linecap:round;stroke-linejoin:round;stroke-opacity:1" />
      <path
         inkscape:connector-curvature="0"
         id="path4217"
         d="m 131.76177,157.80899 3.91434,2.0203"
         style="fill:none;fill-rule:evenodd;stroke:#000000;stroke-width:1px;stroke-linecap:butt;stroke-linejoin:miter;stroke-opacity:1" />
      <path
         sodipodi:nodetypes="czzzc"
         inkscape:connector-curvature="0"
         id="path4219"
         d="m 149.64286,161.91577 c 0,0 6.38439,1.27987 6.03444,4.02421 -0.34995,2.74433 -16.6961,19.2368 -19.07016,19.81508 -2.37406,0.57828 -12.11767,-2.83896 -13.57143,-5.80357 -1.45376,-2.96461 12.41072,-13.83929 12.41072,-13.83929"
         style="fill:none;fill-rule:evenodd;stroke:#000000;stroke-width:1px;stroke-linecap:butt;stroke-linejoin:miter;stroke-opacity:1" />
    </g>
  </g>
</svg>
