<?xml version="1.0" encoding="UTF-8" standalone="no"?>
<!-- Created with Inkscape (http://www.inkscape.org/) -->

<svg
   xmlns:dc="http://purl.org/dc/elements/1.1/"
   xmlns:cc="http://creativecommons.org/ns#"
   xmlns:rdf="http://www.w3.org/1999/02/22-rdf-syntax-ns#"
   xmlns:svg="http://www.w3.org/2000/svg"
   xmlns="http://www.w3.org/2000/svg"
   xmlns:sodipodi="http://sodipodi.sourceforge.net/DTD/sodipodi-0.dtd"
   xmlns:inkscape="http://www.inkscape.org/namespaces/inkscape"
   width="160"
   height="160"
   viewBox="0 0 160 160"
   id="svg6423"
   version="1.1"
   inkscape:version="0.91 r13725"
   sodipodi:docname="box__put_down_high.svg"
   inkscape:export-filename="C:\workdir\dir\ScenographyAssets\box\box__put_down_high.png"
   inkscape:export-xdpi="288"
   inkscape:export-ydpi="288">
  <defs
     id="defs6425" />
  <sodipodi:namedview
     id="base"
     pagecolor="#ffffff"
     bordercolor="#666666"
     borderopacity="1.0"
     inkscape:pageopacity="0.0"
     inkscape:pageshadow="2"
     inkscape:zoom="2.1125"
     inkscape:cx="-90.456486"
     inkscape:cy="69.595122"
     inkscape:document-units="px"
     inkscape:current-layer="layer1"
     showgrid="false"
     units="px"
     inkscape:window-width="1538"
     inkscape:window-height="877"
     inkscape:window-x="-8"
     inkscape:window-y="1192"
     inkscape:window-maximized="1" />
  <metadata
     id="metadata6428">
    <rdf:RDF>
      <cc:Work
         rdf:about="">
        <dc:format>image/svg+xml</dc:format>
        <dc:type
           rdf:resource="http://purl.org/dc/dcmitype/StillImage" />
        <dc:title></dc:title>
      </cc:Work>
    </rdf:RDF>
  </metadata>
  <g
     inkscape:label="レイヤー 1"
     inkscape:groupmode="layer"
     id="layer1"
     transform="translate(0,-892.36216)">
    <g
       id="g7047"
       transform="translate(-21.195264,37.372767)">
      <g
         id="g7085"
         transform="translate(-0.71005917,0)">
        <ellipse
           style="display:inline;fill:none;fill-opacity:1;stroke:#000000;stroke-width:1;stroke-linecap:round;stroke-linejoin:round;stroke-miterlimit:4;stroke-dasharray:none;stroke-opacity:1"
           id="path5661"
           cx="88.382431"
           cy="886.29956"
           rx="2.0758929"
           ry="1.9866072" />
        <ellipse
           style="display:inline;fill:none;fill-opacity:1;stroke:#000000;stroke-width:1;stroke-linecap:round;stroke-linejoin:round;stroke-miterlimit:4;stroke-dasharray:none;stroke-opacity:1"
           id="path5663"
           cx="102.17708"
           cy="885.20581"
           rx="2.1651785"
           ry="2.1875" />
        <path
           style="display:inline;fill:none;fill-rule:evenodd;stroke:#000000;stroke-width:1px;stroke-linecap:round;stroke-linejoin:round;stroke-opacity:1"
           d="m 85.833948,874.0298 c -4.32519,4.91307 -2.19166,15.91183 1.18687,18.76532 3.37853,2.85349 23.396032,1.54098 25.892862,-2.41071 2.49683,-3.95169 2.2987,-13.04643 -0.53572,-17.76786 -2.83442,-4.72143 -22.218812,-3.49983 -26.544012,1.41325 z"
           id="path5665"
           inkscape:connector-curvature="0"
           sodipodi:nodetypes="zzzzz" />
        <path
           style="display:inline;fill:none;fill-rule:evenodd;stroke:#000000;stroke-width:1px;stroke-linecap:round;stroke-linejoin:round;stroke-opacity:1"
           d="m 83.260368,919.92152 -24.4962,18.94036 c 0,0 13.82409,1.31464 20.96067,2.27284 7.13658,0.9582 21.844552,3.40927 21.844552,3.40927 0,0 5.59191,-6.5633 10.16466,-11.17481 4.57274,-4.61152 11.17481,-11.55363 11.17481,-11.55363 z"
           id="path6313"
           inkscape:connector-curvature="0"
           sodipodi:nodetypes="cczczcc" />
        <path
           style="display:inline;fill:none;fill-rule:evenodd;stroke:#000000;stroke-width:1px;stroke-linecap:round;stroke-linejoin:miter;stroke-opacity:1"
           d="m 76.441838,940.94532 1.4521,6.43972"
           id="path6315"
           inkscape:connector-curvature="0" />
        <path
           style="display:inline;fill:none;fill-rule:evenodd;stroke:#000000;stroke-width:1px;stroke-linecap:round;stroke-linejoin:miter;stroke-opacity:1"
           d="m 80.166778,938.3568 c 0,0 1.42742,5.53215 2.20971,10.03839 0.78229,4.50624 1.38896,8.64943 1.38896,8.64943"
           id="path6317"
           inkscape:connector-curvature="0"
           sodipodi:nodetypes="czc" />
        <path
           style="display:inline;fill:none;fill-rule:evenodd;stroke:#000000;stroke-width:1px;stroke-linecap:round;stroke-linejoin:round;stroke-opacity:1"
           d="m 58.953578,938.86188 c 0,0 5.45691,8.12547 9.09137,14.83661 3.63446,6.71114 4.73508,14.26841 4.73508,14.26841 l 7.63929,1.89403"
           id="path6319"
           inkscape:connector-curvature="0"
           sodipodi:nodetypes="czcc" />
        <path
           style="display:inline;fill:none;fill-rule:evenodd;stroke:#000000;stroke-width:1px;stroke-linecap:round;stroke-linejoin:round;stroke-opacity:1"
           d="m 85.470078,970.11347 12.94258,2.52538 c 0,0 3.467172,-5.09806 7.639272,-8.33375 4.17211,-3.23569 8.01809,-6.31346 8.01809,-6.31346 0,0 1.29437,-9.59783 3.283,-17.36199 1.98863,-7.76416 5.3033,-18.56156 5.3033,-18.56156"
           id="path6321"
           inkscape:connector-curvature="0"
           sodipodi:nodetypes="cczczc" />
        <path
           style="display:inline;fill:none;fill-rule:evenodd;stroke:#000000;stroke-width:1px;stroke-linecap:round;stroke-linejoin:miter;stroke-opacity:1"
           d="m 101.37998,944.73339 c 0,0 -2.583172,3.61518 -3.282992,13.8896 -0.69982,10.27442 0.1894,13.82646 0.1894,13.82646"
           id="path6323"
           inkscape:connector-curvature="0"
           sodipodi:nodetypes="czc" />
        <path
           style="display:inline;fill:none;fill-rule:evenodd;stroke:#000000;stroke-width:1px;stroke-linecap:round;stroke-linejoin:miter;stroke-opacity:1"
           d="m 79.431528,966.09869 c 0,0 1.16134,2.9923 1.78572,5.89735 0.62438,2.90505 0.89286,5.44193 0.89286,5.44193"
           id="path6325"
           inkscape:connector-curvature="0"
           sodipodi:nodetypes="czc" />
        <path
           style="display:inline;fill:none;fill-rule:evenodd;stroke:#000000;stroke-width:1px;stroke-linecap:round;stroke-linejoin:miter;stroke-opacity:1"
           d="m 84.074388,964.40226 c 0,0.35715 1.07763,6.70789 1.69643,13.75001 0.6188,7.0421 0.53571,12.9464 0.53571,12.9464"
           id="path6327"
           inkscape:connector-curvature="0"
           sodipodi:nodetypes="czc" />
        <path
           style="display:inline;fill:none;fill-rule:evenodd;stroke:#000000;stroke-width:1px;stroke-linecap:round;stroke-linejoin:miter;stroke-opacity:1"
           d="m 78.940458,980.02727 c 0,0 -6.07309,4.2242 -5.13393,6.25 0.93916,2.0258 6.74108,3.0804 6.74108,3.0804"
           id="path6329"
           inkscape:connector-curvature="0"
           sodipodi:nodetypes="czc" />
        <path
           style="display:inline;fill:none;fill-rule:evenodd;stroke:#000000;stroke-width:1px;stroke-linecap:round;stroke-linejoin:round;stroke-opacity:1"
           d="m 89.520818,982.17017 3.66072,0.4464 5.40178,-4.5982 -0.17857,-5.08932"
           id="path6331"
           inkscape:connector-curvature="0"
           sodipodi:nodetypes="cccc" />
        <path
           style="display:inline;fill:none;fill-rule:evenodd;stroke:#000000;stroke-width:1px;stroke-linecap:round;stroke-linejoin:miter;stroke-opacity:1"
           d="m 99.877958,971.05405 3.794652,0.80357"
           id="path6333"
           inkscape:connector-curvature="0" />
        <path
           style="display:inline;fill:none;fill-rule:evenodd;stroke:#000000;stroke-width:1px;stroke-linecap:round;stroke-linejoin:round;stroke-opacity:1"
           d="m 104.28417,966.19913 c 0,0 -0.41452,5.7297 -0.37881,9.59645 0.0357,3.86679 0.53665,8.49159 0.53665,8.49159 l 5.27173,0.8208 8.30219,-6.9448 c 0,0 0.94425,-9.15631 1.7362,-14.17375 0.79195,-5.01744 2.46225,-13.51079 2.46225,-13.51079"
           id="path6335"
           inkscape:connector-curvature="0"
           sodipodi:nodetypes="czccczc" />
        <path
           style="display:inline;fill:none;fill-rule:evenodd;stroke:#000000;stroke-width:1px;stroke-linecap:round;stroke-linejoin:miter;stroke-opacity:1"
           d="m 103.71725,977.57187 c 0,0 -12.429832,9.8339 -11.741082,12.0983 0.68876,2.2644 13.330092,5.1268 15.848222,4.1071 2.51814,-1.0197 19.95015,-16.0193 19.15179,-18.30358 -0.79836,-2.28426 -8.16965,-2.5 -8.16965,-2.5"
           id="path6337"
           inkscape:connector-curvature="0"
           sodipodi:nodetypes="czzzc" />
        <path
           style="display:inline;fill:none;fill-rule:evenodd;stroke:#000000;stroke-width:1px;stroke-linecap:round;stroke-linejoin:miter;stroke-opacity:1"
           d="m 88.537518,990.04777 c 0,0 0.68361,0.1337 1.88862,-0.2048 1.20501,-0.3385 1.60452,-1.027 1.60452,-1.027"
           id="path6339"
           inkscape:connector-curvature="0"
           sodipodi:nodetypes="czc" />
        <path
           style="display:inline;fill:none;fill-rule:evenodd;stroke:#000000;stroke-width:1px;stroke-linecap:round;stroke-linejoin:round;stroke-opacity:1"
           d="m 81.172608,1005.1166 3.57142,-4.4643 7.72322,1.8304 6.60714,-4.19653 5.000002,0.8929"
           id="path6341"
           inkscape:connector-curvature="0" />
        <path
           style="display:inline;fill:none;fill-rule:evenodd;stroke:#000000;stroke-width:1px;stroke-linecap:round;stroke-linejoin:round;stroke-opacity:1"
           d="m 66.217248,991.90227 7.14286,1.0714 -4.28572,3.8393 7.05357,2.0536 -3.66071,2.81253"
           id="path6343"
           inkscape:connector-curvature="0" />
        <path
           style="display:inline;fill:none;fill-rule:evenodd;stroke:#000000;stroke-width:1px;stroke-linecap:round;stroke-linejoin:miter;stroke-opacity:1"
           d="m 71.574388,1008.3309 8.97322,-8.3036"
           id="path6345"
           inkscape:connector-curvature="0" />
        <path
           style="display:inline;fill:none;fill-rule:evenodd;stroke:#000000;stroke-width:1px;stroke-linecap:round;stroke-linejoin:miter;stroke-opacity:1"
           d="m 112.42853,948.71087 c 0,0 -1.18253,-5.31619 2.58851,-9.59645 3.77104,-4.28026 13.73518,-13.70657 18.68782,-8.27062 4.95264,5.43595 -5.75262,14.01464 -10.54346,18.1196 -4.79084,4.10496 -8.01809,2.14658 -8.01809,2.14658"
           id="path6347"
           inkscape:connector-curvature="0"
           sodipodi:nodetypes="czzzc" />
        <path
           style="display:inline;fill:none;fill-rule:evenodd;stroke:#000000;stroke-width:1px;stroke-linecap:round;stroke-linejoin:miter;stroke-opacity:1"
           d="m 60.468798,936.96784 c 0,0 -0.57831,-4.07929 -0.25254,-7.00793 0.32577,-2.92865 1.57837,-5.87151 1.57837,-5.87151"
           id="path6349"
           inkscape:connector-curvature="0"
           sodipodi:nodetypes="czc" />
        <path
           style="display:inline;fill:none;fill-rule:evenodd;stroke:#000000;stroke-width:1px;stroke-linecap:round;stroke-linejoin:miter;stroke-opacity:1"
           d="m 70.002118,921.68928 c 0,0 1.1927,0.27005 2.0203,1.76777 0.8276,1.49772 0.69448,4.16688 0.69448,4.16688"
           id="path6351"
           inkscape:connector-curvature="0"
           sodipodi:nodetypes="czc" />
        <path
           style="display:inline;fill:none;fill-rule:evenodd;stroke:#000000;stroke-width:1px;stroke-linecap:round;stroke-linejoin:miter;stroke-opacity:1"
           d="m 46.389798,931.72768 8.08122,7.38674"
           id="path6353"
           inkscape:connector-curvature="0" />
        <path
           style="display:inline;fill:none;fill-rule:evenodd;stroke:#000000;stroke-width:1px;stroke-linecap:round;stroke-linejoin:miter;stroke-opacity:1"
           d="m 49.167718,927.49766 6.69226,8.20749"
           id="path6355"
           inkscape:connector-curvature="0" />
        <path
           style="display:inline;fill:none;fill-rule:evenodd;stroke:#000000;stroke-width:1px;stroke-linecap:round;stroke-linejoin:miter;stroke-opacity:1"
           d="m 128.46469,916.89106 c 0,0 0.10031,3.96087 0.0631,6.43972 -0.0372,2.47886 -0.44194,5.87151 -0.44194,5.87151"
           id="path6357"
           inkscape:connector-curvature="0"
           sodipodi:nodetypes="czc" />
        <path
           style="display:inline;fill:none;fill-rule:evenodd;stroke:#000000;stroke-width:1px;stroke-linecap:round;stroke-linejoin:miter;stroke-opacity:1"
           d="m 76.063028,912.85045 -6.56599,8.64943"
           id="path6359"
           inkscape:connector-curvature="0" />
        <path
           style="display:inline;fill:none;fill-rule:evenodd;stroke:#000000;stroke-width:1px;stroke-linecap:round;stroke-linejoin:miter;stroke-opacity:1"
           d="m 67.059638,909.66122 10.32922,-6.47035"
           id="path6361"
           inkscape:connector-curvature="0"
           sodipodi:nodetypes="cc" />
        <path
           style="display:inline;fill:none;fill-rule:evenodd;stroke:#000000;stroke-width:1px;stroke-linecap:round;stroke-linejoin:miter;stroke-opacity:1"
           d="m 88.181538,893.64334 c 0,0 -4.73584,-0.74222 -7.99108,3.21428 -5.68015,6.90381 -3.92857,28.21429 -3.92857,28.21429"
           id="path6363"
           inkscape:connector-curvature="0"
           sodipodi:nodetypes="csc" />
        <path
           style="display:inline;fill:none;fill-rule:evenodd;stroke:#000000;stroke-width:1px;stroke-linecap:round;stroke-linejoin:miter;stroke-opacity:1"
           d="m 112.02082,891.58976 c 0,0 6.31475,-0.20869 10.98215,3.03572 4.66739,3.24441 4.82142,8.4375 4.82142,8.4375"
           id="path6365"
           inkscape:connector-curvature="0"
           sodipodi:nodetypes="czc" />
        <path
           style="display:inline;fill:none;fill-rule:evenodd;stroke:#000000;stroke-width:1px;stroke-linecap:round;stroke-linejoin:miter;stroke-opacity:1"
           d="m 129.92261,938.55405 c 0,0 3.90347,1.05749 8.0357,0.0893 4.13224,-0.96819 7.05357,-3.08035 7.05357,-3.08035"
           id="path6367"
           inkscape:connector-curvature="0"
           sodipodi:nodetypes="czc" />
        <path
           style="display:inline;fill:none;fill-rule:evenodd;stroke:#000000;stroke-width:1px;stroke-linecap:round;stroke-linejoin:miter;stroke-opacity:1"
           d="m 137.55653,942.39333 c 0,0 5.90816,-0.70147 11.60714,-4.73214 5.69898,-4.03067 8.125,-8.03571 8.125,-8.03571"
           id="path6369"
           inkscape:connector-curvature="0"
           sodipodi:nodetypes="czc" />
        <path
           style="display:inline;fill:none;fill-rule:evenodd;stroke:#000000;stroke-width:1px;stroke-linecap:butt;stroke-linejoin:miter;stroke-opacity:1"
           d="m 50.815458,914.5362 c 5.07877,-2.81411 14.13574,-7.24724 17.67857,-3.66072 3.54284,3.58652 1.23434,10.46824 -0.75893,12.45536 -1.99327,1.98711 -12.02937,6.54473 -13.21428,6.11606 -1.18492,-0.42866 -3.6966,0.29837 -5.58036,1.25 -1.88376,0.95164 -9.29091,2.78169 -12.00892,-2.99107 -2.71802,-5.77276 8.80515,-10.35553 13.88392,-13.16963 z"
           id="path6371"
           inkscape:connector-curvature="0"
           sodipodi:nodetypes="zzzzzzz" />
        <path
           style="display:inline;fill:none;fill-rule:evenodd;stroke:#000000;stroke-width:1px;stroke-linecap:round;stroke-linejoin:miter;stroke-opacity:1"
           d="m 135.5989,921.56301 c 0,0 -11.78578,-7.66587 -13.19512,-9.72271 -1.40934,-2.05685 -1.37138,-7.29759 -0.75761,-8.52316 0.61376,-1.22557 6.47834,-0.41567 8.20749,0.3788 1.72914,0.79447 11.11167,7.00794 11.11167,7.00794"
           id="path6373"
           inkscape:connector-curvature="0"
           sodipodi:nodetypes="czzzc" />
        <path
           style="display:inline;fill:none;fill-rule:evenodd;stroke:#000000;stroke-width:1px;stroke-linecap:butt;stroke-linejoin:miter;stroke-opacity:1"
           d="m 137.05098,913.6712 c -0.97008,1.56464 -2.31736,5.72126 -1.07327,8.27063 1.24408,2.54936 5.89833,5.08666 11.49048,7.3236 5.59214,2.23694 19.33596,7.53875 21.84454,0.75761 2.50859,-6.78114 -4.02633,-11.75481 -9.21764,-13.82646 -5.19131,-2.07165 -15.17593,-5.60967 -17.48827,-5.42957 -2.31234,0.1801 -4.58576,1.33955 -5.55584,2.90419 z"
           id="path6375"
           inkscape:connector-curvature="0"
           sodipodi:nodetypes="zzzzzzz" />
        <path
           style="display:inline;fill:none;fill-rule:evenodd;stroke:#000000;stroke-width:1px;stroke-linecap:round;stroke-linejoin:miter;stroke-opacity:1"
           d="m 131.30575,923.58332 c 0,0 0.93962,0.80908 1.57837,2.84106 0.63875,2.03198 0.56821,3.97747 0.56821,3.97747"
           id="path6377"
           inkscape:connector-curvature="0"
           sodipodi:nodetypes="czc" />
      </g>
    </g>
  </g>
</svg>
