<?xml version="1.0" encoding="UTF-8" standalone="no"?>
<!-- Created with Inkscape (http://www.inkscape.org/) -->

<svg
   xmlns:dc="http://purl.org/dc/elements/1.1/"
   xmlns:cc="http://creativecommons.org/ns#"
   xmlns:rdf="http://www.w3.org/1999/02/22-rdf-syntax-ns#"
   xmlns:svg="http://www.w3.org/2000/svg"
   xmlns="http://www.w3.org/2000/svg"
   xmlns:sodipodi="http://sodipodi.sourceforge.net/DTD/sodipodi-0.dtd"
   xmlns:inkscape="http://www.inkscape.org/namespaces/inkscape"
   width="160"
   height="160"
   viewBox="0 0 160 160"
   id="svg7224"
   version="1.1"
   inkscape:version="0.91 r13725"
   sodipodi:docname="box__put_down_low.svg"
   inkscape:export-filename="C:\workdir\dir\ScenographyAssets\box\box__put_down_low.png"
   inkscape:export-xdpi="288"
   inkscape:export-ydpi="288">
  <defs
     id="defs7226" />
  <sodipodi:namedview
     id="base"
     pagecolor="#ffffff"
     bordercolor="#666666"
     borderopacity="1.0"
     inkscape:pageopacity="0.0"
     inkscape:pageshadow="2"
     inkscape:zoom="2.1125"
     inkscape:cx="8.427828"
     inkscape:cy="128.11103"
     inkscape:document-units="px"
     inkscape:current-layer="layer1"
     showgrid="false"
     units="px"
     inkscape:window-width="1538"
     inkscape:window-height="877"
     inkscape:window-x="-8"
     inkscape:window-y="1192"
     inkscape:window-maximized="1" />
  <metadata
     id="metadata7229">
    <rdf:RDF>
      <cc:Work
         rdf:about="">
        <dc:format>image/svg+xml</dc:format>
        <dc:type
           rdf:resource="http://purl.org/dc/dcmitype/StillImage" />
        <dc:title></dc:title>
      </cc:Work>
    </rdf:RDF>
  </metadata>
  <g
     inkscape:label="レイヤー 1"
     inkscape:groupmode="layer"
     id="layer1"
     transform="translate(0,-892.36216)">
    <g
       id="g7877"
       transform="translate(-74.792898,38.532543)">
      <ellipse
         ry="1.8624687"
         rx="1.9256033"
         cy="907.61969"
         cx="142.38513"
         id="path7123"
         style="display:inline;fill:none;fill-opacity:1;stroke:#000000;stroke-width:1;stroke-linecap:round;stroke-linejoin:round;stroke-miterlimit:4;stroke-dasharray:none;stroke-opacity:1" />
      <ellipse
         ry="1.7046324"
         rx="1.767767"
         cy="912.70209"
         cx="130.61053"
         id="path7125"
         style="display:inline;fill:none;fill-opacity:1;stroke:#000000;stroke-width:1;stroke-linecap:round;stroke-linejoin:round;stroke-miterlimit:4;stroke-dasharray:none;stroke-opacity:1" />
      <path
         sodipodi:nodetypes="zzzzzzz"
         inkscape:connector-curvature="0"
         id="path7127"
         d="m 124.04453,900.64337 c 1.59412,-6.86232 3.90219,-8.41034 7.76554,-11.17482 3.86335,-2.76448 10.32696,-5.2272 14.39468,-4.67196 4.06771,0.55525 10.67284,7.56875 10.98541,12.0587 0.31257,4.48995 -4.18191,10.31826 -7.57615,13.13199 -3.39424,2.81372 -10.83133,6.34207 -16.22558,6.25031 -5.39424,-0.0918 -10.93802,-8.73191 -9.3439,-15.59422 z"
         style="display:inline;fill:none;fill-rule:evenodd;stroke:#000000;stroke-width:1px;stroke-linecap:round;stroke-linejoin:miter;stroke-opacity:1" />
      <path
         sodipodi:nodetypes="czc"
         inkscape:connector-curvature="0"
         id="path7129"
         d="m 126.25423,912.07071 c 0,0 -2.10904,6.92821 0.31568,17.67767 2.42472,10.74946 6.31345,15.21543 6.31345,15.21543"
         style="display:inline;fill:none;fill-rule:evenodd;stroke:#000000;stroke-width:1px;stroke-linecap:round;stroke-linejoin:miter;stroke-opacity:1" />
      <path
         sodipodi:nodetypes="czc"
         inkscape:connector-curvature="0"
         id="path7131"
         d="m 156.11687,893.06722 c 0,0 3.72965,-3.02431 12.4375,-1.01015 8.70785,2.01415 13.00572,9.72271 13.00572,9.72271"
         style="display:inline;fill:none;fill-rule:evenodd;stroke:#000000;stroke-width:1px;stroke-linecap:round;stroke-linejoin:miter;stroke-opacity:1" />
      <path
         sodipodi:nodetypes="czccczczczc"
         inkscape:connector-curvature="0"
         id="path7133"
         d="m 113.44205,959.92012 c 0,0 6.86382,8.77369 10,15.44643 3.13618,6.67274 7.14286,16.96433 7.14286,16.96433 l 29.55357,0.3571 16.51785,-32.05357 c 0,0 -3.79065,-5.23585 -5.35714,-9.55358 -1.56648,-4.31773 -2.76785,-10.89285 -2.76785,-10.89285 0,0 -8.56577,0.96359 -15.71429,1.07143 -7.14852,0.10784 -14.28571,-0.35714 -14.28571,-0.35714 0,0 -6.18649,5.46733 -10.80358,9.10714 -4.61709,3.63981 -14.28571,9.91071 -14.28571,9.91071 z"
         style="display:inline;fill:none;fill-rule:evenodd;stroke:#000000;stroke-width:1px;stroke-linecap:round;stroke-linejoin:round;stroke-opacity:1" />
      <path
         sodipodi:nodetypes="czc"
         inkscape:connector-curvature="0"
         id="path7135"
         d="m 113.88848,960.09869 c 0,0 17.20029,-0.45123 31.96429,-0.35714 14.76399,0.0941 30.35714,0.89286 30.35714,0.89286"
         style="display:inline;fill:none;fill-rule:evenodd;stroke:#000000;stroke-width:1px;stroke-linecap:round;stroke-linejoin:miter;stroke-opacity:1" />
      <path
         inkscape:connector-curvature="0"
         id="path7137"
         d="m 115.22776,992.24158 8.92858,0"
         style="display:inline;fill:none;fill-rule:evenodd;stroke:#000000;stroke-width:1px;stroke-linecap:round;stroke-linejoin:miter;stroke-opacity:1" />
      <path
         inkscape:connector-curvature="0"
         id="path7139"
         d="m 126.92419,994.47368 -0.44643,2.0536 13.48215,-0.3572 0.0893,2.7679"
         style="display:inline;fill:none;fill-rule:evenodd;stroke:#000000;stroke-width:1px;stroke-linecap:round;stroke-linejoin:miter;stroke-opacity:1" />
      <path
         inkscape:connector-curvature="0"
         id="path7141"
         d="m 153.17419,997.95588 0,-1.6072 9.73215,-0.3571 0.26785,-2.9465 9.10715,0.3572"
         style="display:inline;fill:none;fill-rule:evenodd;stroke:#000000;stroke-width:1px;stroke-linecap:round;stroke-linejoin:miter;stroke-opacity:1" />
      <path
         inkscape:connector-curvature="0"
         id="path7143"
         d="m 146.38848,989.47369 0.625,7.94639"
         style="display:inline;fill:none;fill-rule:evenodd;stroke:#000000;stroke-width:1px;stroke-linecap:round;stroke-linejoin:miter;stroke-opacity:1" />
      <path
         sodipodi:nodetypes="czc"
         inkscape:connector-curvature="0"
         id="path7145"
         d="m 141.65634,985.72369 c 0,0 0.63648,1.90152 1.07142,4.82143 0.43494,2.91996 0.44643,5.17856 0.44643,5.17856"
         style="display:inline;fill:none;fill-rule:evenodd;stroke:#000000;stroke-width:1px;stroke-linecap:round;stroke-linejoin:miter;stroke-opacity:1" />
      <path
         inkscape:connector-curvature="0"
         id="path7147"
         d="m 169.75393,974.00569 6.43972,-6.9448"
         style="display:inline;fill:none;fill-rule:evenodd;stroke:#000000;stroke-width:1px;stroke-linecap:round;stroke-linejoin:miter;stroke-opacity:1" />
      <path
         inkscape:connector-curvature="0"
         id="path7149"
         d="m 174.67842,965.29313 3.03046,3.53553 -0.31567,4.79822 7.19733,0.44195 10.16466,-10.54347 -5.99778,-3.85121"
         style="display:inline;fill:none;fill-rule:evenodd;stroke:#000000;stroke-width:1px;stroke-linecap:round;stroke-linejoin:round;stroke-opacity:1" />
      <path
         sodipodi:nodetypes="czzc"
         inkscape:connector-curvature="0"
         id="path7151"
         d="m 166.02899,981.5187 c 0,0 10.45073,5.1002 14.39467,4.16688 3.94394,-0.93332 23.33936,-20.29298 22.98097,-23.42291 -0.35839,-3.12993 -10.9854,-5.87151 -10.9854,-5.87151"
         style="display:inline;fill:none;fill-rule:evenodd;stroke:#000000;stroke-width:1px;stroke-linecap:round;stroke-linejoin:miter;stroke-opacity:1" />
      <path
         sodipodi:nodetypes="czc"
         inkscape:connector-curvature="0"
         id="path7153"
         d="m 170.70095,948.87815 c 0,0 3.80087,-0.0208 6.81853,-1.8309 3.01766,-1.81005 4.98762,-4.23002 4.98762,-4.23002"
         style="display:inline;fill:none;fill-rule:evenodd;stroke:#000000;stroke-width:1px;stroke-linecap:round;stroke-linejoin:miter;stroke-opacity:1" />
      <path
         sodipodi:nodetypes="czzc"
         inkscape:connector-curvature="0"
         id="path7155"
         d="m 109.83925,949.06755 c 0,0 -1.11477,0.41318 -1.45209,2.27284 -0.33732,1.85966 -0.16781,6.33817 2.14657,10.35407 2.31438,4.0159 7.26048,5.17703 7.26048,5.17703"
         style="display:inline;fill:none;fill-rule:evenodd;stroke:#000000;stroke-width:1px;stroke-linecap:round;stroke-linejoin:miter;stroke-opacity:1" />
      <path
         sodipodi:nodetypes="czc"
         inkscape:connector-curvature="0"
         id="path7157"
         d="m 119.91526,941.08084 c 0,0 2.18087,0.56849 3.83929,3.21428 1.65842,2.64579 0.58036,7.99107 0.58036,7.99107"
         style="display:inline;fill:none;fill-rule:evenodd;stroke:#000000;stroke-width:1px;stroke-linecap:round;stroke-linejoin:miter;stroke-opacity:1" />
      <path
         sodipodi:nodetypes="czc"
         inkscape:connector-curvature="0"
         id="path7159"
         d="m 121.92419,942.06298 c 0,0 0.15263,-3.64791 1.07143,-7.45536 0.9188,-3.80745 2.63393,-8.08036 2.63393,-8.08036"
         style="display:inline;fill:none;fill-rule:evenodd;stroke:#000000;stroke-width:1px;stroke-linecap:round;stroke-linejoin:miter;stroke-opacity:1" />
      <path
         inkscape:connector-curvature="0"
         id="path7161"
         d="m 106.07598,929.29512 19.46428,-14.95536"
         style="display:inline;fill:none;fill-rule:evenodd;stroke:#000000;stroke-width:1px;stroke-linecap:round;stroke-linejoin:miter;stroke-opacity:1" />
      <path
         inkscape:connector-curvature="0"
         id="path7163"
         d="m 113.48669,936.75048 12.1875,-10.44643"
         style="display:inline;fill:none;fill-rule:evenodd;stroke:#000000;stroke-width:1px;stroke-linecap:round;stroke-linejoin:miter;stroke-opacity:1" />
      <path
         inkscape:connector-curvature="0"
         id="path7165"
         d="m 97.906832,949.44636 5.713668,3.50396"
         style="display:inline;fill:none;fill-rule:evenodd;stroke:#000000;stroke-width:1px;stroke-linecap:round;stroke-linejoin:miter;stroke-opacity:1" />
      <path
         sodipodi:nodetypes="czc"
         inkscape:connector-curvature="0"
         id="path7167"
         d="m 97.370182,942.59626 c 0,0 2.08699,2.26949 5.524278,4.95606 3.43729,2.68657 7.54457,4.57726 7.54457,4.57726"
         style="display:inline;fill:none;fill-rule:evenodd;stroke:#000000;stroke-width:1px;stroke-linecap:round;stroke-linejoin:miter;stroke-opacity:1" />
      <path
         sodipodi:nodetypes="czc"
         inkscape:connector-curvature="0"
         id="path7169"
         d="m 197.90634,936.66119 c 0,0 3.14916,0.15922 7.23214,-1.78571 4.08298,-1.94493 6.38393,-3.92857 6.38393,-3.92857"
         style="display:inline;fill:none;fill-rule:evenodd;stroke:#000000;stroke-width:1px;stroke-linecap:round;stroke-linejoin:miter;stroke-opacity:1" />
      <path
         sodipodi:nodetypes="czc"
         inkscape:connector-curvature="0"
         id="path7171"
         d="m 193.66526,946.34869 c 0,0 3.24293,-0.61495 6.91965,-2.76785 3.67672,-2.1529 5.98214,-3.92858 5.98214,-3.92858"
         style="display:inline;fill:none;fill-rule:evenodd;stroke:#000000;stroke-width:1px;stroke-linecap:round;stroke-linejoin:miter;stroke-opacity:1" />
      <path
         sodipodi:nodetypes="zzzzzzz"
         inkscape:connector-curvature="0"
         id="path7173"
         d="m 84.067052,955.54513 c -3.90054,-5.09289 3.74704,-13.08709 7.41071,-17.67858 3.66367,-4.59149 11.041278,-9.22595 14.642858,-8.57143 3.60158,0.65452 7.92372,6.78664 7.32143,10.625 -0.60229,3.83836 -4.09625,7.04033 -7.67857,8.48215 -3.58233,1.44181 -4.36886,2.16982 -7.053568,5 -2.68471,2.83018 -10.74232,7.23574 -14.64286,2.14286 z"
         style="display:inline;fill:none;fill-rule:evenodd;stroke:#000000;stroke-width:1px;stroke-linecap:butt;stroke-linejoin:miter;stroke-opacity:1" />
      <path
         sodipodi:nodetypes="czzzzzc"
         inkscape:connector-curvature="0"
         id="path7175"
         d="m 191.47221,925.83404 c 0,0 -3.57061,0.31465 -5.80838,3.40927 -2.23777,3.09462 -2.83766,8.06476 -3.03046,10.16465 -0.1928,2.09989 0.62471,2.86242 0.25254,6.25032 -0.37216,3.3879 -6.41726,10.27446 -0.0631,14.20528 6.35413,3.93082 12.80203,-9.02053 15.21541,-14.01587 2.41339,-4.99534 3.47241,-11.49049 3.47241,-11.49049"
         style="display:inline;fill:none;fill-rule:evenodd;stroke:#000000;stroke-width:1px;stroke-linecap:round;stroke-linejoin:miter;stroke-opacity:1" />
      <path
         sodipodi:nodetypes="czc"
         inkscape:connector-curvature="0"
         id="path7177"
         d="m 182.74029,919.9749 c 0,0 1.64098,0.52984 3.56463,2.59858 1.92365,2.06874 2.0737,4.08131 2.0737,4.08131"
         style="display:inline;fill:none;fill-rule:evenodd;stroke:#000000;stroke-width:1px;stroke-linecap:round;stroke-linejoin:miter;stroke-opacity:1" />
      <path
         sodipodi:nodetypes="zzzzzzz"
         inkscape:connector-curvature="0"
         id="path7179"
         d="m 224.93351,938.46095 c -5.34889,6.04951 -15.07932,-2.24712 -19.82425,-6.18719 -4.74492,-3.94007 -7.93775,-6.96052 -8.77569,-9.59645 -0.83795,-2.63593 0.0297,-8.37996 1.57836,-10.03839 1.5487,-1.65843 3.09452,-2.32962 6.18718,-2.27284 3.09266,0.0568 8.18588,5.30574 12.75318,9.09137 4.5673,3.78563 13.43011,12.95399 8.08122,19.0035 z"
         style="display:inline;fill:none;fill-rule:evenodd;stroke:#000000;stroke-width:1px;stroke-linecap:round;stroke-linejoin:miter;stroke-opacity:1" />
      <path
         sodipodi:nodetypes="czzzzzc"
         inkscape:connector-curvature="0"
         id="path7181"
         d="m 202.33135,910.23981 c 0,0 -6.77769,-4.25199 -13.8896,-6.37659 -7.11191,-2.1246 -11.41725,-3.12057 -13.06885,-2.46224 -1.6516,0.65833 -2.38856,1.2821 -2.71478,3.28299 -0.32622,2.00088 -0.9202,7.33275 -0.12628,8.83883 0.79393,1.50609 7.4192,2.94596 11.30109,4.04062 3.88189,1.09466 11.74302,2.46224 11.74302,2.46224"
         style="display:inline;fill:none;fill-rule:evenodd;stroke:#000000;stroke-width:1px;stroke-linecap:round;stroke-linejoin:miter;stroke-opacity:1" />
      <path
         sodipodi:nodetypes="czc"
         inkscape:connector-curvature="0"
         id="path7183"
         d="m 187.621,918.57357 c 0,0 0.91807,1.47261 1.32583,3.59867 0.40776,2.12606 0.12626,4.16688 0.12626,4.16688"
         style="display:inline;fill:none;fill-rule:evenodd;stroke:#000000;stroke-width:1px;stroke-linecap:round;stroke-linejoin:miter;stroke-opacity:1" />
    </g>
  </g>
</svg>
