<?xml version="1.0" encoding="UTF-8" standalone="no"?>
<!-- Created with Inkscape (http://www.inkscape.org/) -->

<svg
   xmlns:dc="http://purl.org/dc/elements/1.1/"
   xmlns:cc="http://creativecommons.org/ns#"
   xmlns:rdf="http://www.w3.org/1999/02/22-rdf-syntax-ns#"
   xmlns:svg="http://www.w3.org/2000/svg"
   xmlns="http://www.w3.org/2000/svg"
   xmlns:sodipodi="http://sodipodi.sourceforge.net/DTD/sodipodi-0.dtd"
   xmlns:inkscape="http://www.inkscape.org/namespaces/inkscape"
   width="160"
   height="160"
   viewBox="0 0 160 160"
   id="svg4268"
   version="1.1"
   inkscape:version="0.91 r13725"
   sodipodi:docname="box__present_a_box.svg"
   inkscape:export-filename="C:\workdir\dir\ScenographyAssets\box\box__present_a_box.png"
   inkscape:export-xdpi="288"
   inkscape:export-ydpi="288">
  <defs
     id="defs4270" />
  <sodipodi:namedview
     id="base"
     pagecolor="#ffffff"
     bordercolor="#666666"
     borderopacity="1.0"
     inkscape:pageopacity="0.0"
     inkscape:pageshadow="2"
     inkscape:zoom="2.1125"
     inkscape:cx="-57.804947"
     inkscape:cy="134.92378"
     inkscape:document-units="px"
     inkscape:current-layer="layer1"
     showgrid="false"
     units="px"
     inkscape:window-width="1538"
     inkscape:window-height="877"
     inkscape:window-x="-8"
     inkscape:window-y="1192"
     inkscape:window-maximized="1" />
  <metadata
     id="metadata4273">
    <rdf:RDF>
      <cc:Work
         rdf:about="">
        <dc:format>image/svg+xml</dc:format>
        <dc:type
           rdf:resource="http://purl.org/dc/dcmitype/StillImage" />
        <dc:title></dc:title>
      </cc:Work>
    </rdf:RDF>
  </metadata>
  <g
     inkscape:label="レイヤー 1"
     inkscape:groupmode="layer"
     id="layer1"
     transform="translate(0,-892.36216)">
    <g
       id="g4876"
       transform="translate(-13.597632,-38.710049)">
      <path
         sodipodi:nodetypes="czczczczc"
         inkscape:connector-curvature="0"
         id="path6240"
         d="m 31.405372,956.27762 c 0,0 4.42997,10.21365 4.29315,24.49619 -0.13683,14.28255 -5.42957,25.50639 -5.42957,25.50639 0,0 5.7398,6.3379 10.101531,12.8794 4.36173,6.5415 7.3236,17.1726 7.3236,17.1726 0,0 8.28835,-12.7973 12.37437,-24.6225 4.08602,-11.82507 6.31346,-23.23347 6.31346,-23.23347 0,0 -6.12494,-8.61487 -15.65737,-18.18275 -9.53243,-9.56788 -19.319171,-14.01586 -19.319171,-14.01586 z"
         style="display:inline;fill:none;fill-rule:evenodd;stroke:#000000;stroke-width:1px;stroke-linecap:round;stroke-linejoin:round;stroke-opacity:1" />
      <path
         sodipodi:nodetypes="czczczc"
         inkscape:connector-curvature="0"
         id="path6242"
         d="m 31.924092,956.51322 c 0.53571,0 16.812261,4.52724 28.839281,4.28572 12.02702,-0.24152 18.92858,-0.98214 18.92858,-0.98214 0,0 10.17551,8.03705 19.19642,14.10714 9.020907,6.07009 24.285717,15.17857 24.285717,15.17857 0,0 -15.4759,-3.35827 -30.357137,-3.92857 -14.88124,-0.5703 -26.33929,3.21428 -26.33929,3.21428"
         style="display:inline;fill:none;fill-rule:evenodd;stroke:#000000;stroke-width:1px;stroke-linecap:round;stroke-linejoin:round;stroke-opacity:1" />
      <path
         sodipodi:nodetypes="czcc"
         inkscape:connector-curvature="0"
         id="path4216"
         d="m 48.072893,1036.0797 c 0,0 6.98356,-4.8867 20.96067,-6.6923 13.97711,-1.8056 19.82424,0.8839 19.82424,0.8839 l 7.57615,-11.1117"
         style="display:inline;fill:none;fill-rule:evenodd;stroke:#000000;stroke-width:1px;stroke-linecap:round;stroke-linejoin:round;stroke-opacity:1" />
      <path
         sodipodi:nodetypes="czc"
         inkscape:connector-curvature="0"
         id="path4218"
         d="m 122.95045,989.48638 c 0,0 -4.08236,2.82177 -7.19734,5.55584 -3.11498,2.73407 -5.80838,6.31348 -5.80838,6.31348"
         style="display:inline;fill:none;fill-rule:evenodd;stroke:#000000;stroke-width:1px;stroke-linecap:round;stroke-linejoin:round;stroke-opacity:1" />
      <path
         sodipodi:nodetypes="ssssssss"
         inkscape:connector-curvature="0"
         id="path4220"
         d="m 78.377473,998.19894 c 3.99953,-4.1045 6.29486,-1.94621 9.34391,-0.88388 2.22669,0.77581 2.94141,1.18753 4.41941,1.38896 2.7528,0.37516 4.55731,-0.62666 7.32361,-0.63135 2.039927,-0.003 15.142417,4.44003 16.414977,9.09143 1.2265,4.483 -6.91622,12.9216 -11.61675,13.0057 -5.539407,0.099 -11.954517,-2.5828 -16.920057,-5.9347 -4.92657,-3.3255 -13.23898,-11.6501 -8.9651,-16.03616 z"
         style="display:inline;fill:none;fill-rule:evenodd;stroke:#000000;stroke-width:1px;stroke-linecap:round;stroke-linejoin:round;stroke-opacity:1" />
      <ellipse
         ry="1.8309015"
         rx="1.767767"
         cy="975.40741"
         cx="117.52087"
         id="path4222"
         style="display:inline;fill:none;fill-opacity:1;stroke:#000000;stroke-width:1;stroke-linecap:round;stroke-linejoin:round;stroke-miterlimit:4;stroke-dasharray:none;stroke-opacity:1" />
      <ellipse
         ry="1.9571706"
         rx="1.8940361"
         cy="981.08954"
         cx="128.38004"
         id="path4224"
         style="display:inline;fill:none;fill-opacity:1;stroke:#000000;stroke-width:1;stroke-linecap:round;stroke-linejoin:round;stroke-miterlimit:4;stroke-dasharray:none;stroke-opacity:1" />
      <path
         sodipodi:nodetypes="czzzzzc"
         inkscape:connector-curvature="0"
         id="path4226"
         d="m 111.45997,981.53143 c 0,0 1.35304,-5.67574 3.6618,-7.95495 2.30875,-2.27921 4.42639,-4.56254 10.10153,-4.16688 5.67513,0.39566 18.11975,6.10288 19.82424,11.86929 1.70449,5.76641 -1.5857,13.09224 -5.3033,14.64721 -3.7176,1.55497 -8.14962,1.23721 -11.74303,0.63134 -3.59341,-0.60586 -9.09137,-3.6618 -9.09137,-3.6618"
         style="display:inline;fill:none;fill-rule:evenodd;stroke:#000000;stroke-width:1px;stroke-linecap:round;stroke-linejoin:round;stroke-opacity:1" />
      <path
         sodipodi:nodetypes="czzzzc"
         inkscape:connector-curvature="0"
         id="path4228"
         d="m 94.287373,1022.5689 c 0,0 -1.6779,3.0621 1.6415,7.1973 3.3194,4.1353 25.329317,13.7912 35.481607,12.3744 10.15229,-1.4168 16.60536,-6.9168 19.5717,-13.7633 2.96634,-6.8466 2.32885,-23.0663 -0.50507,-28.91567 -2.83392,-5.84932 -6.81853,-6.69226 -6.81853,-6.69226"
         style="display:inline;fill:none;fill-rule:evenodd;stroke:#000000;stroke-width:1px;stroke-linecap:round;stroke-linejoin:round;stroke-opacity:1" />
      <path
         sodipodi:nodetypes="csssc"
         inkscape:connector-curvature="0"
         id="path4230"
         d="m 114.49042,1004.5124 c 0,0 13.67749,2.7275 22.09709,2.2728 1.56411,-0.085 3.05375,1.4692 3.91434,2.778 1.4456,2.1985 1.74909,6.1208 0.25254,7.1973 -6.09438,4.3837 -31.94608,2.1466 -31.94608,2.1466"
         style="display:inline;fill:none;fill-rule:evenodd;stroke:#000000;stroke-width:1px;stroke-linecap:round;stroke-linejoin:round;stroke-opacity:1" />
      <path
         sodipodi:nodetypes="czccccc"
         inkscape:connector-curvature="0"
         id="path4232"
         d="m 85.069733,1029.5137 c 0,0 0.0672,1.5116 2.0203,5.4295 1.95307,3.918 11.23795,17.0464 11.23795,17.0464 l 7.197337,1.1364 7.32361,-5.4296 -7.95496,-9.0913 4.16688,-0.8839"
         style="display:inline;fill:none;fill-rule:evenodd;stroke:#000000;stroke-width:1px;stroke-linecap:round;stroke-linejoin:round;stroke-opacity:1" />
      <path
         sodipodi:nodetypes="czccccc"
         inkscape:connector-curvature="0"
         id="path4234"
         d="m 118.15223,1040.8779 c 0,0 -3.21792,9.5289 -4.04061,13.0057 -0.82269,3.4768 -1.26269,7.7024 -1.26269,7.7024 l 10.35406,6.3135 17.04632,-8.5863 -2.77792,-12.1219 -3.6618,0.5051"
         style="display:inline;fill:none;fill-rule:evenodd;stroke:#000000;stroke-width:1px;stroke-linecap:round;stroke-linejoin:round;stroke-opacity:1" />
      <path
         inkscape:connector-curvature="0"
         id="path4236"
         d="m 136.84005,1041.1304 -6.06092,12.8795"
         style="display:inline;fill:none;fill-rule:evenodd;stroke:#000000;stroke-width:1px;stroke-linecap:round;stroke-linejoin:round;stroke-opacity:1" />
      <path
         sodipodi:nodetypes="czzzc"
         inkscape:connector-curvature="0"
         id="path4238"
         d="m 140.43872,1039.6783 c 0,0 2.10774,-0.6196 2.77792,0.5682 0.67018,1.1879 8.249,20.6624 7.57614,23.1704 -0.67286,2.5081 -11.60637,7.0002 -13.76333,6.3766 -2.15696,-0.6236 -4.35628,-6.3135 -4.35628,-6.3135"
         style="display:inline;fill:none;fill-rule:evenodd;stroke:#000000;stroke-width:1px;stroke-linecap:round;stroke-linejoin:round;stroke-opacity:1" />
      <path
         inkscape:connector-curvature="0"
         id="path4240"
         d="m 108.17697,1042.2669 2.84105,-1.4521 6.31346,1.6415"
         style="display:inline;fill:none;fill-rule:evenodd;stroke:#000000;stroke-width:1px;stroke-linecap:round;stroke-linejoin:round;stroke-opacity:1" />
      <path
         sodipodi:nodetypes="czzc"
         inkscape:connector-curvature="0"
         id="path4242"
         d="m 96.875893,1050.79 c 0,0 -10.86654,5.8987 -10.03839,7.3236 0.82815,1.425 13.171937,3.7756 15.278547,3.4093 2.10661,-0.3664 12.12183,-8.9651 12.12183,-8.9651"
         style="display:inline;fill:none;fill-rule:evenodd;stroke:#000000;stroke-width:1px;stroke-linecap:round;stroke-linejoin:round;stroke-opacity:1" />
    </g>
  </g>
</svg>
