<?xml version="1.0" encoding="UTF-8" standalone="no"?>
<!-- Created with Inkscape (http://www.inkscape.org/) -->

<svg
   xmlns:dc="http://purl.org/dc/elements/1.1/"
   xmlns:cc="http://creativecommons.org/ns#"
   xmlns:rdf="http://www.w3.org/1999/02/22-rdf-syntax-ns#"
   xmlns:svg="http://www.w3.org/2000/svg"
   xmlns="http://www.w3.org/2000/svg"
   xmlns:sodipodi="http://sodipodi.sourceforge.net/DTD/sodipodi-0.dtd"
   xmlns:inkscape="http://www.inkscape.org/namespaces/inkscape"
   width="160"
   height="160"
   viewBox="0 0 160 160"
   id="svg4893"
   version="1.1"
   inkscape:version="0.91 r13725"
   sodipodi:docname="box__pick_up_low.svg"
   inkscape:export-filename="C:\workdir\dir\ScenographyAssets\box\box__pick_up_low.png"
   inkscape:export-xdpi="288"
   inkscape:export-ydpi="288">
  <defs
     id="defs4895" />
  <sodipodi:namedview
     id="base"
     pagecolor="#ffffff"
     bordercolor="#666666"
     borderopacity="1.0"
     inkscape:pageopacity="0.0"
     inkscape:pageshadow="2"
     inkscape:zoom="2.9875262"
     inkscape:cx="2.6972189"
     inkscape:cy="93.235226"
     inkscape:document-units="px"
     inkscape:current-layer="layer1"
     showgrid="false"
     units="px"
     inkscape:window-width="1538"
     inkscape:window-height="877"
     inkscape:window-x="-8"
     inkscape:window-y="1192"
     inkscape:window-maximized="1" />
  <metadata
     id="metadata4898">
    <rdf:RDF>
      <cc:Work
         rdf:about="">
        <dc:format>image/svg+xml</dc:format>
        <dc:type
           rdf:resource="http://purl.org/dc/dcmitype/StillImage" />
        <dc:title></dc:title>
      </cc:Work>
    </rdf:RDF>
  </metadata>
  <g
     inkscape:label="レイヤー 1"
     inkscape:groupmode="layer"
     id="layer1"
     transform="translate(0,-892.36216)">
    <g
       id="g5475"
       transform="translate(1.2071032,8.6272107)">
      <path
         sodipodi:nodetypes="czczcczc"
         inkscape:connector-curvature="0"
         id="path4827"
         d="m 25.918904,973.19065 c 0,0 9.876591,7.44875 14.695161,16.92096 4.81857,9.4722 7.41706,19.11989 7.41706,19.11989 0,0 10.81984,-0.9705 18.46682,0.7142 7.64698,1.6848 17.99239,6.8164 17.99239,6.8164 l -3.65436,-40.10462 c 0,0 -9.60689,-2.4038 -27.41707,-4.71683 -17.81018,-2.31303 -27.500001,1.25 -27.500001,1.25 z"
         style="display:inline;fill:none;fill-rule:evenodd;stroke:#000000;stroke-width:1px;stroke-linecap:round;stroke-linejoin:round;stroke-opacity:1" />
      <path
         sodipodi:nodetypes="czczczc"
         inkscape:connector-curvature="0"
         id="path4829"
         d="m 26.313394,973.15897 c 0,0 10.300921,-6.94583 17.046331,-13.76333 6.7454,-6.8175 10.10152,-13.00572 10.10152,-13.00572 0,0 10.71261,1.29592 22.60216,1.01016 11.88954,-0.28576 25.001275,-2.90419 25.001275,-2.90419 0,0 -7.073335,7.85724 -11.869295,15.02602 -4.79596,7.16878 -8.46002,17.17259 -8.46002,17.17259"
         style="display:inline;fill:none;fill-rule:evenodd;stroke:#000000;stroke-width:1px;stroke-linecap:round;stroke-linejoin:round;stroke-opacity:1" />
      <path
         sodipodi:nodetypes="sssssss"
         inkscape:connector-curvature="0"
         id="path4172-9"
         d="m 88.846995,984.46933 c -4.45474,-4.50115 4.60565,-8.60099 5.05076,-11.74302 0.39385,-2.78025 0.95911,-4.9409 1.6415,-6.06092 2.846,-4.67117 11.413805,-11.71957 15.152285,-10.98541 4.3269,0.84971 6.21464,6.6666 5.93464,10.98541 -0.40395,6.23089 -4.89349,10.07801 -9.21764,13.63706 -6.31627,5.19869 -15.010465,7.75497 -18.561545,4.16688 z"
         style="display:inline;fill:none;fill-rule:evenodd;stroke:#000000;stroke-width:1px;stroke-linecap:round;stroke-linejoin:round;stroke-opacity:1" />
      <path
         inkscape:connector-curvature="0"
         id="path4846"
         d="m 101.44348,944.74843 c 0,0 -1.26269,5.80837 -1.38896,8.58629 -0.126265,2.77792 0.12627,7.57615 0.12627,7.57615"
         style="display:inline;fill:none;fill-rule:evenodd;stroke:#000000;stroke-width:1px;stroke-linecap:round;stroke-linejoin:round;stroke-opacity:1" />
      <path
         sodipodi:nodetypes="cczc"
         inkscape:connector-curvature="0"
         id="path4848"
         d="m 100.43333,984.90199 0.75762,5.93465 c 0,0 -6.035365,5.39761 -9.848995,11.11166 -3.81362,5.7141 -6.81852,14.2684 -6.81852,14.2684"
         style="display:inline;fill:none;fill-rule:evenodd;stroke:#000000;stroke-width:1px;stroke-linecap:round;stroke-linejoin:round;stroke-opacity:1" />
      <path
         inkscape:connector-curvature="0"
         id="path4850"
         d="m 101.19095,988.69006 5.3033,0.75762 7.82868,-7.57615 c 0,0 -1.01015,-0.37881 -1.26269,-0.88388 -0.25254,-0.50508 -1.01015,-4.41942 -1.01015,-4.41942"
         style="display:inline;fill:none;fill-rule:evenodd;stroke:#000000;stroke-width:1px;stroke-linecap:round;stroke-linejoin:round;stroke-opacity:1" />
      <path
         sodipodi:nodetypes="csscc"
         inkscape:connector-curvature="0"
         id="path4852"
         d="m 93.867345,999.04412 c 0,0 2.94215,1.79518 7.071065,1.51528 3.91333,-0.2654 20.45559,-16.41503 20.45559,-19.19295 0,-2.77791 -4.04061,-3.78807 -4.04061,-3.78807 l -4.79823,-0.63134"
         style="display:inline;fill:none;fill-rule:evenodd;stroke:#000000;stroke-width:1px;stroke-linecap:round;stroke-linejoin:round;stroke-opacity:1" />
      <path
         sodipodi:nodetypes="csc"
         inkscape:connector-curvature="0"
         id="path4854"
         d="m 51.633195,948.72637 c 0,-1.42857 -2.16396,-4.56992 1.25,-10.17857 2.5,-4.10714 5.53571,-5.17858 5.53571,-5.17858"
         style="display:inline;fill:none;fill-rule:evenodd;stroke:#000000;stroke-width:1px;stroke-linecap:round;stroke-linejoin:round;stroke-opacity:1" />
      <path
         inkscape:connector-curvature="0"
         id="path4856"
         d="m 60.472475,946.58351 0.26786,-6.60714"
         style="display:inline;fill:none;fill-rule:evenodd;stroke:#000000;stroke-width:1px;stroke-linecap:round;stroke-linejoin:round;stroke-opacity:1" />
      <path
         sodipodi:nodetypes="czzzzc"
         inkscape:connector-curvature="0"
         id="path4858"
         d="m 107.52604,955.77994 c 0,0 3.04032,-5.97799 2.58929,-11.875 -0.45103,-5.89701 -4.357,-10.60997 -3.75,-11.96429 0.607,-1.35432 2.42472,-3.33715 3.92857,-3.03571 1.50385,0.30144 7.38007,6.53805 8.30357,13.92857 0.9235,7.39052 -2.14285,19.73214 -2.14285,19.73214"
         style="display:inline;fill:none;fill-rule:evenodd;stroke:#000000;stroke-width:1px;stroke-linecap:round;stroke-linejoin:round;stroke-opacity:1" />
      <path
         inkscape:connector-curvature="0"
         id="path4860"
         d="m 121.89907,948.47336 1.76777,8.52316 -6.62913,8.52317"
         style="display:inline;fill:none;fill-rule:evenodd;stroke:#000000;stroke-width:1px;stroke-linecap:round;stroke-linejoin:round;stroke-opacity:1" />
      <path
         sodipodi:nodetypes="csssc"
         inkscape:connector-curvature="0"
         id="path4862"
         d="m 89.579625,915.77994 c 0,0 6.45119,-1.0204 9.46428,0.625 5.487305,2.99651 13.180925,11.04728 20.357135,18.75 1.3877,1.48952 2.82124,7.48213 2.67858,11.16071 -0.27711,7.14555 -4.46429,13.21429 -4.46429,13.21429"
         style="display:inline;fill:none;fill-rule:evenodd;stroke:#000000;stroke-width:1px;stroke-linecap:round;stroke-linejoin:round;stroke-opacity:1" />
      <path
         sodipodi:nodetypes="ssssssss"
         inkscape:connector-curvature="0"
         id="path4864"
         d="m 58.508195,933.27994 c 0.23865,-6.25932 3.79535,-13.01466 5.53571,-14.46429 3.16934,-2.6399 9.63038,-4.14356 14.55357,-4.10714 4.51133,0.0334 9.87519,0.17436 13.125,3.30357 2.90368,2.79593 3.71964,7.58946 3.39286,11.60714 -0.31836,3.91407 -2.47513,8.42222 -5.08929,10.625 -4.93631,4.15949 -22.78483,4.35225 -24.82142,2.76786 -3.10804,-2.41793 -6.84646,-5.79719 -6.69643,-9.73214 z"
         style="display:inline;fill:none;fill-rule:evenodd;stroke:#000000;stroke-width:1px;stroke-linecap:round;stroke-linejoin:round;stroke-opacity:1" />
      <ellipse
         ry="1.6071428"
         rx="1.6517857"
         cy="940.8692"
         cx="66.856392"
         id="path4866"
         style="display:inline;fill:none;fill-opacity:1;stroke:#000000;stroke-width:1;stroke-linecap:round;stroke-linejoin:round;stroke-miterlimit:4;stroke-dasharray:none;stroke-opacity:1" />
      <ellipse
         ry="1.9196428"
         rx="1.9642857"
         cy="939.66382"
         cx="80.204628"
         id="path4868"
         style="display:inline;fill:none;fill-opacity:1;stroke:#000000;stroke-width:1;stroke-linecap:round;stroke-linejoin:round;stroke-miterlimit:4;stroke-dasharray:none;stroke-opacity:1" />
    </g>
  </g>
</svg>
