<?xml version="1.0" encoding="UTF-8" standalone="no"?>
<!-- Created with Inkscape (http://www.inkscape.org/) -->

<svg
   xmlns:dc="http://purl.org/dc/elements/1.1/"
   xmlns:cc="http://creativecommons.org/ns#"
   xmlns:rdf="http://www.w3.org/1999/02/22-rdf-syntax-ns#"
   xmlns:svg="http://www.w3.org/2000/svg"
   xmlns="http://www.w3.org/2000/svg"
   xmlns:sodipodi="http://sodipodi.sourceforge.net/DTD/sodipodi-0.dtd"
   xmlns:inkscape="http://www.inkscape.org/namespaces/inkscape"
   width="160"
   height="160"
   viewBox="0 0 160 160"
   id="svg5696"
   version="1.1"
   inkscape:version="0.91 r13725"
   sodipodi:docname="box__throw_a_box.svg"
   inkscape:export-filename="C:\workdir\dir\ScenographyAssets\box\box__throw_a_box.png"
   inkscape:export-xdpi="288"
   inkscape:export-ydpi="288">
  <defs
     id="defs5698" />
  <sodipodi:namedview
     id="base"
     pagecolor="#ffffff"
     bordercolor="#666666"
     borderopacity="1.0"
     inkscape:pageopacity="0.0"
     inkscape:pageshadow="2"
     inkscape:zoom="1.4937631"
     inkscape:cx="-70.013088"
     inkscape:cy="136.82677"
     inkscape:document-units="px"
     inkscape:current-layer="layer1"
     showgrid="false"
     units="px"
     inkscape:window-width="1538"
     inkscape:window-height="877"
     inkscape:window-x="-8"
     inkscape:window-y="1192"
     inkscape:window-maximized="1" />
  <metadata
     id="metadata5701">
    <rdf:RDF>
      <cc:Work
         rdf:about="">
        <dc:format>image/svg+xml</dc:format>
        <dc:type
           rdf:resource="http://purl.org/dc/dcmitype/StillImage" />
        <dc:title></dc:title>
      </cc:Work>
    </rdf:RDF>
  </metadata>
  <g
     inkscape:label="レイヤー 1"
     inkscape:groupmode="layer"
     id="layer1"
     transform="translate(0,-892.36216)">
    <g
       id="g6290"
       transform="translate(-15.775149,-14.568069)">
      <circle
         r="2.0834396"
         cy="938.78522"
         cx="62.759647"
         id="path5606"
         style="display:inline;fill:none;fill-opacity:1;stroke:#000000;stroke-width:1;stroke-linecap:round;stroke-linejoin:round;stroke-miterlimit:4;stroke-dasharray:none;stroke-opacity:1" />
      <circle
         r="2.0834396"
         cy="938.78522"
         cx="76.964905"
         id="path5606-4"
         style="display:inline;fill:none;fill-opacity:1;stroke:#000000;stroke-width:1;stroke-linecap:round;stroke-linejoin:round;stroke-miterlimit:4;stroke-dasharray:none;stroke-opacity:1" />
      <path
         sodipodi:nodetypes="zzzzz"
         inkscape:connector-curvature="0"
         id="path5623"
         d="m 58.719034,926.60025 c -3.483523,3.44155 -3.651688,16.25201 0.06314,19.06663 3.714828,2.81462 19.500218,3.4822 23.359778,-0.88389 3.85956,-4.36609 3.27306,-15.35931 -0.25253,-18.49842 -3.52559,-3.13911 -19.686865,-3.12587 -23.170388,0.31568 z"
         style="display:inline;fill:none;fill-rule:evenodd;stroke:#000000;stroke-width:1px;stroke-linecap:round;stroke-linejoin:round;stroke-opacity:1" />
      <path
         sodipodi:nodetypes="czzzzzzc"
         inkscape:connector-curvature="0"
         id="path5625"
         d="m 83.388382,943.76506 c 0,0 4.30239,0.51859 7.5,3.39286 3.19761,2.87427 4.22245,14.58679 4.375,22.23214 0.15255,7.64535 -0.56669,18.95461 -3.57143,22.94643 -3.00474,3.99182 -16.238528,4.27241 -24.285711,4.19643 -8.047183,-0.076 -19.534377,-1.16381 -23.214286,-4.46429 -3.679909,-3.30048 -4.440688,-10.52783 -5.089285,-15.53571 -0.648597,-5.00788 0.535714,-13.83929 0.535714,-13.83929"
         style="display:inline;fill:none;fill-rule:evenodd;stroke:#000000;stroke-width:1px;stroke-linecap:round;stroke-linejoin:round;stroke-opacity:1" />
      <path
         sodipodi:nodetypes="czc"
         inkscape:connector-curvature="0"
         id="path5627"
         d="m 56.647313,943.27399 c 0,0 -3.556731,0.27335 -5.848215,1.24999 -2.291483,0.97664 -3.348214,3.08037 -3.348214,3.08037"
         style="display:inline;fill:none;fill-rule:evenodd;stroke:#000000;stroke-width:1px;stroke-linecap:round;stroke-linejoin:round;stroke-opacity:1" />
      <path
         sodipodi:nodetypes="czzzzc"
         inkscape:connector-curvature="0"
         id="path5629"
         d="m 47.701128,981.69952 c 0,0 -10.570125,-24.61492 -10.195297,-27.00441 0.374828,-2.38949 3.479834,-8.20425 4.73509,-8.39689 1.255256,-0.19264 3.853099,0.61928 4.924493,1.32583 1.071394,0.70655 2.802589,9.54357 5.366435,13.8896 2.563847,4.34603 6.439723,9.59644 6.439723,9.59644"
         style="display:inline;fill:none;fill-rule:evenodd;stroke:#000000;stroke-width:1px;stroke-linecap:round;stroke-linejoin:round;stroke-opacity:1" />
      <path
         sodipodi:nodetypes="zzzczzz"
         inkscape:connector-curvature="0"
         id="path5631"
         d="m 52.405581,971.6783 c -4.237785,2.10377 -5.810773,13.04301 -3.724938,15.59423 2.085835,2.55123 11.520814,6.63776 18.435284,7.32361 6.91447,0.68584 20.761005,1.11932 21.844555,-6.69226 0.34772,-9.69743 -12.914627,-7.80856 -16.47812,-9.65958 -3.563492,-1.85102 -2.051136,-2.41256 -5.177031,-4.04061 -3.125895,-1.62805 -10.661965,-4.62916 -14.89975,-2.52539 z"
         style="display:inline;fill:none;fill-rule:evenodd;stroke:#000000;stroke-width:1px;stroke-linecap:round;stroke-linejoin:round;stroke-opacity:1" />
      <path
         sodipodi:nodetypes="zzzzzz"
         inkscape:connector-curvature="0"
         id="path5633"
         d="m 108.65845,960.75603 c -2.05957,0.82867 -5.40333,12.19551 -4.10375,14.079 1.29958,1.88349 9.01001,5.0154 12.43751,6.25032 3.4275,1.23491 15.40038,6.27015 18.37215,-1.32583 2.97177,-7.59598 -7.14536,-11.88963 -13.00572,-14.14213 -5.86036,-2.2525 -11.64062,-5.69003 -13.70019,-4.86136 z"
         style="display:inline;fill:none;fill-rule:evenodd;stroke:#000000;stroke-width:1px;stroke-linecap:round;stroke-linejoin:round;stroke-opacity:1" />
      <path
         sodipodi:nodetypes="cc"
         inkscape:connector-curvature="0"
         id="path5635"
         d="m 95.313442,965.8119 8.610658,7.0603"
         style="display:inline;fill:none;fill-rule:evenodd;stroke:#000000;stroke-width:1px;stroke-linecap:round;stroke-linejoin:miter;stroke-opacity:1" />
      <path
         inkscape:connector-curvature="0"
         id="path5637"
         d="m 92.763382,949.61327 16.205358,10.84822"
         style="display:inline;fill:none;fill-rule:evenodd;stroke:#000000;stroke-width:1px;stroke-linecap:round;stroke-linejoin:miter;stroke-opacity:1" />
      <path
         sodipodi:nodetypes="czccczc"
         inkscape:connector-curvature="0"
         id="path5639"
         d="m 48.428105,994.65927 c 0,0 -0.790994,12.99663 -0.441942,22.47593 0.349052,9.4793 1.767767,22.2234 1.767767,22.2234 l 4.861359,0.2525 5.240167,-4.3563 c 0,0 -0.627925,-10.8727 0.69448,-20.7081 1.322405,-9.8355 3.598668,-17.74085 3.598668,-17.74085"
         style="display:inline;fill:none;fill-rule:evenodd;stroke:#000000;stroke-width:1px;stroke-linecap:round;stroke-linejoin:round;stroke-opacity:1" />
      <path
         sodipodi:nodetypes="czccczc"
         inkscape:connector-curvature="0"
         id="path5641"
         d="m 69.641309,996.86898 c 0,0 2.532094,9.47302 3.472399,18.62472 0.940305,9.1516 0.568211,19.8874 0.568211,19.8874 l 3.788073,4.2932 6.25032,-0.5683 c 0,0 1.13819,-11.6163 2.14657,-22.539 1.00838,-10.9228 1.6415,-21.40265 1.6415,-21.40265"
         style="display:inline;fill:none;fill-rule:evenodd;stroke:#000000;stroke-width:1px;stroke-linecap:round;stroke-linejoin:round;stroke-opacity:1" />
      <path
         sodipodi:nodetypes="czzzc"
         inkscape:connector-curvature="0"
         id="path5643"
         d="m 49.185719,1035.9493 c 0,0 -14.432033,8.9439 -13.573924,10.6066 0.858108,1.6628 17.678689,2.1767 19.508571,1.2627 1.829882,-0.914 13.24174,-14.2311 12.500638,-15.5311 -0.741102,-1.3 -7.639279,-0.947 -7.639279,-0.947"
         style="display:inline;fill:none;fill-rule:evenodd;stroke:#000000;stroke-width:1px;stroke-linecap:round;stroke-linejoin:round;stroke-opacity:1" />
      <path
         sodipodi:nodetypes="czzzc"
         inkscape:connector-curvature="0"
         id="path5645"
         d="m 73.366246,1030.7722 c 0,0 -4.834389,0.6015 -5.618973,1.9573 -0.784584,1.3558 6.299565,13.7035 8.270624,14.7734 1.971055,1.07 18.045655,-0.1565 18.750955,-2.2097 0.7053,-2.0531 -10.22779,-12.3112 -10.22779,-12.3112"
         style="display:inline;fill:none;fill-rule:evenodd;stroke:#000000;stroke-width:1px;stroke-linecap:round;stroke-linejoin:round;stroke-opacity:1" />
      <path
         sodipodi:nodetypes="czc"
         inkscape:connector-curvature="0"
         id="path5647"
         d="m 93.745532,989.65792 c 0,0 6.345748,3.65574 11.428568,8.39286 5.08282,4.73712 9.28571,10.80362 9.28571,10.80362"
         style="display:inline;fill:none;fill-rule:evenodd;stroke:#000000;stroke-width:1px;stroke-linecap:round;stroke-linejoin:round;stroke-opacity:1" />
      <path
         sodipodi:nodetypes="czc"
         inkscape:connector-curvature="0"
         id="path5649"
         d="m 102.40624,988.76506 c 0,0 10.49181,5.73882 16.96429,13.66074 6.47248,7.9219 11.51785,16.25 11.51785,16.25"
         style="display:inline;fill:none;fill-rule:evenodd;stroke:#000000;stroke-width:1px;stroke-linecap:round;stroke-linejoin:round;stroke-opacity:1" />
      <path
         sodipodi:nodetypes="czczc"
         inkscape:connector-curvature="0"
         id="path5651"
         d="m 145.28505,1044.1637 c 0,0 1.29927,3.2467 2.21048,5.9407 0.91121,2.694 1.69642,6.1499 1.69642,6.1499 0,0 2.95343,-5.4115 7.58929,-8.5606 4.63586,-3.1491 11.18687,-5.7251 11.18687,-5.7251"
         style="display:inline;fill:none;fill-rule:evenodd;stroke:#000000;stroke-width:1px;stroke-linecap:round;stroke-linejoin:round;stroke-opacity:1" />
      <path
         inkscape:connector-curvature="0"
         id="path5653"
         d="m 136.37451,1045.7983 2.77792,4.3563"
         style="display:inline;fill:none;fill-rule:evenodd;stroke:#000000;stroke-width:1px;stroke-linecap:round;stroke-linejoin:miter;stroke-opacity:1" />
      <path
         sodipodi:nodetypes="czczczczczczc"
         inkscape:connector-curvature="0"
         id="path5655"
         d="m 121.20088,1019.0329 c 0,0 0.43808,5.9991 0.0446,8.9286 -0.39348,2.9295 -2.36608,8.4822 -2.36608,8.4822 0,0 2.18829,1.2659 3.52679,3.6607 1.3385,2.3948 2.36607,8.125 2.36607,8.125 0,0 5.61024,-2.0879 10.22322,-2.9464 4.61298,-0.8586 9.50892,-0.6697 9.50892,-0.6697 0,0 2.08864,-3.9281 4.375,-6.7857 2.28636,-2.8575 5.80358,-6.0268 5.80358,-6.0268 0.006,0.051 -5.00777,-2.9784 -6.83036,-6.5179 -1.82259,-3.5394 -3.30357,-9.3303 -3.30357,-9.3303 0,0 -5.8642,2.1711 -10.58036,2.7678 -4.71616,0.5967 -12.76781,0.3125 -12.76781,0.3125 z"
         style="display:inline;fill:none;fill-rule:evenodd;stroke:#000000;stroke-width:1px;stroke-linecap:round;stroke-linejoin:round;stroke-opacity:1" />
      <path
         sodipodi:nodetypes="czczc"
         inkscape:connector-curvature="0"
         id="path5657"
         d="m 121.66416,1019.2817 c 0,0 3.30881,1.1467 7.89182,6.3766 4.58301,5.2299 4.10375,9.5334 4.10375,9.5334 0,0 4.52592,-2.0941 9.47018,-2.8411 4.94425,-0.7469 11.04854,-0.505 11.04854,-0.505"
         style="display:inline;fill:none;fill-rule:evenodd;stroke:#000000;stroke-width:1px;stroke-linecap:round;stroke-linejoin:round;stroke-opacity:1" />
      <path
         sodipodi:nodetypes="czc"
         inkscape:connector-curvature="0"
         id="path5659"
         d="m 124.82089,1047.8817 c 0,0 1.86663,-4.2018 4.04061,-7.1973 2.17398,-2.9955 4.73509,-5.4927 4.73509,-5.4927"
         style="display:inline;fill:none;fill-rule:evenodd;stroke:#000000;stroke-width:1px;stroke-linecap:round;stroke-linejoin:round;stroke-opacity:1" />
    </g>
  </g>
</svg>
