<?xml version="1.0" encoding="UTF-8" standalone="no"?>
<!-- Generator: Adobe Illustrator 18.0.0, SVG Export Plug-In . SVG Version: 6.00 Build 0)  -->

<svg
   xmlns:dc="http://purl.org/dc/elements/1.1/"
   xmlns:cc="http://creativecommons.org/ns#"
   xmlns:rdf="http://www.w3.org/1999/02/22-rdf-syntax-ns#"
   xmlns:svg="http://www.w3.org/2000/svg"
   xmlns="http://www.w3.org/2000/svg"
   xmlns:sodipodi="http://sodipodi.sourceforge.net/DTD/sodipodi-0.dtd"
   xmlns:inkscape="http://www.inkscape.org/namespaces/inkscape"
   version="1.1"
   id="レイヤー_1"
   x="0px"
   y="0px"
   viewBox="0 0 160 160"
   enable-background="new 0 0 160 160"
   xml:space="preserve"
   inkscape:version="0.91 r13725"
   sodipodi:docname="nomal__propose.svg"><metadata
     id="metadata41"><rdf:RDF><cc:Work
         rdf:about=""><dc:format>image/svg+xml</dc:format><dc:type
           rdf:resource="http://purl.org/dc/dcmitype/StillImage" /><dc:title></dc:title></cc:Work></rdf:RDF></metadata><defs
     id="defs39" /><sodipodi:namedview
     pagecolor="#ffffff"
     bordercolor="#666666"
     borderopacity="1"
     objecttolerance="10"
     gridtolerance="10"
     guidetolerance="10"
     inkscape:pageopacity="0"
     inkscape:pageshadow="2"
     inkscape:window-width="1600"
     inkscape:window-height="1177"
     id="namedview37"
     showgrid="false"
     inkscape:zoom="1.475"
     inkscape:cx="-30.847458"
     inkscape:cy="80"
     inkscape:window-x="-8"
     inkscape:window-y="-8"
     inkscape:window-maximized="1"
     inkscape:current-layer="レイヤー_1" /><path
     fill="none"
     stroke="#000000"
     stroke-miterlimit="10"
     d="M119.5,68.9c3-2.3,10.7-3.8,17.6-3.3s14.7,3.5,16.6,7.7  c2,4.2-2.9,7.8-7.5,8.5c-4.6,0.7-9.1,0.9-14.4,1.5c-6.5,0.7-11.4-0.4-14.4-4.4C114.5,74.9,117.6,70.3,119.5,68.9z"
     id="path3"
     style="stroke-linejoin:round;stroke-linecap:round" /><path
     fill="none"
     stroke="#000000"
     stroke-miterlimit="10"
     d="M36.2,71c2.7-0.3,8.5-4.2,8.5-8.8s-2.6-7.5-15-9.1  C17.3,51.4,6.6,50.8,6.8,57c0.3,7.4,5.9,7.5,8.2,8.5S26.1,72.3,36.2,71z"
     id="path5"
     style="stroke-linejoin:round;stroke-linecap:round" /><path
     fill="none"
     stroke="#000000"
     stroke-miterlimit="10"
     d="M119.6,81.1c-2-1.2-20.5,8.5-20.5,8.5l-4.6-2.3v-7  c0,0,18.6-7.6,22.2-7.6"
     id="path7"
     style="stroke-linejoin:round;stroke-linecap:round" /><path
     fill="none"
     stroke="#000000"
     stroke-miterlimit="10"
     d="M97.8,78.9c0,0-8.8-5.3-18.6-6.3s-15.7-0.2-18.9,3.2s-8.5,15.8-8.2,20  s3.6,14.3,19.6,16.1s25,4.1,28.7-9c1.5-5.4,0.8-14.5,0.8-14.5"
     id="path9"
     style="stroke-linejoin:round;stroke-linecap:round" /><path
     fill="none"
     stroke="#000000"
     stroke-miterlimit="10"
     d="M62.7,74c0,0-14.6-9.7-18.1-11.8"
     id="path11"
     style="stroke-linejoin:round;stroke-linecap:round" /><path
     fill="none"
     stroke="#000000"
     stroke-miterlimit="10"
     d="M56.9,81.1c0,0-6.3-7.7-16.5-12.1"
     id="path13"
     style="stroke-linejoin:round;stroke-linecap:round" /><path
     fill="none"
     stroke="#000000"
     stroke-miterlimit="10"
     d="M76,112.4l-1.8,17.1l7,4.2c0,0,12.1-3.1,13.4-4.1s-1.3-10.6-1.3-10.6  l-4.8,1.1"
     id="path15"
     style="stroke-linejoin:round;stroke-linecap:round" /><path
     fill="none"
     stroke="#000000"
     stroke-miterlimit="10"
     d="M85.8,125.7c0,0,3.6-6.6,5.9-12.8"
     id="path17"
     style="stroke-linejoin:round;stroke-linecap:round" /><path
     fill="none"
     stroke="#000000"
     stroke-miterlimit="10"
     d="M84.6,132.9c0,0-1.2,8.4,4.2,9.4s13-2,13.9-3.6  c0.8-1.6,0.2-12.5-2.8-24c-0.5-1.9-2.5-1.8-8.9,0"
     id="path19"
     style="stroke-linejoin:round;stroke-linecap:round" /><path
     fill="none"
     stroke="#000000"
     stroke-miterlimit="10"
     d="M53,99.4c0,0-3.4,1.3-7,1.5c-3.6,0.2-6.7,1.1-6.5,2  c0.2,0.8,9.2,22.8,9.2,22.8l5.8,1.1l8.3-3.7l-7-13.1c0,0,4.9,0.3,6.4-0.7"
     id="path21"
     style="stroke-linejoin:round;stroke-linecap:round" /><path
     fill="none"
     stroke="#000000"
     stroke-miterlimit="10"
     d="M59.9,117.8c0,0,2.5-1,5.3,0c2.8,1,7.3,2,7.8,3c0.5,1,1.3,2.3,0,3.1  s-15.7,8.8-17.9,9c-2.3,0.2-19.1-1.1-19.9-3.1s0.8-3.1,2.8-4.1s8.9-4.2,8.9-4.2"
     id="path23"
     style="stroke-linejoin:round;stroke-linecap:round" /><path
     fill="none"
     stroke="#000000"
     stroke-miterlimit="10"
     d="M68,72.2c0,0-0.7-2.1,0-5.7c0.7-3.5,3.4-9.3,6.2-10.2  c2.8-1,17.9-3.5,23.8,5.9c1,1.5,2,9-3.4,15"
     id="path25"
     style="stroke-linejoin:round;stroke-linecap:round" /><circle
     fill="none"
     stroke="#000000"
     stroke-miterlimit="10"
     cx="85.8"
     cy="63.2"
     r="2.3"
     id="circle27"
     style="stroke-linejoin:round;stroke-linecap:round" /><circle
     fill="none"
     stroke="#000000"
     stroke-miterlimit="10"
     cx="74.3"
     cy="61"
     r="2.3"
     id="circle29"
     style="stroke-linejoin:round;stroke-linecap:round" /><path
     fill="none"
     stroke="#000000"
     stroke-miterlimit="10"
     d="M55.6,45.9c0,0-2.3-3.6-8.6-3.6s-7.3-2.6-6.6-4.4  c0.7-1.8,3.8-1.5,5.1,0c0,0-3.1-4.6-0.8-5.5c2.3-1,4.8-0.7,6.4,1.6C52.7,36.3,55.6,43.8,55.6,45.9z"
     id="path31"
     style="stroke-linejoin:round;stroke-linecap:round" /><path
     fill="none"
     stroke="#000000"
     stroke-miterlimit="10"
     d="M90.4,36.9c0,0-4.7-4.4-7.1-7c-2.4-2.6-3-11.4,2.5-13.1  s7.7,3.1,7.9,6.5c0,0,3.7-7,9.2-4.2s5.1,8,1.1,11.6C100.2,34.3,92.8,36.4,90.4,36.9z"
     id="path33"
     style="stroke-linejoin:round;stroke-linecap:round" /><path
     fill="none"
     stroke="#000000"
     stroke-miterlimit="10"
     d="M119.6,56.2c0,0,1.1-2.9,4-5.9c2.9-2.9,7-3.1,8.2-2.3  c1.1,0.8,1,3.5-1.1,3.9c0,0,4.3,0,4.5,2.3c0.2,2.3-1.6,3.3-3.4,3.4c-1.8,0.2-4.7-2-6-2.4C124.5,54.9,122,54.7,119.6,56.2z"
     id="path35"
     style="stroke-linejoin:round;stroke-linecap:round" /></svg>