<?xml version="1.0" encoding="UTF-8" standalone="no"?>
<!-- Generator: Adobe Illustrator 18.0.0, SVG Export Plug-In . SVG Version: 6.00 Build 0)  -->

<svg
   xmlns:dc="http://purl.org/dc/elements/1.1/"
   xmlns:cc="http://creativecommons.org/ns#"
   xmlns:rdf="http://www.w3.org/1999/02/22-rdf-syntax-ns#"
   xmlns:svg="http://www.w3.org/2000/svg"
   xmlns="http://www.w3.org/2000/svg"
   xmlns:sodipodi="http://sodipodi.sourceforge.net/DTD/sodipodi-0.dtd"
   xmlns:inkscape="http://www.inkscape.org/namespaces/inkscape"
   version="1.1"
   id="レイヤー_1"
   x="0px"
   y="0px"
   viewBox="0 0 160 160"
   enable-background="new 0 0 160 160"
   xml:space="preserve"
   inkscape:version="0.91 r13725"
   sodipodi:docname="nomal__bow.svg"><metadata
     id="metadata25"><rdf:RDF><cc:Work
         rdf:about=""><dc:format>image/svg+xml</dc:format><dc:type
           rdf:resource="http://purl.org/dc/dcmitype/StillImage" /><dc:title></dc:title></cc:Work></rdf:RDF></metadata><defs
     id="defs23" /><sodipodi:namedview
     pagecolor="#ffffff"
     bordercolor="#666666"
     borderopacity="1"
     objecttolerance="10"
     gridtolerance="10"
     guidetolerance="10"
     inkscape:pageopacity="0"
     inkscape:pageshadow="2"
     inkscape:window-width="1538"
     inkscape:window-height="877"
     id="namedview21"
     showgrid="false"
     inkscape:zoom="1.475"
     inkscape:cx="-88.135594"
     inkscape:cy="80"
     inkscape:window-x="-8"
     inkscape:window-y="1192"
     inkscape:window-maximized="1"
     inkscape:current-layer="レイヤー_1" /><path
     fill="none"
     stroke="#231815"
     stroke-miterlimit="10"
     d="M63.2,42.4c-6-2.6-6.7-21.8,0-25.2c6.7-3.4,30.2-5,34.1,0  s2.2,22.4,0,25.2C95,45.2,73.2,46.9,63.2,42.4z"
     id="path3"
     style="stroke:#000000;stroke-opacity:1;stroke-linejoin:round;stroke-linecap:round" /><path
     fill="none"
     stroke="#231815"
     stroke-miterlimit="10"
     d="M99.2,22.7c0,0,11.5,2.5,13.1,6.9c1.7,4.4,0,43-8.9,50.2  s-44.7,4.5-52-3.9s-7.3-42.3-3.9-46.3s13-9.7,13-9.7"
     id="path5"
     style="stroke:#000000;stroke-opacity:1;stroke-linejoin:round;stroke-linecap:round" /><path
     fill="none"
     stroke="#231815"
     stroke-miterlimit="10"
     d="M103.4,79.8l-11.7,54.8h-8.9l-3.6-11.7c0,0,2.5-26.3,3-38.9"
     id="path7"
     style="stroke:#000000;stroke-opacity:1;stroke-linejoin:round;stroke-linecap:round" /><path
     fill="none"
     stroke="#231815"
     stroke-miterlimit="10"
     d="M74.9,83.6l2.7,43.2l-2.7,7.8H63.2c0,0-4.7-36.5-9.1-56.5"
     id="path9"
     style="stroke:#000000;stroke-opacity:1;stroke-linejoin:round;stroke-linecap:round" /><path
     fill="none"
     stroke="#231815"
     stroke-miterlimit="10"
     d="M79.2,122.9c0,0-1.9,18.4,0,21.2c1.9,2.8,21.3,4.5,20.5-2.2  c-0.5-3.8-3.1-11.5-6.4-14.7"
     id="path11"
     style="stroke:#000000;stroke-opacity:1;stroke-linejoin:round;stroke-linecap:round" /><path
     fill="none"
     stroke="#231815"
     stroke-miterlimit="10"
     d="M62.1,126.8c0,0-10.1,8.4-10.7,11.2c-0.6,2.8,2.2,4.5,7,5.6  s13.1,0.6,15.4,0c2.2-0.6,4.6-4.5,4.6-4.5"
     id="path13"
     style="stroke:#000000;stroke-opacity:1;stroke-linejoin:round;stroke-linecap:round" /><path
     fill="none"
     stroke="#231815"
     stroke-miterlimit="10"
     d="M77.4,122.9c0,0,1.4,0.3,1.7,0.6"
     id="path15"
     style="stroke:#000000;stroke-opacity:1;stroke-linejoin:round;stroke-linecap:round" /><path
     fill="none"
     stroke="#231815"
     stroke-miterlimit="10"
     d="M112.9,33.2c0,0,5.8-0.5,5.8,3.1c0,10.6-2.7,25-7.6,37.2  c-3.6,9-6.2,16.2-9.7,15.8"
     id="path17"
     style="stroke:#000000;stroke-opacity:1;stroke-linejoin:round;stroke-linecap:round" /><path
     fill="none"
     stroke="#231815"
     stroke-miterlimit="10"
     d="M46.3,33.2c0,0-4.2,0.9-5.1,5.3c-0.9,4.4,0.5,18.6,5.1,32.3  s6.9,15.3,9.5,15.9"
     id="path19"
     style="stroke:#000000;stroke-opacity:1;stroke-linejoin:round;stroke-linecap:round" /></svg>