<?xml version="1.0" encoding="UTF-8" standalone="no"?>
<!-- Generator: Adobe Illustrator 18.0.0, SVG Export Plug-In . SVG Version: 6.00 Build 0)  -->

<svg
   xmlns:dc="http://purl.org/dc/elements/1.1/"
   xmlns:cc="http://creativecommons.org/ns#"
   xmlns:rdf="http://www.w3.org/1999/02/22-rdf-syntax-ns#"
   xmlns:svg="http://www.w3.org/2000/svg"
   xmlns="http://www.w3.org/2000/svg"
   xmlns:sodipodi="http://sodipodi.sourceforge.net/DTD/sodipodi-0.dtd"
   xmlns:inkscape="http://www.inkscape.org/namespaces/inkscape"
   version="1.1"
   id="レイヤー_1"
   x="0px"
   y="0px"
   viewBox="0 0 160 160"
   enable-background="new 0 0 160 160"
   xml:space="preserve"
   inkscape:version="0.91 r13725"
   sodipodi:docname="nomal__clap.svg"><metadata
     id="metadata45"><rdf:RDF><cc:Work
         rdf:about=""><dc:format>image/svg+xml</dc:format><dc:type
           rdf:resource="http://purl.org/dc/dcmitype/StillImage" /><dc:title></dc:title></cc:Work></rdf:RDF></metadata><defs
     id="defs43" /><sodipodi:namedview
     pagecolor="#ffffff"
     bordercolor="#666666"
     borderopacity="1"
     objecttolerance="10"
     gridtolerance="10"
     guidetolerance="10"
     inkscape:pageopacity="0"
     inkscape:pageshadow="2"
     inkscape:window-width="1600"
     inkscape:window-height="1177"
     id="namedview41"
     showgrid="false"
     inkscape:zoom="5.9"
     inkscape:cx="74.042738"
     inkscape:cy="86.161689"
     inkscape:window-x="-8"
     inkscape:window-y="-8"
     inkscape:window-maximized="1"
     inkscape:current-layer="レイヤー_1" /><path
     fill="none"
     stroke="#231815"
     stroke-miterlimit="10"
     d="M63.9,36.1c-4.4-2.1-3.3-15.8,0-18.7s21.8-5.4,28.8,0  c3.1,2.4,3.1,17.2,0,18.7C89.6,37.5,75.2,41.5,63.9,36.1z"
     id="path3"
     style="stroke:#000000;stroke-opacity:1;stroke-linejoin:round;stroke-linecap:round" /><path
     fill="none"
     stroke="#231815"
     stroke-miterlimit="10"
     d="M105,59.4c3.6-0.3,8,2.1,9.4,6.6c1.4,4.5-2.6,7.8-5.9,9.2  s-19.1,5.4-23.4,4s-6.4-5.4-3.3-9.8C84.9,65.1,99.5,59.9,105,59.4z"
     id="path5"
     style="stroke:#000000;stroke-opacity:1;stroke-linejoin:round;stroke-linecap:round" /><path
     fill="none"
     stroke="#231815"
     stroke-miterlimit="10"
     d="M49.5,59.4c3.4-3.1,17.5-0.7,21,2.2c3.5,2.8,7.9,6.3,8.7,8  c1.3,2.7,0.7,7.6-5.7,9C67.2,80,52.3,79,47.8,75S46.2,62.4,49.5,59.4z"
     id="path7"
     style="stroke:#000000;stroke-opacity:1;stroke-linejoin:round;stroke-linecap:round" /><path
     fill="none"
     stroke="#231815"
     stroke-miterlimit="10"
     d="M107.9,59.7c0,0-8.6-4.8-15.2-4.6s-10.2,3.1-10.6,6.6  c-0.5,3.5,5.4,11.1,22.4,9.9"
     id="path9"
     style="stroke:#000000;stroke-opacity:1;stroke-linejoin:round;stroke-linecap:round" /><path
     fill="none"
     stroke="#231815"
     stroke-miterlimit="10"
     d="M82,63.5c0,0-8.5,11.3-24.5,9.4"
     id="path11"
     style="stroke:#000000;stroke-opacity:1;stroke-linejoin:round;stroke-linecap:round" /><path
     fill="none"
     stroke="#231815"
     stroke-miterlimit="10"
     d="M63.9,36.1c0,0-4.5-0.9-7.6,3.8c-3.1,4.7-5.4,15.7-4.7,18.1  c0,0,16.5-5.6,22.4-4.9c5.9,0.7,9.2,2.7,10.2,4.9"
     id="path13"
     style="stroke:#000000;stroke-opacity:1;stroke-linejoin:round;stroke-linecap:round" /><path
     fill="none"
     stroke="#231815"
     stroke-miterlimit="10"
     d="M92.7,36.1c0,0,5.4-0.9,6.6,2.8s3.7,16,3.4,18.5"
     id="path15"
     style="stroke:#000000;stroke-opacity:1;stroke-linejoin:round;stroke-linecap:round" /><path
     fill="none"
     stroke="#231815"
     stroke-miterlimit="10"
     d="M99.7,40c0,0,19.2,22.1,18.1,23.5c-1.2,1.4-3.3,2.5-3.3,2.5"
     id="path17"
     style="stroke:#000000;stroke-opacity:1;stroke-linejoin:round;stroke-linecap:round" /><path
     fill="none"
     stroke="#231815"
     stroke-miterlimit="10"
     d="M56.3,39.8c0,0-17.2,19.8-17.2,21.7s6.4,6.7,6.4,6.7"
     id="path19"
     style="stroke:#000000;stroke-opacity:1;stroke-linejoin:round;stroke-linecap:round" /><polygon
     fill="none"
     stroke="#231815"
     stroke-miterlimit="10"
     points="79.8,51.4 74,45.3 79.8,43.6 "
     id="polygon21"
     style="stroke:#000000;stroke-opacity:1;stroke-linejoin:round;stroke-linecap:round" /><polygon
     fill="none"
     stroke="#231815"
     stroke-miterlimit="10"
     points="84.2,53 87.5,41.3 92.7,43.6 "
     id="polygon23"
     style="stroke:#000000;stroke-opacity:1;stroke-linejoin:round;stroke-linecap:round" /><polygon
     fill="none"
     stroke="#231815"
     stroke-miterlimit="10"
     points="90.8,53 95,48.3 97.5,53 "
     id="polygon25"
     style="stroke:#000000;stroke-opacity:1;stroke-linejoin:round;stroke-linecap:round" /><circle
     fill="none"
     stroke="#231815"
     stroke-miterlimit="10"
     cx="86.5"
     cy="26.8"
     r="2.9"
     id="circle27"
     style="stroke:#000000;stroke-opacity:1;stroke-linejoin:round;stroke-linecap:round" /><circle
     fill="none"
     stroke="#231815"
     stroke-miterlimit="10"
     cx="69.1"
     cy="26.8"
     r="2.9"
     id="circle29"
     style="stroke:#000000;stroke-opacity:1;stroke-linejoin:round;stroke-linecap:round" /><path
     fill="none"
     stroke="#231815"
     stroke-miterlimit="10"
     d="M103.8,76.7c0,0-0.5,6.3-4.1,8.7c-2.8,1.9-12.8,4.2-21.7,4.2  s-24.3-3.5-26.5-6.5c-2.2-3-1.6-6.9-1.6-6.9"
     id="path31"
     style="stroke:#000000;stroke-opacity:1;stroke-linejoin:round;stroke-linecap:round" /><path
     fill="none"
     stroke="#231815"
     stroke-miterlimit="10"
     d="M99.7,85.4c0,0-3.9,43.4-3.4,48.4l-5.4,0.9l-4.3-5.9l-2.9-39.5"
     id="path33"
     style="stroke:#000000;stroke-opacity:1;stroke-linejoin:round;stroke-linecap:round" /><polyline
     fill="none"
     stroke="#231815"
     stroke-miterlimit="10"
     points="76.8,89.6 73.3,128.1 69.1,131.9 63.9,131.9 58.4,86.5 "
     id="polyline35"
     style="stroke:#000000;stroke-opacity:1;stroke-linejoin:round;stroke-linecap:round" /><path
     fill="none"
     stroke="#231815"
     stroke-miterlimit="10"
     d="M74,122.9c0,0,4.8,0.9,4,5c-0.9,4-5.2,12.7-8.2,13.5  c-3.1,0.7-13.4,0.2-15.1-4c-1.9-4.8,8.6-10.6,8.6-10.6"
     id="path37"
     style="stroke:#000000;stroke-opacity:1;stroke-linejoin:round;stroke-linecap:round" /><path
     fill="none"
     stroke="#231815"
     stroke-miterlimit="10"
     d="M86.5,124.8c0,0-3.8,0.7-4.5,2.6c-0.7,1.9,6,14.6,9.6,16.8  c3.6,2.1,14.3,2.4,15.2,0c0.9-2.4-6-13.2-10.5-17.2"
     id="path39"
     style="stroke:#000000;stroke-opacity:1;stroke-linejoin:round;stroke-linecap:round" /></svg>