<?xml version="1.0" encoding="UTF-8" standalone="no"?>
<!-- Generator: Adobe Illustrator 18.0.0, SVG Export Plug-In . SVG Version: 6.00 Build 0)  -->

<svg
   xmlns:dc="http://purl.org/dc/elements/1.1/"
   xmlns:cc="http://creativecommons.org/ns#"
   xmlns:rdf="http://www.w3.org/1999/02/22-rdf-syntax-ns#"
   xmlns:svg="http://www.w3.org/2000/svg"
   xmlns="http://www.w3.org/2000/svg"
   xmlns:sodipodi="http://sodipodi.sourceforge.net/DTD/sodipodi-0.dtd"
   xmlns:inkscape="http://www.inkscape.org/namespaces/inkscape"
   version="1.1"
   id="レイヤー_1"
   x="0px"
   y="0px"
   viewBox="0 0 160 160"
   enable-background="new 0 0 160 160"
   xml:space="preserve"
   inkscape:version="0.91 r13725"
   sodipodi:docname="nomal__lstep.svg"><metadata
     id="metadata37"><rdf:RDF><cc:Work
         rdf:about=""><dc:format>image/svg+xml</dc:format><dc:type
           rdf:resource="http://purl.org/dc/dcmitype/StillImage" /><dc:title></dc:title></cc:Work></rdf:RDF></metadata><defs
     id="defs35" /><sodipodi:namedview
     pagecolor="#ffffff"
     bordercolor="#666666"
     borderopacity="1"
     objecttolerance="10"
     gridtolerance="10"
     guidetolerance="10"
     inkscape:pageopacity="0"
     inkscape:pageshadow="2"
     inkscape:window-width="1600"
     inkscape:window-height="1177"
     id="namedview33"
     showgrid="false"
     inkscape:zoom="1.475"
     inkscape:cx="-30.847458"
     inkscape:cy="80"
     inkscape:window-x="-8"
     inkscape:window-y="-8"
     inkscape:window-maximized="1"
     inkscape:current-layer="レイヤー_1" /><path
     fill="none"
     stroke="#231815"
     stroke-miterlimit="10"
     d="M80.5,37.2c2.8-2.4,2.7-17-2.4-20c-5.1-2.9-20.1-2.5-23.6,0  c-3.5,2.5-5.9,5.8-5.6,9.7s2.9,14,7,14.6S74.9,42.1,80.5,37.2z"
     id="path3"
     style="stroke-linejoin:round;stroke-linecap:round;stroke:#000000;stroke-opacity:1" /><path
     fill="none"
     stroke="#231815"
     stroke-miterlimit="10"
     d="M36.9,62.6c-4.1-1.5-8.6,0.2-10.2,3.4c-1.6,3.2-4.8,26.2-2.7,29.4  s4.6,5.9,7.2,5.6s7.8-7.9,8-21.3C39.5,66.3,38.8,63.3,36.9,62.6z"
     id="path5"
     style="stroke-linejoin:round;stroke-linecap:round;stroke:#000000;stroke-opacity:1" /><path
     fill="none"
     stroke="#231815"
     stroke-miterlimit="10"
     d="M30.7,62.6c0,0,9.6-14.5,12-15.8c2.4-1.3,4.6-0.3,4.6,2.7  s0.3,6.4-1.6,8.3c-1.9,1.9-6.7,9.7-6.7,9.7"
     id="path7"
     style="stroke-linejoin:round;stroke-linecap:round;stroke:#000000;stroke-opacity:1" /><path
     fill="none"
     stroke="#231815"
     stroke-miterlimit="10"
     d="M42.8,46.7c0,0,2-6.1,9.9-7.9"
     id="path9"
     style="stroke-linejoin:round;stroke-linecap:round;stroke:#000000;stroke-opacity:1" /><path
     fill="none"
     stroke="#231815"
     stroke-miterlimit="10"
     d="M42.8,61.6c0,0,1.6,18.3,6.1,21.5s15.8,5.1,28.9,1.6  c13.1-3.5,17.7-7.1,17.7-17.4S93.9,43.8,90.7,40s-9.1-4.7-9.1-4.7"
     id="path11"
     style="stroke-linejoin:round;stroke-linecap:round;stroke:#000000;stroke-opacity:1" /><path
     fill="none"
     stroke="#231815"
     stroke-miterlimit="10"
     d="M110.5,55.3c-2.5-0.9-7.5-0.5-8.3,1.5c-0.8,2-2.1,13,1.3,20.7  s9.6,15.8,11.8,15.5c2.1-0.3,6.2-1.6,3.5-15.5S112.5,56,110.5,55.3z"
     id="path13"
     style="stroke-linejoin:round;stroke-linecap:round;stroke:#000000;stroke-opacity:1" /><path
     fill="none"
     stroke="#231815"
     stroke-miterlimit="10"
     d="M107.3,54.8c0,0-11.6-10.6-14.9-11.6"
     id="path15"
     style="stroke-linejoin:round;stroke-linecap:round;stroke:#000000;stroke-opacity:1" /><path
     fill="none"
     stroke="#231815"
     stroke-miterlimit="10"
     d="M101.4,62c0,0-4.4-5.8-6.6-7.2"
     id="path17"
     style="stroke-linejoin:round;stroke-linecap:round;stroke:#000000;stroke-opacity:1" /><polyline
     fill="none"
     stroke="#231815"
     stroke-miterlimit="10"
     points="67.9,86.5 65.6,127.6 61.2,134.5 54.3,132.7 50.1,83.9 "
     id="polyline19"
     style="stroke-linejoin:round;stroke-linecap:round;stroke:#000000;stroke-opacity:1" /><polyline
     fill="none"
     stroke="#231815"
     stroke-miterlimit="10"
     points="77.8,84.7 92.4,98.7 92.4,117.7 103,124.9 112.4,122.8   105.9,93.1 87.1,81.6 "
     id="polyline21"
     style="stroke-linejoin:round;stroke-linecap:round;stroke:#000000;stroke-opacity:1" /><path
     fill="none"
     stroke="#231815"
     stroke-miterlimit="10"
     d="M92.4,109.2c0,0-9.9,0.4-10.1,4.4s15.8,21.5,19,22.4  c3.2,0.9,22-1.5,22.3-5.8c0.3-4.3-12.6-14-12.6-14"
     id="path23"
     style="stroke-linejoin:round;stroke-linecap:round;stroke:#000000;stroke-opacity:1" /><path
     fill="none"
     stroke="#231815"
     stroke-miterlimit="10"
     d="M66,120.6c0,0,5.4-0.3,6.5,2.1s-7.8,23.3-10.2,24.4  c-2.4,1.1-18.2,0.5-19.5-1.1c-1.3-1.6,4.3-14.2,10.9-21.1"
     id="path25"
     style="stroke-linejoin:round;stroke-linecap:round;stroke:#000000;stroke-opacity:1" /><polygon
     fill="none"
     stroke="#231815"
     stroke-miterlimit="10"
     points="123.6,101.1 123.6,107.8 133.2,107.8 133.2,112.5   141.8,103.2 132.7,94.7 132.7,101.1 "
     id="polygon27"
     style="stroke-linejoin:round;stroke-linecap:round;stroke:#000000;stroke-opacity:1" /><circle
     fill="none"
     stroke="#231815"
     stroke-miterlimit="10"
     cx="59"
     cy="28.5"
     r="2.7"
     id="circle29"
     style="stroke-linejoin:round;stroke-linecap:round;stroke:#000000;stroke-opacity:1" /><circle
     fill="none"
     stroke="#231815"
     stroke-miterlimit="10"
     cx="75.1"
     cy="27"
     r="2.7"
     id="circle31"
     style="stroke-linejoin:round;stroke-linecap:round;stroke:#000000;stroke-opacity:1" /></svg>