<?xml version="1.0" encoding="UTF-8" standalone="no"?>
<!-- Generator: Adobe Illustrator 18.0.0, SVG Export Plug-In . SVG Version: 6.00 Build 0)  -->

<svg
   xmlns:dc="http://purl.org/dc/elements/1.1/"
   xmlns:cc="http://creativecommons.org/ns#"
   xmlns:rdf="http://www.w3.org/1999/02/22-rdf-syntax-ns#"
   xmlns:svg="http://www.w3.org/2000/svg"
   xmlns="http://www.w3.org/2000/svg"
   xmlns:sodipodi="http://sodipodi.sourceforge.net/DTD/sodipodi-0.dtd"
   xmlns:inkscape="http://www.inkscape.org/namespaces/inkscape"
   version="1.1"
   id="レイヤー_1"
   x="0px"
   y="0px"
   viewBox="0 0 160 160"
   enable-background="new 0 0 160 160"
   xml:space="preserve"
   inkscape:version="0.91 r13725"
   sodipodi:docname="nomal__a-hem.svg"><metadata
     id="metadata37"><rdf:RDF><cc:Work
         rdf:about=""><dc:format>image/svg+xml</dc:format><dc:type
           rdf:resource="http://purl.org/dc/dcmitype/StillImage" /><dc:title></dc:title></cc:Work></rdf:RDF></metadata><defs
     id="defs35" /><sodipodi:namedview
     pagecolor="#ffffff"
     bordercolor="#666666"
     borderopacity="1"
     objecttolerance="10"
     gridtolerance="10"
     guidetolerance="10"
     inkscape:pageopacity="0"
     inkscape:pageshadow="2"
     inkscape:window-width="1538"
     inkscape:window-height="877"
     id="namedview33"
     showgrid="false"
     inkscape:zoom="1.475"
     inkscape:cx="-169.49153"
     inkscape:cy="80"
     inkscape:window-x="-8"
     inkscape:window-y="1192"
     inkscape:window-maximized="1"
     inkscape:current-layer="レイヤー_1" /><path
     fill="none"
     stroke="#231815"
     stroke-miterlimit="10"
     d="M51.7,78.2c-2.7-3-3.2-8.2,0-14.1s15.1-20.7,20.8-23.2  c5.7-2.5,7.7-1,7.9,1.2c0.2,2.2-0.7,5.4-1.2,7.4c-0.5,2,1,6.9-0.5,9.4C77.1,61.4,66,79,61.1,80.4C55.3,82.1,51.7,78.2,51.7,78.2z"
     id="path3"
     style="stroke:#000000;stroke-opacity:1;stroke-linejoin:round;stroke-linecap:round" /><path
     fill="none"
     stroke="#231815"
     stroke-miterlimit="10"
     d="M111.5,68.6c1.3-0.6,2-5.6,5.7-8.4c3.7-2.8,10.4-6.2,12.9-4  c2.5,2.2,1.2,8.2,0,12.9c-1.2,4.7-9.1,11.3-17.3,13.3c-8.2,2-13.3,1.1-13.6-1.5C98.9,78.2,105.1,71.8,111.5,68.6z"
     id="path5"
     style="stroke:#000000;stroke-opacity:1;stroke-linejoin:round;stroke-linecap:round" /><path
     fill="none"
     stroke="#231815"
     stroke-miterlimit="10"
     d="M79.9,40.7c0,0,7.2-0.4,9.6-3.2c2.5-2.8,3.2-12.7,1.7-18.1  c-1.5-5.4-8.2-5.9-16.3-5.7s-11.6,2.2-14.1,7.2s-1.2,16.7,2.5,18.7c3.7,2,9.1,1.3,9.1,1.3"
     id="path7"
     style="stroke:#000000;stroke-opacity:1;stroke-linejoin:round;stroke-linecap:round" /><path
     fill="none"
     stroke="#231815"
     stroke-miterlimit="10"
     d="M46.2,53.1c0,0-1-4.3-6.9-5.6c0,0-6.4-8.6-9.4-6.5c-3,2.1-1.7,4.3,0,9  c1.7,4.7,14.8,25.6,21.8,28.2c0,0-0.2,4.4,3,6.9c3.2,2.5,16.6,5.4,25.7,4.7s18.8-4.6,21.2-6.7"
     id="path9"
     style="stroke:#000000;stroke-opacity:1;stroke-linejoin:round;stroke-linecap:round" /><path
     fill="none"
     stroke="#231815"
     stroke-miterlimit="10"
     d="M89.5,37.5c0,0,5.7-1.2,9.6,2.1c4,3.3,8.7,21.4,5.5,33.7"
     id="path11"
     style="stroke:#000000;stroke-opacity:1;stroke-linejoin:round;stroke-linecap:round" /><path
     fill="none"
     stroke="#231815"
     stroke-miterlimit="10"
     d="M104.6,53.1c0,0,8.8,5.9,11,8.7"
     id="path13"
     style="stroke:#000000;stroke-opacity:1;stroke-linejoin:round;stroke-linecap:round" /><path
     fill="none"
     stroke="#231815"
     stroke-miterlimit="10"
     d="M127.2,55.5c0,0-17.5-10-27.1-14.8"
     id="path15"
     style="stroke:#000000;stroke-opacity:1;stroke-linejoin:round;stroke-linecap:round" /><path
     fill="none"
     stroke="#231815"
     stroke-miterlimit="10"
     d="M44.3,53.1c0,0,7.1-7.8,15.3-3.6"
     id="path17"
     style="stroke:#000000;stroke-opacity:1;stroke-linejoin:round;stroke-linecap:round" /><path
     fill="none"
     stroke="#231815"
     stroke-miterlimit="10"
     d="M45.8,55.5c0,0,4-3.9,9.4-3.8"
     id="path19"
     style="stroke:#000000;stroke-opacity:1;stroke-linejoin:round;stroke-linecap:round" /><circle
     fill="none"
     stroke="#231815"
     stroke-miterlimit="10"
     cx="66.8"
     cy="29.2"
     r="2.7"
     id="circle21"
     style="stroke:#000000;stroke-opacity:1;stroke-linejoin:round;stroke-linecap:round" /><circle
     fill="none"
     stroke="#231815"
     stroke-miterlimit="10"
     cx="84.5"
     cy="29.2"
     r="2.7"
     id="circle23"
     style="stroke:#000000;stroke-opacity:1;stroke-linejoin:round;stroke-linecap:round" /><path
     fill="none"
     stroke="#231815"
     stroke-miterlimit="10"
     d="M97.6,85.4c0,0-4.1,44.7-5.6,46.7l-7.5,1l-2.7-6.7V89.7"
     id="path25"
     style="stroke:#000000;stroke-opacity:1;stroke-linejoin:round;stroke-linecap:round" /><path
     fill="none"
     stroke="#231815"
     stroke-miterlimit="10"
     d="M75.8,89.9l1.6,38.2l-5.9,5.9l-4.7-1c0,0-4.6-25.5-5.6-45.4"
     id="path27"
     style="stroke:#000000;stroke-opacity:1;stroke-linejoin:round;stroke-linecap:round" /><path
     fill="none"
     stroke="#231815"
     stroke-miterlimit="10"
     d="M77.2,123.4c0,0,3.2,0.2,3.2,2.2c0,2-3.7,17.3-6,18.3  c-2.2,1-15.1,1.5-18-1.5c-3-3,0.7-7.2,9.4-15.3"
     id="path29"
     style="stroke:#000000;stroke-opacity:1;stroke-linejoin:round;stroke-linecap:round" /><path
     fill="none"
     stroke="#231815"
     stroke-miterlimit="10"
     d="M81.7,124.2c0,0-1.8-0.4-1.3,6.7c0.4,7.1,0.1,12.8,4.5,13.8  c4.4,1,14.7-0.3,15.9-1.2c1.3-0.9,1.2-4.3,0-7c-1.2-2.6-5.1-11-7.4-12.3"
     id="path31"
     style="stroke:#000000;stroke-opacity:1;stroke-linejoin:round;stroke-linecap:round" /></svg>