<?xml version="1.0" encoding="UTF-8" standalone="no"?>
<!-- Generator: Adobe Illustrator 18.0.0, SVG Export Plug-In . SVG Version: 6.00 Build 0)  -->

<svg
   xmlns:dc="http://purl.org/dc/elements/1.1/"
   xmlns:cc="http://creativecommons.org/ns#"
   xmlns:rdf="http://www.w3.org/1999/02/22-rdf-syntax-ns#"
   xmlns:svg="http://www.w3.org/2000/svg"
   xmlns="http://www.w3.org/2000/svg"
   xmlns:sodipodi="http://sodipodi.sourceforge.net/DTD/sodipodi-0.dtd"
   xmlns:inkscape="http://www.inkscape.org/namespaces/inkscape"
   version="1.1"
   id="レイヤー_1"
   x="0px"
   y="0px"
   viewBox="0 0 160 160"
   enable-background="new 0 0 160 160"
   xml:space="preserve"
   inkscape:version="0.91 r13725"
   sodipodi:docname="nomal__fstep.svg"><metadata
     id="metadata33"><rdf:RDF><cc:Work
         rdf:about=""><dc:format>image/svg+xml</dc:format><dc:type
           rdf:resource="http://purl.org/dc/dcmitype/StillImage" /><dc:title></dc:title></cc:Work></rdf:RDF></metadata><defs
     id="defs31" /><sodipodi:namedview
     pagecolor="#ffffff"
     bordercolor="#666666"
     borderopacity="1"
     objecttolerance="10"
     gridtolerance="10"
     guidetolerance="10"
     inkscape:pageopacity="0"
     inkscape:pageshadow="2"
     inkscape:window-width="1600"
     inkscape:window-height="1177"
     id="namedview29"
     showgrid="false"
     inkscape:zoom="2.95"
     inkscape:cx="47.340157"
     inkscape:cy="103.74677"
     inkscape:window-x="-8"
     inkscape:window-y="-8"
     inkscape:window-maximized="1"
     inkscape:current-layer="レイヤー_1" /><path
     fill="none"
     stroke="#231815"
     stroke-miterlimit="10"
     d="M67.8,37c-1.8-3.3-4.3-18.5,2.3-22.6c6.6-4.1,23.9-1.3,25.9,1.5  s2.5,16.3-0.8,21.1C92.2,41.4,68.7,38.6,67.8,37z"
     id="path3"
     style="stroke-linejoin:round;stroke:#000000;stroke-opacity:1" /><path
     fill="none"
     stroke="#231815"
     stroke-miterlimit="10"
     d="M85.8,78.4c1.1-2.1,0-5.6,1.3-8.4c1.3-2.8,6.5-8.9,10.5-8.9  c4,0,8.8,3.6,9.1,7.5c0.3,3.9-5.1,16.9-10.4,22s-10.1,12-14.6,7.1C78.5,94.1,84,81.7,85.8,78.4z"
     id="path5"
     style="stroke-linejoin:round;stroke:#000000;stroke-opacity:1" /><path
     fill="none"
     stroke="#231815"
     stroke-miterlimit="10"
     d="M95.8,61.5c0,0,4.5-19.2,5.8-20c1.3-0.7,9.4,3.1,9.9,5.1  s-2.8,19.6-4.8,22"
     id="path7"
     style="stroke-linejoin:round;stroke:#000000;stroke-opacity:1" /><path
     fill="none"
     stroke="#231815"
     stroke-miterlimit="10"
     d="M108.6,44.1c0,0-2.9-7.6-12.7-8.3"
     id="path9"
     style="stroke-linejoin:round;stroke:#000000;stroke-opacity:1" /><path
     fill="none"
     stroke="#231815"
     stroke-miterlimit="10"
     d="M109.8,58.3c0,0-0.2,23.4-5.2,28c-3,2.7-8.4,4.3-8.4,4.3"
     id="path11"
     style="stroke-linejoin:round;stroke:#000000;stroke-opacity:1" /><path
     fill="none"
     stroke="#231815"
     stroke-miterlimit="10"
     d="M67.8,37c0,0-8.1,3.6-10.4,9.7c-2.3,6.1-3.8,23.1-1.5,31.7  s5.3,11.4,11.9,12.2s12.9,0,12.9,0"
     id="path13"
     style="stroke-linejoin:round;stroke:#000000;stroke-opacity:1" /><path
     fill="none"
     stroke="#231815"
     stroke-miterlimit="10"
     d="M65.4,38.3c0,0-5.5-0.8-7.8,1.6C55.3,42.3,55.8,53,55.8,53"
     id="path15"
     style="stroke-linejoin:round;stroke:#000000;stroke-opacity:1" /><circle
     fill="none"
     stroke="#231815"
     stroke-miterlimit="10"
     cx="86.8"
     cy="27.4"
     r="2.8"
     id="circle17"
     style="stroke-linejoin:round;stroke:#000000;stroke-opacity:1" /><circle
     fill="none"
     stroke="#231815"
     stroke-miterlimit="10"
     cx="70.5"
     cy="27.4"
     r="2.8"
     id="circle19"
     style="stroke-linejoin:round;stroke:#000000;stroke-opacity:1" /><path
     fill="none"
     stroke="#231815"
     stroke-miterlimit="10"
     d="M76.9,90.9c0,0,6.3,27.2,8.1,48.7l6.1,1.3l6.4-7.6  c0,0,3.1-35,2.8-44.3"
     id="path21"
     style="stroke-linejoin:round;stroke:#000000;stroke-opacity:1" /><path
     fill="none"
     stroke="#231815"
     stroke-miterlimit="10"
     d="M97.8,130.5c0,0,5.2,0,5.2,1.5c0.1,1.5-7.9,15.6-9.4,16.3  c-1.5,0.7-19.2,4.2-20.4-1.6c-0.4-2,11.2-13.1,11.2-13.1"
     id="path23"
     style="stroke-linejoin:round;stroke:#000000;stroke-opacity:1" /><polyline
     fill="none"
     stroke="#231815"
     stroke-miterlimit="10"
     points="77.2,91.9 69.6,109.8 71.8,125.6 65.8,133.7 60.6,133.3   53.3,108.8 62.2,89 "
     id="polyline25"
     style="stroke-linejoin:round;stroke:#000000;stroke-opacity:1" /><path
     fill="none"
     stroke="#231815"
     stroke-miterlimit="10"
     d="M70.9,119c0,0,5,1.3,6,2.8s-4.8,23.9-7.9,26.4  c-3,2.5-20.3,2.1-20.6-4.6c-0.2-3.8,10.4-16,10.4-16"
     id="path27"
     style="stroke-linejoin:round;stroke:#000000;stroke-opacity:1" /></svg>