<?xml version="1.0" encoding="UTF-8" standalone="no"?>
<!-- Generator: Adobe Illustrator 18.0.0, SVG Export Plug-In . SVG Version: 6.00 Build 0)  -->

<svg
   xmlns:dc="http://purl.org/dc/elements/1.1/"
   xmlns:cc="http://creativecommons.org/ns#"
   xmlns:rdf="http://www.w3.org/1999/02/22-rdf-syntax-ns#"
   xmlns:svg="http://www.w3.org/2000/svg"
   xmlns="http://www.w3.org/2000/svg"
   xmlns:sodipodi="http://sodipodi.sourceforge.net/DTD/sodipodi-0.dtd"
   xmlns:inkscape="http://www.inkscape.org/namespaces/inkscape"
   version="1.1"
   id="レイヤー_1"
   x="0px"
   y="0px"
   viewBox="0 0 160 160"
   enable-background="new 0 0 160 160"
   xml:space="preserve"
   inkscape:version="0.91 r13725"
   sodipodi:docname="nomal__high-five.svg"><metadata
     id="metadata63"><rdf:RDF><cc:Work
         rdf:about=""><dc:format>image/svg+xml</dc:format><dc:type
           rdf:resource="http://purl.org/dc/dcmitype/StillImage" /><dc:title></dc:title></cc:Work></rdf:RDF></metadata><defs
     id="defs61" /><sodipodi:namedview
     pagecolor="#ffffff"
     bordercolor="#666666"
     borderopacity="1"
     objecttolerance="10"
     gridtolerance="10"
     guidetolerance="10"
     inkscape:pageopacity="0"
     inkscape:pageshadow="2"
     inkscape:window-width="1600"
     inkscape:window-height="1177"
     id="namedview59"
     showgrid="false"
     inkscape:zoom="2.085965"
     inkscape:cx="34.979052"
     inkscape:cy="90.72287"
     inkscape:window-x="-8"
     inkscape:window-y="-8"
     inkscape:window-maximized="1"
     inkscape:current-layer="レイヤー_1" /><path
     fill="none"
     stroke="#231815"
     stroke-miterlimit="10"
     d="M110.9,58c-1.2-1.8,0.5-11.6,3.3-14.3c2.9-2.7,13.3,0.2,16.1,2.2  c2.9,2,4.3,4.7,4.1,7.8c-0.2,3.1-1.2,8-3.5,9.2c-2.2,1.2-5.4,1.8-8.2,1S112.3,60.1,110.9,58z"
     id="path3"
     style="stroke-linejoin:round;stroke-linecap:round;stroke:#000000;stroke-opacity:1" /><path
     fill="none"
     stroke="#231815"
     stroke-miterlimit="10"
     d="M135.7,90.2c0.9-2.6,2.6-4.2,5.7-4c3.1,0.2,4.7,3.5,5.3,6.5  c0.6,3.1,1,9.8,2.2,13.3s1.4,7.1-1.2,7.1s-7-0.9-10-7.8C134.4,97.8,135.3,91.4,135.7,90.2z"
     id="path5"
     style="stroke-linejoin:round;stroke-linecap:round;stroke:#000000;stroke-opacity:1" /><path
     fill="none"
     stroke="#231815"
     stroke-miterlimit="10"
     d="M143.4,86.8c0,0-7-15.6-8.1-20l-2.9,1.8c0,0-1.1,13.3,3.1,22.4"
     id="path7"
     style="stroke-linejoin:round;stroke-linecap:round;stroke:#000000;stroke-opacity:1" /><path
     fill="none"
     stroke="#231815"
     stroke-miterlimit="10"
     d="M110.5,56.2c0,0-5,2.6-7.7,8.1s-5.5,21.3-1,28.8  c4.5,7.5,13.2,10.4,20.7,10.6s13.8-2.4,13.8-2.4"
     id="path9"
     style="stroke-linejoin:round;stroke-linecap:round;stroke:#000000;stroke-opacity:1" /><path
     fill="none"
     stroke="#231815"
     stroke-miterlimit="10"
     d="M133.3,59.4c0,0,3.5,1.3,6,9.3s4.2,13.7,3.2,16.3"
     id="path11"
     style="stroke-linejoin:round;stroke-linecap:round;stroke:#000000;stroke-opacity:1" /><path
     fill="none"
     stroke="#231815"
     stroke-miterlimit="10"
     d="M119.9,103.7c0,0,1.6,18.6,5.1,25.7c3.5,7.1,4.3,9.4,4.3,9.4l5.1,0.8  l3.4-3.7c0,0-5.2-5.3-4.5-33.7"
     id="path13"
     style="stroke-linejoin:round;stroke-linecap:round;stroke:#000000;stroke-opacity:1" /><path
     fill="none"
     stroke="#231815"
     stroke-miterlimit="10"
     d="M137.2,135c0,0,5.1-0.1,5.4,1.4c0.3,1.4-5.6,13.9-7.2,14.1  c-1.7,0.2-12.3,0.4-14.1-2.4c-1.8-2.9,7.7-10.3,7.7-10.3"
     id="path15"
     style="stroke-linejoin:round;stroke-linecap:round;stroke:#000000;stroke-opacity:1" /><path
     fill="none"
     stroke="#231815"
     stroke-miterlimit="10"
     d="M107.1,98.9c0,0,7.3,27.2,12.8,37.8h5.5l2.2-1.8"
     id="path17"
     style="stroke-linejoin:round;stroke-linecap:round;stroke:#000000;stroke-opacity:1" /><path
     fill="none"
     stroke="#231815"
     stroke-miterlimit="10"
     d="M118.7,134.2c0,0-8.1,7-8.2,8.5c-0.2,1.6,0.4,3.8,4.1,4.8  c3.7,1,6.5,0.4,6.5,0.4"
     id="path19"
     style="stroke-linejoin:round;stroke-linecap:round;stroke:#000000;stroke-opacity:1" /><circle
     fill="none"
     stroke="#231815"
     stroke-miterlimit="10"
     cx="123.4"
     cy="53.5"
     r="2.1"
     id="circle21"
     style="stroke-linejoin:round;stroke-linecap:round;stroke:#000000;stroke-opacity:1" /><circle
     fill="none"
     stroke="#231815"
     stroke-miterlimit="10"
     cx="113.7"
     cy="51.3"
     r="2.1"
     id="circle23"
     style="stroke-linejoin:round;stroke-linecap:round;stroke:#000000;stroke-opacity:1" /><path
     fill="none"
     stroke="#231815"
     stroke-miterlimit="10"
     d="M66.5,45.8c-0.2-4.1,3.9-6.1,5.5-9.2c1.6-3.1,7.5-13.1,10.2-12.9  c2.7,0.2,5.1,1.2,5.1,5.3s-1,11.6-4.1,16.7c-3.1,5.1-5.9,7.7-9.2,7.7C70.8,53.5,66.7,50.1,66.5,45.8z"
     id="path25"
     style="stroke-linejoin:round;stroke-linecap:round;stroke:#000000;stroke-opacity:1" /><polyline
     fill="none"
     stroke="#231815"
     stroke-miterlimit="10"
     points="72.9,53.4 62,65.8 58.1,65.8 57.1,57.8 66.9,48 "
     id="polyline27"
     style="stroke-linejoin:round;stroke-linecap:round;stroke:#000000;stroke-opacity:1" /><path
     fill="none"
     stroke="#231815"
     stroke-miterlimit="10"
     d="M34.2,55.6c-2.3-0.8-2.9-6.4-2.9-9.8s1.6-6.8,4.5-7.2  c2.9-0.4,11.6-1,14.5,0c2.9,1,5.1,2.9,4.9,6.1c-0.2,3.3,0.2,10.1-2.7,10.8C49.8,56.4,43.4,58.9,34.2,55.6z"
     id="path29"
     style="stroke-linejoin:round;stroke-linecap:round;stroke:#000000;stroke-opacity:1" /><path
     fill="none"
     stroke="#231815"
     stroke-miterlimit="10"
     d="M54.4,53.5c0,0,3.3,0.9,4.3,2.7"
     id="path31"
     style="stroke-linejoin:round;stroke-linecap:round;stroke:#000000;stroke-opacity:1" /><path
     fill="none"
     stroke="#231815"
     stroke-miterlimit="10"
     d="M63.3,64.3c0,0,3.6,20.5,0.1,26.7C60,97.2,45.3,98,40,97.6  s-13.1-2.5-14.7-11.4s-2.7-29.2,7.2-32.7"
     id="path33"
     style="stroke-linejoin:round;stroke-linecap:round;stroke:#000000;stroke-opacity:1" /><path
     fill="none"
     stroke="#231815"
     stroke-miterlimit="10"
     d="M24.9,83.5c0,0-4.9-3-6.1-2.2c-1.2,0.8-4.5,8.4-6.9,12s-4.3,6.9-1.4,9  s8,1.8,17.8-9.8"
     id="path35"
     style="stroke-linejoin:round;stroke-linecap:round;stroke:#000000;stroke-opacity:1" /><line
     fill="none"
     stroke="#231815"
     stroke-miterlimit="10"
     x1="20.1"
     y1="81.3"
     x2="24.5"
     y2="68.6"
     id="line37"
     style="stroke-linejoin:round;stroke-linecap:round;stroke:#000000;stroke-opacity:1" /><path
     fill="none"
     stroke="#231815"
     stroke-miterlimit="10"
     d="M42.2,97.7c0,0,2.7,13.9,2.4,20.2c-0.3,6.3-4,18.9-4,18.9l2.8,1.4  l8.5-1.4c0,0,4.5-9.7,5.3-41.3"
     id="path39"
     style="stroke-linejoin:round;stroke-linecap:round;stroke:#000000;stroke-opacity:1" /><path
     fill="none"
     stroke="#231815"
     stroke-miterlimit="10"
     d="M52.7,134.2c0,0,1.6-0.7,2.6,0c1,0.7,9,6.1,7.9,7  c-1,0.9-17.9,2.3-19.9,1.6c-1.9-0.7-8.5-4.3-7.5-6c0.6-0.9,5.2-1.8,5.2-1.8"
     id="path41"
     style="stroke-linejoin:round;stroke-linecap:round;stroke:#000000;stroke-opacity:1" /><path
     fill="none"
     stroke="#231815"
     stroke-miterlimit="10"
     d="M31.4,95.5c0,0,3.5,22.9,1.2,34.9l4.7,2.2h4.4"
     id="path43"
     style="stroke-linejoin:round;stroke-linecap:round;stroke:#000000;stroke-opacity:1" /><path
     fill="none"
     stroke="#231815"
     stroke-miterlimit="10"
     d="M33,128c0,0-7.5,1-7.5,2.4s7.3,5.9,8.4,6.3c1,0.4,2,0,2,0"
     id="path45"
     style="stroke-linejoin:round;stroke-linecap:round;stroke:#000000;stroke-opacity:1" /><path
     fill="none"
     stroke="#231815"
     stroke-miterlimit="10"
     d="M84.4,24.2c0,0,1.4-2.7,4.1-3.1s5.5,3.3,6.7,5.9  c1.2,2.7,3.7,16.5,4.2,17.7c0.5,1.2,1.9,4.3,0,6.6s-5,5-8.9,3.5s-5.9-7.7-6.1-11.4"
     id="path47"
     style="stroke-linejoin:round;stroke-linecap:round;stroke:#000000;stroke-opacity:1" /><path
     fill="none"
     stroke="#231815"
     stroke-miterlimit="10"
     d="M93.4,55.2c0,0,6,9.7,8.4,11.6"
     id="path49"
     style="stroke-linejoin:round;stroke-linecap:round;stroke:#000000;stroke-opacity:1" /><path
     fill="none"
     stroke="#231815"
     stroke-miterlimit="10"
     d="M100.4,49.3c0,0,4.2,8.3,6.3,9.9"
     id="path51"
     style="stroke-linejoin:round;stroke-linecap:round;stroke:#000000;stroke-opacity:1" /><polygon
     fill="none"
     stroke="#231815"
     stroke-miterlimit="10"
     points="90.6,19.9 93.4,12.9 96.9,16.4 "
     id="polygon53"
     style="stroke-linejoin:round;stroke-linecap:round;stroke:#000000;stroke-opacity:1" /><polygon
     fill="none"
     stroke="#231815"
     stroke-miterlimit="10"
     points="83.4,18.3 81.4,8.9 87.3,9.7 "
     id="polygon55"
     style="stroke-linejoin:round;stroke-linecap:round;stroke:#000000;stroke-opacity:1" /><polygon
     fill="none"
     stroke="#231815"
     stroke-miterlimit="10"
     points="78.1,21.1 74,15.4 71.4,19.9 "
     id="polygon57"
     style="stroke-linejoin:round;stroke-linecap:round;stroke:#000000;stroke-opacity:1" /></svg>