<?xml version="1.0" encoding="UTF-8" standalone="no"?>
<!-- Generator: Adobe Illustrator 18.0.0, SVG Export Plug-In . SVG Version: 6.00 Build 0)  -->

<svg
   xmlns:dc="http://purl.org/dc/elements/1.1/"
   xmlns:cc="http://creativecommons.org/ns#"
   xmlns:rdf="http://www.w3.org/1999/02/22-rdf-syntax-ns#"
   xmlns:svg="http://www.w3.org/2000/svg"
   xmlns="http://www.w3.org/2000/svg"
   xmlns:sodipodi="http://sodipodi.sourceforge.net/DTD/sodipodi-0.dtd"
   xmlns:inkscape="http://www.inkscape.org/namespaces/inkscape"
   version="1.1"
   id="レイヤー_1"
   x="0px"
   y="0px"
   viewBox="0 0 160 160"
   enable-background="new 0 0 160 160"
   xml:space="preserve"
   inkscape:version="0.91 r13725"
   sodipodi:docname="nomal__hug.svg"><metadata
     id="metadata57"><rdf:RDF><cc:Work
         rdf:about=""><dc:format>image/svg+xml</dc:format><dc:type
           rdf:resource="http://purl.org/dc/dcmitype/StillImage" /><dc:title></dc:title></cc:Work></rdf:RDF></metadata><defs
     id="defs55" /><sodipodi:namedview
     pagecolor="#ffffff"
     bordercolor="#666666"
     borderopacity="1"
     objecttolerance="10"
     gridtolerance="10"
     guidetolerance="10"
     inkscape:pageopacity="0"
     inkscape:pageshadow="2"
     inkscape:window-width="1600"
     inkscape:window-height="1177"
     id="namedview53"
     showgrid="false"
     inkscape:zoom="2.085965"
     inkscape:cx="15.891544"
     inkscape:cy="28.817521"
     inkscape:window-x="-8"
     inkscape:window-y="-8"
     inkscape:window-maximized="1"
     inkscape:current-layer="レイヤー_1" /><path
     fill="none"
     stroke="#231815"
     stroke-miterlimit="10"
     d="M96,63.1c0,0-2.1,2.6-4.5,3.7s-11.4,4.4-11.5,9.1  c-0.2,6.6,4.4,7.5,11.5,6c7.1-1.5,14.6-11.3,15.6-13.3c1-1.9,0.8-10,0-11.7c-0.8-1.6-4.7-2.6-6.5-2.3s-3.1,3.8-6.3,4.5  c-3.7,0.8-10.9,0.6-14.3,4.1c-3.4,3.4-4.7,7.6-1.1,9.7c3.6,2.1,18.5,3.1,24,1.1"
     id="path3"
     style="stroke:#000000;stroke-opacity:1;stroke-linecap:round;stroke-linejoin:round" /><path
     fill="none"
     stroke="#231815"
     stroke-miterlimit="10"
     d="M101.3,54.6l10.2-11.4l4.2-1.1l3.2,8.4c0,0-8.8,14.9-11.7,17.2"
     id="path5"
     style="stroke:#000000;stroke-opacity:1;stroke-linecap:round;stroke-linejoin:round" /><path
     fill="none"
     stroke="#231815"
     stroke-miterlimit="10"
     d="M107.1,33.8c2-1.7,3.5-11.6,0.6-15.7c-2.9-4.1-10.2-4.5-14.6-4.3  c-4.3,0.2-10.6,1.9-11.9,3.9s-3.3,9.4-0.8,14.8c2.6,5.4,10.8,4.8,14.6,4.6C98.9,37,104.7,35.7,107.1,33.8z"
     id="path7"
     style="stroke:#000000;stroke-opacity:1;stroke-linecap:round;stroke-linejoin:round" /><circle
     fill="none"
     stroke="#231815"
     stroke-miterlimit="10"
     cx="96.6"
     cy="26.9"
     r="2.5"
     id="circle9"
     style="stroke:#000000;stroke-opacity:1;stroke-linecap:round;stroke-linejoin:round" /><circle
     fill="none"
     stroke="#231815"
     stroke-miterlimit="10"
     cx="83"
     cy="26.4"
     r="2.2"
     id="circle11"
     style="stroke:#000000;stroke-opacity:1;stroke-linecap:round;stroke-linejoin:round" /><path
     fill="none"
     stroke="#231815"
     stroke-miterlimit="10"
     d="M79.2,87.9c1.8-1.2,6.9-3.9,9.1-1.8c2.3,2.1,2.4,12.6,1.8,16.9  s-3.7,8.9-7.1,9.1c-3.4,0.2-3.4-4.7-3.8-7.8C78.8,101.2,76.7,89.7,79.2,87.9z"
     id="path13"
     style="stroke:#000000;stroke-opacity:1;stroke-linecap:round;stroke-linejoin:round" /><line
     fill="none"
     stroke="#231815"
     stroke-miterlimit="10"
     x1="87.4"
     y1="85.5"
     x2="87.4"
     y2="82.5"
     id="line15"
     style="stroke:#000000;stroke-opacity:1;stroke-linecap:round;stroke-linejoin:round" /><path
     fill="none"
     stroke="#231815"
     stroke-miterlimit="10"
     d="M78.1,72.5c0.2,5.3,0.6,11.2,1.1,15.4"
     id="path17"
     style="stroke:#000000;stroke-opacity:1;stroke-linecap:round;stroke-linejoin:round" /><path
     fill="none"
     stroke="#231815"
     stroke-miterlimit="10"
     d="M85.3,60.6l-1-2.7c0,0-5.9,0.9-6.2,1.4c-0.1,0.2-0.2,2.8-0.1,6.5"
     id="path19"
     style="stroke:#000000;stroke-opacity:1;stroke-linecap:round;stroke-linejoin:round" /><path
     fill="none"
     stroke="#231815"
     stroke-miterlimit="10"
     d="M82.4,58.2c0,0,0.5-3.1-10.5-5.3c-11-2.3-18.8-1.9-21.6,1  c-2.8,2.9-8.4,11-8.4,22s1.2,15.9,6.6,19.5c5.2,3.3,20.3,6.2,24,5.7c3.7-0.5,5.9-3.1,5.9-3.1"
     id="path21"
     style="stroke:#000000;stroke-opacity:1;stroke-linecap:round;stroke-linejoin:round" /><path
     fill="none"
     stroke="#231815"
     stroke-miterlimit="10"
     d="M53.8,52c0,0-2.4-1.7-1.6-5.4c0.8-3.7,3.6-9.9,7.6-11s12.8-1,16.8,1.7  c4.1,2.7,5.9,5.1,4.9,9.3s-1.6,7.9-2.9,8.3"
     id="path23"
     style="stroke:#000000;stroke-opacity:1;stroke-linecap:round;stroke-linejoin:round" /><path
     fill="none"
     stroke="#231815"
     stroke-miterlimit="10"
     d="M107.7,33c0,0,2.9,0.4,6.8,2.5c3.9,2.1,5.3,4.1,5.7,6.6  c0.3,2.5-0.3,26.6-2.6,29.6s-6.1,5.2-9.9,5.3"
     id="path25"
     style="stroke:#000000;stroke-opacity:1;stroke-linecap:round;stroke-linejoin:round" /><path
     fill="none"
     stroke="#231815"
     stroke-miterlimit="10"
     d="M81.6,34.1c0,0-2,1.9-2.9,4.6"
     id="path27"
     style="stroke:#000000;stroke-opacity:1;stroke-linecap:round;stroke-linejoin:round" /><path
     fill="none"
     stroke="#231815"
     stroke-miterlimit="10"
     d="M80.5,32.5c0,0-4.5,2.2-6.2,3.6"
     id="path29"
     style="stroke:#000000;stroke-opacity:1;stroke-linecap:round;stroke-linejoin:round" /><path
     fill="none"
     stroke="#231815"
     stroke-miterlimit="10"
     d="M104.4,79.5c0,0-0.6,4.4-3.9,6.1"
     id="path31"
     style="stroke:#000000;stroke-opacity:1;stroke-linecap:round;stroke-linejoin:round" /><path
     fill="none"
     stroke="#231815"
     stroke-miterlimit="10"
     d="M106.5,79.5c0,0-0.8,9.2-6.8,11.5"
     id="path33"
     style="stroke:#000000;stroke-opacity:1;stroke-linecap:round;stroke-linejoin:round" /><polyline
     fill="none"
     stroke="#231815"
     stroke-miterlimit="10"
     points="64.1,100.2 63.1,143 69.1,144 74.6,138.9 78.7,100.5 "
     id="polyline35"
     style="stroke:#000000;stroke-opacity:1;stroke-linecap:round;stroke-linejoin:round" /><polyline
     fill="none"
     stroke="#231815"
     stroke-miterlimit="10"
     points="62.1,99.8 59.8,135.2 55.3,140.1 49.6,138.2 49.6,96 "
     id="polyline37"
     style="stroke:#000000;stroke-opacity:1;stroke-linecap:round;stroke-linejoin:round" /><path
     fill="none"
     stroke="#231815"
     stroke-miterlimit="10"
     d="M63.1,138.2c0,0-5.2,5-5.8,6.9c-0.6,1.9,1.8,3.9,7.1,5.2  s8.3-0.2,9.7-1.1s12.1-10.2,11.2-13.1s-5.6-5-9.9-4.2"
     id="path39"
     style="stroke:#000000;stroke-opacity:1;stroke-linecap:round;stroke-linejoin:round" /><path
     fill="none"
     stroke="#231815"
     stroke-miterlimit="10"
     d="M60.3,127.6c0,0,2.2,0.2,3.1,1.8"
     id="path41"
     style="stroke:#000000;stroke-opacity:1;stroke-linecap:round;stroke-linejoin:round" /><path
     fill="none"
     stroke="#231815"
     stroke-miterlimit="10"
     d="M63.2,137c0,0-6.5,8.3-9.1,9.2c-2.6,1-12.3-1-12.3-4.6  c0-2.5,7.8-10.8,7.8-10.8"
     id="path43"
     style="stroke:#000000;stroke-opacity:1;stroke-linecap:round;stroke-linejoin:round" /><path
     fill="none"
     stroke="#231815"
     stroke-miterlimit="10"
     d="M112.2,75.9l-2.9,38.1l-10.2,8.9l-3.9-0.8c0,0-0.3-18.1-2.3-38.1"
     id="path45"
     style="stroke:#000000;stroke-opacity:1;stroke-linecap:round;stroke-linejoin:round" /><path
     fill="none"
     stroke="#231815"
     stroke-miterlimit="10"
     d="M109.5,111.4c0,0,5,1.9,5.1,3.4s-2,5-4.5,8.1S98,133.6,96.6,133.8  c-1.4,0.2-9-1.4-11.3-5.3c-0.5-0.9,9.7-11.9,9.7-11.9"
     id="path47"
     style="stroke:#000000;stroke-opacity:1;stroke-linecap:round;stroke-linejoin:round" /><path
     fill="none"
     stroke="#231815"
     stroke-miterlimit="10"
     d="M89.1,106.5c0,0,4.8,1.2,5.6,2.2"
     id="path49"
     style="stroke:#000000;stroke-opacity:1;stroke-linecap:round;stroke-linejoin:round" /><path
     fill="none"
     stroke="#231815"
     stroke-miterlimit="10"
     d="M94.8,112c0,0-12.4,13.4-15.6,13.5c-1.4,0-3-1.6-3-1.6"
     id="path51"
     style="stroke:#000000;stroke-opacity:1;stroke-linecap:round;stroke-linejoin:round" /></svg>