<?xml version="1.0" encoding="UTF-8" standalone="no"?>
<!-- Generator: Adobe Illustrator 18.0.0, SVG Export Plug-In . SVG Version: 6.00 Build 0)  -->

<svg
   xmlns:dc="http://purl.org/dc/elements/1.1/"
   xmlns:cc="http://creativecommons.org/ns#"
   xmlns:rdf="http://www.w3.org/1999/02/22-rdf-syntax-ns#"
   xmlns:svg="http://www.w3.org/2000/svg"
   xmlns="http://www.w3.org/2000/svg"
   xmlns:sodipodi="http://sodipodi.sourceforge.net/DTD/sodipodi-0.dtd"
   xmlns:inkscape="http://www.inkscape.org/namespaces/inkscape"
   version="1.1"
   id="レイヤー_1"
   x="0px"
   y="0px"
   viewBox="0 0 160 160"
   enable-background="new 0 0 160 160"
   xml:space="preserve"
   inkscape:version="0.91 r13725"
   sodipodi:docname="nomal__rstep.svg"><metadata
     id="metadata37"><rdf:RDF><cc:Work
         rdf:about=""><dc:format>image/svg+xml</dc:format><dc:type
           rdf:resource="http://purl.org/dc/dcmitype/StillImage" /><dc:title></dc:title></cc:Work></rdf:RDF></metadata><defs
     id="defs35" /><sodipodi:namedview
     pagecolor="#ffffff"
     bordercolor="#666666"
     borderopacity="1"
     objecttolerance="10"
     gridtolerance="10"
     guidetolerance="10"
     inkscape:pageopacity="0"
     inkscape:pageshadow="2"
     inkscape:window-width="1600"
     inkscape:window-height="1177"
     id="namedview33"
     showgrid="false"
     inkscape:zoom="1.475"
     inkscape:cx="-30.847458"
     inkscape:cy="80"
     inkscape:window-x="-8"
     inkscape:window-y="-8"
     inkscape:window-maximized="1"
     inkscape:current-layer="レイヤー_1" /><path
     fill="none"
     stroke="#231815"
     stroke-miterlimit="10"
     d="M81.6,37.2c-2.8-2.4-2.7-17,2.4-20s20.1-2.5,23.6,0s5.9,5.8,5.6,9.7  s-2.9,14-7,14.6C102.2,42.2,87.3,42.1,81.6,37.2z"
     id="path3"
     style="stroke:#000000;stroke-opacity:1;stroke-linejoin:round;stroke-linecap:round" /><path
     fill="none"
     stroke="#231815"
     stroke-miterlimit="10"
     d="M125.2,62.6c4.1-1.5,8.6,0.2,10.2,3.4c1.6,3.2,4.8,26.2,2.7,29.4  c-2.1,3.2-4.6,5.9-7.2,5.6s-7.8-7.9-8-21.3S123.3,63.3,125.2,62.6z"
     id="path5"
     style="stroke:#000000;stroke-opacity:1;stroke-linejoin:round;stroke-linecap:round" /><path
     fill="none"
     stroke="#231815"
     stroke-miterlimit="10"
     d="M131.4,62.6c0,0-9.6-14.5-12-15.8c-2.4-1.3-4.6-0.3-4.6,2.7  s-0.3,6.4,1.6,8.3c1.9,1.9,6.7,9.7,6.7,9.7"
     id="path7"
     style="stroke:#000000;stroke-opacity:1;stroke-linejoin:round;stroke-linecap:round" /><path
     fill="none"
     stroke="#231815"
     stroke-miterlimit="10"
     d="M119.4,46.7c0,0-2-6.1-9.9-7.9"
     id="path9"
     style="stroke:#000000;stroke-opacity:1;stroke-linejoin:round;stroke-linecap:round" /><path
     fill="none"
     stroke="#231815"
     stroke-miterlimit="10"
     d="M119.4,61.6c0,0-1.6,18.3-6.1,21.5s-15.8,5.1-28.9,1.6  c-13.1-3.5-17.7-7.1-17.7-17.4s1.6-23.6,4.8-27.3s9.1-4.7,9.1-4.7"
     id="path11"
     style="stroke:#000000;stroke-opacity:1;stroke-linejoin:round;stroke-linecap:round" /><path
     fill="none"
     stroke="#231815"
     stroke-miterlimit="10"
     d="M51.6,55.3c2.5-0.9,7.5-0.5,8.3,1.5c0.8,2,2.1,13-1.3,20.7  c-3.5,7.8-9.6,15.8-11.8,15.5c-2.1-0.3-6.2-1.6-3.5-15.5C46,63.6,49.6,56,51.6,55.3z"
     id="path13"
     style="stroke:#000000;stroke-opacity:1;stroke-linejoin:round;stroke-linecap:round" /><path
     fill="none"
     stroke="#231815"
     stroke-miterlimit="10"
     d="M54.8,54.8c0,0,11.6-10.6,14.9-11.6"
     id="path15"
     style="stroke:#000000;stroke-opacity:1;stroke-linejoin:round;stroke-linecap:round" /><path
     fill="none"
     stroke="#231815"
     stroke-miterlimit="10"
     d="M60.8,62c0,0,4.4-5.8,6.6-7.2"
     id="path17"
     style="stroke:#000000;stroke-opacity:1;stroke-linejoin:round;stroke-linecap:round" /><polyline
     fill="none"
     stroke="#231815"
     stroke-miterlimit="10"
     points="94.2,86.5 96.5,127.6 100.9,134.5 107.8,132.7 112,83.9 "
     id="polyline19"
     style="stroke:#000000;stroke-opacity:1;stroke-linejoin:round;stroke-linecap:round" /><polyline
     fill="none"
     stroke="#231815"
     stroke-miterlimit="10"
     points="84.3,84.7 69.8,98.7 69.8,117.7 59.1,124.9 49.8,122.8   56.2,93.1 75,81.6 "
     id="polyline21"
     style="stroke:#000000;stroke-opacity:1;stroke-linejoin:round;stroke-linecap:round" /><path
     fill="none"
     stroke="#231815"
     stroke-miterlimit="10"
     d="M69.8,109.2c0,0,9.9,0.4,10.1,4.4c0.2,4-15.8,21.5-19,22.4  s-22-1.5-22.3-5.8c-0.3-4.3,12.6-14,12.6-14"
     id="path23"
     style="stroke:#000000;stroke-opacity:1;stroke-linejoin:round;stroke-linecap:round" /><path
     fill="none"
     stroke="#231815"
     stroke-miterlimit="10"
     d="M96.1,120.6c0,0-5.4-0.3-6.5,2.1c-1.1,2.5,7.8,23.3,10.2,24.4  c2.4,1.1,18.2,0.5,19.5-1.1c1.3-1.6-4.3-14.2-10.9-21.1"
     id="path25"
     style="stroke:#000000;stroke-opacity:1;stroke-linejoin:round;stroke-linecap:round" /><polygon
     fill="none"
     stroke="#231815"
     stroke-miterlimit="10"
     points="38.5,101.1 38.5,107.8 28.9,107.8 28.9,112.5 20.3,103.2   29.4,94.7 29.4,101.1 "
     id="polygon27"
     style="stroke:#000000;stroke-opacity:1;stroke-linejoin:round;stroke-linecap:round" /><circle
     fill="none"
     stroke="#231815"
     stroke-miterlimit="10"
     cx="103.1"
     cy="28.5"
     r="2.7"
     id="circle29"
     style="stroke:#000000;stroke-opacity:1;stroke-linejoin:round;stroke-linecap:round" /><circle
     fill="none"
     stroke="#231815"
     stroke-miterlimit="10"
     cx="87"
     cy="27"
     r="2.7"
     id="circle31"
     style="stroke:#000000;stroke-opacity:1;stroke-linejoin:round;stroke-linecap:round" /></svg>